<?xml version="1.0" encoding="UTF-8"?>
<svg width="860px" height="500px" viewBox="0 0 860 500" version="1.1" xmlns="http://www.w3.org/2000/svg" xmlns:xlink="http://www.w3.org/1999/xlink">
    <!-- Generator: Sketch 59.1 (86144) - https://sketch.com -->
    <title>caseStudy_Consistent_Improvement  </title>
    <desc>Created with Sketch.</desc>
    <defs>
        <linearGradient x1="0%" y1="66.9010276%" x2="100%" y2="33.0989724%" id="linearGradient-1">
            <stop stop-color="#FFFFFF" offset="0%"></stop>
            <stop stop-color="#E6F2FB" offset="100%"></stop>
        </linearGradient>
        <polygon id="path-2" points="0.231578947 0.0105879934 25.2631579 0.0105879934 25.2631579 25.2737459 0.231578947 25.2737459"></polygon>
    </defs>
    <g id="caseStudy_Consistent_Improvement--" stroke="none" stroke-width="1" fill="none" fill-rule="evenodd">
        <rect fill="#FFFFFF" x="0" y="0" width="860" height="500"></rect>
        <rect id="Rectangle" fill="url(#linearGradient-1)" x="0" y="0" width="860" height="500"></rect>
        <g id="Group-61" transform="translate(60.000000, 80.500039)">
            <path d="M44.7368421,249.210534 L701.578968,249.210534 M44.7368421,202.052638 L701.578968,202.052638 M44.7368421,154.894741 L701.578968,154.894741 M44.7368421,109.421056 L701.578968,109.421056 M44.7368421,62.2631594 L701.578968,62.2631594 M44.7368421,15.1052632 L701.578968,15.1052632" id="Stroke-1" stroke="#E4E2E2" stroke-width="2" stroke-linejoin="round"></path>
            <path d="M82.6315789,258.473684 L116.315789,258.473684 L116.315789,295.526316 L82.6315789,295.526316 L82.6315789,258.473684 Z M192.105263,216.368421 L225.789474,216.368421 L225.789474,295.526316 L192.105263,295.526316 L192.105263,216.368421 Z M301.578947,182.684211 L335.263158,182.684211 L335.263158,295.526316 L301.578947,295.526316 L301.578947,182.684211 Z M411.052632,127.105263 L444.736842,127.105263 L444.736842,295.526316 L411.052632,295.526316 L411.052632,127.105263 Z M520.526316,90.0526316 L554.210526,90.0526316 L554.210526,295.526316 L520.526316,295.526316 L520.526316,90.0526316 Z M630,53 L663.684211,53 L663.684211,295.526316 L630,295.526316 L630,53 Z" id="Fill-3" fill="#AA52A5"></path>
            <line x1="44.7368421" y1="294.684211" x2="701.578968" y2="294.684343" id="Stroke-5" stroke="#E4E2E2" stroke-width="2" stroke-linejoin="round"></line>
            <polyline id="Stroke-7" stroke="#AFC22E" stroke-width="2" stroke-linecap="round" stroke-linejoin="round" points="99.4736842 127.105266 208.947372 117.000002 318.42106 100.157896 427.894747 85.0000011 537.368435 58.0526318 646.842123 49.6315789"></polyline>
            <text id="400" font-family="Lato-Regular, Lato" font-size="14" font-weight="normal" fill="#484341">
                <tspan x="84.4212211" y="240.578999">400</tspan>
            </text>
            <text id="850" font-family="Lato-Regular, Lato" font-size="14" font-weight="normal" fill="#484341">
                <tspan x="194.055074" y="198.473736">850</tspan>
            </text>
            <text id="1200" font-family="Lato-Regular, Lato" font-size="14" font-weight="normal" fill="#484341">
                <tspan x="298.804884" y="166.473736">1200</tspan>
            </text>
            <text id="1800" font-family="Lato-Regular, Lato" font-size="14" font-weight="normal" fill="#484341">
                <tspan x="408.438737" y="110.894788">1800</tspan>
            </text>
            <text id="2200" font-family="Lato-Regular, Lato" font-size="14" font-weight="normal" fill="#484341">
                <tspan x="518.072758" y="73.8421567">2200</tspan>
            </text>
            <text id="2600" font-family="Lato-Regular, Lato" font-size="14" font-weight="normal" fill="#484341">
                <tspan x="627.706611" y="35.1053146">2600</tspan>
            </text>
            <path d="M99.9207916,259.655074 L99.9231495,259.654164 C100.575613,259.407242 100.904354,258.678147 100.657432,258.025684 C100.410493,257.373221 99.6813979,257.04448 99.0289347,257.291402 L99.0265768,257.292295 C98.3741137,257.539234 98.0453726,258.268328 98.2922947,258.920792 C98.5392337,259.573255 99.2683284,259.901996 99.9207916,259.655074 Z M104.648707,257.865735 L104.651065,257.864842 C105.303512,257.617903 105.632253,256.888792 105.385314,256.236345 C105.138375,255.583882 104.409263,255.255158 103.756817,255.502097 L103.754442,255.502989 C103.101996,255.749928 102.773255,256.47904 103.020194,257.131486 C103.267149,257.783949 103.996244,258.112674 104.648707,257.865735 Z M109.376455,256.076463 L109.378813,256.075571 C110.031293,255.828699 110.360118,255.099638 110.113246,254.447158 C109.866392,253.794678 109.137331,253.465853 108.484834,253.712707 L108.482476,253.7136 C107.829996,253.960472 107.501171,254.689533 107.748042,255.342013 C107.994897,255.994509 108.723958,256.323335 109.376455,256.076463 Z M114.104337,254.287141 L114.106695,254.286248 C114.759192,254.039377 115.088,253.310316 114.841145,252.657836 C114.594274,252.005356 113.865213,251.676531 113.212733,251.923385 L113.210375,251.924278 C112.557878,252.171149 112.229069,252.900211 112.475924,253.552691 C112.722796,254.205187 113.451857,254.533996 114.104337,254.287141 Z M118.832337,252.497752 L118.834695,252.496859 C119.487158,252.249903 119.815916,251.520792 119.569011,250.868328 C119.321937,250.215882 118.592842,249.887175 117.940446,250.134131 L117.938088,250.135023 C117.285642,250.381979 116.956918,251.111091 117.203874,251.763537 C117.450829,252.416 118.179874,252.744707 118.832337,252.497752 Z M123.560253,250.708429 L123.562611,250.707537 C124.215074,250.460581 124.543832,249.731453 124.296926,249.079006 C124.049853,248.42656 123.320758,248.097768 122.668295,248.344842 L122.665937,248.345684 C122.013474,248.592657 121.684884,249.321768 121.931789,249.974215 C122.178695,250.626661 122.907789,250.955385 123.560253,250.708429 Z M128.288168,248.919107 L128.290526,248.918215 C128.942989,248.671242 129.271747,247.942147 129.024674,247.289684 C128.777768,246.637221 128.048674,246.308463 127.396211,246.555537 L127.393853,246.556379 C126.741389,246.803284 126.412632,247.532379 126.659705,248.184842 C126.906611,248.837339 127.635705,249.166063 128.288168,248.919107 Z M133.016084,247.129853 L133.018442,247.128842 C133.670905,246.881937 133.999663,246.152842 133.752589,245.500379 C133.505684,244.847916 132.776589,244.519158 132.124126,244.766232 L132.121768,244.767074 C131.469305,245.013979 131.140547,245.743074 131.387621,246.395537 C131.634526,247.048 132.363621,247.376758 133.016084,247.129853 Z M137.744,245.340379 L137.746358,245.339537 C138.398821,245.092632 138.727411,244.363537 138.480505,243.711074 C138.2336,243.058611 137.504505,242.729853 136.852042,242.976758 L136.849684,242.977768 C136.197221,243.224674 135.868463,243.953768 136.115368,244.606232 C136.362442,245.258695 137.091537,245.587453 137.744,245.340379 Z M142.471916,243.551074 L142.474274,243.550232 C143.126568,243.303326 143.455326,242.574232 143.208421,241.921768 C142.961516,241.269305 142.232421,240.940547 141.579958,241.187453 L141.5776,241.188463 C140.925137,241.435368 140.596379,242.164463 140.843284,242.816926 C141.090358,243.469389 141.819453,243.798147 142.471916,243.551074 Z M147.200168,241.7616 L147.202526,241.760758 C147.854821,241.513516 148.183411,240.784253 147.936168,240.131958 C147.688926,239.479663 146.959663,239.151074 146.307368,239.398316 L146.305011,239.399326 C145.652547,239.6464 145.324126,240.375663 145.571368,241.028126 C145.818611,241.680421 146.547874,242.008842 147.200168,241.7616 Z M151.928084,239.972295 L151.930442,239.971453 C152.582737,239.724211 152.911158,238.994947 152.664084,238.342653 C152.416842,237.690189 151.687579,237.361768 151.035284,237.609011 L151.032926,237.609853 C150.380463,237.857095 150.052042,238.586358 150.299284,239.238653 C150.546526,239.891116 151.275789,240.219537 151.928084,239.972295 Z M156.656,238.182989 L156.658358,238.182147 C157.310653,237.934905 157.639074,237.205642 157.391832,236.553347 C157.144758,235.900884 156.415495,235.572463 155.763032,235.819705 L155.760674,235.820547 C155.108379,236.067789 154.779958,236.797053 155.0272,237.449347 C155.274442,238.101811 156.003537,238.430232 156.656,238.182989 Z M161.383916,236.393684 L161.386274,236.392842 C162.038568,236.1456 162.366989,235.416337 162.119747,234.764042 C161.872505,234.111579 161.143411,233.783158 160.490947,234.0304 L160.488589,234.031242 C159.836295,234.278484 159.507874,235.007747 159.755116,235.660042 C160.002189,236.312505 160.731453,236.640926 161.383916,236.393684 Z M166.111663,234.604379 L166.114021,234.603368 C166.766484,234.356295 167.094905,233.627032 166.847663,232.974568 C166.600421,232.322274 165.871158,231.993853 165.218863,232.241095 L165.216505,232.241937 C164.564211,232.489179 164.235789,233.218442 164.482863,233.870737 C164.730105,234.523032 165.459368,234.851621 166.111663,234.604379 Z M170.839579,232.815074 L170.841937,232.814063 C171.4944,232.566989 171.822821,231.837726 171.575579,231.185263 C171.328337,230.532968 170.599074,230.204547 169.946779,230.451789 L169.944421,230.452632 C169.292126,230.699874 168.963537,231.429137 169.210779,232.081432 C169.458021,232.733726 170.187284,233.062147 170.839579,232.815074 Z M175.567495,231.025768 L175.569853,231.024758 C176.222147,230.777516 176.550737,230.048421 176.303495,229.395958 C176.056253,228.743663 175.326989,228.415242 174.674695,228.662484 L174.672337,228.663326 C174.019874,228.910568 173.691453,229.639832 173.938695,230.292126 C174.185937,230.944421 174.9152,231.272842 175.567495,231.025768 Z M180.295411,229.236295 L180.297768,229.235453 C180.950063,228.988211 181.278484,228.258947 181.031411,227.606653 C180.784168,226.954358 180.054905,226.625937 179.402611,226.873011 L179.400253,226.874021 C178.747789,227.121263 178.419368,227.850358 178.666611,228.502821 C178.913853,229.155116 179.643116,229.483537 180.295411,229.236295 Z M185.023326,227.446989 L185.025684,227.446147 C185.677979,227.198905 186.0064,226.469642 185.759158,225.817347 C185.512084,225.165053 184.782821,224.836632 184.130358,225.083705 L184.128,225.084716 C183.475705,225.331789 183.147284,226.061053 183.394526,226.713516 C183.641768,227.365811 184.370863,227.694232 185.023326,227.446989 Z M189.751242,225.657684 L189.7536,225.656842 C190.405895,225.4096 190.734316,224.680337 190.487074,224.028042 C190.24,223.375579 189.510737,223.047158 188.858274,223.2944 L188.855916,223.295411 C188.203621,223.542484 187.8752,224.271747 188.122442,224.924211 C188.369516,225.576505 189.098779,225.904926 189.751242,225.657684 Z M194.478989,223.868379 L194.481516,223.867537 C195.133811,223.620295 195.462232,222.891032 195.214989,222.238737 C194.967747,221.586274 194.238484,221.257853 193.586189,221.505095 L193.583832,221.505937 C192.931537,221.753179 192.603116,222.482442 192.850189,223.134737 C193.097432,223.7872 193.826695,224.115621 194.478989,223.868379 Z M199.206905,222.079074 L199.209263,222.078232 C199.861726,221.830989 200.190147,221.101726 199.942905,220.449432 C199.695663,219.796968 198.9664,219.468547 198.314105,219.715789 L198.311747,219.716632 C197.659453,219.963874 197.331032,220.693137 197.578105,221.345432 C197.825347,221.997895 198.554611,222.326316 199.206905,222.079074 Z M203.934821,220.289768 L203.937179,220.288926 C204.589642,220.041684 204.918063,219.312421 204.670821,218.659958 C204.423579,218.007663 203.694316,217.679242 203.042021,217.926484 L203.039663,217.927326 C202.3872,218.174568 202.058779,218.903832 202.306021,219.556126 C202.553263,220.208589 203.282526,220.537011 203.934821,220.289768 Z M208.662737,218.500463 L208.665095,218.499453 C209.317389,218.252379 209.645811,217.523116 209.398737,216.870653 C209.151495,216.218358 208.422232,215.889937 207.769937,216.137179 L207.767579,216.138021 C207.115116,216.385263 206.786695,217.114526 207.033937,217.766821 C207.281179,218.419116 208.010442,218.747537 208.662737,218.500463 Z M213.390653,216.711158 L213.393011,216.710147 C214.045305,216.462905 214.373726,215.733811 214.126653,215.081347 C213.879411,214.429053 213.150147,214.100632 212.497853,214.347874 L212.495495,214.348716 C211.843032,214.595958 211.514611,215.325221 211.761853,215.977516 C212.009095,216.629811 212.738358,216.958232 213.390653,216.711158 Z M218.118568,214.921684 L218.120926,214.920842 C218.773221,214.6736 219.101642,213.944505 218.8544,213.292042 C218.607326,212.639747 217.878063,212.311326 217.2256,212.5584 L217.223242,212.559411 C216.570947,212.806653 216.242526,213.535747 216.489768,214.188211 C216.737011,214.840505 217.466105,215.168926 218.118568,214.921684 Z M222.846484,213.132379 L222.848842,213.131537 C223.501137,212.884295 223.829558,212.155032 223.582316,211.502737 C223.335074,210.850442 222.605979,210.522021 221.953516,210.769095 L221.951158,210.770105 C221.298863,211.017347 220.970442,211.746442 221.217684,212.398905 C221.464758,213.0512 222.194021,213.379621 222.846484,213.132379 Z M227.574232,211.343074 L227.576589,211.342232 C228.229053,211.094989 228.557474,210.365726 228.310232,209.713432 C228.062989,209.061137 227.333726,208.732547 226.681432,208.979789 L226.679074,208.9808 C226.026779,209.227874 225.698358,209.957137 225.945432,210.6096 C226.192674,211.261895 226.921937,211.590316 227.574232,211.343074 Z M232.302147,209.553768 L232.304505,209.552926 C232.956968,209.305684 233.285389,208.576421 233.038147,207.924126 C232.790905,207.271663 232.061642,206.943242 231.409347,207.190484 L231.406989,207.191326 C230.754695,207.438568 230.426274,208.167832 230.673347,208.820126 C230.920589,209.472589 231.649853,209.801011 232.302147,209.553768 Z M237.030063,207.764463 L237.032421,207.763621 C237.684884,207.516379 238.013305,206.787116 237.766063,206.134821 C237.518821,205.482358 236.789558,205.153937 236.137263,205.401179 L236.134905,205.402021 C235.482442,205.649263 235.154021,206.378526 235.401263,207.030821 C235.648505,207.683284 236.377768,208.011705 237.030063,207.764463 Z M241.756632,205.975663 L241.758989,205.974821 C242.411621,205.728253 242.740884,204.999495 242.494484,204.346863 C242.247916,203.694232 241.519158,203.364968 240.866526,203.611368 L240.864168,203.612211 C240.211537,203.858611 239.882274,204.587537 240.128674,205.240168 C240.375074,205.8928 241.104,206.222063 241.756632,205.975663 Z M246.484547,204.186358 L246.486905,204.185516 C247.139537,203.938947 247.4688,203.210189 247.2224,202.557558 C246.975832,201.904926 246.247074,201.575495 245.594442,201.822063 L245.592084,201.822905 C244.939453,202.069305 244.610021,202.798232 244.856589,203.450863 C245.102989,204.103495 245.831916,204.432758 246.484547,204.186358 Z M251.212463,202.397053 L251.214821,202.396042 C251.867453,202.149642 252.196716,201.420884 251.950316,200.768084 C251.703747,200.115453 250.974989,199.786189 250.322358,200.032758 L250.32,200.0336 C249.6672,200.28 249.337937,201.008926 249.584505,201.661558 C249.830905,202.314189 250.559832,202.643453 251.212463,202.397053 Z M255.940211,200.607747 L255.942568,200.606737 C256.595368,200.360337 256.924632,199.631411 256.678063,198.978779 C256.431663,198.326147 255.702737,197.996884 255.050105,198.243284 L255.047747,198.244295 C254.395116,198.490695 254.065853,199.219621 254.312253,199.872253 C254.558821,200.524884 255.287579,200.854147 255.940211,200.607747 Z M260.668126,198.818442 L260.670484,198.817432 C261.323116,198.571032 261.652547,197.842105 261.405979,197.189474 C261.159579,196.536842 260.430653,196.207579 259.778021,196.453979 L259.775663,196.454989 C259.123032,196.701389 258.793768,197.430316 259.040168,198.082947 C259.286737,198.735579 260.015495,199.064842 260.668126,198.818442 Z M265.396042,197.028968 L265.3984,197.028126 C266.051032,196.781726 266.380295,196.0528 266.133895,195.400168 C265.887495,194.747537 265.158568,194.418274 264.505937,194.664674 L264.503579,194.665684 C263.850947,194.912084 263.521684,195.641011 263.768084,196.293642 C264.014653,196.946274 264.743411,197.275537 265.396042,197.028968 Z M270.123958,195.239663 L270.126316,195.238821 C270.778947,194.992421 271.108211,194.263495 270.861811,193.610863 C270.615411,192.958232 269.886484,192.628968 269.233853,192.875368 L269.231495,192.876211 C268.578863,193.122779 268.2496,193.851537 268.496,194.504168 C268.7424,195.1568 269.471326,195.486232 270.123958,195.239663 Z M274.851874,193.450358 L274.854232,193.449516 C275.506863,193.203116 275.836126,192.474189 275.589726,191.821558 C275.343158,191.168926 274.6144,190.839663 273.961768,191.086063 L273.959411,191.086905 C273.306779,191.333474 272.977516,192.062232 273.223916,192.714863 C273.470316,193.367495 274.199242,193.696758 274.851874,193.450358 Z M279.579789,191.661053 L279.582147,191.660211 C280.234779,191.413642 280.564042,190.684884 280.317642,190.032253 C280.071074,189.379621 279.342316,189.050358 278.689684,189.296758 L278.687326,189.2976 C278.034695,189.544168 277.705263,190.272926 277.951832,190.925558 C278.198232,191.578189 278.927158,191.907453 279.579789,191.661053 Z M284.307537,189.871747 L284.310063,189.870905 C284.962695,189.624337 285.291958,188.895579 285.045389,188.242947 C284.798989,187.590316 284.070232,187.261053 283.4176,187.507453 L283.415074,187.508295 C282.762442,187.754695 282.433179,188.483621 282.679747,189.136253 C282.926147,189.788884 283.654905,190.118147 284.307537,189.871747 Z M289.035453,188.082442 L289.037811,188.081432 C289.690611,187.835032 290.019874,187.106274 289.773305,186.453642 C289.526905,185.801011 288.797979,185.471579 288.145347,185.718147 L288.142989,185.718989 C287.490358,185.965389 287.161095,186.694316 287.407495,187.346947 C287.654063,187.999579 288.382821,188.328842 289.035453,188.082442 Z M293.763368,186.293137 L293.765726,186.292126 C294.418358,186.045726 294.747621,185.3168 294.501221,184.664168 C294.254821,184.011537 293.525895,183.682274 292.873263,183.928842 L292.870905,183.929684 C292.218274,184.176084 291.889011,184.905011 292.135411,185.557642 C292.381979,186.210274 293.110737,186.539537 293.763368,186.293137 Z M298.491284,184.503832 L298.493642,184.502821 C299.146274,184.256421 299.475537,183.527495 299.229137,182.874863 C298.982737,182.222232 298.253811,181.892968 297.601179,182.139368 L297.598821,182.140379 C296.946189,182.386779 296.616926,183.115705 296.863326,183.768337 C297.109726,184.420968 297.838653,184.750232 298.491284,184.503832 Z M303.2192,182.714358 L303.221558,182.713516 C303.874189,182.467116 304.203453,181.738189 303.957053,181.085558 C303.710653,180.432926 302.981726,180.103663 302.329095,180.350063 L302.326737,180.351074 C301.674105,180.597474 301.344842,181.3264 301.591242,181.979032 C301.837642,182.631663 302.566568,182.960926 303.2192,182.714358 Z M307.947116,180.925053 L307.949474,180.924211 C308.602105,180.677811 308.931368,179.948884 308.684968,179.296253 C308.4384,178.643621 307.709642,178.314358 307.057011,178.560758 L307.054653,178.561768 C306.402021,178.808168 306.072758,179.536926 306.319158,180.189726 C306.565558,180.842358 307.294484,181.171621 307.947116,180.925053 Z M312.675032,179.135747 L312.677389,179.134905 C313.330021,178.888505 313.659284,178.159579 313.412884,177.506947 C313.166316,176.854316 312.437558,176.525053 311.784926,176.771453 L311.782568,176.772295 C311.129768,177.018863 310.800505,177.747621 311.047074,178.400253 C311.293474,179.052884 312.0224,179.382316 312.675032,179.135747 Z M317.402779,177.346442 L317.405305,177.3456 C318.057937,177.0992 318.3872,176.370274 318.140632,175.717642 C317.894232,175.065011 317.165474,174.735747 316.512842,174.982147 L316.510316,174.982989 C315.857684,175.229558 315.528421,175.958316 315.774989,176.610947 C316.021389,177.263579 316.750147,177.592842 317.402779,177.346442 Z M322.130695,175.557137 L322.133053,175.556295 C322.785684,175.309726 323.115116,174.580968 322.868547,173.928337 C322.622147,173.275705 321.893221,172.946442 321.240589,173.192842 L321.238232,173.193684 C320.5856,173.440253 320.256337,174.169011 320.502737,174.821642 C320.749305,175.474274 321.478063,175.803537 322.130695,175.557137 Z M326.858611,173.767832 L326.860968,173.766989 C327.5136,173.520421 327.842863,172.791663 327.596463,172.139032 C327.350063,171.4864 326.621137,171.156968 325.968505,171.403537 L325.966147,171.404379 C325.313516,171.650779 324.984253,172.379705 325.230653,173.032337 C325.477221,173.684968 326.205979,174.014232 326.858611,173.767832 Z M331.586526,171.978526 L331.588884,171.977516 C332.241516,171.731116 332.570779,171.002358 332.324379,170.349726 C332.077979,169.696926 331.349053,169.367663 330.696421,169.614232 L330.694063,169.615074 C330.041432,169.861474 329.712168,170.5904 329.958568,171.243032 C330.204968,171.895663 330.933895,172.224926 331.586526,171.978526 Z M336.314442,170.189221 L336.3168,170.188211 C336.969432,169.941811 337.298695,169.212884 337.052295,168.560253 C336.805726,167.907621 336.076968,167.578358 335.424337,167.824926 L335.421979,167.825768 C334.769347,168.072168 334.440084,168.801095 334.686484,169.453726 C334.932884,170.106358 335.661811,170.435621 336.314442,170.189221 Z M341.042358,168.399916 L341.044716,168.398905 C341.697347,168.152505 342.026611,167.423579 341.780211,166.770947 C341.533642,166.118316 340.804884,165.789053 340.152253,166.035453 L340.149895,166.036463 C339.497263,166.282863 339.167832,167.011789 339.4144,167.664421 C339.6608,168.317053 340.389726,168.646316 341.042358,168.399916 Z M345.770274,166.610442 L345.772632,166.6096 C346.425263,166.3632 346.754526,165.634274 346.508126,164.981642 C346.261558,164.329011 345.5328,163.999747 344.880168,164.246147 L344.877811,164.247158 C344.225011,164.493558 343.895747,165.222484 344.142316,165.875116 C344.388716,166.527747 345.117642,166.857011 345.770274,166.610442 Z M350.498021,164.821137 L350.500379,164.820295 C351.153179,164.573895 351.482442,163.844968 351.235874,163.192337 C350.989474,162.539705 350.260547,162.210442 349.607916,162.456842 L349.605558,162.457853 C348.952926,162.704253 348.623663,163.433011 348.870063,164.085642 C349.116632,164.738442 349.845389,165.067705 350.498021,164.821137 Z M355.225937,163.031832 L355.228295,163.030989 C355.880926,162.784589 356.210358,162.055663 355.963789,161.403032 C355.717389,160.7504 354.988463,160.421137 354.335832,160.667537 L354.333474,160.668379 C353.680842,160.914947 353.351579,161.643705 353.597979,162.296337 C353.844547,162.948968 354.573305,163.2784 355.225937,163.031832 Z M359.953853,161.242526 L359.956211,161.241684 C360.608842,160.995116 360.938105,160.266358 360.691705,159.613726 C360.445305,158.961095 359.716379,158.631832 359.063747,158.878232 L359.061389,158.879074 C358.408758,159.125642 358.079495,159.8544 358.325895,160.507032 C358.572463,161.159663 359.301221,161.488926 359.953853,161.242526 Z M364.681768,159.453221 L364.684126,159.452379 C365.336758,159.205811 365.666021,158.477053 365.419621,157.824421 C365.173221,157.171789 364.444295,156.842526 363.791663,157.088926 L363.789305,157.089768 C363.136674,157.336168 362.807411,158.065095 363.053811,158.717726 C363.300211,159.370358 364.029137,159.699621 364.681768,159.453221 Z M369.409684,157.663916 L369.412042,157.663074 C370.064674,157.416505 370.393937,156.687747 370.147537,156.035116 C369.900968,155.382484 369.172211,155.053053 368.519579,155.299621 L368.517221,155.300463 C367.864589,155.546863 367.535326,156.275789 367.781726,156.928421 C368.028126,157.581053 368.757053,157.910316 369.409684,157.663916 Z M374.1376,155.874611 L374.139958,155.8736 C374.792589,155.6272 375.121853,154.898442 374.875453,154.245642 C374.628884,153.593011 373.900126,153.263747 373.247495,153.510316 L373.245137,153.511158 C372.592505,153.757558 372.263074,154.486484 372.509642,155.139116 C372.756042,155.791747 373.484968,156.121011 374.1376,155.874611 Z M378.868211,154.084126 L378.870568,154.083284 C379.522526,153.835368 379.850105,153.105768 379.602189,152.453642 C379.354274,151.801516 378.624674,151.473937 377.972547,151.722021 L377.970189,151.722863 C377.318232,151.970779 376.990484,152.700379 377.238568,153.352505 C377.486484,154.004632 378.216084,154.332211 378.868211,154.084126 Z M383.596126,152.294821 L383.598484,152.293979 C384.250442,152.046063 384.578021,151.316463 384.330105,150.664337 C384.082189,150.012211 383.352421,149.684632 382.700463,149.932716 L382.698105,149.933558 C382.045979,150.181474 381.7184,150.911074 381.966316,151.5632 C382.2144,152.215326 382.944,152.542905 383.596126,152.294821 Z M388.323874,150.505516 L388.326232,150.504674 C388.978358,150.256758 389.305937,149.526989 389.058021,148.875032 C388.809937,148.222905 388.080337,147.895326 387.428211,148.143242 L387.425853,148.144253 C386.773895,148.392168 386.446316,149.121768 386.694232,149.773895 C386.942147,150.426021 387.671916,150.7536 388.323874,150.505516 Z M393.051789,148.716211 L393.054147,148.715368 C393.706105,148.467284 394.033684,147.737684 393.785768,147.085726 C393.537853,146.4336 392.808253,146.106021 392.156126,146.353937 L392.153768,146.354947 C391.501811,146.602863 391.174063,147.332463 391.422147,147.984589 C391.670063,148.636547 392.399663,148.964126 393.051789,148.716211 Z M397.779705,146.926905 L397.782063,146.926063 C398.434021,146.677979 398.7616,145.948379 398.513684,145.296421 C398.265768,144.644295 397.536,144.316716 396.884042,144.564632 L396.881684,144.565642 C396.229558,144.813558 395.901979,145.543158 396.150063,146.195284 C396.397979,146.847242 397.127579,147.174821 397.779705,146.926905 Z M402.507621,145.1376 L402.509979,145.136758 C403.161937,144.888674 403.489516,144.159074 403.2416,143.507116 C402.993684,142.854989 402.263916,142.527411 401.611958,142.775326 L401.6096,142.776168 C400.957474,143.024253 400.629895,143.753853 400.877811,144.405979 C401.125895,145.057937 401.855495,145.385516 402.507621,145.1376 Z M407.235368,143.348295 L407.237726,143.347284 C407.889853,143.099368 408.217432,142.369768 407.969516,141.717642 C407.721432,141.065684 406.991832,140.738105 406.339705,140.986021 L406.337347,140.986863 C405.685389,141.234947 405.357811,141.964547 405.605726,142.616505 C405.853642,143.268632 406.583411,143.596211 407.235368,143.348295 Z M411.963284,141.558989 L411.965642,141.557979 C412.617768,141.310063 412.945347,140.580463 412.697263,139.928337 C412.449347,139.276379 411.719747,138.9488 411.067621,139.196716 L411.065263,139.197558 C410.413305,139.445642 410.085726,140.175242 410.333642,140.8272 C410.581558,141.479326 411.311158,141.806905 411.963284,141.558989 Z M416.6912,139.769684 L416.693558,139.768674 C417.345516,139.520758 417.673095,138.791158 417.425179,138.139032 C417.177263,137.487074 416.447663,137.159326 415.795537,137.407411 L415.793179,137.408253 C415.141221,137.656168 414.813642,138.385937 415.061558,139.037895 C415.309474,139.690021 416.039074,140.0176 416.6912,139.769684 Z M421.419116,137.980211 L421.421474,137.979368 C422.073432,137.731453 422.401011,137.001853 422.153095,136.349726 C421.905179,135.6976 421.175411,135.370021 420.523453,135.618105 L420.521095,135.618947 C419.868968,135.866863 419.541389,136.596463 419.789305,137.248589 C420.037389,137.900716 420.766989,138.228295 421.419116,137.980211 Z M426.146863,136.190905 L426.149221,136.190063 C426.801347,135.942147 427.128926,135.212547 426.881011,134.560421 C426.632926,133.908295 425.903326,133.580716 425.251368,133.8288 L425.249011,133.829642 C424.596884,134.077558 424.269305,134.807158 424.517221,135.459284 C424.765305,136.111411 425.494905,136.438989 426.146863,136.190905 Z M430.874779,134.4016 L430.877137,134.400758 C431.529263,134.152842 431.856842,133.423074 431.608926,132.771116 C431.360842,132.118989 430.631242,131.791411 429.979116,132.039326 L429.976758,132.040337 C429.3248,132.288253 428.997221,133.017853 429.245137,133.669979 C429.493053,134.321937 430.222821,134.649684 430.874779,134.4016 Z M435.602695,132.612295 L435.605053,132.611453 C436.257011,132.363368 436.584589,131.633768 436.336674,130.981811 C436.088758,130.329684 435.359158,130.002105 434.707032,130.250021 L434.704674,130.251032 C434.052716,130.498947 433.725137,131.228547 433.973053,131.880674 C434.220968,132.532632 434.950568,132.860211 435.602695,132.612295 Z M440.330611,130.822989 L440.332968,130.822147 C440.984926,130.574063 441.312505,129.844463 441.064589,129.192505 C440.816674,128.540379 440.087074,128.2128 439.434947,128.460716 L439.432589,128.461726 C438.780463,128.709642 438.452884,129.439242 438.700968,130.091368 C438.948884,130.743326 439.678484,131.070905 440.330611,130.822989 Z M445.058358,129.033684 L445.060716,129.032842 C445.712842,128.784758 446.040421,128.055158 445.792505,127.403032 C445.544589,126.751074 444.814821,126.423495 444.162863,126.671411 L444.160505,126.672253 C443.508379,126.920337 443.1808,127.649937 443.428716,128.302063 C443.6768,128.954021 444.4064,129.2816 445.058358,129.033684 Z M449.786274,127.244379 L449.788632,127.243368 C450.440758,126.995453 450.768337,126.265853 450.520421,125.613726 C450.272337,124.961768 449.542737,124.634189 448.890611,124.882105 L448.888253,124.882947 C448.236295,125.131032 447.908716,125.860632 448.156632,126.512589 C448.404547,127.164716 449.134316,127.492295 449.786274,127.244379 Z M454.514189,125.455074 L454.516547,125.454063 C455.168505,125.206147 455.496084,124.476547 455.248168,123.824421 C455.000253,123.172463 454.270653,122.844884 453.618526,123.0928 L453.616168,123.093642 C452.964211,123.341726 452.636632,124.071326 452.884547,124.723284 C453.132463,125.375411 453.862063,125.702989 454.514189,125.455074 Z M459.242105,123.665768 L459.244463,123.664758 C459.896421,123.416842 460.224,122.687242 459.976084,122.035116 C459.728168,121.382989 458.998568,121.055411 458.346442,121.303495 L458.344084,121.304337 C457.691958,121.552253 457.364379,122.282021 457.612463,122.933979 C457.860379,123.586105 458.589979,123.913684 459.242105,123.665768 Z M463.970021,121.876295 L463.972379,121.875453 C464.624337,121.627537 464.951916,120.897937 464.704,120.245811 C464.456084,119.593684 463.726316,119.266105 463.074358,119.514189 L463.072,119.515032 C462.419874,119.762947 462.092295,120.492547 462.340379,121.144674 C462.588295,121.7968 463.317895,122.124379 463.970021,121.876295 Z M468.697768,120.086989 L468.700126,120.086147 C469.352253,119.838232 469.679832,119.108632 469.431916,118.456505 C469.183832,117.804379 468.454232,117.4768 467.802105,117.724884 L467.799747,117.725726 C467.147789,117.973642 466.820211,118.703242 467.068126,119.355368 C467.316042,120.007495 468.045811,120.335074 468.697768,120.086989 Z M473.425684,118.297684 L473.428042,118.296842 C474.08,118.048926 474.407747,117.319158 474.159663,116.6672 C473.911747,116.015074 473.182147,115.687495 472.530021,115.935411 L472.527663,115.936421 C471.875705,116.184337 471.548126,116.913937 471.796042,117.566063 C472.043958,118.218021 472.773558,118.545768 473.425684,118.297684 Z M478.1536,116.508379 L478.155958,116.507537 C478.807916,116.259453 479.135495,115.529853 478.887579,114.877895 C478.639663,114.225768 477.910063,113.898189 477.257937,114.146105 L477.255579,114.147116 C476.603453,114.395032 476.275874,115.124632 476.523958,115.776758 C476.771874,116.428716 477.501474,116.756295 478.1536,116.508379 Z M482.881516,114.719074 L482.883874,114.718232 C483.535832,114.470147 483.863411,113.740547 483.615495,113.088589 C483.367579,112.436463 482.637811,112.108884 481.985853,112.3568 L481.983495,112.357811 C481.331368,112.605726 481.003789,113.335326 481.251874,113.987453 C481.499789,114.639411 482.229389,114.966989 482.881516,114.719074 Z M487.609263,112.929768 L487.611621,112.928926 C488.263747,112.680842 488.591326,111.951242 488.343411,111.299116 C488.095326,110.647158 487.365726,110.319579 486.7136,110.567495 L486.711242,110.568337 C486.059284,110.816421 485.731705,111.546021 485.979621,112.197979 C486.227537,112.850105 486.957305,113.177684 487.609263,112.929768 Z M492.337179,111.140463 L492.339537,111.139453 C492.991663,110.891537 493.319242,110.161937 493.071158,109.509811 C492.823242,108.857853 492.093642,108.530274 491.441516,108.778189 L491.439158,108.779032 C490.7872,109.027116 490.459621,109.756716 490.707537,110.408674 C490.955453,111.0608 491.685221,111.388379 492.337179,111.140463 Z M497.065095,109.351158 L497.067453,109.350147 C497.719411,109.102232 498.047158,108.372632 497.799074,107.720505 C497.551158,107.068547 496.821558,106.740968 496.169432,106.988884 L496.167074,106.989726 C495.515116,107.237811 495.187537,107.967411 495.435453,108.619368 C495.683368,109.271495 496.412968,109.599074 497.065095,109.351158 Z M501.793011,107.561853 L501.795368,107.560842 C502.447326,107.312926 502.774905,106.583326 502.526989,105.9312 C502.279074,105.279074 501.549305,104.951495 500.897347,105.199579 L500.894989,105.200421 C500.242863,105.448337 499.915284,106.177937 500.163368,106.830063 C500.411284,107.482189 501.140884,107.809768 501.793011,107.561853 Z M506.520926,105.772379 L506.523284,105.771537 C507.175242,105.523621 507.502821,104.794021 507.254905,104.141895 C507.006989,103.489768 506.277221,103.162189 505.625263,103.410274 L505.622905,103.411116 C504.970779,103.659032 504.6432,104.388632 504.891116,105.040758 C505.1392,105.692884 505.8688,106.020463 506.520926,105.772379 Z M511.248674,103.983074 L511.251032,103.982232 C511.903158,103.734316 512.230737,103.004716 511.982653,102.352589 C511.734737,101.700463 511.005137,101.372884 510.353011,101.620968 L510.350653,101.621811 C509.698695,101.869726 509.371116,102.599326 509.619032,103.251453 C509.866947,103.903579 510.596716,104.231158 511.248674,103.983074 Z M515.976589,102.193768 L515.978947,102.192926 C516.630905,101.945011 516.958653,101.215242 516.710568,100.563284 C516.462653,99.9111579 515.733053,99.5835789 515.080926,99.8314947 L515.078568,99.8325053 C514.426611,100.080421 514.099032,100.810021 514.346947,101.462147 C514.594863,102.114105 515.324463,102.441853 515.976589,102.193768 Z M520.704505,100.404463 L520.706863,100.403621 C521.358821,100.155537 521.6864,99.4259368 521.438484,98.7739789 C521.190568,98.1218526 520.4608,97.7942737 519.808842,98.0421895 L519.806484,98.0432 C519.154358,98.2911158 518.826779,99.0207158 519.074863,99.6728421 C519.322779,100.3248 520.052379,100.652379 520.704505,100.404463 Z M525.432421,98.6151579 L525.434779,98.6143158 C526.086737,98.3662316 526.414316,97.6366316 526.1664,96.9846737 C525.918484,96.3325474 525.188716,96.0049684 524.536758,96.2528842 L524.5344,96.2537263 C523.882274,96.5018105 523.554695,97.2314105 523.802611,97.8835368 C524.050695,98.5354947 524.780295,98.8630737 525.432421,98.6151579 Z M530.160168,96.8258526 L530.162526,96.8250105 C530.814653,96.5769263 531.142232,95.8473263 530.894316,95.1952 C530.646232,94.5432421 529.916632,94.2156632 529.264674,94.4635789 L529.262316,94.4644211 C528.610189,94.7125053 528.282611,95.4421053 528.530526,96.0940632 C528.778442,96.7461895 529.508211,97.0737684 530.160168,96.8258526 Z M534.888084,95.0365474 L534.890442,95.0355368 C535.542568,94.7876211 535.870147,94.0580211 535.622232,93.4058947 C535.374147,92.7539368 534.644547,92.4263579 533.992421,92.6742737 L533.990063,92.6751158 C533.338105,92.9232 533.010526,93.6528 533.258442,94.3047579 C533.506358,94.9568842 534.236126,95.2844632 534.888084,95.0365474 Z M539.616,93.2472421 L539.618358,93.2462316 C540.270484,92.9983158 540.598063,92.2687158 540.349979,91.6165895 C540.102063,90.9646316 539.372463,90.6370526 538.720337,90.8849684 L538.717979,90.8858105 C538.066021,91.1338947 537.738442,91.8634947 537.986358,92.5154526 C538.234274,93.1675789 538.963874,93.4951579 539.616,93.2472421 Z M544.343916,91.4579368 L544.346274,91.4569263 C544.998232,91.2090105 545.325811,90.4794105 545.077895,89.8272842 C544.829979,89.1753263 544.100379,88.8477474 543.448253,89.0956632 L543.445895,89.0965053 C542.793768,89.3445895 542.466189,90.0741895 542.714274,90.7261474 C542.962189,91.3782737 543.691789,91.7058526 544.343916,91.4579368 Z M549.071832,89.6686316 L549.074189,89.6676211 C549.726147,89.4197053 550.053726,88.6901053 549.805811,88.0379789 C549.557895,87.3860211 548.828126,87.0582737 548.176168,87.3063579 L548.173811,87.3072 C547.521684,87.5551158 547.194105,88.2848842 547.442021,88.9368421 C547.690105,89.5889684 548.419705,89.9165474 549.071832,89.6686316 Z M553.799579,87.8791579 L553.801937,87.8783158 C554.454063,87.6304 554.781642,86.9008 554.533726,86.2486737 C554.285642,85.5965474 553.556042,85.2689684 552.904084,85.5170526 L552.901726,85.5178947 C552.2496,85.7658105 551.922021,86.4954105 552.169937,87.1475368 C552.418021,87.7996632 553.147621,88.1272421 553.799579,87.8791579 Z M558.527495,86.0898526 L558.529853,86.0890105 C559.181979,85.8410947 559.509558,85.1114947 559.261642,84.4593684 C559.013558,83.8072421 558.283958,83.4796632 557.631832,83.7277474 L557.629474,83.7285895 C556.977516,83.9765053 556.649937,84.7061053 556.897853,85.3582316 C557.145768,86.0103579 557.875537,86.3379368 558.527495,86.0898526 Z M563.255411,84.3005474 L563.257768,84.2997053 C563.909895,84.0517895 564.237474,83.3221895 563.989389,82.6700632 C563.741474,82.0179368 563.011874,81.6903579 562.359747,81.9384421 L562.357389,81.9392842 C561.705432,82.1872 561.377853,82.9168 561.625768,83.5689263 C561.873684,84.2210526 562.603453,84.5486316 563.255411,84.3005474 Z M567.983326,82.5112421 L567.985684,82.5104 C568.637642,82.2624842 568.965389,81.5328842 568.717305,80.8807579 C568.469389,80.2286316 567.739789,79.9010526 567.087663,80.1491368 L567.085305,80.1499789 C566.433347,80.3978947 566.105768,81.1274947 566.353684,81.7796211 C566.6016,82.4317474 567.3312,82.7593263 567.983326,82.5112421 Z M572.711242,80.7219368 L572.7136,80.7210947 C573.365558,80.4731789 573.693137,79.7435789 573.445221,79.0914526 C573.197305,78.4393263 572.467705,78.1117474 571.815579,78.3598316 L571.813221,78.3606737 C571.161263,78.6085895 570.833516,79.3381895 571.0816,79.9903158 C571.329516,80.6424421 572.059116,80.9700211 572.711242,80.7219368 Z M577.439158,78.9326316 L577.441516,78.9317895 C578.093474,78.6838737 578.421053,77.9541053 578.173137,77.3021474 C577.925221,76.6500211 577.195453,76.3224421 576.543495,76.5703579 L576.541137,76.5713684 C575.889011,76.8192842 575.561432,77.5488842 575.809347,78.2010105 C576.057432,78.8529684 576.787032,79.1807158 577.439158,78.9326316 Z M582.166905,77.1433263 L582.169263,77.1424842 C582.821389,76.8945684 583.148968,76.1648 582.901053,75.5128421 C582.652968,74.8607158 581.923368,74.5331368 581.271242,74.7810526 L581.268884,74.7820632 C580.616926,75.0299789 580.289347,75.7595789 580.537263,76.4117053 C580.785179,77.0636632 581.514947,77.3914105 582.166905,77.1433263 Z M586.894821,75.3540211 L586.897179,75.3531789 C587.549305,75.1050947 587.876884,74.3754947 587.6288,73.7235368 C587.380884,73.0714105 586.651284,72.7438316 585.999158,72.9917474 L585.9968,72.9927579 C585.344842,73.2406737 585.017263,73.9702737 585.265179,74.6224 C585.513095,75.2743579 586.242863,75.6019368 586.894821,75.3540211 Z M591.622737,73.5647158 L591.625095,73.5638737 C592.277221,73.3157895 592.6048,72.5861895 592.356716,71.9342316 C592.1088,71.2821053 591.3792,70.9545263 590.727074,71.2024421 L590.724716,71.2034526 C590.072758,71.4513684 589.745179,72.1809684 589.993095,72.8330947 C590.241011,73.4850526 590.970611,73.8126316 591.622737,73.5647158 Z M596.350653,71.7754105 L596.353011,71.7745684 C597.004968,71.5264842 597.332547,70.7968842 597.084632,70.1449263 C596.836716,69.4928 596.107116,69.1652211 595.454989,69.4131368 L595.452632,69.4139789 C594.800674,69.6620632 594.473095,70.3916632 594.721011,71.0437895 C594.968926,71.6957474 595.698526,72.0233263 596.350653,71.7754105 Z M601.078568,69.9861053 L601.080926,69.9852632 C601.732884,69.7371789 602.060463,69.0075789 601.812547,68.3556211 C601.564632,67.7034947 600.834863,67.3759158 600.182905,67.6238316 L600.180547,67.6246737 C599.528421,67.8727579 599.200842,68.6023579 599.448758,69.2544842 C599.696842,69.9064421 600.426442,70.2340211 601.078568,69.9861053 Z M605.806316,68.1968 L605.808674,68.1957895 C606.4608,67.9478737 606.788379,67.2182737 606.540463,66.5661474 C606.292379,65.9141895 605.562779,65.5866105 604.910821,65.8345263 L604.908463,65.8353684 C604.256337,66.0834526 603.928758,66.8130526 604.176674,67.4650105 C604.424758,68.1171368 605.154358,68.4447158 605.806316,68.1968 Z M610.534232,66.4074947 L610.536589,66.4064842 C611.188716,66.1585684 611.516295,65.4289684 611.268379,64.7768421 C611.020295,64.1248842 610.290695,63.7973053 609.638568,64.0452211 L609.636211,64.0460632 C608.984253,64.2941474 608.656674,65.0237474 608.904589,65.6757053 C609.152505,66.3278316 609.882274,66.6554105 610.534232,66.4074947 Z M615.262147,64.6181895 L615.264505,64.6171789 C615.916632,64.3692632 616.244211,63.6396632 615.996126,62.9875368 C615.748211,62.3355789 615.018611,62.008 614.366484,62.2559158 L614.364126,62.2567579 C613.712168,62.5048421 613.384589,63.2344421 613.632505,63.8864 C613.880421,64.5385263 614.610021,64.8661053 615.262147,64.6181895 Z M619.990063,62.8288842 L619.992421,62.8278737 C620.644379,62.5799579 620.972126,61.8503579 620.724042,61.1982316 C620.476126,60.5462737 619.746526,60.2186947 619.0944,60.4666105 L619.092042,60.4674526 C618.440084,60.7155368 618.112505,61.4451368 618.360421,62.0970947 C618.608337,62.7492211 619.337937,63.0768 619.990063,62.8288842 Z M624.717979,61.0395789 L624.720337,61.0385684 C625.372295,60.7906526 625.699874,60.0610526 625.451958,59.4089263 C625.204042,58.7569684 624.474274,58.4292211 623.822316,58.6773053 L623.819958,58.6781474 C623.167832,58.9260632 622.840253,59.6558316 623.088168,60.3077895 C623.336253,60.9599158 624.065853,61.2874947 624.717979,61.0395789 Z M629.445726,59.2502737 L629.448084,59.2492632 C630.100211,59.0013474 630.427789,58.2717474 630.179874,57.6196211 C629.931958,56.9674947 629.202189,56.6399158 628.550232,56.888 L628.547874,56.8888421 C627.895747,57.1367579 627.568168,57.8663579 627.816084,58.5184842 C628.064168,59.1706105 628.793768,59.4981895 629.445726,59.2502737 Z M634.173642,57.4608 L634.176,57.4599579 C634.828126,57.2120421 635.155705,56.4824421 634.907789,55.8303158 C634.659705,55.1781895 633.930105,54.8506105 633.277979,55.0986947 L633.275621,55.0995368 C632.623663,55.3474526 632.296084,56.0770526 632.544,56.7291789 C632.791916,57.3813053 633.521684,57.7088842 634.173642,57.4608 Z M638.901558,55.6714947 L638.903916,55.6706526 C639.556042,55.4227368 639.883621,54.6931368 639.635537,54.0410105 C639.387621,53.3888842 638.658021,53.0613053 638.005895,53.3093895 L638.003537,53.3102316 C637.351579,53.5581474 637.024,54.2877474 637.271916,54.9398737 C637.519832,55.592 638.2496,55.9195789 638.901558,55.6714947 Z M643.629474,53.8821895 L643.631832,53.8813474 C644.283789,53.6334316 644.611368,52.9038316 644.363453,52.2517053 C644.115537,51.5995789 643.385937,51.272 642.733811,51.5200842 L642.731453,51.5209263 C642.079495,51.7688421 641.751747,52.4984421 641.999832,53.1505684 C642.247747,53.8026947 642.977347,54.1302737 643.629474,53.8821895 Z" id="Fill-15" fill="#1E81C1"></path>
            <text id="60" font-family="Lato-Regular, Lato" font-size="14" font-weight="normal" fill="#484341">
                <tspan x="113.389642" y="127.736894">60</tspan>
            </text>
            <text id="64" font-family="Lato-Regular, Lato" font-size="14" font-weight="normal" fill="#484341">
                <tspan x="223.023663" y="117.63163">64</tspan>
            </text>
            <text id="70" font-family="Lato-Regular, Lato" font-size="14" font-weight="normal" fill="#484341">
                <tspan x="332.657516" y="100.789525">70</tspan>
            </text>
            <text id="75" font-family="Lato-Regular, Lato" font-size="14" font-weight="normal" fill="#484341">
                <tspan x="442.291368" y="85.6316303">75</tspan>
            </text>
            <text id="85" font-family="Lato-Regular, Lato" font-size="14" font-weight="normal" fill="#484341">
                <tspan x="551.925389" y="58.6842619">85</tspan>
            </text>
            <text id="88" font-family="Lato-Regular, Lato" font-size="14" font-weight="normal" fill="#484341">
                <tspan x="661.559242" y="50.2632093">88</tspan>
            </text>
            <text id="0" font-family="Lato-Regular, Lato" font-size="14" font-weight="normal" fill="#484341">
                <tspan x="714.577011" y="294.14741">0</tspan>
            </text>
            <text id="10" font-family="Lato-Regular, Lato" font-size="14" font-weight="normal" letter-spacing="0.07875" fill="#484341">
                <tspan x="714.577011" y="267.200041">10</tspan>
            </text>
            <text id="20" font-family="Lato-Regular, Lato" font-size="14" font-weight="normal" letter-spacing="0.07875" fill="#484341">
                <tspan x="714.577011" y="238.568462">20</tspan>
            </text>
            <text id="30" font-family="Lato-Regular, Lato" font-size="14" font-weight="normal" letter-spacing="0.07875" fill="#484341">
                <tspan x="714.577011" y="211.621094">30</tspan>
            </text>
            <text id="40" font-family="Lato-Regular, Lato" font-size="14" font-weight="normal" letter-spacing="0.07875" fill="#484341">
                <tspan x="714.577011" y="182.989515">40</tspan>
            </text>
            <text id="50" font-family="Lato-Regular, Lato" font-size="14" font-weight="normal" letter-spacing="0.07875" fill="#484341">
                <tspan x="714.577011" y="154.357936">50</tspan>
            </text>
            <text id="60" font-family="Lato-Regular, Lato" font-size="14" font-weight="normal" letter-spacing="0.07875" fill="#484341">
                <tspan x="714.577011" y="127.410567">60</tspan>
            </text>
            <text id="70" font-family="Lato-Regular, Lato" font-size="14" font-weight="normal" letter-spacing="0.07875" fill="#484341">
                <tspan x="714.577011" y="98.7789885">70</tspan>
            </text>
            <text id="80" font-family="Lato-Regular, Lato" font-size="14" font-weight="normal" letter-spacing="0.07875" fill="#484341">
                <tspan x="714.577011" y="71.8316201">80</tspan>
            </text>
            <text id="90" font-family="Lato-Regular, Lato" font-size="14" font-weight="normal" letter-spacing="0.07875" fill="#484341">
                <tspan x="714.577011" y="43.2000411">90</tspan>
            </text>
            <text id="100" font-family="Lato-Regular, Lato" font-size="14" font-weight="normal" letter-spacing="0.07875" fill="#484341">
                <tspan x="714.577011" y="14.5684622">1</tspan>
                <tspan x="722.775761" y="14.5684622" letter-spacing="-1.67125">0</tspan>
                <tspan x="729.224511" y="14.5684622">0</tspan>
            </text>
            <text id="0" font-family="Lato-Regular, Lato" font-size="14" font-weight="normal" fill="#484341">
                <tspan x="23.9257095" y="294.14741">0</tspan>
            </text>
            <text id="500" font-family="Lato-Regular, Lato" font-size="14" font-weight="normal" letter-spacing="0.07875" fill="#484341">
                <tspan x="8.29621895" y="248.673725">5</tspan>
                <tspan x="16.4949689" y="248.673725" letter-spacing="-1.67125">0</tspan>
                <tspan x="22.9437189" y="248.673725">0</tspan>
            </text>
            <text id="1000" font-family="Lato-Regular, Lato" font-size="14" font-weight="normal" letter-spacing="0.07875" fill="#484341">
                <tspan x="0.481498947" y="201.515831">1</tspan>
                <tspan x="8.68024895" y="201.515831" letter-spacing="-1.67125">0</tspan>
                <tspan x="15.1289989" y="201.515831">00</tspan>
            </text>
            <text id="1500" font-family="Lato-Regular, Lato" font-size="14" font-weight="normal" letter-spacing="0.07875" fill="#484341">
                <tspan x="0.481498947" y="154.357936">1</tspan>
                <tspan x="8.68024895" y="154.357936" letter-spacing="-1.67125">5</tspan>
                <tspan x="15.1289989" y="154.357936">00</tspan>
            </text>
            <text id="2000" font-family="Lato-Regular, Lato" font-size="14" font-weight="normal" letter-spacing="0.07875" fill="#484341">
                <tspan x="0.481498947" y="108.884252">2</tspan>
                <tspan x="8.68024895" y="108.884252" letter-spacing="-1.67125">0</tspan>
                <tspan x="15.1289989" y="108.884252">00</tspan>
            </text>
            <text id="2500" font-family="Lato-Regular, Lato" font-size="14" font-weight="normal" letter-spacing="0.07875" fill="#484341">
                <tspan x="0.481498947" y="61.7263569">2</tspan>
                <tspan x="8.68024895" y="61.7263569" letter-spacing="-1.67125">5</tspan>
                <tspan x="15.1289989" y="61.7263569">00</tspan>
            </text>
            <text id="3000" font-family="Lato-Regular, Lato" font-size="14" font-weight="normal" letter-spacing="0.07875" fill="#484341">
                <tspan x="0.481498947" y="14.5684622">3</tspan>
                <tspan x="8.68024895" y="14.5684622" letter-spacing="-1.67125">0</tspan>
                <tspan x="15.1289989" y="14.5684622">00</tspan>
            </text>
            <text id="1" font-family="Lato-Regular, Lato" font-size="14" font-weight="normal" fill="#484341">
                <tspan x="94.1896421" y="316.368472">1</tspan>
            </text>
            <text id="2" font-family="Lato-Regular, Lato" font-size="14" font-weight="normal" fill="#484341">
                <tspan x="203.823663" y="316.368472">2</tspan>
            </text>
            <text id="3" font-family="Lato-Regular, Lato" font-size="14" font-weight="normal" fill="#484341">
                <tspan x="313.457516" y="316.368472">3</tspan>
            </text>
            <text id="4" font-family="Lato-Regular, Lato" font-size="14" font-weight="normal" fill="#484341">
                <tspan x="423.091368" y="316.368472">4</tspan>
            </text>
            <text id="5" font-family="Lato-Regular, Lato" font-size="14" font-weight="normal" fill="#484341">
                <tspan x="532.725389" y="316.368472">5</tspan>
            </text>
            <text id="6" font-family="Lato-Regular, Lato" font-size="14" font-weight="normal" fill="#484341">
                <tspan x="642.359242" y="316.368472">6</tspan>
            </text>
            <g id="Group-48" transform="translate(763.052632, 182.000000)">
                <mask id="mask-3" fill="white">
                    <use xlink:href="#path-2"></use>
                </mask>
                <g id="Clip-47"></g>
            </g>
        </g>
        <g id="Group-2" transform="translate(258.500000, 448.100037)">
            <polygon id="Fill-260" fill="#AA52A5" points="0 7.39996338 26 7.39996338 26 14.3999634 0 14.3999634"></polygon>
            <text id="Volume" font-family="Lato-Regular, Lato" font-size="16" font-weight="normal" letter-spacing="-0.0137333333" fill="#484341">
                <tspan x="32.9023" y="16">V</tspan>
                <tspan x="42.5205667" y="16" letter-spacing="0.418266667">o</tspan>
                <tspan x="52.0108333" y="16" letter-spacing="0.370266667">l</tspan>
                <tspan x="56.1571" y="16" letter-spacing="-0.781733333">u</tspan>
                <tspan x="64.2953667" y="16" letter-spacing="0.322266667">m</tspan>
                <tspan x="77.7776333" y="16">e</tspan>
            </text>
            <line x1="97.4487" y1="10.899924" x2="122.448701" y2="10.9000027" id="Stroke-263" stroke="#B0C332" stroke-width="2" stroke-linecap="round" stroke-linejoin="round"></line>
            <text id="Accuracy" font-family="Lato-Regular, Lato" font-size="16" font-weight="normal" letter-spacing="-0.0137333333" fill="#484341">
                <tspan x="128.3685" y="16">A</tspan>
                <tspan x="138.970767" y="16" letter-spacing="0.498266667">cc</tspan>
                <tspan x="155.1033" y="16" letter-spacing="-0.781733333">u</tspan>
                <tspan x="163.241567" y="16" letter-spacing="0.994266667">r</tspan>
                <tspan x="169.931833" y="16" letter-spacing="0.194266667">a</tspan>
                <tspan x="178.0781" y="16" letter-spacing="-0.829733333">c</tspan>
                <tspan x="184.888367" y="16">y</tspan>
            </text>
            <path d="M203.4487,10.1499234 L203.4502,10.1499234 C203.8644,10.1499234 204.2002,10.4857134 204.2002,10.8999234 C204.2002,11.3141434 203.8644,11.6499234 203.4502,11.6499234 L203.4487,11.6499234 C203.0345,11.6499234 202.6987,11.3141334 202.6987,10.8999234 C202.6987,10.4857034 203.0345,10.1499234 203.4487,10.1499234 Z M206.4502,10.1499334 L206.4517,10.1499334 C206.8659,10.1499334 207.2017,10.4857234 207.2017,10.8999334 C207.2017,11.3141534 206.8659,11.6499334 206.4517,11.6499334 L206.4502,11.6499334 C206.036,11.6499334 205.7002,11.3141434 205.7002,10.8999334 C205.7002,10.4857134 206.036,10.1499334 206.4502,10.1499334 Z M209.4517,10.1499434 L209.4532,10.1499434 C209.8674,10.1499434 210.2032,10.4857334 210.2032,10.8999434 C210.2032,11.3141534 209.8674,11.6499434 209.4532,11.6499434 L209.4517,11.6499434 C209.0375,11.6499434 208.7017,11.3141534 208.7017,10.8999434 C208.7017,10.4857234 209.0375,10.1499434 209.4517,10.1499434 Z M212.4532,10.1499534 L212.4547,10.1499534 C212.8689,10.1499534 213.2047,10.4857434 213.2047,10.8999534 C213.2047,11.3141634 212.8689,11.6499534 212.4547,11.6499534 L212.4532,11.6499534 C212.039,11.6499534 211.7032,11.3141634 211.7032,10.8999534 C211.7032,10.4857334 212.039,10.1499534 212.4532,10.1499534 Z M215.4547,10.1499634 L215.4562,10.1499634 C215.8704,10.1499634 216.2062,10.4857534 216.2062,10.8999634 C216.2062,11.3141734 215.8704,11.6499634 215.4562,11.6499634 L215.4547,11.6499634 C215.0405,11.6499634 214.7047,11.3141734 214.7047,10.8999634 C214.7047,10.4857434 215.0405,10.1499634 215.4547,10.1499634 Z M218.4562,10.1499734 L218.4577,10.1499734 C218.8719,10.1499734 219.2077,10.4857634 219.2077,10.8999734 C219.2077,11.3141834 218.8719,11.6499734 218.4577,11.6499734 L218.4562,11.6499734 C218.042,11.6499734 217.7062,11.3141834 217.7062,10.8999634 C217.7062,10.4857534 218.042,10.1499734 218.4562,10.1499734 Z M221.4577,10.1499834 L221.4592,10.1499834 C221.8734,10.1499834 222.2092,10.4857734 222.2092,10.8999834 C222.2092,11.3141934 221.8734,11.6499834 221.4592,11.6499834 L221.4577,11.6499834 C221.0435,11.6499834 220.7077,11.3141934 220.7077,10.8999734 C220.7077,10.4857634 221.0435,10.1499834 221.4577,10.1499834 Z M224.4592,10.1499934 L224.4607,10.1499934 C224.8749,10.1499934 225.2107,10.4857734 225.2107,10.8999934 C225.2107,11.3142034 224.8749,11.6499934 224.4607,11.6499934 L224.4592,11.6499934 C224.045,11.6499934 223.7092,11.3142034 223.7092,10.8999834 C223.7092,10.4857734 224.045,10.1499934 224.4592,10.1499934 Z M227.4607,10.1500034 L227.4622,10.1500034 C227.8764,10.1500034 228.2122,10.4857834 228.2122,10.9000034 C228.2122,11.3142134 227.8764,11.6500034 227.4622,11.6500034 L227.4607,11.6500034 C227.0465,11.6500034 226.7107,11.3142134 226.7107,10.8999934 C226.7107,10.4857834 227.0465,10.1500034 227.4607,10.1500034 Z" id="Fill-266" fill="#1E81C1"></path>
            <text id="Linear-(Volume)" font-family="Lato-Regular, Lato" font-size="16" font-weight="normal" letter-spacing="-0.0186666667" fill="#484341">
                <tspan x="231.7046" y="16">L</tspan>
                <tspan x="239.901933" y="16" letter-spacing="0.365333333">i</tspan>
                <tspan x="244.107267" y="16" letter-spacing="0.605333333">n</tspan>
                <tspan x="253.6406" y="16" letter-spacing="-0.242666667">e</tspan>
                <tspan x="261.845933" y="16" letter-spacing="0.253333333">a</tspan>
                <tspan x="270.051267" y="16" letter-spacing="-0.290666667">r</tspan>
                <tspan x="275.2486" y="16" letter-spacing="0.109333333"> </tspan>
                <tspan x="279.453933" y="16" letter-spacing="1.26133333">(</tspan>
                <tspan x="285.091267" y="16" letter-spacing="0.0453333333">V</tspan>
                <tspan x="294.7686" y="16" letter-spacing="0.461333333">o</tspan>
                <tspan x="304.301933" y="16" letter-spacing="-0.898666667">l</tspan>
                <tspan x="307.179267" y="16" letter-spacing="0.605333333">u</tspan>
                <tspan x="316.7046" y="16" letter-spacing="0.365333333">m</tspan>
                <tspan x="330.229933" y="16" letter-spacing="-0.242666667">e</tspan>
                <tspan x="338.067267" y="16">)</tspan>
            </text>
        </g>
        <text id="Months" font-family="Lato-Semibold, Lato" font-size="18" font-weight="500" letter-spacing="-0.00105" fill="#484341">
            <tspan x="94.04961" y="444.5">M</tspan>
            <tspan x="110.63556" y="444.5" letter-spacing="0.01695">on</tspan>
            <tspan x="130.91946" y="444.5">t</tspan>
            <tspan x="137.49741" y="444.5" letter-spacing="0.01695">h</tspan>
            <tspan x="147.61236" y="444.5">s</tspan>
        </text>
        <text id="Accuracy-%" transform="translate(821.500000, 250.500002) rotate(90.000000) translate(-821.500000, -250.500002) " font-family="Lato-Semibold, Lato" font-size="18" font-weight="500" letter-spacing="0.00015" fill="#484341">
            <tspan x="775.72075" y="257.500002">Accuracy %</tspan>
        </text>
        <text id="Number-of-Invoices" transform="translate(38.120010, 241.000002) rotate(-90.000000) translate(-38.120010, -241.000002) " font-family="Lato-Semibold, Lato" font-size="18" font-weight="500" fill="#484341">
            <tspan x="-40.37999" y="248.000002">Num</tspan>
            <tspan x="-1.51799" y="248.000002">b</tspan>
            <tspan x="8.63401" y="248.000002">er of </tspan>
            <tspan x="50.45701" y="248.000002">I</tspan>
            <tspan x="55.65001" y="248.000002">nvo</tspan>
            <tspan x="85.43101" y="248.000002">i</tspan>
            <tspan x="89.88601" y="248.000002">ce</tspan>
            <tspan x="108.08401" y="248.000002">s</tspan>
        </text>
        <text id="Volume-Vs.-Accuracy" font-family="Lato-Regular, Lato" font-size="26" font-weight="normal" letter-spacing="0.0026" fill="#484341">
            <tspan x="94.04961" y="59.1000366">Vo</tspan>
            <tspan x="124.44881" y="59.1000366">l</tspan>
            <tspan x="130.58481" y="59.1000366" letter-spacing="-0.013">um</tspan>
            <tspan x="166.43881" y="59.1000366" letter-spacing="-0.0026">e</tspan>
            <tspan x="180.16421" y="59.1000366"> </tspan>
            <tspan x="185.88421" y="59.1000366">V</tspan>
            <tspan x="201.69481" y="59.1000366" letter-spacing="-0.0026">s</tspan>
            <tspan x="212.95021" y="59.1000366">. </tspan>
            <tspan x="224.87121" y="59.1000366">A</tspan>
            <tspan x="242.12481" y="59.1000366" letter-spacing="-0.013">ccu</tspan>
            <tspan x="281.17681" y="59.1000366">r</tspan>
            <tspan x="290.43281" y="59.1000366">a</tspan>
            <tspan x="303.35741" y="59.1000366" letter-spacing="-0.013">c</tspan>
            <tspan x="315.75941" y="59.1000366">y</tspan>
        </text>
    </g>
</svg>