<?xml version="1.0" encoding="UTF-8"?>
<svg width="101px" height="101px" viewBox="0 0 101 101" version="1.1" xmlns="http://www.w3.org/2000/svg" xmlns:xlink="http://www.w3.org/1999/xlink">
    <!-- Generator: Sketch 59.1 (86144) - https://sketch.com -->
    <title>gear</title>
    <desc>Created with Sketch.</desc>
    <g id="Mobirise-images" stroke="none" stroke-width="1" fill="none" fill-rule="evenodd" opacity="0.6">
        <g id="Artboard-Copy-3" transform="translate(-1057.000000, -633.000000)">
            <g id="gear" transform="translate(1056.500000, 632.500000)">
                <path d="M66.9627461,14.5116384 C67.9096211,14.5116384 68.6770319,15.279049 68.6770319,16.2259241 L68.6770319,16.2259241 L68.6770319,19.518558 C70.9310496,20.1252545 73.0859604,21.018558 75.1109604,22.185076 L75.1109604,22.185076 L77.438639,19.8567278 C78.1082819,19.1870849 79.1937729,19.1870849 79.8627461,19.856058 L79.8627461,19.856058 L87.4451123,27.4323974 C87.7665408,27.753826 87.9473443,28.1904331 87.9480139,28.6451205 C87.9480139,29.099808 87.7672104,29.5364152 87.4457819,29.8578437 L87.4457819,29.8578437 L85.1147551,32.1888706 C86.2812729,34.2138706 87.1739068,36.3687813 87.7806033,38.6221294 L87.7806033,38.6221294 L91.0919872,38.6221294 C92.0388621,38.6221294 92.8062729,39.3895402 92.8062729,40.3364152 L92.8062729,40.3364152 L92.8062729,51.0553884 C92.8062729,52.0022633 92.0388621,52.7696741 91.0919872,52.7696741 L91.0919872,52.7696741 L87.7812729,52.7696741 C87.1745764,55.0236919 86.2812729,57.1786027 85.1147551,59.2036027 L85.1147551,59.2036027 L87.4585049,61.5473527 C88.1274782,62.216326 88.1274782,63.301817 87.4585049,63.9714598 L87.4585049,63.9714598 L79.8821657,71.5531564 C79.5607372,71.8752545 79.12413,72.056058 78.6701123,72.056058 C78.2147551,72.056058 77.7788176,71.8752545 77.457389,71.553826 L77.457389,71.553826 L75.1109604,69.2073974 C73.0859604,70.3739152 70.9310496,71.2672188 68.6770319,71.8739152 L68.6770319,71.8739152 L68.6770319,75.1973527 C68.6770319,76.1442278 67.9096211,76.9116384 66.9627461,76.9116384 L66.9627461,76.9116384 L56.2437729,76.9116384 C55.2975676,76.9116384 54.5294872,76.1442278 54.5294872,75.1973527 L54.5294872,75.1973527 L54.5294872,71.8739152 C52.276139,71.2672188 50.1212282,70.3739152 48.0955586,69.2073974 L48.0955586,69.2073974 L45.7497996,71.553826 C45.4283711,71.8752545 44.9924335,72.056058 44.5377461,72.056058 L44.5377461,72.056058 L44.3676345,72.0476326 C43.9751938,72.0085029 43.6062729,71.8344064 43.3250229,71.5531564 L43.3250229,71.5531564 L35.7486837,63.9714598 C35.0790408,63.301817 35.0797104,62.216326 35.7486837,61.5473527 L35.7486837,61.5473527 L38.0924335,59.2036027 C36.9259157,57.1786027 36.0326123,55.0236919 35.4259157,52.7696741 L35.4259157,52.7696741 L32.1152015,52.7696741 C31.6598443,52.7696741 31.2239068,52.5888706 30.9024782,52.2674421 C30.5810496,51.9460135 30.4002461,51.5094062 30.4009139,51.0547188 L30.4009139,51.0547188 L30.4069425,40.3357456 C30.4069425,39.3895402 31.1743533,38.6221294 32.1212282,38.6221294 L32.1212282,38.6221294 L35.4259157,38.6221294 C36.0326123,36.3681117 36.9259157,34.2138706 38.0924335,32.1888706 L38.0924335,32.1888706 L35.7614068,29.8578437 C35.4399782,29.5364152 35.2591747,29.099808 35.2591747,28.6451205 C35.2591747,28.1904331 35.4399782,27.7544956 35.7620764,27.433067 L35.7620764,27.433067 L43.3437729,19.856058 C44.0134157,19.1870849 45.0989068,19.1877545 45.76788,19.8567278 L45.76788,19.8567278 L48.0962282,22.185076 C50.1212282,21.018558 52.276139,20.1252545 54.5294872,19.5192278 L54.5294872,19.5192278 L54.5294872,16.2259241 C54.5294872,15.279049 55.2975676,14.5116384 56.2437729,14.5116384 L56.2437729,14.5116384 Z M61.6035943,31.5466831 C53.79288,31.5466831 47.438639,37.9009241 47.438639,45.7116384 C47.438639,53.5223527 53.79288,59.8765937 61.6035943,59.8765937 C69.4143086,59.8765937 75.7685496,53.5223527 75.7685496,45.7116384 C75.7685496,37.9009241 69.4143086,31.5466831 61.6035943,31.5466831 Z" id="Combined-Shape" stroke="#C4CDD5" stroke-width="1.5" stroke-linecap="round" stroke-linejoin="round"></path>
                <rect id="Rectangle" fill-opacity="0.01" fill="#FFFFFF" x="0.80627288" y="0.71163842" width="100" height="100"></rect>
            </g>
        </g>
    </g>
</svg>