<?xml version="1.0" encoding="UTF-8"?>
<svg width="101px" height="101px" viewBox="0 0 101 101" version="1.1" xmlns="http://www.w3.org/2000/svg" xmlns:xlink="http://www.w3.org/1999/xlink">
    <!-- Generator: Sketch 59.1 (86144) - https://sketch.com -->
    <title>gear</title>
    <desc>Created with Sketch.</desc>
    <g id="Mobirise-images" stroke="none" stroke-width="1" fill="none" fill-rule="evenodd" opacity="0.6">
        <g id="Artboard-Copy-3" transform="translate(-1057.000000, -633.000000)">
            <g id="gear" transform="translate(1056.500000, 632.500000)">
                <path d="M57.6769827,10.7116384 C58.8909249,10.7116384 59.8747849,11.6954982 59.8747849,12.9094406 L59.8747849,12.9094406 L59.8747849,17.1307661 C62.7645513,17.9085822 65.5272574,19.053843 68.1234113,20.5493789 L68.1234113,20.5493789 L71.1076146,17.5643171 C71.9661311,16.7058006 73.3577862,16.7058006 74.2154443,17.5634584 L74.2154443,17.5634584 L83.9364265,27.276714 C84.3485144,27.6888019 84.5803137,28.2485547 84.5811722,28.8314872 C84.5811722,29.41442 84.3493728,29.9741727 83.9372849,30.3862606 L83.9372849,30.3862606 L80.9487891,33.3747567 C82.4443247,35.9709105 83.5887271,38.7336164 84.3665432,41.6225244 L84.3665432,41.6225244 L88.6119071,41.6225244 C89.8258493,41.6225244 90.8097093,42.6063844 90.8097093,43.8203266 L90.8097093,43.8203266 L90.8097093,57.5626 C90.8097093,58.7765422 89.8258493,59.7604022 88.6119071,59.7604022 L88.6119071,59.7604022 L84.3674016,59.7604022 C83.5895856,62.6501685 82.4443247,65.4128747 80.9487891,68.0090285 L80.9487891,68.0090285 L83.9535966,71.0138362 C84.8112546,71.8714942 84.8112546,73.2631494 83.9535966,74.1216659 L83.9535966,74.1216659 L74.2403412,83.8417896 C73.8282533,84.254736 73.2685005,84.4865353 72.6864265,84.4865353 C72.1026352,84.4865353 71.543741,84.254736 71.1316531,83.8426481 L71.1316531,83.8426481 L68.1234113,80.8344063 C65.5272574,82.3299419 62.7645513,83.475203 59.8747849,84.2530189 L59.8747849,84.2530189 L59.8747849,88.5138362 C59.8747849,89.7277786 58.8909249,90.7116384 57.6769827,90.7116384 L57.6769827,90.7116384 L43.9347093,90.7116384 C42.7216256,90.7116384 41.7369071,89.7277786 41.7369071,88.5138362 L41.7369071,88.5138362 L41.7369071,84.2530189 C38.8479992,83.475203 36.0852931,82.3299419 33.4882807,80.8344063 L33.4882807,80.8344063 L30.4808974,83.8426481 C30.0688095,84.254736 29.5099152,84.4865353 28.9269827,84.4865353 L28.9269827,84.4865353 C28.3431915,84.4865353 27.7842972,84.2538775 27.3722093,83.8417896 L27.3722093,83.8417896 L17.6589539,74.1216659 C16.8004374,73.2631494 16.8012959,71.8714942 17.6589539,71.0138362 L17.6589539,71.0138362 L20.6637614,68.0090285 C19.1682258,65.4128747 18.0229649,62.6501685 17.2451489,59.7604022 L17.2451489,59.7604022 L13.0006434,59.7604022 C12.4168522,59.7604022 11.8579579,59.5286028 11.44587,59.1165149 C11.0337821,58.704427 10.8019827,58.144674 10.8028388,57.5617415 L10.8028388,57.5617415 L10.8105678,43.8194681 C10.8105678,42.6063844 11.7944278,41.6225244 13.00837,41.6225244 L13.00837,41.6225244 L17.2451489,41.6225244 C18.0229649,38.732758 19.1682258,35.9709105 20.6637614,33.3747567 L20.6637614,33.3747567 L17.6752656,30.3862606 C17.2631777,29.9741727 17.0313783,29.41442 17.0313783,28.8314872 C17.0313783,28.2485547 17.2631777,27.6896604 17.676124,27.2775725 L17.676124,27.2775725 L27.3962478,17.5634584 C28.2547643,16.7058006 29.6464194,16.7066591 30.5040774,17.5643171 L30.5040774,17.5643171 L33.4891392,20.5493789 C36.0852931,19.053843 38.8479992,17.9085822 41.7369071,17.1316248 L41.7369071,17.1316248 L41.7369071,12.9094406 C41.7369071,11.6954982 42.7216256,10.7116384 43.9347093,10.7116384 L43.9347093,10.7116384 Z M50.8062752,32.5514393 C40.792539,32.5514393 32.6460761,40.6979022 32.6460761,50.7116384 C32.6460761,60.7253747 40.792539,68.8718375 50.8062752,68.8718375 C60.8200115,68.8718375 68.9664744,60.7253747 68.9664744,50.7116384 C68.9664744,40.6979022 60.8200115,32.5514393 50.8062752,32.5514393 Z" id="Combined-Shape" stroke="#C4CDD5" stroke-width="1.5" stroke-linecap="round" stroke-linejoin="round"></path>
                <rect id="Rectangle" fill-opacity="0.01" fill="#FFFFFF" x="0.80627288" y="0.71163842" width="100" height="100"></rect>
            </g>
        </g>
    </g>
</svg>