<?xml version="1.0" encoding="UTF-8"?>
<svg width="65px" height="62px" viewBox="0 0 65 62" version="1.1" xmlns="http://www.w3.org/2000/svg" xmlns:xlink="http://www.w3.org/1999/xlink">
    <!-- Generator: Sketch 59.1 (86144) - https://sketch.com -->
    <title>Group Copy 9</title>
    <desc>Created with Sketch.</desc>
    <g id="Mobirise-images" stroke="none" stroke-width="1" fill="none" fill-rule="evenodd">
        <g id="Artboard-Copy-3" transform="translate(-538.000000, -415.000000)">
            <g id="Group-6" transform="translate(410.000000, 348.000000)">
                <g id="Logo" transform="translate(61.000000, 0.000000)">
                    <g id="Group-Copy-9" transform="translate(67.548387, 67.270370)">
                        <g id="Group-2">
                            <path d="M33.7516298,18.1905683 C31.3976283,18.1905683 29.2714653,18.7405618 27.373077,19.8405653 C25.4746887,20.9405687 23.9749845,22.4413984 22.8739193,24.3430993 C21.7728541,26.2448002 21.2223297,28.3701988 21.2223297,30.7193587 C21.2223297,33.0685187 21.7728541,35.1939172 22.8739193,37.0956181 C23.9749845,38.997319 25.4746887,40.4888268 27.373077,41.5701861 C29.2714653,42.6515455 31.3976283,43.192217 33.7516298,43.192217 C36.1056312,43.192217 38.2317942,42.6515455 40.1301825,41.5701861 C42.0285708,40.4888268 43.5187832,38.997319 44.6008646,37.0956181 C45.6829459,35.1939172 46.2239784,33.0685187 46.2239784,30.7193587 C46.2239784,28.3701988 45.6829459,26.2448002 44.6008646,24.3430993 C43.5187832,22.4413984 42.0285708,20.9405687 40.1301825,19.8405653 C38.2317942,18.7405618 36.1056312,18.1905683 33.7516298,18.1905683 Z" id="Path-Copy-15" fill="#1E81C1"></path>
                            <path d="M6.26871797,37.0248666 L6.42340223,37.0212269 C7.02457601,39.6819739 8.00597334,42.1882 9.36760061,44.5399298 C11.8056736,48.7508389 15.1264473,52.0534633 19.3300213,54.4479018 C23.5335954,56.8423403 28.2415277,58.0395416 33.4539595,58.0395416 C36.0902592,58.0395416 38.5975055,57.7332917 40.9757167,57.1207873 C41.1504047,57.7349639 41.3989513,58.3201242 41.7205638,58.8755961 C41.8584083,59.1136739 42.0059718,59.341751 42.1632545,59.5598277 C39.4063588,60.331754 36.4999299,60.7182897 33.445216,60.7182897 C27.7245614,60.7182897 22.5470846,59.3967659 17.9126302,56.7536787 C13.2781759,54.1105914 9.63945968,50.4718752 6.99637243,45.8374209 C5.35498714,42.9593754 4.22326835,39.8858741 3.60120658,36.61688 C4.43360405,36.8889853 5.32253089,37.0248666 6.26871797,37.0248666 Z M59.7854401,14.8808689 C62.4285273,19.5153232 63.7500511,24.6928 63.7500511,30.4134546 C63.7500511,36.0616958 62.4285273,41.2029665 59.7854401,45.8374209 C58.6764605,47.781933 57.3922052,49.5511503 55.9326662,51.1450807 C55.8566165,50.9859193 55.7749771,50.8306068 55.6878857,50.6775483 C55.3177417,50.0270397 54.8733117,49.4494956 54.3545913,48.9449118 C55.5254677,47.609505 56.5666345,46.1403152 57.4772652,44.5399298 C59.8733024,40.3290206 61.071303,35.622781 61.071303,30.4210697 C61.071303,25.2193584 59.8733024,20.5131187 57.4772652,16.3022096 C56.5920364,14.7464666 55.5834524,13.3118845 54.4515083,11.9984584 C54.9289189,11.5210441 55.3410203,10.977012 55.6878857,10.3674143 C55.8145613,10.1447886 55.9297027,9.91739407 56.0333099,9.68523046 C57.4514467,11.2489741 58.7020789,12.9812768 59.7854401,14.8808689 Z M33.445216,0 C36.5743268,0 39.5478418,0.40559296 42.365787,1.21678562 C42.1305078,1.51460617 41.9157886,1.83218454 41.7205638,2.16936645 C41.4493935,2.63771725 41.2301669,3.12717401 41.0628835,3.63773904 C38.6592719,2.99800248 36.1227424,2.67874808 33.4539595,2.67874808 C28.2415277,2.67874808 23.5335954,3.89659079 19.3300213,6.33231275 C15.1264473,8.76803471 11.8056736,12.0913004 9.36760061,16.3022096 C8.49708971,17.8057094 7.78198856,19.3723559 7.22229549,21.0021554 C6.91190087,20.9686828 6.59368658,20.9523781 6.26871797,20.9523781 C5.58883029,20.9523781 4.9385073,21.0237462 4.3177453,21.1664833 C4.96577433,18.9713634 5.85863445,16.8758067 6.99637243,14.8808689 C9.63945968,10.2464145 13.2781759,6.60769829 17.9126302,3.96461105 C22.5470846,1.3215238 27.7245614,0 33.445216,0 Z" id="Combined-Shape" fill="#494342"></path>
                            <path d="M48.7093095,0 C47.5323087,0 46.4692272,0.274996742 45.5200331,0.824998475 C44.5708389,1.37500021 43.8209868,2.12541505 43.2704542,3.0762655 C42.7199216,4.02711596 42.4446594,5.08981523 42.4446594,6.2643952 C42.4446594,7.43897518 42.7199216,8.50167445 43.2704542,9.4525249 C43.8209868,10.4033754 44.5708389,11.1491292 45.5200331,11.6898089 C46.4692272,12.2304886 47.5323087,12.5008244 48.7093095,12.5008244 C49.8863102,12.5008244 50.9493917,12.2304886 51.8985858,11.6898089 C52.84778,11.1491292 53.5928862,10.4033754 54.1339269,9.4525249 C54.6749675,8.50167445 54.9454838,7.43897518 54.9454838,6.2643952 C54.9454838,5.08981523 54.6749675,4.02711596 54.1339269,3.0762655 C53.5928862,2.12541505 52.84778,1.37500021 51.8985858,0.824998475 C50.9493917,0.274996742 49.8863102,0 48.7093095,0 Z" id="Path-Copy-14" fill="#AA52A5"></path>
                            <path d="M6.26465002,22.7382104 C5.08764928,22.7382104 4.02456779,23.0132072 3.07537365,23.5632089 C2.1261795,24.1132106 1.37632738,24.8636255 0.825794775,25.8144759 C0.275262172,26.7653264 0,27.8280256 0,29.0026056 C0,30.1771856 0.275262172,31.2398849 0.825794775,32.1907353 C1.37632738,33.1415858 2.1261795,33.8873396 3.07537365,34.4280193 C4.02456779,34.968699 5.08764928,35.2390348 6.26465002,35.2390348 C7.44165075,35.2390348 8.50473225,34.968699 9.45392639,34.4280193 C10.4031205,33.8873396 11.1482268,33.1415858 11.6892674,32.1907353 C12.2303081,31.2398849 12.5008244,30.1771856 12.5008244,29.0026056 C12.5008244,27.8280256 12.2303081,26.7653264 11.6892674,25.8144759 C11.1482268,24.8636255 10.4031205,24.1132106 9.45392639,23.5632089 C8.50473225,23.0132072 7.44165075,22.7382104 6.26465002,22.7382104 Z" id="Path-Copy-13" fill="#EE9C27"></path>
                            <path d="M48.7093095,48.5081822 C47.5323087,48.5081822 46.4692272,48.783179 45.5200331,49.3331807 C44.5708389,49.8831824 43.8209868,50.6335973 43.2704542,51.5844477 C42.7199216,52.5352982 42.4446594,53.5979974 42.4446594,54.7725774 C42.4446594,55.9471574 42.7199216,57.0098567 43.2704542,57.9607071 C43.8209868,58.9115576 44.5708389,59.6573114 45.5200331,60.1979911 C46.4692272,60.7386708 47.5323087,61.0090066 48.7093095,61.0090066 C49.8863102,61.0090066 50.9493917,60.7386708 51.8985858,60.1979911 C52.84778,59.6573114 53.5928862,58.9115576 54.1339269,57.9607071 C54.6749675,57.0098567 54.9454838,55.9471574 54.9454838,54.7725774 C54.9454838,53.5979974 54.6749675,52.5352982 54.1339269,51.5844477 C53.5928862,50.6335973 52.84778,49.8831824 51.8985858,49.3331807 C50.9493917,48.783179 49.8863102,48.5081822 48.7093095,48.5081822 Z" id="Path-Copy-12" fill="#AFC22E"></path>
                        </g>
                    </g>
                </g>
            </g>
        </g>
    </g>
</svg>