<?xml version="1.0" encoding="UTF-8"?>
<svg width="101px" height="31px" viewBox="0 0 101 31" version="1.1" xmlns="http://www.w3.org/2000/svg" xmlns:xlink="http://www.w3.org/1999/xlink">
    <!-- Generator: Sketch 59.1 (86144) - https://sketch.com -->
    <title>Group 3</title>
    <desc>Created with Sketch.</desc>
    <g id="Mobirise-images" stroke="none" stroke-width="1" fill="none" fill-rule="evenodd">
        <g id="Group-3" transform="translate(0.009971, 0.580986)">
            <rect id="Rectangle" fill="#FFFFFF" opacity="0.01" x="0" y="0" width="100" height="30"></rect>
            <g id="Group-Copy-2" transform="translate(0.000000, 5.669014)">
                <g id="Group-16">
                    <g id="Group-15">
                        <g id="Group-2" transform="translate(69.014085, 4.225352)">
                            <path d="M7.71572413,4.15841866 C7.17759231,4.15841866 6.69154505,4.28414883 6.25756778,4.53561293 C5.8235905,4.78707703 5.4807536,5.13017121 5.22904678,5.56490576 C4.97733996,5.99964031 4.85148844,6.48551282 4.85148844,7.02253785 C4.85148844,7.55956288 4.97733996,8.04543539 5.22904678,8.48016994 C5.4807536,8.91490449 5.8235905,9.25586765 6.25756778,9.50306965 C6.69154505,9.75027165 7.17759231,9.87387079 7.71572413,9.87387079 C8.25385595,9.87387079 8.73990321,9.75027165 9.17388048,9.50306965 C9.60785776,9.25586765 9.94852481,8.91490449 10.1958919,8.48016994 C10.4432589,8.04543539 10.5669406,7.55956288 10.5669406,7.02253785 C10.5669406,6.48551282 10.4432589,5.99964031 10.1958919,5.56490576 C9.94852481,5.13017121 9.60785776,4.78707703 9.17388048,4.53561293 C8.73990321,4.28414883 8.25385595,4.15841866 7.71572413,4.15841866 Z" id="Path-Copy-15" fill="#1E81C1"></path>
                            <path d="M1.43304779,8.46399592 L1.4681527,8.46202866 C1.60556011,9.07070581 1.82999596,9.64401504 2.14146169,10.181962 C2.6988125,11.1445885 3.45795136,11.8995783 4.41890104,12.4469542 C5.37985072,12.9943301 6.45609822,13.2680139 7.64767583,13.2680139 C8.25120214,13.2680139 8.82514218,13.1978042 9.36950012,13.0573838 C9.406794,13.1976508 9.46372268,13.3318067 9.53744643,13.4591384 L9.63922949,13.6152109 C9.00861714,13.7919933 8.34410152,13.8803838 7.64567702,13.8803838 C6.33791817,13.8803838 5.15433139,13.5782794 4.09488118,12.9740617 C3.03543097,12.369844 2.20360949,11.5380226 1.59939179,10.4785723 C1.22415676,9.820626 0.965438877,9.11799561 0.823235962,8.37067274 C1.01397207,8.43299979 1.21697906,8.46399592 1.43304779,8.46399592 Z M13.6671315,3.4018114 C14.2713492,4.46126161 14.5734535,5.64484839 14.5734535,6.95260725 C14.5734535,8.24381219 14.2713492,9.41912214 13.6671315,10.4785723 C13.4134893,10.9233148 13.1197387,11.3279445 12.7858778,11.6924631 C12.7686261,11.6548414 12.7501332,11.6196881 12.7304183,11.58504 C12.6456067,11.4359882 12.5437346,11.3036935 12.4248009,11.1881548 C12.6927699,10.8844085 12.9310759,10.5482138 13.1394758,10.181962 C13.6872171,9.21933548 13.9610837,8.14347494 13.9610837,6.95434808 C13.9610837,5.76522122 13.6872171,4.68936067 13.1394758,3.72673417 C12.9367893,3.37052339 12.7058141,3.04209816 12.446549,2.74145732 C12.5561133,2.63480453 12.650786,2.50997154 12.7304183,2.3700221 L12.8095058,2.21385917 C13.1336153,2.57160709 13.41949,2.96759059 13.6671315,3.4018114 Z M7.64567702,0 C8.36189518,0 9.04245467,0.0929516751 9.68736153,0.278856572 C9.63129686,0.346042424 9.58213723,0.418736136 9.53744643,0.495923699 C9.47541868,0.603054713 9.42527976,0.715016438 9.38702953,0.8318094 C8.83845304,0.685456534 8.25820276,0.612369871 7.64767583,0.612369871 C6.45609822,0.612369871 5.37985072,0.890772381 4.41890104,1.44758575 C3.45795136,2.00439912 2.6988125,2.76410766 2.14146169,3.72673417 C1.94238216,4.07057368 1.77885766,4.42886004 1.65088782,4.8015947 C1.57982076,4.79349065 1.50720354,4.78977669 1.43304779,4.78977669 C1.27765144,4.78977669 1.12901123,4.80608576 0.98712631,4.83870413 C1.13482966,4.33775885 1.33907124,3.85826387 1.59939179,3.4018114 C2.20360949,2.34236119 3.03543097,1.51053971 4.09488118,0.906322016 C5.15433139,0.302104318 6.33791817,0 7.64567702,0 Z" id="Combined-Shape" fill="#494342"></path>
                            <path d="M11.1350947,0 C10.8660288,0 10.6230052,0.0628650827 10.4060165,0.188597134 C10.1890279,0.314329186 10.0176095,0.485876276 9.89175605,0.703243551 C9.76590264,0.920610826 9.70297688,1.16354708 9.70297688,1.43205959 C9.70297688,1.70057211 9.76590264,1.94350836 9.89175605,2.16087564 C10.0176095,2.37824291 10.1890279,2.54872449 10.4060165,2.67232549 C10.6230052,2.79592649 10.8660288,2.85772607 11.1350947,2.85772607 C11.4041606,2.85772607 11.6471843,2.79592649 11.8641729,2.67232549 C12.0811615,2.54872449 12.2514951,2.37824291 12.3751786,2.16087564 C12.4988621,1.94350836 12.5607029,1.70057211 12.5607029,1.43205959 C12.5607029,1.16354708 12.4988621,0.920610826 12.3751786,0.703243551 C12.2514951,0.485876276 12.0811615,0.314329186 11.8641729,0.188597134 C11.6471843,0.0628650827 11.4041606,0 11.1350947,0 Z" id="Path-Copy-14" fill="#AA52A5"></path>
                            <path d="M1.43211785,5.19802333 C1.16305194,5.19802333 0.920028308,5.26088841 0.70303967,5.38662046 C0.486051033,5.51235251 0.31463258,5.6838996 0.188779171,5.90126688 C0.062925761,6.11863415 0,6.36157041 0,6.63008292 C0,6.89859544 0.062925761,7.14153169 0.188779171,7.35889897 C0.31463258,7.57626624 0.486051033,7.74674782 0.70303967,7.87034882 C0.920028308,7.99394982 1.16305194,8.05574939 1.43211785,8.05574939 C1.70118376,8.05574939 1.94420739,7.99394982 2.16119602,7.87034882 C2.37818466,7.74674782 2.54851819,7.57626624 2.67220171,7.35889897 C2.79588523,7.14153169 2.85772607,6.89859544 2.85772607,6.63008292 C2.85772607,6.36157041 2.79588523,6.11863415 2.67220171,5.90126688 C2.54851819,5.6838996 2.37818466,5.51235251 2.16119602,5.38662046 C1.94420739,5.26088841 1.70118376,5.19802333 1.43211785,5.19802333 Z" id="Path-Copy-13" fill="#EE9C27"></path>
                            <path d="M11.1350947,11.0891164 C10.8660288,11.0891164 10.6230052,11.1519815 10.4060165,11.2777136 C10.1890279,11.4034456 10.0176095,11.5749927 9.89175605,11.79236 C9.76590264,12.0097273 9.70297688,12.2526635 9.70297688,12.521176 C9.70297688,12.7896885 9.76590264,13.0326248 9.89175605,13.2499921 C10.0176095,13.4673593 10.1890279,13.6378409 10.4060165,13.7614419 C10.6230052,13.8850429 10.8660288,13.9468425 11.1350947,13.9468425 C11.4041606,13.9468425 11.6471843,13.8850429 11.8641729,13.7614419 C12.0811615,13.6378409 12.2514951,13.4673593 12.3751786,13.2499921 C12.4988621,13.0326248 12.5607029,12.7896885 12.5607029,12.521176 C12.5607029,12.2526635 12.4988621,12.0097273 12.3751786,11.79236 C12.2514951,11.5749927 12.0811615,11.4034456 11.8641729,11.2777136 C11.6471843,11.1519815 11.4041606,11.0891164 11.1350947,11.0891164 Z" id="Path-Copy-12" fill="#AFC22E"></path>
                        </g>
                        <path d="M66.4819179,4.57746479 C65.2481089,4.57746479 63.5845119,4.63581662 62.6126761,5.14286141 C61.6408402,5.6499062 60.8802844,6.38933542 60.3309859,7.36117127 C59.7816874,8.33300711 59.5070423,9.49496732 59.5070423,10.8470868 L59.5070423,17.6668051 C59.5070423,17.8865245 59.5788725,18.0682128 59.7225352,18.2118755 C59.8661979,18.3555382 60.0478862,18.4273684 60.2676056,18.4273684 C60.487325,18.4273684 60.6690134,18.3555382 60.8126761,18.2118755 C60.9563387,18.0682128 61.028169,17.8865245 61.028169,17.6668051 L61.028169,10.8470868 C61.028169,9.24144493 61.4802772,8.01610507 62.384507,7.17103042 C63.2887369,6.32595577 65.0283895,6.09859155 66.4819179,6.09859155 C67.377697,6.09859155 67.4622045,4.57746479 66.4819179,4.57746479 Z" id="Path-Copy-6" fill="#1E81C1"></path>
                        <path d="M55.571831,16.7323944 C55.8084519,16.7323944 55.9985908,16.8042246 56.1422535,16.9478873 C56.2859162,17.09155 56.3577465,17.281689 56.3577465,17.5183099 C56.3577465,17.7380293 56.2859162,17.9197176 56.1422535,18.0633803 C55.9985908,18.207043 55.8084519,18.2788732 55.571831,18.2788732 L54.9887324,18.2788732 C54.0591503,18.2788732 53.2309895,18.0676077 52.5042254,17.6450704 C51.7774612,17.2225331 51.2112696,16.6436656 50.8056338,15.9084507 C50.399998,15.1732358 50.1971831,14.3408497 50.1971831,13.4112676 L50.1971831,6.28732394 L48.2197183,6.28732394 C48.0169004,6.28732394 47.8521133,6.2239443 47.7253521,6.0971831 C47.5985909,5.9704219 47.5352113,5.80563482 47.5352113,5.6028169 C47.5352113,5.39999899 47.5985909,5.2352119 47.7253521,5.1084507 C47.8521133,4.98168951 48.0169004,4.91830986 48.2197183,4.91830986 L50.1971831,4.91830986 L50.1971831,0.785915493 C50.1971831,0.549294592 50.2690134,0.359155648 50.4126761,0.215492958 C50.5563387,0.0718302676 50.7380271,0 50.9577465,0 C51.1943674,0 51.3845063,0.0718302676 51.528169,0.215492958 C51.6718317,0.359155648 51.743662,0.549294592 51.743662,0.785915493 L51.743662,4.91830986 L55.0901408,4.91830986 C55.2929588,4.91830986 55.4577458,4.98168951 55.584507,5.1084507 C55.7112682,5.2352119 55.7746479,5.39999899 55.7746479,5.6028169 C55.7746479,5.80563482 55.7112682,5.9704219 55.584507,6.0971831 C55.4577458,6.2239443 55.2929588,6.28732394 55.0901408,6.28732394 L51.743662,6.28732394 L51.743662,13.4112676 C51.743662,14.3915542 52.0478843,15.1901378 52.656338,15.8070423 C53.2647918,16.4239467 54.0506994,16.7323944 55.0140845,16.7323944 L55.571831,16.7323944 Z" id="Path-Copy-5" fill="#1E81C1"></path>
                        <path d="M22.7126761,4.22535211 C23.946485,4.22535211 25.0492909,4.51689849 26.0211268,5.1 C26.9929626,5.68310151 27.7492931,6.49013569 28.2901408,7.52112676 C28.8309886,8.55211783 29.1014085,9.72675397 29.1014085,11.0450704 C29.1014085,11.2647898 29.0338035,11.4380275 28.8985915,11.5647887 C28.7633796,11.6915499 28.5859166,11.7549296 28.3661972,11.7549296 L17.743662,11.7549296 C17.7943665,12.7521177 18.0563357,13.643658 18.5295775,14.4295775 C19.0028193,15.2154969 19.6366157,15.8281668 20.4309859,16.2676056 C21.2253561,16.7070445 22.1126712,16.9267606 23.0929577,16.9267606 C23.752116,16.9267606 24.4154896,16.8126772 25.0830986,16.584507 C25.7507076,16.3563369 26.2788713,16.0563399 26.6676056,15.684507 C26.8366206,15.5492951 27.0140836,15.4816901 27.2,15.4816901 C27.3859164,15.4816901 27.5380276,15.5323939 27.656338,15.6338028 C27.8422545,15.7859163 27.9352113,15.9633793 27.9352113,16.1661972 C27.9352113,16.3352121 27.8591557,16.4957739 27.7070423,16.6478873 C27.1661945,17.1380306 26.4605677,17.5436604 25.5901408,17.8647887 C24.719714,18.1859171 23.8873279,18.3464789 23.0929577,18.3464789 C21.7577398,18.3464789 20.5704277,18.0464819 19.5309859,17.4464789 C18.4915441,16.8464759 17.6760593,16.0098645 17.084507,14.9366197 C16.4929548,13.8633749 16.1971831,12.650711 16.1971831,11.2985915 C16.1971831,9.92957062 16.4718282,8.70845607 17.0211268,7.63521127 C17.5704253,6.56196646 18.3394317,5.72535211 19.328169,5.12535211 C20.3169064,4.52534911 21.4450641,4.22535211 22.7126761,4.22535211 Z M22.5492958,5.63380282 C21.2309793,5.63380282 20.1197228,6.07323504 19.215493,6.95211268 C18.3112631,7.83099031 17.7746487,8.98872521 17.6056338,10.4253521 L27.4676056,10.4253521 C27.3492952,8.98872521 26.842258,7.83099031 25.9464789,6.95211268 C25.0506997,6.07323504 23.9183167,5.63380282 22.5492958,5.63380282 Z" id="Combined-Shape-Copy-14" fill="#1E81C1"></path>
                        <path d="M6.37588424,4.22535211 C6.38860368,4.22535211 6.4013371,4.22535211 6.41408451,4.22535211 C6.42636523,4.22535211 6.43847884,4.22559084 6.45042584,4.22606232 C7.63877013,4.24108299 8.70399636,4.49436507 9.64613468,4.98591549 C10.6179705,5.49296028 11.3785263,6.23238951 11.9278248,7.20422535 C12.4771233,8.1760612 12.7517685,9.33802141 12.7517685,10.6901408 L12.7517685,17.5098592 C12.7517685,17.7295786 12.6799382,17.9112669 12.5362755,18.0549296 C12.3926128,18.1985923 12.2109245,18.2704225 11.9912051,18.2704225 C11.7714857,18.2704225 11.5897974,18.1985923 11.4461347,18.0549296 C11.302472,17.9112669 11.2306417,17.7295786 11.2306417,17.5098592 L11.2306417,10.6901408 C11.2306417,9.08449901 10.7785336,7.85915915 9.87430369,7.01408451 C8.97800835,6.17642531 7.81188001,5.75392675 6.37588424,5.74657648 C4.93988847,5.75392675 3.77376013,6.17642531 2.87746479,7.01408451 C1.97323492,7.85915915 1.52112676,9.08449901 1.52112676,10.6901408 L1.52112676,17.5098592 C1.52112676,17.7295786 1.44929649,17.9112669 1.3056338,18.0549296 C1.16197111,18.1985923 0.980282789,18.2704225 0.76056338,18.2704225 C0.540843972,18.2704225 0.359155648,18.1985923 0.215492958,18.0549296 C0.0718302676,17.9112669 0,17.7295786 0,17.5098592 L0,10.6901408 C0,9.33802141 0.274645141,8.1760612 0.823943662,7.20422535 C1.37324218,6.23238951 2.13379796,5.49296028 3.1056338,4.98591549 C4.04777212,4.49436507 5.11299835,4.24108299 6.30134264,4.22606232 C6.31328964,4.22559084 6.32540325,4.22535211 6.33768397,4.22535211 C6.35043138,4.22535211 6.3631648,4.22535211 6.37588424,4.22535211 Z" id="Combined-Shape-Copy-13" fill="#1E81C1"></path>
                        <path d="M93.3477152,4.22535211 C93.3604347,4.22535211 93.3731681,4.22535211 93.3859155,4.22535211 C93.3981962,4.22535211 93.4103098,4.22559084 93.4222568,4.22606232 C94.6106011,4.24108299 95.6758273,4.49436507 96.6179657,4.98591549 C97.5898015,5.49296028 98.3503573,6.23238951 98.8996558,7.20422535 C99.4489543,8.1760612 99.7235995,9.33802141 99.7235995,10.6901408 L99.7235995,17.5098592 C99.7235995,17.7295786 99.6517692,17.9112669 99.5081065,18.0549296 C99.3644438,18.1985923 99.1827555,18.2704225 98.9630361,18.2704225 C98.7433167,18.2704225 98.5616284,18.1985923 98.4179657,18.0549296 C98.274303,17.9112669 98.2024727,17.7295786 98.2024727,17.5098592 L98.2024727,10.6901408 C98.2024727,9.08449901 97.7503646,7.85915915 96.8461347,7.01408451 C95.9498393,6.17642531 94.783711,5.75392675 93.3477152,5.74657648 C91.9117195,5.75392675 90.7455911,6.17642531 89.8492958,7.01408451 C88.9450659,7.85915915 88.4929577,9.08449901 88.4929577,10.6901408 L88.4929577,17.5098592 C88.4929577,17.7295786 88.4211275,17.9112669 88.2774648,18.0549296 C88.1338021,18.1985923 87.9521138,18.2704225 87.7323944,18.2704225 C87.512675,18.2704225 87.3309866,18.1985923 87.1873239,18.0549296 C87.0436613,17.9112669 86.971831,17.7295786 86.971831,17.5098592 L86.971831,10.6901408 C86.971831,9.33802141 87.2464761,8.1760612 87.7957746,7.20422535 C88.3450732,6.23238951 89.1056289,5.49296028 90.0774648,4.98591549 C91.0196031,4.49436507 92.0848293,4.24108299 93.2731736,4.22606232 C93.2851206,4.22559084 93.2972342,4.22535211 93.309515,4.22535211 C93.3222624,4.22535211 93.3349958,4.22535211 93.3477152,4.22535211 Z" id="Combined-Shape-Copy-12" fill="#1E81C1"></path>
                        <path d="M38.7702504,4.22535211 C38.7829699,4.22535211 38.7957033,4.22535211 38.8084507,4.22535211 C38.8207314,4.22535211 38.832845,4.22559084 38.844792,4.22606232 C40.0331363,4.24108299 41.0983626,4.49436507 42.0405009,4.98591549 C43.0123367,5.49296028 43.7728925,6.23238951 44.322191,7.20422535 C44.8714895,8.1760612 45.1461347,9.33802141 45.1461347,10.6901408 L45.1461347,17.5098592 C45.1461347,17.7295786 45.0743044,17.9112669 44.9306417,18.0549296 C44.786979,18.1985923 44.6052907,18.2704225 44.3855713,18.2704225 C44.1658519,18.2704225 43.9841636,18.1985923 43.8405009,18.0549296 C43.6968382,17.9112669 43.6250079,17.7295786 43.6250079,17.5098592 L43.6250079,10.6901408 C43.6250079,9.08449901 43.1728998,7.85915915 42.2686699,7.01408451 C41.3723745,6.17642531 40.2062462,5.75392675 38.7702504,5.74657648 C37.3342547,5.75392675 36.1681263,6.17642531 35.271831,7.01408451 C34.3676011,7.85915915 33.915493,9.08449901 33.915493,10.6901408 L33.915493,17.5098592 C33.915493,17.7295786 33.8436627,17.9112669 33.7,18.0549296 C33.5563373,18.1985923 33.374649,18.2704225 33.1549296,18.2704225 C32.9352102,18.2704225 32.7535218,18.1985923 32.6098592,18.0549296 C32.4661965,17.9112669 32.3943662,17.7295786 32.3943662,17.5098592 L32.3943662,10.6901408 C32.3943662,9.33802141 32.6690113,8.1760612 33.2183099,7.20422535 C33.7676084,6.23238951 34.5281642,5.49296028 35.5,4.98591549 C36.4421383,4.49436507 37.5073645,4.24108299 38.6957088,4.22606232 C38.7076558,4.22559084 38.7197694,4.22535211 38.7320502,4.22535211 C38.7447976,4.22535211 38.757531,4.22535211 38.7702504,4.22535211 Z" id="Combined-Shape-Copy-9" fill="#1E81C1" transform="translate(38.770250, 11.247887) scale(1, -1) translate(-38.770250, -11.247887) "></path>
                    </g>
                </g>
            </g>
        </g>
    </g>
</svg>