<?xml version="1.0" encoding="UTF-8"?>
<svg width="1920px" height="1200px" viewBox="0 0 1920 1200" version="1.1" xmlns="http://www.w3.org/2000/svg" xmlns:xlink="http://www.w3.org/1999/xlink">
    <!-- Generator: Sketch 59.1 (86144) - https://sketch.com -->
    <title>Rides_BG</title>
    <desc>Created with Sketch.</desc>
    <g id="Rides_BG" stroke="none" stroke-width="1" fill="none" fill-rule="evenodd">
        <rect fill="#FFFFFF" x="0" y="0" width="1920" height="1200"></rect>
        <path d="M36.6061949,108 C41.1281296,108 44.7930081,111.664878 44.7930081,116.186813 L44.7930081,116.186813 L44.7930081,131.911251 C55.5573878,134.808615 65.8484682,139.074712 75.5191413,144.645583 L75.5191413,144.645583 L86.6352986,133.526228 C89.8332725,130.328254 95.017188,130.328254 98.2119641,133.523029 L98.2119641,133.523029 L134.422623,169.704907 C135.95765,171.239934 136.821103,173.325013 136.824301,175.496437 C136.824301,177.667861 135.960848,179.75294 134.425821,181.287968 L134.425821,181.287968 L123.293674,192.420115 C128.864544,202.090789 133.127443,212.381868 136.024808,223.14305 L136.024808,223.14305 L151.838788,223.14305 C156.360723,223.14305 160.025601,226.807929 160.025601,231.329863 L160.025601,231.329863 L160.025601,282.519832 C160.025601,287.041766 156.360723,290.706645 151.838788,290.706645 L151.838788,290.706645 L136.028005,290.706645 C133.130641,301.471025 128.864544,311.762105 123.293674,321.432778 L123.293674,321.432778 L134.486581,332.625687 C137.681358,335.820463 137.681358,341.004378 134.486581,344.202352 L134.486581,344.202352 L98.3047052,380.409813 C96.7696777,381.948038 94.6845987,382.811491 92.5163728,382.811491 C90.3417505,382.811491 88.2598693,381.948038 86.7248419,380.413011 L86.7248419,380.413011 L75.5191413,369.20731 C65.8484682,374.778181 55.5573878,379.044278 44.7930081,381.941642 L44.7930081,381.941642 L44.7930081,397.813187 C44.7930081,402.335122 41.1281296,406 36.6061949,406 L36.6061949,406 L-14.5837736,406 C-19.1025105,406 -22.7705867,402.335122 -22.7705867,397.813187 L-22.7705867,397.813187 L-22.7705867,381.941642 C-33.5317687,379.044278 -43.8228491,374.778181 -53.49672,369.20731 L-53.49672,369.20731 L-64.6992228,380.413011 C-66.2342502,381.948038 -68.3161315,382.811491 -70.4875551,382.811491 L-70.4875551,382.811491 C-72.6621774,382.811491 -74.7440586,381.944841 -76.2790861,380.409813 L-76.2790861,380.409813 L-112.460962,344.202352 C-115.658936,341.004378 -115.655738,335.820463 -112.460962,332.625687 L-112.460962,332.625687 L-101.268055,321.432778 C-106.838925,311.762105 -111.105021,301.471025 -114.002386,290.706645 L-114.002386,290.706645 L-129.813169,290.706645 C-131.987791,290.706645 -134.069673,289.843192 -135.6047,288.308165 C-137.139728,286.773137 -138.00318,284.688058 -137.999991,282.516634 L-137.999991,282.516634 L-137.971201,231.326666 C-137.971201,226.807929 -134.306322,223.14305 -129.784388,223.14305 L-129.784388,223.14305 L-114.002386,223.14305 C-111.105021,212.37867 -106.838925,202.090789 -101.268055,192.420115 L-101.268055,192.420115 L-112.400201,181.287968 C-113.935229,179.75294 -114.798681,177.667861 -114.798681,175.496437 C-114.798681,173.325013 -113.935229,171.243132 -112.397004,169.708104 L-112.397004,169.708104 L-76.1895428,133.523029 C-72.9915689,130.328254 -67.8076534,130.331452 -64.6128773,133.526228 L-64.6128773,133.526228 L-53.4935222,144.645583 C-43.8228491,139.074712 -33.5317687,134.808615 -22.7705867,131.914449 L-22.7705867,131.914449 L-22.7705867,116.186813 C-22.7705867,111.664878 -19.1025105,108 -14.5837736,108 L-14.5837736,108 Z M11.0128095,189.353258 C-26.288358,189.353258 -56.6339322,219.698832 -56.6339322,257 C-56.6339322,294.301168 -26.288358,324.646742 11.0128095,324.646742 C48.3139771,324.646742 78.6595513,294.301168 78.6595513,257 C78.6595513,219.698832 48.3139771,189.353258 11.0128095,189.353258 Z" id="Combined-Shape" stroke="#C4CDD5" stroke-width="1.5" opacity="0.5" stroke-linecap="round" stroke-linejoin="round"></path>
        <path d="M234.843024,480 C235.874875,480 236.711156,480.836281 236.711156,481.868132 L236.711156,481.868132 L236.711156,485.456259 C239.167458,486.117402 241.515758,487.090874 243.722489,488.362079 L243.722489,488.362079 L246.259061,485.824777 C246.9888,485.095038 248.171707,485.095038 248.900717,485.824047 L248.900717,485.824047 L257.163552,494.080314 C257.513826,494.430589 257.710856,494.906379 257.711585,495.401871 C257.711585,495.897364 257.514556,496.373154 257.164281,496.723429 L257.164281,496.723429 L254.62406,499.263651 C255.895265,501.470381 256.868007,503.818681 257.529151,506.274253 L257.529151,506.274253 L261.13771,506.274253 C262.169561,506.274253 263.005842,507.110534 263.005842,508.142385 L263.005842,508.142385 L263.005842,519.823317 C263.005842,520.855168 262.169561,521.691449 261.13771,521.691449 L261.13771,521.691449 L257.52988,521.691449 C256.868737,524.147751 255.895265,526.496051 254.62406,528.702782 L254.62406,528.702782 L257.178146,531.256868 C257.907155,531.985877 257.907155,533.168784 257.178146,533.898523 L257.178146,533.898523 L248.921879,542.160629 C248.571604,542.511633 248.095814,542.708662 247.601052,542.708662 C247.104829,542.708662 246.629769,542.511633 246.279494,542.161358 L246.279494,542.161358 L243.722489,539.604353 C241.515758,540.875558 239.167458,541.84903 236.711156,542.510173 L236.711156,542.510173 L236.711156,546.131868 C236.711156,547.163719 235.874875,548 234.843024,548 L234.843024,548 L223.162092,548 C222.130971,548 221.29396,547.163719 221.29396,546.131868 L221.29396,546.131868 L221.29396,542.510173 C218.838388,541.84903 216.490088,540.875558 214.282628,539.604353 L214.282628,539.604353 L211.726352,542.161358 C211.376077,542.511633 210.901017,542.708662 210.405524,542.708662 L210.405524,542.708662 C209.909302,542.708662 209.434242,542.510903 209.083967,542.160629 L209.083967,542.160629 L200.8277,533.898523 C200.097961,533.168784 200.098691,531.985877 200.8277,531.256868 L200.8277,531.256868 L203.381786,528.702782 C202.110581,526.496051 201.137109,524.147751 200.475966,521.691449 L200.475966,521.691449 L196.868136,521.691449 C196.371913,521.691449 195.896853,521.49442 195.546579,521.144145 C195.196304,520.79387 194.999274,520.31808 195.000002,519.822588 L195.000002,519.822588 L195.006572,508.141655 C195.006572,507.110534 195.842853,506.274253 196.874704,506.274253 L196.874704,506.274253 L200.475966,506.274253 C201.137109,503.817952 202.110581,501.470381 203.381786,499.263651 L203.381786,499.263651 L200.841565,496.723429 C200.49129,496.373154 200.294261,495.897364 200.294261,495.401871 C200.294261,494.906379 200.49129,494.431319 200.842294,494.081044 L200.842294,494.081044 L209.1044,485.824047 C209.834139,485.095038 211.017046,485.095768 211.746055,485.824777 L211.746055,485.824777 L214.283357,488.362079 C216.490088,487.090874 218.838388,486.117402 221.29396,485.456988 L221.29396,485.456988 L221.29396,481.868132 C221.29396,480.836281 222.130971,480 223.162092,480 L223.162092,480 Z M229.002923,498.563831 C220.491247,498.563831 213.566754,505.488324 213.566754,514 C213.566754,522.511676 220.491247,529.436169 229.002923,529.436169 C237.514599,529.436169 244.439092,522.511676 244.439092,514 C244.439092,505.488324 237.514599,498.563831 229.002923,498.563831 Z" id="Combined-Shape-Copy" stroke="#C4CDD5" stroke-width="1.5" opacity="0.5" stroke-linecap="round" stroke-linejoin="round"></path>
    </g>
</svg>