<?xml version="1.0" encoding="UTF-8"?>
<svg width="200px" height="200px" viewBox="0 0 200 200" version="1.1" xmlns="http://www.w3.org/2000/svg" xmlns:xlink="http://www.w3.org/1999/xlink">
    <!-- Generator: Sketch 59.1 (86144) - https://sketch.com -->
    <title>Rightbanner_img1</title>
    <desc>Created with Sketch.</desc>
    <g id="Rightbanner_img1" stroke="none" stroke-width="1" fill="none" fill-rule="evenodd">
        <rect id="Rectangle" fill="#F8D7A9" x="16.3466974" y="16.5" width="167" height="167" rx="6"></rect>
        <path d="M99.8466974,16.5 L183.346697,40.5 L183.346697,86.5 C183.346697,89.8137085 180.660406,92.5 177.346697,92.5 L22.3466974,92.5 C19.0329889,92.5 16.3466974,89.8137085 16.3466974,86.5 L16.3466974,40.5 L16.3466974,40.5 L99.8466974,16.5 Z" id="Triangle" fill="#F6BD6B" transform="translate(99.846697, 54.500000) scale(1, -1) translate(-99.846697, -54.500000) "></path>
        <path d="M55.9626974,107.004 C55.9626974,106.635998 56.0826962,106.336001 56.3226974,106.104 C56.5626986,105.871999 56.8586957,105.756 57.2106974,105.756 C57.5786993,105.756 57.8786963,105.871999 58.1106974,106.104 C58.3426986,106.336001 58.4586974,106.635998 58.4586974,107.004 L58.4586974,123.252 C58.4586974,123.604002 58.3426986,123.899999 58.1106974,124.14 C57.8786963,124.380001 57.5786993,124.5 57.2106974,124.5 C56.8586957,124.5 56.5626986,124.380001 56.3226974,124.14 C56.0826962,123.899999 55.9626974,123.604002 55.9626974,123.252 L55.9626974,107.004 Z M68.6106974,122.1 C68.8986989,122.1 69.1426964,122.211999 69.3426974,122.436 C69.5426984,122.660001 69.6426974,122.947998 69.6426974,123.3 C69.6426974,123.652002 69.5106988,123.939999 69.2466974,124.164 C68.9826961,124.388001 68.6426995,124.5 68.2266974,124.5 L67.7946974,124.5 C67.0106935,124.5 66.2947007,124.296002 65.6466974,123.888 C64.9986942,123.479998 64.4906993,122.924004 64.1226974,122.22 C63.7546956,121.515996 63.5706974,120.724004 63.5706974,119.844 L63.5706974,113.916 L62.4666974,113.916 C62.1306958,113.916 61.8586985,113.820001 61.6506974,113.628 C61.4426964,113.435999 61.3386974,113.196 61.3386974,112.908 C61.3386974,112.587998 61.4426964,112.332001 61.6506974,112.14 C61.8586985,111.947999 62.1306958,111.852 62.4666974,111.852 L63.5706974,111.852 L63.5706974,108.396 C63.5706974,108.043998 63.6826963,107.756001 63.9066974,107.532 C64.1306986,107.307999 64.4186957,107.196 64.7706974,107.196 C65.1226992,107.196 65.4106963,107.307999 65.6346974,107.532 C65.8586986,107.756001 65.9706974,108.043998 65.9706974,108.396 L65.9706974,111.852 L68.0106974,111.852 C68.3466991,111.852 68.6186964,111.947999 68.8266974,112.14 C69.0346985,112.332001 69.1386974,112.587998 69.1386974,112.908 C69.1386974,113.196 69.0346985,113.435999 68.8266974,113.628 C68.6186964,113.820001 68.3466991,113.916 68.0106974,113.916 L65.9706974,113.916 L65.9706974,119.844 C65.9706974,120.484003 66.1466957,121.019998 66.4986974,121.452 C66.8506992,121.884002 67.2826949,122.1 67.7946974,122.1 L68.6106974,122.1 Z M71.2026974,107.004 C71.2026974,106.667998 71.3226962,106.380001 71.5626974,106.14 C71.8026986,105.899999 72.0906958,105.78 72.4266974,105.78 C72.746699,105.78 73.0266962,105.899999 73.2666974,106.14 C73.5066986,106.380001 73.6266974,106.667998 73.6266974,107.004 L73.4106974,110.34 C73.4106974,110.612001 73.3146984,110.843999 73.1226974,111.036 C72.9306965,111.228001 72.6986988,111.324 72.4266974,111.324 C72.1546961,111.324 71.9226984,111.228001 71.7306974,111.036 C71.5386965,110.843999 71.4346975,110.612001 71.4186974,110.34 L71.2026974,107.004 Z M80.9946974,111.276 C82.0347026,111.276 82.9666933,111.443998 83.7906974,111.78 C84.6147016,112.116002 85.266695,112.579997 85.7466974,113.172 C85.9546985,113.428001 86.0586974,113.683999 86.0586974,113.94 C86.0586974,114.212001 85.9226988,114.459999 85.6506974,114.684 C85.4746966,114.812001 85.2506988,114.876 84.9786974,114.876 C84.5626954,114.876 84.1866991,114.724002 83.8506974,114.42 C83.4506954,114.051998 83.0266997,113.792001 82.5786974,113.64 C82.1306952,113.487999 81.5867006,113.412 80.9466974,113.412 C80.2106938,113.412 79.6066998,113.535999 79.1346974,113.784 C78.6626951,114.032001 78.4266974,114.379998 78.4266974,114.828 C78.4266974,115.148002 78.5066966,115.415999 78.6666974,115.632 C78.8266982,115.848001 79.1306952,116.047999 79.5786974,116.232 C79.9769216,116.395556 80.5331637,116.55595 81.2474371,116.713185 L81.5226974,116.772 C83.2667062,117.124002 84.5026938,117.611997 85.2306974,118.236 C85.9587011,118.860003 86.3226974,119.667995 86.3226974,120.66 C86.3226974,121.396004 86.1226994,122.063997 85.7226974,122.664 C85.3226954,123.264003 84.7347013,123.735998 83.9586974,124.08 C83.1826936,124.424002 82.2507029,124.596 81.1626974,124.596 C80.074692,124.596 79.0507022,124.428002 78.0906974,124.092 C77.1306926,123.755998 76.3787002,123.316003 75.8346974,122.772 C75.6266964,122.563999 75.5226974,122.316001 75.5226974,122.028 C75.5226974,121.643998 75.6826958,121.332001 76.0026974,121.092 C76.306699,120.867999 76.5866962,120.756 76.8426974,120.756 C77.162699,120.756 77.466696,120.899999 77.7546974,121.188 C78.058699,121.524002 78.5146944,121.815999 79.1226974,122.064 C79.7307005,122.312001 80.378694,122.436 81.0666974,122.436 C81.978702,122.436 82.6866949,122.284002 83.1906974,121.98 C83.6947,121.675998 83.9466974,121.268003 83.9466974,120.756 C83.9466974,120.259998 83.6986999,119.848002 83.2026974,119.52 C82.7480285,119.219332 82.0043131,118.962362 80.971532,118.749084 L80.6826974,118.692 C77.6106821,118.099997 76.0746974,116.83601 76.0746974,114.9 C76.0746974,114.115996 76.3066951,113.452003 76.7706974,112.908 C77.2346998,112.363997 77.8426937,111.956001 78.5946974,111.684 C79.3467012,111.411999 80.1466932,111.276 80.9946974,111.276 Z M102.042697,122.1 C102.330699,122.1 102.574696,122.211999 102.774697,122.436 C102.974698,122.660001 103.074697,122.947998 103.074697,123.3 C103.074697,123.652002 102.942699,123.939999 102.678697,124.164 C102.414696,124.388001 102.0747,124.5 101.658697,124.5 L101.226697,124.5 C100.442694,124.5 99.7267007,124.296002 99.0786974,123.888 C98.4306942,123.479998 97.9226993,122.924004 97.5546974,122.22 C97.1866956,121.515996 97.0026974,120.724004 97.0026974,119.844 L97.0026974,113.916 L95.8986974,113.916 C95.5626958,113.916 95.2906985,113.820001 95.0826974,113.628 C94.8746964,113.435999 94.7706974,113.196 94.7706974,112.908 C94.7706974,112.587998 94.8746964,112.332001 95.0826974,112.14 C95.2906985,111.947999 95.5626958,111.852 95.8986974,111.852 L97.0026974,111.852 L97.0026974,108.396 C97.0026974,108.043998 97.1146963,107.756001 97.3386974,107.532 C97.5626986,107.307999 97.8506957,107.196 98.2026974,107.196 C98.5546992,107.196 98.8426963,107.307999 99.0666974,107.532 C99.2906986,107.756001 99.4026974,108.043998 99.4026974,108.396 L99.4026974,111.852 L101.442697,111.852 C101.778699,111.852 102.050696,111.947999 102.258697,112.14 C102.466698,112.332001 102.570697,112.587998 102.570697,112.908 C102.570697,113.196 102.466698,113.435999 102.258697,113.628 C102.050696,113.820001 101.778699,113.916 101.442697,113.916 L99.4026974,113.916 L99.4026974,119.844 C99.4026974,120.484003 99.5786957,121.019998 99.9306974,121.452 C100.282699,121.884002 100.714695,122.1 101.226697,122.1 L102.042697,122.1 Z M112.602697,111.252 C113.706703,111.252 114.698693,111.491998 115.578697,111.972 C116.458702,112.452002 117.146695,113.151995 117.642697,114.072 C118.1387,114.992005 118.386697,116.099994 118.386697,117.396 L118.386697,123.3 C118.386697,123.652002 118.270699,123.943999 118.038697,124.176 C117.806696,124.408001 117.514699,124.524 117.162697,124.524 C116.810696,124.524 116.518699,124.408001 116.286697,124.176 C116.054696,123.943999 115.938697,123.652002 115.938697,123.3 L115.938697,117.396 C115.938697,116.099994 115.590701,115.120003 114.894697,114.456 C114.198694,113.791997 113.274703,113.46 112.122697,113.46 C111.450694,113.46 110.8387,113.595999 110.286697,113.868 C109.734695,114.140001 109.302699,114.507998 108.990697,114.972 C108.678696,115.436002 108.522697,115.955997 108.522697,116.532 L108.522697,123.3 C108.522697,123.652002 108.410699,123.943999 108.186697,124.176 C107.962696,124.408001 107.666699,124.524 107.298697,124.524 C106.946696,124.524 106.654699,124.408001 106.422697,124.176 C106.190696,123.943999 106.074697,123.652002 106.074697,123.3 L106.074697,106.98 C106.074697,106.611998 106.190696,106.316001 106.422697,106.092 C106.654699,105.867999 106.946696,105.756 107.298697,105.756 C107.666699,105.756 107.962696,105.867999 108.186697,106.092 C108.410699,106.316001 108.522697,106.611998 108.522697,106.98 L108.522697,112.86 C109.0347,112.347997 109.642694,111.952001 110.346697,111.672 C111.050701,111.391999 111.802693,111.252 112.602697,111.252 Z M128.418697,111.276 C129.650704,111.276 130.766692,111.567997 131.766697,112.152 C132.766702,112.736003 133.558695,113.535995 134.142697,114.552 C134.7267,115.568005 135.018697,116.699994 135.018697,117.948 L135.018697,123.3 C135.018697,123.652002 134.902699,123.943999 134.670697,124.176 C134.438696,124.408001 134.146699,124.524 133.794697,124.524 C133.442696,124.524 133.150699,124.408001 132.918697,124.176 C132.686696,123.943999 132.570697,123.652002 132.570697,123.3 L132.570697,122.412 C132.010695,123.100003 131.330701,123.635998 130.530697,124.02 C129.730693,124.404002 128.866702,124.596 127.938697,124.596 C126.786692,124.596 125.742702,124.308003 124.806697,123.732 C123.870693,123.155997 123.1347,122.360005 122.598697,121.344 C122.062695,120.327995 121.794697,119.196006 121.794697,117.948 C121.794697,116.699994 122.082695,115.568005 122.658697,114.552 C123.2347,113.535995 124.030692,112.736003 125.046697,112.152 C126.062703,111.567997 127.186691,111.276 128.418697,111.276 Z M128.418697,122.436 C129.218701,122.436 129.942694,122.240002 130.590697,121.848 C131.238701,121.455998 131.746696,120.920003 132.114697,120.24 C132.482699,119.559997 132.666697,118.796004 132.666697,117.948 C132.666697,117.099996 132.482699,116.332003 132.114697,115.644 C131.746696,114.955997 131.238701,114.416002 130.590697,114.024 C129.942694,113.631998 129.218701,113.436 128.418697,113.436 C127.618693,113.436 126.894701,113.631998 126.246697,114.024 C125.598694,114.416002 125.086699,114.955997 124.710697,115.644 C124.334696,116.332003 124.146697,117.099996 124.146697,117.948 C124.146697,118.796004 124.334696,119.559997 124.710697,120.24 C125.086699,120.920003 125.598694,121.455998 126.246697,121.848 C126.894701,122.240002 127.618693,122.436 128.418697,122.436 Z M144.258697,122.1 C144.546699,122.1 144.790696,122.211999 144.990697,122.436 C145.190698,122.660001 145.290697,122.947998 145.290697,123.3 C145.290697,123.652002 145.158699,123.939999 144.894697,124.164 C144.630696,124.388001 144.2907,124.5 143.874697,124.5 L143.442697,124.5 C142.658694,124.5 141.942701,124.296002 141.294697,123.888 C140.646694,123.479998 140.138699,122.924004 139.770697,122.22 C139.402696,121.515996 139.218697,120.724004 139.218697,119.844 L139.218697,113.916 L138.114697,113.916 C137.778696,113.916 137.506698,113.820001 137.298697,113.628 C137.090696,113.435999 136.986697,113.196 136.986697,112.908 C136.986697,112.587998 137.090696,112.332001 137.298697,112.14 C137.506698,111.947999 137.778696,111.852 138.114697,111.852 L139.218697,111.852 L139.218697,108.396 C139.218697,108.043998 139.330696,107.756001 139.554697,107.532 C139.778699,107.307999 140.066696,107.196 140.418697,107.196 C140.770699,107.196 141.058696,107.307999 141.282697,107.532 C141.506699,107.756001 141.618697,108.043998 141.618697,108.396 L141.618697,111.852 L143.658697,111.852 C143.994699,111.852 144.266696,111.947999 144.474697,112.14 C144.682698,112.332001 144.786697,112.587998 144.786697,112.908 C144.786697,113.196 144.682698,113.435999 144.474697,113.628 C144.266696,113.820001 143.994699,113.916 143.658697,113.916 L141.618697,113.916 L141.618697,119.844 C141.618697,120.484003 141.794696,121.019998 142.146697,121.452 C142.498699,121.884002 142.930695,122.1 143.442697,122.1 L144.258697,122.1 Z M61.2666974,140.54 C62.6427043,140.54 63.8026927,140.819997 64.7466974,141.38 C65.6907022,141.940003 66.4906942,142.739995 67.1466974,143.78 C67.3386984,144.084002 67.4346974,144.371999 67.4346974,144.644 C67.4346974,144.996002 67.274699,145.283999 66.9546974,145.508 C66.7786966,145.620001 66.5706986,145.676 66.3306974,145.676 C66.0906962,145.676 65.8666985,145.616001 65.6586974,145.496 C65.4922966,145.4 65.3566175,145.27584 65.2516576,145.12352 L65.1786974,145.004 C64.7466953,144.283996 64.2067007,143.736002 63.5586974,143.36 C62.9106942,142.983998 62.0907024,142.796 61.0986974,142.796 C59.8826914,142.796 58.8987012,143.031998 58.1466974,143.504 C57.3946937,143.976002 57.0186974,144.659996 57.0186974,145.556 C57.0186974,146.388004 57.3546941,147.083997 58.0266974,147.644 C58.6567006,148.169003 59.7507527,148.52525 61.3088835,148.71275 L61.6266974,148.748 C63.546707,148.940001 65.0346922,149.519995 66.0906974,150.488 C67.1467027,151.456005 67.6746974,152.731992 67.6746974,154.316 C67.6746974,155.468006 67.3627006,156.455996 66.7386974,157.28 C66.1146943,158.104004 65.2867026,158.719998 64.2546974,159.128 C63.2226923,159.536002 62.1147034,159.74 60.9306974,159.74 C59.3786897,159.74 57.9667038,159.388004 56.6946974,158.684 C55.4226911,157.979996 54.5466998,157.060006 54.0666974,155.924 C53.986697,155.731999 53.9466974,155.572001 53.9466974,155.444 C53.9466974,155.203999 54.0346966,154.992001 54.2106974,154.808 C54.3514981,154.660799 54.5332567,154.552 54.7559769,154.4816 L54.9306974,154.436 C54.9786977,154.42 55.0586969,154.412 55.1706974,154.412 C55.4266987,154.412 55.6706963,154.487999 55.9026974,154.64 C56.0882984,154.761601 56.2354974,154.916479 56.3442973,155.10464 L56.4186974,155.252 C56.7066989,155.876003 57.2746932,156.403998 58.1226974,156.836 C58.9707017,157.268002 59.9066923,157.484 60.9306974,157.484 C62.1307034,157.484 63.1466933,157.208003 63.9786974,156.656 C64.8107016,156.103997 65.2266974,155.348005 65.2266974,154.388 C65.2266974,153.475995 64.874701,152.696003 64.1706974,152.048 C63.5169799,151.446283 62.5459685,151.061857 61.2576375,150.894714 L60.9546974,150.86 C58.9706875,150.667999 57.4107031,150.088005 56.2746974,149.12 C55.1386918,148.151995 54.5706974,146.940007 54.5706974,145.484 C54.5706974,144.459995 54.8626945,143.576004 55.4466974,142.832 C56.0307004,142.087996 56.8306924,141.520002 57.8466974,141.128 C58.8627025,140.735998 60.0026911,140.54 61.2666974,140.54 Z M71.4906974,142.004 C71.4906974,141.635998 71.6106962,141.336001 71.8506974,141.104 C72.0906986,140.871999 72.3866957,140.756 72.7386974,140.756 C73.1066993,140.756 73.4066963,140.871999 73.6386974,141.104 C73.8706986,141.336001 73.9866974,141.635998 73.9866974,142.004 L73.9866974,158.252 C73.9866974,158.604002 73.8706986,158.899999 73.6386974,159.14 C73.4066963,159.380001 73.1066993,159.5 72.7386974,159.5 C72.3866957,159.5 72.0906986,159.380001 71.8506974,159.14 C71.6106962,158.899999 71.4906974,158.604002 71.4906974,158.252 L71.4906974,142.004 Z M96.3066974,140.756 C96.6586992,140.756 96.9546962,140.875999 97.1946974,141.116 C97.4346986,141.356001 97.5546974,141.651998 97.5546974,142.004 L97.5546974,158.252 C97.5546974,158.604002 97.4306987,158.899999 97.1826974,159.14 C96.9346962,159.380001 96.6426991,159.5 96.3066974,159.5 C95.9546957,159.5 95.6586986,159.380001 95.4186974,159.14 C95.1786962,158.899999 95.0586974,158.604002 95.0586974,158.252 L95.0586974,146.324 L89.2506974,158.156 C88.9786961,158.572002 88.6186997,158.78 88.1706974,158.78 C87.6426948,158.78 87.2586986,158.532002 87.0186974,158.036 L81.2826974,146.54 L81.2826974,158.252 C81.2826974,158.604002 81.1626986,158.899999 80.9226974,159.14 C80.6826962,159.380001 80.3866992,159.5 80.0346974,159.5 C79.6826957,159.5 79.3866986,159.380001 79.1466974,159.14 C78.9066962,158.899999 78.7866974,158.604002 78.7866974,158.252 L78.7866974,142.004 C78.7866974,141.651998 78.9066962,141.356001 79.1466974,141.116 C79.3866986,140.875999 79.6826957,140.756 80.0346974,140.756 C80.5146998,140.756 80.8826962,140.979998 81.1386974,141.428 L88.2666974,155.708 L95.2026974,141.428 C95.4586987,140.979998 95.826695,140.756 96.3066974,140.756 Z M104.850697,158.252 C104.850697,158.604002 104.734699,158.899999 104.502697,159.14 C104.270696,159.380001 103.970699,159.5 103.602697,159.5 C103.250696,159.5 102.954699,159.380001 102.714697,159.14 C102.474696,158.899999 102.354697,158.604002 102.354697,158.252 L102.354697,142.004 C102.354697,141.635998 102.474696,141.336001 102.714697,141.104 C102.954699,140.871999 103.250696,140.756 103.602697,140.756 L108.402697,140.756 C109.586703,140.756 110.646693,141.019997 111.582697,141.548 C112.518702,142.076003 113.246695,142.811995 113.766697,143.756 C114.2867,144.700005 114.546697,145.771994 114.546697,146.972 C114.546697,148.140006 114.2867,149.179995 113.766697,150.092 C113.246695,151.004005 112.518702,151.715997 111.582697,152.228 C110.646693,152.740003 109.586703,152.996 108.402697,152.996 L104.850697,152.996 L104.850697,158.252 Z M108.402697,150.692 C109.490703,150.692 110.386694,150.344003 111.090697,149.648 C111.794701,148.951997 112.146697,148.06 112.146697,146.972 C112.146697,145.835994 111.794701,144.900004 111.090697,144.164 C110.386694,143.427996 109.490703,143.06 108.402697,143.06 L104.850697,143.06 L104.850697,150.692 L108.402697,150.692 Z M128.466697,157.004 C128.818699,157.004 129.114696,157.123999 129.354697,157.364 C129.594699,157.604001 129.714697,157.899998 129.714697,158.252 C129.714697,158.604002 129.594699,158.899999 129.354697,159.14 C129.114696,159.380001 128.818699,159.5 128.466697,159.5 L118.530697,159.5 C118.178696,159.5 117.886699,159.380001 117.654697,159.14 C117.422696,158.899999 117.306697,158.604002 117.306697,158.252 L117.306697,142.004 C117.306697,141.651998 117.426696,141.356001 117.666697,141.116 C117.906699,140.875999 118.194696,140.756 118.530697,140.756 C118.882699,140.756 119.178696,140.875999 119.418697,141.116 C119.658699,141.356001 119.778697,141.651998 119.778697,142.004 L119.778697,157.004 L128.466697,157.004 Z M144.810697,157.196 C145.178699,157.196 145.474696,157.299999 145.698697,157.508 C145.922699,157.716001 146.034697,157.987998 146.034697,158.324 C146.034697,158.676002 145.922699,158.959999 145.698697,159.176 C145.474696,159.392001 145.178699,159.5 144.810697,159.5 L133.962697,159.5 C133.610696,159.5 133.314699,159.380001 133.074697,159.14 C132.834696,158.899999 132.714697,158.604002 132.714697,158.252 L132.714697,142.004 C132.714697,141.635998 132.834696,141.336001 133.074697,141.104 C133.314699,140.871999 133.610696,140.756 133.962697,140.756 L144.810697,140.756 C145.178699,140.756 145.474696,140.863999 145.698697,141.08 C145.922699,141.296001 146.034697,141.579998 146.034697,141.932 C146.034697,142.268002 145.922699,142.539999 145.698697,142.748 C145.474696,142.956001 145.178699,143.06 144.810697,143.06 L135.210697,143.06 L135.210697,148.892 L142.098697,148.892 C142.450699,148.892 142.742696,148.999999 142.974697,149.216 C143.206699,149.432001 143.322697,149.707998 143.322697,150.044 C143.322697,150.380002 143.206699,150.655999 142.974697,150.872 C142.742696,151.088001 142.450699,151.196 142.098697,151.196 L135.210697,151.196 L135.210697,157.196 L144.810697,157.196 Z" id="It'sthatSIMPLE" fill="#472F0C" fill-rule="nonzero"></path>
        <path d="M40.9111328,40.3476562 C40.9111328,39.7207 40.969726,39.3237313 41.0869141,39.1567383 C41.2041021,38.9897453 41.4531231,38.90625 41.8339844,38.90625 C42.191408,38.90625 42.4272455,38.9736321 42.5415039,39.1083984 C42.6557623,39.2431647 42.7128906,39.5712865 42.7128906,40.0927734 C42.7128906,40.608401 42.6601568,40.9233393 42.5546875,41.0375977 C42.4492182,41.151856 42.2089863,41.2089844 41.8339844,41.2089844 C41.4531231,41.2089844 41.2041021,41.151856 41.0869141,41.0375977 C40.969726,40.9233393 40.9111328,40.6933611 40.9111328,40.3476562 Z M43.2929688,50.4814453 C43.2929688,51.2255897 43.2490239,51.7910137 43.1611328,52.1777344 C43.0732417,52.5644551 42.9296885,52.8867175 42.7304688,53.1445312 C42.3964827,53.5781272 41.9335967,53.9077137 41.3417969,54.1333008 C40.749997,54.3588878 40.055668,54.4716797 39.2587891,54.4716797 C38.5966764,54.4716797 38.1103531,54.4042975 37.7998047,54.2695312 C37.4892563,54.134765 37.3339844,53.9267592 37.3339844,53.6455078 C37.3339844,53.4638663 37.4086907,53.3041999 37.5581055,53.1665039 C37.7075203,53.0288079 37.8847646,52.9599609 38.0898438,52.9599609 C38.2216803,52.9599609 38.4145498,52.9752196 38.6684565,53.0057372 L38.828125,53.0258789 C39.162111,53.0698244 39.4140617,53.0917969 39.5839844,53.0917969 C40.4394574,53.0917969 41.0488263,52.8940449 41.4121094,52.4985352 C41.7753924,52.1030254 41.9570312,51.4189502 41.9570312,50.4462891 L41.9570312,44.1269531 L38.5205078,44.1269531 C37.9521456,44.1269531 37.5961921,44.0815434 37.4526367,43.9907227 C37.3090813,43.8999019 37.2373047,43.7343762 37.2373047,43.4941406 C37.2373047,43.2890615 37.2958979,43.1352544 37.4130859,43.0327148 C37.530274,42.9301753 37.7060535,42.8789062 37.9404297,42.8789062 L42.7832031,42.8789062 C42.941407,42.8789062 43.0659175,42.9111325 43.1567383,42.9755859 C43.247559,43.0400394 43.2929688,43.1279291 43.2929688,43.2392578 L43.2929688,50.4814453 Z M49.1992188,47.7568359 C49.1992188,48.4951209 49.3544906,49.034178 49.6650391,49.3740234 C49.9755875,49.7138689 50.4677701,49.8837891 51.1416016,49.8837891 C51.7802766,49.8837891 52.3266579,49.6816426 52.7807617,49.2773438 C53.2348656,48.8730449 53.4619141,48.366214 53.4619141,47.7568359 L53.4619141,44.1269531 L52.2578125,44.1269531 C52.0292957,44.1269531 51.86377,44.0786138 51.7612305,43.9819336 C51.6586909,43.8852534 51.6074219,43.734376 51.6074219,43.5292969 C51.6074219,43.3066395 51.6630854,43.1425787 51.7744141,43.0371094 C51.8857427,42.9316401 52.0644519,42.8789062 52.3105469,42.8789062 L54.1826172,42.8789062 C54.4052746,42.8789062 54.5620113,42.9272456 54.652832,43.0239258 C54.7436528,43.120606 54.7890625,43.3564434 54.7890625,43.7314453 L54.7890625,49.7607422 L55.1933594,49.7607422 C55.4804702,49.7607422 55.6870111,49.8076167 55.8129883,49.9013672 C55.9389655,49.9951177 56.0019531,50.1503895 56.0019531,50.3671875 C56.0019531,50.5781261 55.9418951,50.7363276 55.8217773,50.8417969 C55.7016596,50.9472662 55.5273449,51 55.2988281,51 L53.9628906,51 C53.8046867,51 53.6816411,50.9677738 53.59375,50.9033203 C53.5058589,50.8388669 53.4619141,50.7509771 53.4619141,50.6396484 L53.4619141,50.0419922 C52.8994112,50.4755881 52.4174825,50.7729484 52.0161133,50.934082 C51.6147441,51.0952156 51.1914085,51.1757812 50.7460938,51.1757812 C49.779292,51.1757812 49.0542016,50.9194362 48.5708008,50.4067383 C48.0873999,49.8940404 47.8457031,49.1191458 47.8457031,48.0820312 L47.8457031,44.1269531 L47.6611328,44.1269531 C47.2626933,44.1269531 46.9902351,44.0800786 46.84375,43.9863281 C46.6972649,43.8925777 46.6240234,43.7285168 46.6240234,43.4941406 C46.6240234,43.2890615 46.6811518,43.1352544 46.7954102,43.0327148 C46.9096685,42.9301753 47.0869129,42.8789062 47.3271484,42.8789062 L48.6542969,42.8789062 C48.859376,42.8789062 49.0014644,42.9199215 49.0805664,43.0019531 C49.1596684,43.0839848 49.1992188,43.2656236 49.1992188,43.546875 L49.1992188,47.7568359 Z M58.3574219,50.3671875 L58.3574219,48.8027344 C58.3574219,48.5449206 58.4057612,48.3603521 58.5024414,48.2490234 C58.5991216,48.1376948 58.7558583,48.0820312 58.9726562,48.0820312 C59.1828624,48.0820312 59.3549344,48.2076403 59.4888762,48.4588618 L59.5439453,48.5742188 C59.6376958,48.7734385 59.7226559,48.9228511 59.7988281,49.0224609 C60.0449231,49.3388688 60.4082007,49.5922842 60.8886719,49.7827148 C61.369143,49.9731455 61.8994112,50.0683594 62.4794922,50.0683594 C63.100589,50.0683594 63.5986309,49.9423841 63.9736328,49.6904297 C64.3486347,49.4384753 64.5361328,49.1074239 64.5361328,48.6972656 C64.5361328,48.2812479 64.3852554,47.9853524 64.0834961,47.8095703 C63.7817368,47.6337882 63.2646521,47.5458984 62.5322266,47.5458984 L62.0488281,47.5458984 C60.8535096,47.5458984 59.9423859,47.3378927 59.3154297,46.921875 C58.6884734,46.5058573 58.375,45.9023477 58.375,45.1113281 C58.375,44.3378868 58.6811493,43.7373068 59.293457,43.3095703 C59.9057648,42.8818338 60.7656195,42.6679688 61.8730469,42.6679688 C62.324221,42.6679688 62.7841773,42.7309564 63.2529297,42.8569336 L63.9426,43.0365669 C63.969799,43.0427879 63.9860026,43.0458984 63.9912109,43.0458984 C64.0556644,43.0458984 64.17871,42.9887701 64.3603516,42.8745117 C64.5419931,42.7602533 64.7207022,42.703125 64.8964844,42.703125 C65.0957041,42.703125 65.2436519,42.7763665 65.340332,42.9228516 C65.4370122,43.0693367 65.4853516,43.289061 65.4853516,43.5820312 L65.4853516,44.6103516 C65.4853516,44.9209 65.438477,45.1450188 65.3447266,45.2827148 C65.2509761,45.4204108 65.1015635,45.4892578 64.8964844,45.4892578 C64.742675,45.4892578 64.5574654,45.3748638 64.3408512,45.1460728 L64.2460938,45.0410156 C64.0644522,44.8359365 63.9150396,44.6806646 63.7978516,44.5751953 C63.4873031,44.2880845 63.1562518,44.0815436 62.8046875,43.9555664 C62.4531232,43.8295892 62.0400414,43.7666016 61.5654297,43.7666016 C61.0146457,43.7666016 60.5708025,43.8881824 60.2338867,44.1313477 C59.896971,44.3745129 59.7285156,44.6835919 59.7285156,45.0585938 C59.7285156,45.4277362 59.9013655,45.6914055 60.2470703,45.8496094 C60.5661825,45.9956438 61.2247839,46.0842618 62.2228921,46.1154655 L62.4794922,46.1220703 C63.6982483,46.1513673 64.5888644,46.3637676 65.1513672,46.7592773 C65.71387,47.1547871 65.9951172,47.7656209 65.9951172,48.5917969 C65.9951172,49.3828165 65.6845734,50.0156226 65.0634766,50.4902344 C64.4423797,50.9648461 63.6044975,51.2021484 62.5498047,51.2021484 C62.2158186,51.2021484 61.8437521,51.171387 61.4335938,51.1098633 C61.0234354,51.0483395 60.5078156,50.9443367 59.8867188,50.7978516 C59.6816396,50.9326179 59.5058601,51.0336911 59.359375,51.1010742 C59.2128899,51.1684574 59.0898442,51.2021484 58.9902344,51.2021484 C58.7851552,51.2021484 58.6284185,51.1303718 58.5200195,50.9868164 C58.4116206,50.843261 58.3574219,50.6367201 58.3574219,50.3671875 Z M75.390625,43.3710938 C75.6777358,43.3710938 75.8872064,43.4208979 76.019043,43.5205078 C76.1508796,43.6201177 76.2167969,43.7783192 76.2167969,43.9951172 C76.2167969,44.2001963 76.1552741,44.3540034 76.0322266,44.456543 C75.9091791,44.5590825 75.7246106,44.6103516 75.4785156,44.6103516 L71.9189453,44.6103516 L71.9189453,47.5458984 C71.9189453,48.5068407 72.0434558,49.1396469 72.2924805,49.4443359 C72.5415052,49.749025 72.9677704,49.9013672 73.5712891,49.9013672 C74.0378441,49.9013672 74.5851418,49.7824872 75.2131948,49.544724 L75.8650178,49.2815561 C76.3893117,49.0736689 76.7233658,48.9697266 76.8671875,48.9697266 C77.0312508,48.9697266 77.1704096,49.0283197 77.284668,49.1455078 C77.3989264,49.2626959 77.4560547,49.4062492 77.4560547,49.5761719 C77.4560547,49.7695322 77.3842781,49.9379876 77.2407227,50.081543 C77.0971673,50.2250984 76.8525408,50.3642571 76.5068359,50.4990234 C75.9326143,50.7275402 75.4155296,50.8945307 74.9555664,51 C74.4956032,51.1054693 74.0634786,51.1582031 73.6591797,51.1582031 C72.9736294,51.1582031 72.3979515,51.0483409 71.9321289,50.8286133 C71.4663063,50.6088856 71.1191418,50.2822287 70.890625,49.8486328 C70.7734369,49.6435537 70.6899417,49.400392 70.6401367,49.1191406 C70.5965574,48.8730456 70.5720443,48.5103169 70.566597,48.0309456 L70.5654297,44.6103516 L69.0712891,44.6103516 C68.8251941,44.6103516 68.6464849,44.5620122 68.5351562,44.465332 C68.4238276,44.3686519 68.3681641,44.2119151 68.3681641,43.9951172 C68.3681641,43.7548816 68.4443352,43.5908208 68.5966797,43.5029297 C68.7490242,43.4150386 69.0742163,43.3710938 69.5722656,43.3710938 L70.5654297,43.3710938 L70.5654297,41.1035156 C70.5654297,40.8515612 70.6196284,40.6655279 70.7280273,40.5454102 C70.8364263,40.4252924 71.0048817,40.3652344 71.2333984,40.3652344 C71.4912122,40.3652344 71.6699214,40.4384758 71.7695312,40.5849609 C71.8691411,40.731446 71.9189453,41.0654271 71.9189453,41.5869141 L71.9189453,43.3710938 L75.390625,43.3710938 Z M97.2402344,51 C97.1171869,51 97.030762,50.9692386 96.980957,50.9077148 C96.9311521,50.8461911 96.90625,50.7275399 96.90625,50.5517578 L96.90625,49.8310547 C96.5546857,50.27051 96.115237,50.6118152 95.5878906,50.8549805 C95.0605442,51.0981457 94.4892609,51.2197266 93.8740234,51.2197266 C92.766596,51.2197266 91.8393592,50.8256875 91.0922852,50.0375977 C90.3452111,49.2495078 89.9716797,48.2695371 89.9716797,47.0976562 C89.9716797,45.8847596 90.3701132,44.8754923 91.1669922,44.0698242 C91.9638712,43.2641561 92.9570253,42.8613281 94.1464844,42.8613281 C94.750003,42.8613281 95.2919898,42.9682606 95.7724609,43.1821289 C96.2529321,43.3959972 96.6660139,43.7109354 97.0117188,44.1269531 L97.0117188,40.7607422 L96.5458984,40.7607422 C96.0361303,40.7607422 95.7065437,40.7153325 95.5571289,40.6245117 C95.4077141,40.533691 95.3330078,40.3681653 95.3330078,40.1279297 C95.3330078,39.9169911 95.3930658,39.7587896 95.5131836,39.6533203 C95.6333014,39.547851 95.807616,39.4951172 96.0361328,39.4951172 L97.8378906,39.4951172 C98.0136728,39.4951172 98.1411129,39.5244138 98.2202148,39.5830078 C98.2993168,39.6416019 98.3388672,39.7324213 98.3388672,39.8554688 L98.3388672,49.7607422 L98.734375,49.7607422 C99.0214858,49.7607422 99.2294915,49.8090815 99.3583984,49.9057617 C99.4873053,50.0024419 99.5517578,50.1562489 99.5517578,50.3671875 C99.5517578,50.5664072 99.4960943,50.7216791 99.3847656,50.8330078 C99.2734369,50.9443365 99.1240244,51 98.9365234,51 L97.2402344,51 Z M91.4833984,47.0537109 C91.4833984,47.8623087 91.744138,48.5244115 92.265625,49.0400391 C92.787112,49.5556666 93.4492147,49.8134766 94.2519531,49.8134766 C95.0605509,49.8134766 95.7255833,49.5454128 96.2470703,49.0092773 C96.7685573,48.4731419 97.0292969,47.7919963 97.0292969,46.9658203 C97.0292969,46.1513631 96.7700221,45.4804714 96.2514648,44.953125 C95.7329076,44.4257786 95.0664103,44.1621094 94.2519531,44.1621094 C93.4257771,44.1621094 92.757815,44.4287083 92.2480469,44.9619141 C91.7382787,45.4951199 91.4833984,46.1923785 91.4833984,47.0537109 Z M104.535156,49.7607422 L107.453125,49.7607422 C107.681642,49.7607422 107.850097,49.8090815 107.958496,49.9057617 C108.066895,50.0024419 108.121094,50.1562489 108.121094,50.3671875 C108.121094,50.6074231 108.069825,50.7729488 107.967285,50.8637695 C107.864746,50.9545903 107.675783,51 107.400391,51 L101.652344,51 C101.423827,51 101.250977,50.9472662 101.133789,50.8417969 C101.016601,50.7363276 100.958008,50.5781261 100.958008,50.3671875 C100.958008,50.1621083 101.018066,50.0097661 101.138184,49.9101562 C101.258301,49.8105464 101.444335,49.7607422 101.696289,49.7607422 L103.225586,49.7607422 L103.225586,44.1269531 L102.62793,44.1269531 C102.059567,44.1269531 101.705079,44.0815434 101.564453,43.9907227 C101.423827,43.8999019 101.353516,43.7343762 101.353516,43.4941406 C101.353516,43.2890615 101.410644,43.1352544 101.524902,43.0327148 C101.639161,42.9301753 101.813475,42.8789062 102.047852,42.8789062 L104.051758,42.8789062 C104.209962,42.8789062 104.330078,42.9096677 104.412109,42.9711914 C104.494141,43.0327152 104.535156,43.1220697 104.535156,43.2392578 L104.535156,44.7333984 C105.0918,44.0361293 105.671872,43.5175798 106.275391,43.1777344 C106.878909,42.8378889 107.529293,42.6679688 108.226562,42.6679688 C108.748049,42.6679688 109.16992,42.7734364 109.492188,42.984375 C109.814455,43.1953136 109.975586,43.4677718 109.975586,43.8017578 C109.975586,44.0185558 109.89502,44.2104484 109.733887,44.3774414 C109.572753,44.5444344 109.395509,44.6279297 109.202148,44.6279297 C109.086634,44.6279297 108.903321,44.5622814 108.652205,44.4309832 L108.520996,44.3598633 C108.201659,44.1811515 107.916017,44.0917969 107.664062,44.0917969 C107.207029,44.0917969 106.7251,44.2543929 106.218262,44.5795898 C105.711423,44.9047868 105.150394,45.4189418 104.535156,46.1220703 L104.535156,49.7607422 Z M116.198242,49.9892578 C117.10059,49.9892578 117.840329,49.7036161 118.41748,49.1323242 C118.994632,48.5610323 119.283203,47.8330122 119.283203,46.9482422 C119.283203,46.0634721 118.993167,45.3325224 118.413086,44.7553711 C117.833005,44.1782198 117.094731,43.8896484 116.198242,43.8896484 C115.301753,43.8896484 114.564944,44.1782198 113.987793,44.7553711 C113.410642,45.3325224 113.12207,46.0634721 113.12207,46.9482422 C113.12207,47.8388716 113.409177,48.5683565 113.983398,49.1367188 C114.55762,49.705081 115.295894,49.9892578 116.198242,49.9892578 Z M120.8125,46.9482422 C120.8125,48.2021547 120.38477,49.2275351 119.529297,50.0244141 C118.673824,50.821293 117.563483,51.2197266 116.198242,51.2197266 C114.83886,51.2197266 113.73145,50.821293 112.875977,50.0244141 C112.020504,49.2275351 111.592773,48.2021547 111.592773,46.9482422 C111.592773,45.6943297 112.020504,44.6704141 112.875977,43.8764648 C113.73145,43.0825156 114.83886,42.6855469 116.198242,42.6855469 C117.557624,42.6855469 118.6665,43.0839804 119.524902,43.8808594 C120.383305,44.6777384 120.8125,45.7001891 120.8125,46.9482422 Z M124.732422,53.25 L126.841797,53.25 C127.064454,53.25 127.231445,53.3027338 127.342773,53.4082031 C127.454102,53.5136724 127.509766,53.6718739 127.509766,53.8828125 C127.509766,54.1113293 127.455567,54.2724605 127.347168,54.3662109 C127.238769,54.4599614 127.046876,54.5068359 126.771484,54.5068359 L122.895508,54.5068359 C122.661132,54.5068359 122.483887,54.4541021 122.36377,54.3486328 C122.243652,54.2431635 122.183594,54.0878917 122.183594,53.8828125 C122.183594,53.6484363 122.2583,53.4843755 122.407715,53.390625 C122.535785,53.3102675 122.757482,53.2643494 123.072813,53.2528699 L123.405273,53.25 L123.405273,44.1269531 L123.238281,44.1269531 C122.833982,44.1269531 122.55713,44.0800786 122.407715,43.9863281 C122.2583,43.8925777 122.183594,43.7285168 122.183594,43.4941406 C122.183594,43.2890615 122.243652,43.1352544 122.36377,43.0327148 C122.483887,42.9301753 122.661132,42.8789062 122.895508,42.8789062 L124.231445,42.8789062 C124.407227,42.8789062 124.534668,42.9082028 124.61377,42.9667969 C124.692871,43.0253909 124.732422,43.1162103 124.732422,43.2392578 L124.732422,44.0917969 C125.130861,43.6816386 125.571775,43.3740245 126.055176,43.1689453 C126.538577,42.9638662 127.058591,42.8613281 127.615234,42.8613281 C128.792975,42.8613281 129.77734,43.2597616 130.568359,44.0566406 C131.359379,44.8535196 131.754883,45.8525331 131.754883,47.0537109 C131.754883,48.2080136 131.379887,49.1572228 130.629883,49.9013672 C129.879879,50.6455115 128.921881,51.0175781 127.755859,51.0175781 C127.134763,51.0175781 126.563479,50.9077159 126.041992,50.6879883 C125.520505,50.4682606 125.083986,50.1533224 124.732422,49.7431641 L124.732422,53.25 Z M127.457031,49.7255859 C128.271488,49.7255859 128.939451,49.4692408 129.460938,48.956543 C129.982424,48.4438451 130.243164,47.7802775 130.243164,46.9658203 C130.243164,46.1689413 129.98096,45.5112331 129.456543,44.9926758 C128.932126,44.4741185 128.265629,44.2148438 127.457031,44.2148438 C126.648433,44.2148438 125.986331,44.4726537 125.470703,44.9882812 C124.955076,45.5039088 124.697266,46.1630819 124.697266,46.9658203 C124.697266,47.7744181 124.953611,48.4365209 125.466309,48.9521484 C125.979006,49.467776 126.642574,49.7255859 127.457031,49.7255859 Z M147.794922,40.3476562 C147.794922,39.7148406 147.85205,39.3164071 147.966309,39.1523438 C148.080567,38.9882804 148.325193,38.90625 148.700195,38.90625 C149.063478,38.90625 149.30371,38.975097 149.420898,39.112793 C149.538087,39.250489 149.59668,39.5771459 149.59668,40.0927734 C149.59668,40.5966822 149.542481,40.9086908 149.434082,41.0288086 C149.325683,41.1489264 149.081057,41.2089844 148.700195,41.2089844 C148.325193,41.2089844 148.080567,41.1533209 147.966309,41.0419922 C147.85205,40.9306635 147.794922,40.6992205 147.794922,40.3476562 Z M149.420898,49.7607422 L152.242188,49.7607422 C152.470704,49.7607422 152.63916,49.8090815 152.747559,49.9057617 C152.855958,50.0024419 152.910156,50.1562489 152.910156,50.3671875 C152.910156,50.6074231 152.858887,50.7729488 152.756348,50.8637695 C152.653808,50.9545903 152.464845,51 152.189453,51 L145.369141,51 C145.134764,51 144.958985,50.9472662 144.841797,50.8417969 C144.724609,50.7363276 144.666016,50.5781261 144.666016,50.3671875 C144.666016,50.1621083 144.727538,50.0097661 144.850586,49.9101562 C144.973633,49.8105464 145.158202,49.7607422 145.404297,49.7607422 L148.084961,49.7607422 L148.084961,44.1269531 L146.371094,44.1269531 C146.130858,44.1269531 145.947755,44.0727544 145.821777,43.9643555 C145.6958,43.8559565 145.632812,43.6992198 145.632812,43.4941406 C145.632812,43.2890615 145.691406,43.1352544 145.808594,43.0327148 C145.925782,42.9301753 146.101561,42.8789062 146.335938,42.8789062 L148.911133,42.8789062 C149.069337,42.8789062 149.193847,42.9111325 149.284668,42.9755859 C149.375489,43.0400394 149.420898,43.1279291 149.420898,43.2392578 L149.420898,49.7607422 Z M161.804688,43.3710938 C162.091798,43.3710938 162.301269,43.4208979 162.433105,43.5205078 C162.564942,43.6201177 162.630859,43.7783192 162.630859,43.9951172 C162.630859,44.2001963 162.569337,44.3540034 162.446289,44.456543 C162.323242,44.5590825 162.138673,44.6103516 161.892578,44.6103516 L158.333008,44.6103516 L158.333008,47.5458984 C158.333008,48.5068407 158.457518,49.1396469 158.706543,49.4443359 C158.955568,49.749025 159.381833,49.9013672 159.985352,49.9013672 C160.451907,49.9013672 160.999204,49.7824872 161.627257,49.544724 L162.27908,49.2815561 C162.803374,49.0736689 163.137428,48.9697266 163.28125,48.9697266 C163.445313,48.9697266 163.584472,49.0283197 163.69873,49.1455078 C163.812989,49.2626959 163.870117,49.4062492 163.870117,49.5761719 C163.870117,49.7695322 163.798341,49.9379876 163.654785,50.081543 C163.51123,50.2250984 163.266603,50.3642571 162.920898,50.4990234 C162.346677,50.7275402 161.829592,50.8945307 161.369629,51 C160.909666,51.1054693 160.477541,51.1582031 160.073242,51.1582031 C159.387692,51.1582031 158.812014,51.0483409 158.346191,50.8286133 C157.880369,50.6088856 157.533204,50.2822287 157.304688,49.8486328 C157.187499,49.6435537 157.104004,49.400392 157.054199,49.1191406 C157.01062,48.8730456 156.986107,48.5103169 156.980659,48.0309456 L156.979492,44.6103516 L155.485352,44.6103516 C155.239257,44.6103516 155.060547,44.5620122 154.949219,44.465332 C154.83789,44.3686519 154.782227,44.2119151 154.782227,43.9951172 C154.782227,43.7548816 154.858398,43.5908208 155.010742,43.5029297 C155.163087,43.4150386 155.488279,43.3710938 155.986328,43.3710938 L156.979492,43.3710938 L156.979492,41.1035156 C156.979492,40.8515612 157.033691,40.6655279 157.14209,40.5454102 C157.250489,40.4252924 157.418944,40.3652344 157.647461,40.3652344 C157.905275,40.3652344 158.083984,40.4384758 158.183594,40.5849609 C158.283204,40.731446 158.333008,41.0654271 158.333008,41.5869141 L158.333008,43.3710938 L161.804688,43.3710938 Z" id="justdropit" fill="#FFFFFF" fill-rule="nonzero"></path>
    </g>
</svg>