<?xml version="1.0" encoding="UTF-8"?>
<svg width="600px" height="600px" viewBox="0 0 600 600" version="1.1" xmlns="http://www.w3.org/2000/svg" xmlns:xlink="http://www.w3.org/1999/xlink">
    <!-- Generator: Sketch 59.1 (86144) - https://sketch.com -->
    <title>Rightbanner_img2</title>
    <desc>Created with Sketch.</desc>
    <defs>
        <path d="M510.029845,198.040441 L485.918642,173.937715 C485.035464,173.236453 483.707272,173.905765 483.707272,174.95456 L483.707272,207.893638 C483.707272,208.630761 484.305513,209.229002 485.042636,209.229002 C485.389844,209.229002 485.722706,209.095335 485.913426,208.902985 L492.593504,203.082613 L498.041892,215.811275 C498.134481,216.028402 498.3089,216.199561 498.527983,216.288563 C498.634916,216.329315 498.747066,216.350832 498.859216,216.350832 C498.978538,216.350832 499.09786,216.325729 499.210009,216.277805 L504.94301,213.820618 C505.395195,213.628595 505.605475,213.105012 505.411495,212.652827 L500.137526,200.326469 L509.079181,200.326469 C509.816304,200.326469 510.414545,199.728229 510.414545,198.991105 C510.414545,198.775608 510.359448,198.451548 510.029845,198.040441 Z" id="path-1"></path>
        <filter x="-30.0%" y="-14.1%" width="159.9%" height="137.3%" filterUnits="objectBoundingBox" id="filter-2">
            <feMorphology radius="1" operator="dilate" in="SourceAlpha" result="shadowSpreadOuter1"></feMorphology>
            <feOffset dx="0" dy="2" in="shadowSpreadOuter1" result="shadowOffsetOuter1"></feOffset>
            <feGaussianBlur stdDeviation="2" in="shadowOffsetOuter1" result="shadowBlurOuter1"></feGaussianBlur>
            <feComposite in="shadowBlurOuter1" in2="SourceAlpha" operator="out" result="shadowBlurOuter1"></feComposite>
            <feColorMatrix values="0 0 0 0 0   0 0 0 0 0   0 0 0 0 0  0 0 0 0.5 0" type="matrix" in="shadowBlurOuter1"></feColorMatrix>
        </filter>
    </defs>
    <g id="Rightbanner_img2" stroke="none" stroke-width="1" fill="none" fill-rule="evenodd">
        <rect id="Rectangle" fill="#009ED8" x="0" y="0" width="600" height="600"></rect>
        <g id="Group-7" transform="translate(392.707272, 21.000000)">
            <path d="M123.740305,90.3368442 L133.335589,90.3368442 L133.335589,88.993073 C133.335589,83.6481972 137.073164,79.3158373 141.684916,79.3158373 L162.703231,79.3158373 C167.314683,79.3158373 171.052557,83.64785 171.052557,88.993073 L171.052557,181.461589 L123.740305,174.288754 L123.740305,90.3368442 Z" id="Path" fill="#F7931E" fill-rule="nonzero"></path>
            <g id="Group-2" transform="translate(81.639947, 86.764819) rotate(-20.000000) translate(-81.639947, -86.764819) translate(20.639947, 16.764819)">
                <g id="Group-2-Copy" transform="translate(56.850218, 67.819884) rotate(-13.000000) translate(-56.850218, -67.819884) translate(12.350218, 8.819884)">
                    <g id="Group" transform="translate(-0.000000, 0.000000)">
                        <path d="M1.37805107,-2.27373675e-13 L68.1233974,-2.27373675e-13 L68.1233974,-2.27373675e-13 L88.4097883,18.5454414 L88.4097883,116.37565 C88.4097883,116.927934 87.9620731,117.37565 87.4097883,117.37565 L1.37805107,117.37565 C0.825766325,117.37565 0.378051075,116.927934 0.378051075,116.37565 L0.378051075,1 C0.378051075,0.44771525 0.825766325,-2.27272222e-13 1.37805107,-2.27373675e-13 Z" id="Rectangle" fill="#EDE9E9"></path>
                        <path d="M12.510156,105.436869 L13.3485535,105.436869 L13.3485535,104.463654 C15.7034642,104.387819 17.146001,103.098625 17.146001,101.063721 C17.146001,100.002031 16.7268023,99.180486 15.9007342,98.5990847 C15.3582417,98.2199099 14.778761,98.0176834 13.3485535,97.7396219 L13.3485535,95.6541608 C13.9403635,95.7426349 14.2609273,96.0838922 14.3472329,96.7790459 L16.8747548,96.3366754 C16.6404967,95.2497077 16.1349923,94.5292757 15.3335829,94.0995443 C14.7417729,93.7835654 14.1499629,93.6192563 13.3485535,93.5686997 L13.3485535,92.8609068 L12.510156,92.8609068 L12.510156,93.5560605 C11.918346,93.5686997 11.3758535,93.6824521 10.8456904,93.8973178 C9.68672917,94.3523275 8.9346373,95.4392951 8.9346373,96.7032109 C8.9346373,97.8407352 9.50178855,98.7886721 10.4758092,99.2942384 C10.9813135,99.5596607 11.5484648,99.7366089 12.510156,99.9388355 L12.510156,102.327636 C12.1279454,102.27708 11.8813579,102.163327 11.6717585,101.935822 C11.4498298,101.683039 11.3511948,101.417617 11.3018773,100.886772 L8.76202605,101.354421 C8.82367293,101.809431 8.87299043,102.036936 8.94696667,102.27708 C9.16889542,102.883759 9.5264473,103.364047 10.0319517,103.705305 C10.6484204,104.135036 11.4128417,104.362541 12.510156,104.438376 L12.510156,105.436869 Z M12.510156,95.6415216 L12.510156,97.587952 L12.2660729,97.5204115 C12.0609044,97.4599805 11.9614989,97.4173234 11.8690285,97.3604472 C11.5854529,97.1961381 11.4375004,96.9433549 11.4375004,96.6147368 C11.4375004,96.0459747 11.819711,95.6920783 12.510156,95.6415216 Z M13.3485535,102.340276 L13.3485535,100.065227 L13.5963249,100.126256 C13.8434029,100.191307 13.9595426,100.239367 14.1129748,100.31801 C14.4212092,100.482319 14.581491,100.77302 14.581491,101.177473 C14.581491,101.897905 14.1746217,102.27708 13.3485535,102.340276 Z" id="$" fill="#494342"></path>
                        <path d="M68.1233974,1.13686838e-13 L68.1233974,17.5454414 C68.1233974,18.0977262 68.5711126,18.5454414 69.1233974,18.5454414 L88.4097883,18.5454414 L88.4097883,18.5454414 L68.1233974,1.13686838e-13 Z" id="Path-2" fill="#DCDCDC"></path>
                        <line x1="8.76202605" y1="12.5759625" x2="59.0658759" y2="12.5759625" id="Line" stroke="#484341" stroke-width="3" stroke-linecap="round" stroke-linejoin="round"></line>
                        <line x1="8.27833519" y1="58.6878248" x2="46.9736043" y2="58.6878248" id="Line-Copy-6" stroke="#484341" stroke-width="3" stroke-linecap="round" stroke-linejoin="round"></line>
                        <line x1="8.27833519" y1="67.0717998" x2="46.9736043" y2="67.0717998" id="Line-Copy-4" stroke="#484341" stroke-width="3" stroke-linecap="round" stroke-linejoin="round"></line>
                        <line x1="8.27833519" y1="75.4557748" x2="46.9736043" y2="75.4557748" id="Line-Copy-5" stroke="#484341" stroke-width="3" stroke-linecap="round" stroke-linejoin="round"></line>
                        <line x1="67.9335417" y1="58.6878248" x2="79.5421225" y2="58.6878248" id="Line-Copy-7" stroke="#484341" stroke-width="3" stroke-linecap="round" stroke-linejoin="round"></line>
                        <line x1="67.9335417" y1="67.0717998" x2="79.5421225" y2="67.0717998" id="Line-Copy-8" stroke="#484341" stroke-width="3" stroke-linecap="round" stroke-linejoin="round"></line>
                        <line x1="67.9335417" y1="75.4557748" x2="79.5421225" y2="75.4557748" id="Line-Copy-9" stroke="#484341" stroke-width="3" stroke-linecap="round" stroke-linejoin="round"></line>
                        <line x1="8.76202605" y1="33.5358999" x2="29.7219635" y2="33.5358999" id="Line-Copy" stroke="#484341" stroke-width="3" stroke-linecap="round" stroke-linejoin="round"></line>
                        <line x1="8.76202605" y1="41.9198749" x2="29.7219635" y2="41.9198749" id="Line-Copy-2" stroke="#484341" stroke-width="3" stroke-linecap="round" stroke-linejoin="round"></line>
                    </g>
                </g>
                <g id="Group-2-Copy-2" transform="translate(74.464290, 65.151636) rotate(3.000000) translate(-74.464290, -65.151636) translate(29.964290, 6.151636)">
                    <g id="Group" transform="translate(-0.000000, 0.000000)">
                        <path d="M1.37805107,-2.27373675e-13 L68.1233974,-2.27373675e-13 L68.1233974,-2.27373675e-13 L88.4097883,18.5454414 L88.4097883,116.37565 C88.4097883,116.927934 87.9620731,117.37565 87.4097883,117.37565 L1.37805107,117.37565 C0.825766325,117.37565 0.378051075,116.927934 0.378051075,116.37565 L0.378051075,1 C0.378051075,0.44771525 0.825766325,-2.27272222e-13 1.37805107,-2.27373675e-13 Z" id="Rectangle" fill="#F9F9F9"></path>
                        <path d="M12.510156,105.436869 L13.3485535,105.436869 L13.3485535,104.463654 C15.7034642,104.387819 17.146001,103.098625 17.146001,101.063721 C17.146001,100.002031 16.7268023,99.180486 15.9007342,98.5990847 C15.3582417,98.2199099 14.778761,98.0176834 13.3485535,97.7396219 L13.3485535,95.6541608 C13.9403635,95.7426349 14.2609273,96.0838922 14.3472329,96.7790459 L16.8747548,96.3366754 C16.6404967,95.2497077 16.1349923,94.5292757 15.3335829,94.0995443 C14.7417729,93.7835654 14.1499629,93.6192563 13.3485535,93.5686997 L13.3485535,92.8609068 L12.510156,92.8609068 L12.510156,93.5560605 C11.918346,93.5686997 11.3758535,93.6824521 10.8456904,93.8973178 C9.68672917,94.3523275 8.9346373,95.4392951 8.9346373,96.7032109 C8.9346373,97.8407352 9.50178855,98.7886721 10.4758092,99.2942384 C10.9813135,99.5596607 11.5484648,99.7366089 12.510156,99.9388355 L12.510156,102.327636 C12.1279454,102.27708 11.8813579,102.163327 11.6717585,101.935822 C11.4498298,101.683039 11.3511948,101.417617 11.3018773,100.886772 L8.76202605,101.354421 C8.82367293,101.809431 8.87299043,102.036936 8.94696667,102.27708 C9.16889542,102.883759 9.5264473,103.364047 10.0319517,103.705305 C10.6484204,104.135036 11.4128417,104.362541 12.510156,104.438376 L12.510156,105.436869 Z M12.510156,95.6415216 L12.510156,97.587952 L12.2660729,97.5204115 C12.0609044,97.4599805 11.9614989,97.4173234 11.8690285,97.3604472 C11.5854529,97.1961381 11.4375004,96.9433549 11.4375004,96.6147368 C11.4375004,96.0459747 11.819711,95.6920783 12.510156,95.6415216 Z M13.3485535,102.340276 L13.3485535,100.065227 L13.5963249,100.126256 C13.8434029,100.191307 13.9595426,100.239367 14.1129748,100.31801 C14.4212092,100.482319 14.581491,100.77302 14.581491,101.177473 C14.581491,101.897905 14.1746217,102.27708 13.3485535,102.340276 Z" id="$" fill="#494342"></path>
                        <path d="M68.1233974,1.13686838e-13 L68.1233974,17.5454414 C68.1233974,18.0977262 68.5711126,18.5454414 69.1233974,18.5454414 L88.4097883,18.5454414 L88.4097883,18.5454414 L68.1233974,1.13686838e-13 Z" id="Path-2" fill="#DCDCDC"></path>
                        <line x1="8.76202605" y1="12.5759625" x2="59.0658759" y2="12.5759625" id="Line" stroke="#484341" stroke-width="3" stroke-linecap="round" stroke-linejoin="round"></line>
                        <line x1="8.27833519" y1="58.6878248" x2="46.9736043" y2="58.6878248" id="Line-Copy-6" stroke="#484341" stroke-width="3" stroke-linecap="round" stroke-linejoin="round"></line>
                        <line x1="8.27833519" y1="67.0717998" x2="46.9736043" y2="67.0717998" id="Line-Copy-4" stroke="#484341" stroke-width="3" stroke-linecap="round" stroke-linejoin="round"></line>
                        <line x1="8.27833519" y1="75.4557748" x2="46.9736043" y2="75.4557748" id="Line-Copy-5" stroke="#484341" stroke-width="3" stroke-linecap="round" stroke-linejoin="round"></line>
                        <line x1="67.9335417" y1="58.6878248" x2="79.5421225" y2="58.6878248" id="Line-Copy-7" stroke="#484341" stroke-width="3" stroke-linecap="round" stroke-linejoin="round"></line>
                        <line x1="67.9335417" y1="67.0717998" x2="79.5421225" y2="67.0717998" id="Line-Copy-8" stroke="#484341" stroke-width="3" stroke-linecap="round" stroke-linejoin="round"></line>
                        <line x1="67.9335417" y1="75.4557748" x2="79.5421225" y2="75.4557748" id="Line-Copy-9" stroke="#484341" stroke-width="3" stroke-linecap="round" stroke-linejoin="round"></line>
                        <line x1="8.76202605" y1="33.5358999" x2="29.7219635" y2="33.5358999" id="Line-Copy" stroke="#484341" stroke-width="3" stroke-linecap="round" stroke-linejoin="round"></line>
                        <line x1="8.76202605" y1="41.9198749" x2="29.7219635" y2="41.9198749" id="Line-Copy-2" stroke="#484341" stroke-width="3" stroke-linecap="round" stroke-linejoin="round"></line>
                    </g>
                </g>
                <g id="cursor-copy" transform="translate(65.550844, 107.002568)"></g>
            </g>
            <g id="folder" transform="translate(98.442202, 134.230626) rotate(6.000000) translate(-98.442202, -134.230626) translate(20.942202, 79.230626)" fill="#FBB03B" fill-rule="nonzero">
                <path d="M150.095752,102.330208 L20.82622,86.4828991 L5.01634407,15.4593052 C4.25118254,12.008519 6.03078783,8.49018326 8.9866733,7.59738941 C9.62677998,7.40667368 10.291166,7.34846545 10.9484341,7.42904074 L128.467967,21.8359031 C130.761892,22.1171181 132.666559,24.0306768 133.243717,26.6379357 L150.095752,102.330208 Z" id="Path" transform="translate(77.467293, 54.862004) rotate(-6.000000) translate(-77.467293, -54.862004) "></path>
            </g>
        </g>
        <path id="Path-26" d="M477.912171,419.262508 L481.742289,426.228071 C482.425997,425.82008 483.10625,425.410064 483.783004,424.998035 L483.783004,424.998035 L485.3431,427.560475 C484.628523,427.995532 483.910128,428.428346 483.187963,428.858905 L487.065685,435.912228 L465.839208,436.740882 L477.912171,419.262508 Z M489.684426,421.296274 L491.312953,423.815777 C490.189497,424.541944 489.055513,425.262357 487.911193,425.976977 L487.911193,425.976977 L486.322124,423.432403 C487.453275,422.726006 488.574107,422.013949 489.684426,421.296274 L489.684426,421.296274 Z M495.4788,417.433918 L497.1785,419.905966 C496.076114,420.663931 494.962407,421.416111 493.837567,422.162467 L493.837567,422.162467 L492.178912,419.662694 C493.290048,418.925431 494.390073,418.182492 495.4788,417.433918 L495.4788,417.433918 Z M501.143605,413.41295 L502.917196,415.832531 C501.841495,416.621037 500.753728,417.40375 499.654077,418.180633 L499.654077,418.180633 L497.923048,415.730421 C499.008479,414.963584 500.082058,414.19108 501.143605,413.41295 L501.143605,413.41295 Z M506.693022,409.207486 L508.543668,411.568653 C507.493737,412.391572 506.430887,413.208639 505.355297,414.019819 L505.355297,414.019819 L503.548908,411.624625 C504.609701,410.824604 505.657798,410.018878 506.693022,409.207486 L506.693022,409.207486 Z M512.094418,404.823814 L514.025064,407.12003 C513.001027,407.981035 511.963109,408.836084 510.911486,409.685146 L510.911486,409.685146 L509.026913,407.350968 C510.063117,406.514356 511.085677,405.671959 512.094418,404.823814 L512.094418,404.823814 Z M517.319605,400.266702 L519.332924,402.490786 C518.341838,403.387952 517.335975,404.279094 516.315509,405.164181 L516.315509,405.164181 L514.349851,402.897865 C515.354348,402.026628 516.344323,401.149562 517.319605,400.266702 L517.319605,400.266702 Z M522.385046,395.499256 L524.484078,397.642633 C523.527909,398.579018 522.555975,399.509281 521.568447,400.433391 L521.568447,400.433391 L519.518629,398.242901 C520.489644,397.334243 521.445173,396.419683 522.385046,395.499256 L522.385046,395.499256 Z M527.238878,390.544915 L529.42579,392.59855 C528.509637,393.574159 527.576733,394.543556 526.62725,395.506711 L526.62725,395.506711 L524.49082,393.400608 C525.423335,392.454665 526.33941,391.502756 527.238878,390.544915 L527.238878,390.544915 Z M531.865937,385.393994 L534.142449,387.347834 C533.269584,388.36485 532.378914,389.375545 531.470611,390.37989 L531.470611,390.37989 L529.245574,388.367625 C530.136539,387.382451 531.010048,386.39123 531.865937,385.393994 L531.865937,385.393994 Z M536.252673,380.031382 L538.619927,381.874235 C537.796783,382.931612 536.954821,383.982583 536.094215,385.027121 L536.094215,385.027121 L533.778858,383.119472 C534.621939,382.096207 535.446598,381.066833 536.252673,380.031382 L536.252673,380.031382 Z M540.378505,374.445949 L542.836726,376.165586 C542.068189,377.26421 541.279799,378.356343 540.471729,379.44196 L540.471729,379.44196 L538.06521,377.650685 C538.855764,376.588602 539.626916,375.520347 540.378505,374.445949 L540.378505,374.445949 Z M544.194445,368.667616 L546.742021,370.251868 C546.03306,371.391922 545.303209,372.525408 544.552641,373.6523 L544.552641,373.6523 L542.055781,371.989263 C542.789098,370.888271 543.502039,369.781047 544.194445,368.667616 L544.194445,368.667616 Z M547.690243,362.673221 L550.32432,364.109061 C549.680723,365.289753 549.015236,366.463821 548.32803,367.631239 L548.32803,367.631239 L545.742701,366.109373 C546.413242,364.970266 547.062475,363.824874 547.690243,362.673221 L547.690243,362.673221 Z M550.811727,356.519105 L553.526886,357.795001 C552.953681,359.014803 552.357648,360.227947 551.738954,361.434409 L551.738954,361.434409 L549.069497,360.065468 C549.672469,358.889664 550.253264,357.707536 550.811727,356.519105 L550.811727,356.519105 Z M553.550112,350.190568 L556.339329,351.295225 C555.842729,352.549121 555.322555,353.796389 554.778972,355.037003 L554.778972,355.037003 L552.031163,353.833033 C552.560387,352.62519 553.066754,351.411029 553.550112,350.190568 L553.550112,350.190568 Z M555.885845,343.693481 L558.740211,344.616844 C558.324725,345.901223 557.885064,347.179044 557.421389,348.45028 L557.421389,348.45028 L554.603012,347.422294 C555.054075,346.185638 555.481735,344.942696 555.885845,343.693481 L555.885845,343.693481 Z M557.792828,337.067379 L560.701464,337.802113 C560.370465,339.112459 560.014865,340.41636 559.634817,341.71379 L559.634817,341.71379 L556.755792,340.870455 C557.125306,339.608984 557.471033,338.341289 557.792828,337.067379 L557.792828,337.067379 Z M559.262631,330.316724 L562.213456,330.857678 C561.969518,332.188325 561.700769,333.512689 561.407353,334.830745 L561.407353,334.830745 L558.479034,334.178865 C558.764258,332.897608 559.025503,331.610225 559.262631,330.316724 L559.262631,330.316724 Z M560.284039,323.480011 L563.264083,323.825461 C563.107999,325.171935 562.927057,326.512317 562.721396,327.846583 L562.721396,327.846583 L559.756411,327.389565 C559.956357,326.092381 560.132277,324.789194 560.284039,323.480011 L560.284039,323.480011 Z M560.856464,316.584545 L563.852643,316.735919 C563.7842,318.090607 563.691128,319.439442 563.573553,320.782402 L563.573553,320.782402 L560.584984,320.520754 C560.699345,319.214512 560.78988,317.902441 560.856464,316.584545 L560.856464,316.584545 Z M563.985685,309.623077 C564.002962,310.979433 563.996056,312.330209 563.965082,313.675383 L563.965082,313.675383 L560.965877,313.606324 C560.996027,312.29693 561.00275,310.981917 560.985928,309.661287 L560.985928,309.661287 Z M563.677234,302.519342 C563.777102,303.873302 563.853351,305.221957 563.906088,306.56529 L563.906088,306.56529 L560.908398,306.682974 C560.857011,305.37405 560.782703,304.059731 560.685362,302.74002 L560.685362,302.74002 Z M562.949802,295.47103 C563.127945,296.817129 563.283193,298.15821 563.415639,299.494259 L563.415639,299.494259 L560.430272,299.790207 C560.301064,298.486821 560.149585,297.178291 559.975733,295.864619 L559.975733,295.864619 Z M561.828161,288.487457 C562.079746,289.821441 562.30926,291.150696 562.51679,292.475211 L562.51679,292.475211 L559.55295,292.939596 C559.350227,291.64576 559.125986,290.347042 558.880132,289.043445 L558.880132,289.043445 Z M560.337065,281.576211 C560.657167,282.895452 560.956067,284.210241 561.233843,285.52057 L561.233843,285.52057 L558.299061,286.142711 C558.027344,284.860961 557.734906,283.574593 557.42166,282.283609 L557.42166,282.283609 Z M558.503478,274.752261 C558.886603,276.053113 559.249464,277.349789 559.592131,278.642283 L559.592131,278.642283 L556.692313,279.411085 C556.35665,278.145011 556.001136,276.874588 555.625694,275.599821 L555.625694,275.599821 Z M556.351081,268.016581 C556.792679,269.298929 557.214909,270.577353 557.617833,271.851848 L557.617833,271.851848 L554.757376,272.756164 C554.362144,271.505999 553.947895,270.251739 553.51456,268.993386 L553.51456,268.993386 Z M553.915595,261.404118 C554.410144,262.665499 554.886246,263.9232 555.343958,265.177218 L555.343958,265.177218 L552.525811,266.205831 C552.076241,264.974121 551.608523,263.738567 551.122593,262.49917 L551.122593,262.49917 Z M551.201472,254.866804 C551.74501,256.107487 552.270969,257.344715 552.779403,258.578484 L552.779403,258.578484 L550.005695,259.721524 C549.505674,258.508172 548.988329,257.291207 548.453601,256.070632 L548.453601,256.070632 Z M548.25679,248.467904 C548.844713,249.687383 549.4159,250.903616 549.970397,252.116599 L549.970397,252.116599 L547.241965,253.36386 C546.696001,252.169542 546.133512,250.971831 545.554449,249.770729 L545.554449,249.770729 Z M545.083596,242.164267 C545.712014,243.362354 546.324502,244.557387 546.921103,245.749366 L546.921103,245.749366 L544.238371,247.092107 C543.650305,245.91718 543.046489,244.739065 542.426876,243.557766 L542.426876,243.557766 Z M541.703789,235.962906 C542.36916,237.139802 543.019365,238.313825 543.654442,239.484974 L543.654442,239.484974 L541.017232,240.915051 C540.390603,239.759483 539.74896,238.600919 539.092261,237.439361 L539.092261,237.439361 Z M538.160859,229.906294 C538.859916,231.062815 539.544514,232.216626 540.21469,233.367727 L540.21469,233.367727 L537.62208,234.877156 C536.960206,233.740315 536.284003,232.600652 535.593432,231.45817 L535.593432,231.45817 Z M534.42473,223.91384 C535.154601,225.050046 535.870689,226.183695 536.573029,227.314786 L536.573029,227.314786 L534.024393,228.897334 C533.33016,227.779297 532.622254,226.658603 531.900642,225.535253 L531.900642,225.535253 Z M530.547005,218.044374 C531.30512,219.161163 532.05008,220.275536 532.781913,221.387491 L532.781913,221.387491 L530.275956,223.036787 C529.552004,221.936808 528.81499,220.83432 528.064881,219.729326 L528.064881,219.729326 Z M517.130494,201.777848 C521.395321,198.721843 527.330028,199.701787 530.386033,203.966614 C533.442037,208.231441 532.462093,214.166148 528.197266,217.222152 C523.932439,220.278157 517.997733,219.298213 514.941728,215.033386 C511.885723,210.768559 512.865667,204.833852 517.130494,201.777848 Z M527.947458,205.713999 C525.856507,202.795959 521.795919,202.125471 518.877879,204.216422 C515.95984,206.307373 515.289352,210.367961 517.380302,213.286001 C519.471253,216.204041 523.531842,216.874529 526.449881,214.783578 C529.367921,212.692627 530.038409,208.632039 527.947458,205.713999 Z" fill="#FFFFFF" fill-rule="nonzero"></path>
        <g id="Group-5" transform="translate(63.480000, 403.000000)">
            <g id="Group-6">
                <g id="Group-10-Copy">
                    <g id="Group-2" transform="translate(241.720000, 42.243248)">
                        <g id="Group" transform="translate(0.000000, 0.000000)">
                            <path d="M36.5600866,140.947839 C36.5600866,133.333188 43.3625523,127.159463 51.7526903,127.159463 L112.523535,127.159463 C120.914103,127.159073 127.716569,133.333188 127.716569,140.947839 L36.5600866,140.947839 Z" id="Path" fill="#DCDCDC"></path>
                            <polygon id="Path" fill="#494342" points="102.368242 127.159463 65.8081559 127.159463 71.0309831 106.4769 97.1454152 106.4769"></polygon>
                            <path d="M160.864381,89.6244408 L1.95399252e-14,89.6244408 L1.95399252e-14,9.22617712 C1.95399252e-14,4.13068285 4.34615749,3.37507799e-14 9.70745522,3.37507799e-14 L151.156926,3.37507799e-14 C156.518223,3.37507799e-14 160.864381,4.13068285 160.864381,9.22617712 L160.864381,89.6244408 L160.864381,89.6244408 Z" id="Path" fill="#494342"></path>
                            <path d="M151.156907,106.4769 L9.70747418,106.4769 C4.34616598,106.4769 1.95399252e-14,102.42567 1.95399252e-14,97.4281868 L1.95399252e-14,85.7943365 L160.864381,85.7943365 L160.864381,97.4281868 C160.864381,102.42567 156.518215,106.4769 151.156907,106.4769" id="Path" fill="#DCDCDC"></path>
                        </g>
                    </g>
                    <g id="Group-2" transform="translate(282.812348, 0.392352)">
                        <g id="Group">
                            <path d="M1,0 L63.8777762,0 L63.8777762,0 L83.0060206,17.4866854 L83.0060206,109.674694 C83.0060206,110.226979 82.5583053,110.674694 82.0060206,110.674694 L1,110.674694 C0.44771525,110.674694 6.76353751e-17,110.226979 0,109.674694 L0,1 C-6.76353751e-17,0.44771525 0.44771525,1.01453063e-16 1,0 Z" id="Rectangle-Copy" fill="#F9F9F9"></path>
                            <g id="Group-4" transform="translate(7.905335, 11.858003)">
                                <g id="Group-3">
                                    <rect id="Rectangle" fill="#DCDCDC" x="-6.461498e-14" y="-8.94839758e-14" width="19.5439977" height="9.09062025"></rect>
                                    <rect id="Rectangle-Copy-20" fill="#DCDCDC" x="-6.461498e-14" y="11.9476723" width="19.5439977" height="9.09062025"></rect>
                                    <rect id="Rectangle-Copy-23" fill="#DCDCDC" x="-6.461498e-14" y="23.8953446" width="19.5439977" height="9.09062025"></rect>
                                    <rect id="Rectangle-Copy-26" fill="#DCDCDC" x="-6.461498e-14" y="35.843017" width="19.5439977" height="9.09062025"></rect>
                                    <rect id="Rectangle-Copy-35" fill="#DCDCDC" x="-6.461498e-14" y="71.1480176" width="19.5439977" height="9.09062025"></rect>
                                    <rect id="Rectangle-Copy-29" fill="#DCDCDC" x="-6.461498e-14" y="47.7795579" width="19.5439977" height="9.09062025"></rect>
                                    <rect id="Rectangle-Copy-36" fill="#DCDCDC" x="-6.461498e-14" y="83.0845586" width="19.5439977" height="9.09062025"></rect>
                                    <rect id="Rectangle-Copy-32" fill="#DCDCDC" x="-6.461498e-14" y="59.7160989" width="19.5439977" height="9.09062025"></rect>
                                    <rect id="Rectangle-Copy-18" fill="#DCDCDC" x="23.4527972" y="-8.94839758e-14" width="19.5439977" height="9.09062025"></rect>
                                    <rect id="Rectangle-Copy-21" fill="#B6C931" x="23.4527972" y="11.9476723" width="19.5439977" height="9.09062025"></rect>
                                    <rect id="Rectangle-Copy-24" fill="#B6C931" x="23.4527972" y="23.8953446" width="19.5439977" height="9.09062025"></rect>
                                    <rect id="Rectangle-Copy-27" fill="#B6C931" x="23.4571387" y="35.843017" width="19.5439977" height="9.09062025"></rect>
                                    <rect id="Rectangle-Copy-38" fill="#B6C931" x="23.4571387" y="71.1480176" width="19.5439977" height="9.09062025"></rect>
                                    <rect id="Rectangle-Copy-30" fill="#B6C931" x="23.4571387" y="47.7795579" width="19.5439977" height="9.09062025"></rect>
                                    <rect id="Rectangle-Copy-39" fill="#B6C931" x="23.4571387" y="83.0845586" width="19.5439977" height="9.09062025"></rect>
                                    <rect id="Rectangle-Copy-33" fill="#B6C931" x="23.4571387" y="59.7160989" width="19.5439977" height="9.09062025"></rect>
                                    <rect id="Rectangle-Copy-19" fill="#DCDCDC" x="46.9055945" y="-8.94839758e-14" width="19.5439977" height="9.09062025"></rect>
                                    <rect id="Rectangle-Copy-22" fill="#B6C931" x="46.9055945" y="11.9476723" width="19.5439977" height="9.09062025"></rect>
                                    <rect id="Rectangle-Copy-25" fill="#B6C931" x="46.9055945" y="23.8953446" width="19.5439977" height="9.09062025"></rect>
                                    <rect id="Rectangle-Copy-28" fill="#B6C931" x="46.9142774" y="35.843017" width="19.5439977" height="9.09062025"></rect>
                                    <rect id="Rectangle-Copy-41" fill="#B6C931" x="46.9142774" y="71.1480176" width="19.5439977" height="9.09062025"></rect>
                                    <rect id="Rectangle-Copy-31" fill="#B6C931" x="46.9142774" y="47.7795579" width="19.5439977" height="9.09062025"></rect>
                                    <rect id="Rectangle-Copy-42" fill="#B6C931" x="46.9142774" y="83.0845586" width="19.5439977" height="9.09062025"></rect>
                                    <rect id="Rectangle-Copy-34" fill="#B6C931" x="46.9142774" y="59.7160989" width="19.5439977" height="9.09062025"></rect>
                                </g>
                            </g>
                            <path d="M63.8777762,3.73034936e-14 L63.8777762,16.4866854 C63.8777762,17.0389701 64.3254915,17.4866854 64.8777762,17.4866854 L83.0060206,17.4866854 L83.0060206,17.4866854 L63.8777762,3.73034936e-14 Z" id="Path-2-Copy" fill="#C1BFBF"></path>
                        </g>
                    </g>
                    <g id="Group-2-Copy-3" transform="translate(152.480000, 87.400000)">
                        <g id="Group">
                            <path d="M1,0 L50.6798886,0 L50.6798886,0 L65.8560163,13.8737338 L65.8560163,86.8080218 C65.8560163,87.3603065 65.4083011,87.8080218 64.8560163,87.8080218 L1,87.8080218 C0.44771525,87.8080218 6.76353751e-17,87.3603065 0,86.8080218 L0,1 C-6.76353751e-17,0.44771525 0.44771525,1.01453063e-16 1,0 Z" id="Rectangle-Copy" fill="#F9F9F9"></path>
                            <g id="Group-4" transform="translate(6.272002, 9.408002)">
                                <g id="Group-3">
                                    <rect id="Rectangle" fill="#DCDCDC" x="-6.461498e-14" y="-8.94839758e-14" width="15.5059816" height="7.21239292"></rect>
                                    <rect id="Rectangle-Copy-20" fill="#DCDCDC" x="-6.461498e-14" y="9.47914499" width="15.5059816" height="7.21239292"></rect>
                                    <rect id="Rectangle-Copy-23" fill="#DCDCDC" x="-6.461498e-14" y="18.95829" width="15.5059816" height="7.21239292"></rect>
                                    <rect id="Rectangle-Copy-26" fill="#DCDCDC" x="-6.461498e-14" y="28.437435" width="15.5059816" height="7.21239292"></rect>
                                    <rect id="Rectangle-Copy-35" fill="#DCDCDC" x="-6.461498e-14" y="56.448014" width="15.5059816" height="7.21239292"></rect>
                                    <rect id="Rectangle-Copy-29" fill="#DCDCDC" x="-6.461498e-14" y="37.9077484" width="15.5059816" height="7.21239292"></rect>
                                    <rect id="Rectangle-Copy-36" fill="#DCDCDC" x="-6.461498e-14" y="65.9183275" width="15.5059816" height="7.21239292"></rect>
                                    <rect id="Rectangle-Copy-32" fill="#DCDCDC" x="-6.461498e-14" y="47.3780619" width="15.5059816" height="7.21239292"></rect>
                                    <rect id="Rectangle-Copy-18" fill="#DCDCDC" x="18.607178" y="-8.94839758e-14" width="15.5059816" height="7.21239292"></rect>
                                    <rect id="Rectangle-Copy-21" fill="#B6C931" x="18.607178" y="9.47914499" width="15.5059816" height="7.21239292"></rect>
                                    <rect id="Rectangle-Copy-24" fill="#B6C931" x="18.607178" y="18.95829" width="15.5059816" height="7.21239292"></rect>
                                    <rect id="Rectangle-Copy-27" fill="#B6C931" x="18.6106224" y="28.437435" width="15.5059816" height="7.21239292"></rect>
                                    <rect id="Rectangle-Copy-38" fill="#B6C931" x="18.6106224" y="56.448014" width="15.5059816" height="7.21239292"></rect>
                                    <rect id="Rectangle-Copy-30" fill="#B6C931" x="18.6106224" y="37.9077484" width="15.5059816" height="7.21239292"></rect>
                                    <rect id="Rectangle-Copy-39" fill="#B6C931" x="18.6106224" y="65.9183275" width="15.5059816" height="7.21239292"></rect>
                                    <rect id="Rectangle-Copy-33" fill="#B6C931" x="18.6106224" y="47.3780619" width="15.5059816" height="7.21239292"></rect>
                                    <rect id="Rectangle-Copy-19" fill="#DCDCDC" x="37.214356" y="-8.94839758e-14" width="15.5059816" height="7.21239292"></rect>
                                    <rect id="Rectangle-Copy-22" fill="#B6C931" x="37.214356" y="9.47914499" width="15.5059816" height="7.21239292"></rect>
                                    <rect id="Rectangle-Copy-25" fill="#B6C931" x="37.214356" y="18.95829" width="15.5059816" height="7.21239292"></rect>
                                    <rect id="Rectangle-Copy-28" fill="#B6C931" x="37.2212448" y="28.437435" width="15.5059816" height="7.21239292"></rect>
                                    <rect id="Rectangle-Copy-41" fill="#B6C931" x="37.2212448" y="56.448014" width="15.5059816" height="7.21239292"></rect>
                                    <rect id="Rectangle-Copy-31" fill="#B6C931" x="37.2212448" y="37.9077484" width="15.5059816" height="7.21239292"></rect>
                                    <rect id="Rectangle-Copy-42" fill="#B6C931" x="37.2212448" y="65.9183275" width="15.5059816" height="7.21239292"></rect>
                                    <rect id="Rectangle-Copy-34" fill="#B6C931" x="37.2212448" y="47.3780619" width="15.5059816" height="7.21239292"></rect>
                                </g>
                            </g>
                            <path d="M50.6798886,3.73034936e-14 L50.6798886,12.8737338 C50.6798886,13.4260186 51.1276038,13.8737338 51.6798886,13.8737338 L65.8560163,13.8737338 L65.8560163,13.8737338 L50.6798886,3.73034936e-14 Z" id="Path-2-Copy" fill="#C1BFBF"></path>
                        </g>
                    </g>
                    <g id="Group-2-Copy-4" opacity="0.8" transform="translate(100.520000, 54.400000)">
                        <g id="Group">
                            <path d="M1,0 L50.6798886,0 L50.6798886,0 L65.8560163,13.8737338 L65.8560163,86.8080218 C65.8560163,87.3603065 65.4083011,87.8080218 64.8560163,87.8080218 L1,87.8080218 C0.44771525,87.8080218 3.62034905e-15,87.3603065 0,86.8080218 L0,1 C-6.76353751e-17,0.44771525 0.44771525,1.01453063e-16 1,0 Z" id="Rectangle-Copy" fill="#F9F9F9"></path>
                            <g id="Group-4" transform="translate(6.272002, 9.408002)">
                                <g id="Group-3">
                                    <rect id="Rectangle" fill="#DCDCDC" x="-6.461498e-14" y="-8.94839758e-14" width="15.5059816" height="7.21239292"></rect>
                                    <rect id="Rectangle-Copy-20" fill="#DCDCDC" x="-6.461498e-14" y="9.47914499" width="15.5059816" height="7.21239292"></rect>
                                    <rect id="Rectangle-Copy-23" fill="#DCDCDC" x="-6.461498e-14" y="18.95829" width="15.5059816" height="7.21239292"></rect>
                                    <rect id="Rectangle-Copy-26" fill="#DCDCDC" x="-6.461498e-14" y="28.437435" width="15.5059816" height="7.21239292"></rect>
                                    <rect id="Rectangle-Copy-35" fill="#DCDCDC" x="-6.461498e-14" y="56.448014" width="15.5059816" height="7.21239292"></rect>
                                    <rect id="Rectangle-Copy-29" fill="#DCDCDC" x="-6.461498e-14" y="37.9077484" width="15.5059816" height="7.21239292"></rect>
                                    <rect id="Rectangle-Copy-36" fill="#DCDCDC" x="-6.461498e-14" y="65.9183275" width="15.5059816" height="7.21239292"></rect>
                                    <rect id="Rectangle-Copy-32" fill="#DCDCDC" x="-6.461498e-14" y="47.3780619" width="15.5059816" height="7.21239292"></rect>
                                    <rect id="Rectangle-Copy-18" fill="#DCDCDC" x="18.607178" y="-8.94839758e-14" width="15.5059816" height="7.21239292"></rect>
                                    <rect id="Rectangle-Copy-21" fill="#B6C931" x="18.607178" y="9.47914499" width="15.5059816" height="7.21239292"></rect>
                                    <rect id="Rectangle-Copy-24" fill="#B6C931" x="18.607178" y="18.95829" width="15.5059816" height="7.21239292"></rect>
                                    <rect id="Rectangle-Copy-27" fill="#B6C931" x="18.6106224" y="28.437435" width="15.5059816" height="7.21239292"></rect>
                                    <rect id="Rectangle-Copy-38" fill="#B6C931" x="18.6106224" y="56.448014" width="15.5059816" height="7.21239292"></rect>
                                    <rect id="Rectangle-Copy-30" fill="#B6C931" x="18.6106224" y="37.9077484" width="15.5059816" height="7.21239292"></rect>
                                    <rect id="Rectangle-Copy-39" fill="#B6C931" x="18.6106224" y="65.9183275" width="15.5059816" height="7.21239292"></rect>
                                    <rect id="Rectangle-Copy-33" fill="#B6C931" x="18.6106224" y="47.3780619" width="15.5059816" height="7.21239292"></rect>
                                    <rect id="Rectangle-Copy-19" fill="#DCDCDC" x="37.214356" y="-8.94839758e-14" width="15.5059816" height="7.21239292"></rect>
                                    <rect id="Rectangle-Copy-22" fill="#B6C931" x="37.214356" y="9.47914499" width="15.5059816" height="7.21239292"></rect>
                                    <rect id="Rectangle-Copy-25" fill="#B6C931" x="37.214356" y="18.95829" width="15.5059816" height="7.21239292"></rect>
                                    <rect id="Rectangle-Copy-28" fill="#B6C931" x="37.2212448" y="28.437435" width="15.5059816" height="7.21239292"></rect>
                                    <rect id="Rectangle-Copy-41" fill="#B6C931" x="37.2212448" y="56.448014" width="15.5059816" height="7.21239292"></rect>
                                    <rect id="Rectangle-Copy-31" fill="#B6C931" x="37.2212448" y="37.9077484" width="15.5059816" height="7.21239292"></rect>
                                    <rect id="Rectangle-Copy-42" fill="#B6C931" x="37.2212448" y="65.9183275" width="15.5059816" height="7.21239292"></rect>
                                    <rect id="Rectangle-Copy-34" fill="#B6C931" x="37.2212448" y="47.3780619" width="15.5059816" height="7.21239292"></rect>
                                </g>
                            </g>
                            <path d="M50.6798886,3.73034936e-14 L50.6798886,12.8737338 C50.6798886,13.4260186 51.1276038,13.8737338 51.6798886,13.8737338 L65.8560163,13.8737338 L65.8560163,13.8737338 L50.6798886,3.73034936e-14 Z" id="Path-2-Copy" fill="#C1BFBF"></path>
                        </g>
                    </g>
                    <g id="Group-2-Copy-5" opacity="0.5" transform="translate(39.520000, 98.400000)">
                        <g id="Group">
                            <path d="M1,0 L38.0099164,0 L38.0099164,0 L49.3920123,10.4053004 L49.3920123,64.8560163 C49.3920123,65.4083011 48.944297,65.8560163 48.3920123,65.8560163 L1,65.8560163 C0.44771525,65.8560163 6.76353751e-17,65.4083011 0,64.8560163 L0,1 C-6.76353751e-17,0.44771525 0.44771525,1.01453063e-16 1,0 Z" id="Rectangle-Copy" fill="#F9F9F9"></path>
                            <g id="Group-4" transform="translate(4.704001, 7.056002)">
                                <g id="Group-3">
                                    <rect id="Rectangle" fill="#DCDCDC" x="-6.461498e-14" y="-8.94839758e-14" width="11.6294862" height="5.40929469"></rect>
                                    <rect id="Rectangle-Copy-20" fill="#DCDCDC" x="-6.461498e-14" y="7.10935874" width="11.6294862" height="5.40929469"></rect>
                                    <rect id="Rectangle-Copy-23" fill="#DCDCDC" x="-6.461498e-14" y="14.2187175" width="11.6294862" height="5.40929469"></rect>
                                    <rect id="Rectangle-Copy-26" fill="#DCDCDC" x="-6.461498e-14" y="21.3280762" width="11.6294862" height="5.40929469"></rect>
                                    <rect id="Rectangle-Copy-35" fill="#DCDCDC" x="-6.461498e-14" y="42.3360105" width="11.6294862" height="5.40929469"></rect>
                                    <rect id="Rectangle-Copy-29" fill="#DCDCDC" x="-6.461498e-14" y="28.4308113" width="11.6294862" height="5.40929469"></rect>
                                    <rect id="Rectangle-Copy-36" fill="#DCDCDC" x="-6.461498e-14" y="49.4387456" width="11.6294862" height="5.40929469"></rect>
                                    <rect id="Rectangle-Copy-32" fill="#DCDCDC" x="-6.461498e-14" y="35.5335464" width="11.6294862" height="5.40929469"></rect>
                                    <rect id="Rectangle-Copy-18" fill="#DCDCDC" x="13.9553835" y="-8.94839758e-14" width="11.6294862" height="5.40929469"></rect>
                                    <rect id="Rectangle-Copy-21" fill="#B6C931" x="13.9553835" y="7.10935874" width="11.6294862" height="5.40929469"></rect>
                                    <rect id="Rectangle-Copy-24" fill="#B6C931" x="13.9553835" y="14.2187175" width="11.6294862" height="5.40929469"></rect>
                                    <rect id="Rectangle-Copy-27" fill="#B6C931" x="13.9579668" y="21.3280762" width="11.6294862" height="5.40929469"></rect>
                                    <rect id="Rectangle-Copy-38" fill="#B6C931" x="13.9579668" y="42.3360105" width="11.6294862" height="5.40929469"></rect>
                                    <rect id="Rectangle-Copy-30" fill="#B6C931" x="13.9579668" y="28.4308113" width="11.6294862" height="5.40929469"></rect>
                                    <rect id="Rectangle-Copy-39" fill="#B6C931" x="13.9579668" y="49.4387456" width="11.6294862" height="5.40929469"></rect>
                                    <rect id="Rectangle-Copy-33" fill="#B6C931" x="13.9579668" y="35.5335464" width="11.6294862" height="5.40929469"></rect>
                                    <rect id="Rectangle-Copy-19" fill="#DCDCDC" x="27.910767" y="-8.94839758e-14" width="11.6294862" height="5.40929469"></rect>
                                    <rect id="Rectangle-Copy-22" fill="#B6C931" x="27.910767" y="7.10935874" width="11.6294862" height="5.40929469"></rect>
                                    <rect id="Rectangle-Copy-25" fill="#B6C931" x="27.910767" y="14.2187175" width="11.6294862" height="5.40929469"></rect>
                                    <rect id="Rectangle-Copy-28" fill="#B6C931" x="27.9159336" y="21.3280762" width="11.6294862" height="5.40929469"></rect>
                                    <rect id="Rectangle-Copy-41" fill="#B6C931" x="27.9159336" y="42.3360105" width="11.6294862" height="5.40929469"></rect>
                                    <rect id="Rectangle-Copy-31" fill="#B6C931" x="27.9159336" y="28.4308113" width="11.6294862" height="5.40929469"></rect>
                                    <rect id="Rectangle-Copy-42" fill="#B6C931" x="27.9159336" y="49.4387456" width="11.6294862" height="5.40929469"></rect>
                                    <rect id="Rectangle-Copy-34" fill="#B6C931" x="27.9159336" y="35.5335464" width="11.6294862" height="5.40929469"></rect>
                                </g>
                            </g>
                            <path d="M38.0099164,3.73034936e-14 L38.0099164,9.40530038 C38.0099164,9.95758513 38.4576317,10.4053004 39.0099164,10.4053004 L49.3920123,10.4053004 L49.3920123,10.4053004 L38.0099164,3.73034936e-14 Z" id="Path-2-Copy" fill="#C1BFBF"></path>
                        </g>
                    </g>
                    <g id="Group-2-Copy-6" opacity="0.2" transform="translate(0.883636, 124.400000)">
                        <g id="Group">
                            <path d="M1,0 L20.7326817,0 L20.7326817,0 L26.9410976,5.67561839 L26.9410976,34.9214635 C26.9410976,35.4737482 26.4933823,35.9214635 25.9410976,35.9214635 L1,35.9214635 C0.44771525,35.9214635 6.76353751e-17,35.4737482 0,34.9214635 L0,1 C-6.76353751e-17,0.44771525 0.44771525,1.01453063e-16 1,0 Z" id="Rectangle-Copy" fill="#F9F9F9"></path>
                            <g id="Group-4" transform="translate(2.565819, 3.848728)">
                                <g id="Group-3">
                                    <rect id="Rectangle" fill="#DCDCDC" x="-6.461498e-14" y="-8.94839758e-14" width="6.34335613" height="2.95052438"></rect>
                                    <rect id="Rectangle-Copy-20" fill="#DCDCDC" x="-6.461498e-14" y="3.87783204" width="6.34335613" height="2.95052438"></rect>
                                    <rect id="Rectangle-Copy-23" fill="#DCDCDC" x="-6.461498e-14" y="7.75566408" width="6.34335613" height="2.95052438"></rect>
                                    <rect id="Rectangle-Copy-26" fill="#DCDCDC" x="-6.461498e-14" y="11.6334961" width="6.34335613" height="2.95052438"></rect>
                                    <rect id="Rectangle-Copy-35" fill="#DCDCDC" x="-6.461498e-14" y="23.0923694" width="6.34335613" height="2.95052438"></rect>
                                    <rect id="Rectangle-Copy-29" fill="#DCDCDC" x="-6.461498e-14" y="15.5077153" width="6.34335613" height="2.95052438"></rect>
                                    <rect id="Rectangle-Copy-36" fill="#DCDCDC" x="-6.461498e-14" y="26.9665885" width="6.34335613" height="2.95052438"></rect>
                                    <rect id="Rectangle-Copy-32" fill="#DCDCDC" x="-6.461498e-14" y="19.3819344" width="6.34335613" height="2.95052438"></rect>
                                    <rect id="Rectangle-Copy-18" fill="#DCDCDC" x="7.61202736" y="-8.94839758e-14" width="6.34335613" height="2.95052438"></rect>
                                    <rect id="Rectangle-Copy-21" fill="#B6C931" x="7.61202736" y="3.87783204" width="6.34335613" height="2.95052438"></rect>
                                    <rect id="Rectangle-Copy-24" fill="#B6C931" x="7.61202736" y="7.75566408" width="6.34335613" height="2.95052438"></rect>
                                    <rect id="Rectangle-Copy-27" fill="#B6C931" x="7.61343644" y="11.6334961" width="6.34335613" height="2.95052438"></rect>
                                    <rect id="Rectangle-Copy-38" fill="#B6C931" x="7.61343644" y="23.0923694" width="6.34335613" height="2.95052438"></rect>
                                    <rect id="Rectangle-Copy-30" fill="#B6C931" x="7.61343644" y="15.5077153" width="6.34335613" height="2.95052438"></rect>
                                    <rect id="Rectangle-Copy-39" fill="#B6C931" x="7.61343644" y="26.9665885" width="6.34335613" height="2.95052438"></rect>
                                    <rect id="Rectangle-Copy-33" fill="#B6C931" x="7.61343644" y="19.3819344" width="6.34335613" height="2.95052438"></rect>
                                    <rect id="Rectangle-Copy-19" fill="#DCDCDC" x="15.2240547" y="-8.94839758e-14" width="6.34335613" height="2.95052438"></rect>
                                    <rect id="Rectangle-Copy-22" fill="#B6C931" x="15.2240547" y="3.87783204" width="6.34335613" height="2.95052438"></rect>
                                    <rect id="Rectangle-Copy-25" fill="#B6C931" x="15.2240547" y="7.75566408" width="6.34335613" height="2.95052438"></rect>
                                    <rect id="Rectangle-Copy-28" fill="#B6C931" x="15.2268729" y="11.6334961" width="6.34335613" height="2.95052438"></rect>
                                    <rect id="Rectangle-Copy-41" fill="#B6C931" x="15.2268729" y="23.0923694" width="6.34335613" height="2.95052438"></rect>
                                    <rect id="Rectangle-Copy-31" fill="#B6C931" x="15.2268729" y="15.5077153" width="6.34335613" height="2.95052438"></rect>
                                    <rect id="Rectangle-Copy-42" fill="#B6C931" x="15.2268729" y="26.9665885" width="6.34335613" height="2.95052438"></rect>
                                    <rect id="Rectangle-Copy-34" fill="#B6C931" x="15.2268729" y="19.3819344" width="6.34335613" height="2.95052438"></rect>
                                </g>
                            </g>
                            <path d="M20.7326817,3.73034936e-14 L20.7326817,4.67561839 C20.7326817,5.22790314 21.1803969,5.67561839 21.7326817,5.67561839 L26.9410976,5.67561839 L26.9410976,5.67561839 L20.7326817,3.73034936e-14 Z" id="Path-2-Copy" fill="#C1BFBF"></path>
                        </g>
                    </g>
                </g>
                <g id="Group-2-Copy" transform="translate(357.427233, 83.852933)" fill="#EE9C28">
                    <path d="M125.763386,1.4150246 L132.832916,9.63097839 C133.553362,10.4682547 133.458652,11.731038 132.621376,12.4514838 C132.591384,12.4772901 132.560634,12.5022007 132.529165,12.5261829 L37.6636752,84.8221601 C36.8217867,85.4637544 35.6257767,85.3382749 34.9353802,84.5359208 L32.607873,81.8325616 C32.1385104,81.7645173 31.6914699,81.5302427 31.3628104,81.1381874 L31.3628104,81.1381874 L1.28499733,45.2586095 C0.578051814,44.4152999 0.68517543,43.1593079 1.52472297,42.4478989 L1.52472297,42.4478989 L9.90743448,35.3446239 C9.91013256,35.3423376 9.9128367,35.3400585 9.91554688,35.3377866 C10.7620298,34.6281808 12.023489,34.7391416 12.7330948,35.5856246 L12.7330948,35.5856246 L38.1056466,65.851451 L123.035091,1.12878527 C123.87698,0.487191018 125.072989,0.612670513 125.763386,1.4150246 Z" id="Combined-Shape"></path>
                </g>
            </g>
        </g>
        <g id="Path" fill-rule="nonzero">
            <use fill="black" fill-opacity="1" filter="url(#filter-2)" xlink:href="#path-1"></use>
            <use stroke="#FFFFFF" stroke-width="2" fill="#000000" xlink:href="#path-1"></use>
        </g>
        <text id="Invoice" opacity="0.326009115" font-family="ArialMT, Arial" font-size="30" font-weight="normal" fill="#FFFFFF">
            <tspan x="63.48" y="77">Invoice</tspan>
        </text>
        <text id="Receipt" opacity="0.406482515" font-family="ArialMT, Arial" font-size="14" font-weight="normal" fill="#FFFFFF">
            <tspan x="459.414545" y="300">Receipt</tspan>
        </text>
        <text id="Currency" opacity="0.195684524" font-family="ArialMT, Arial" font-size="25" font-weight="normal" fill="#FFFFFF">
            <tspan x="258.48" y="181.149168">Currency</tspan>
        </text>
        <text id="Reference" opacity="0.260370164" font-family="ArialMT, Arial" font-size="20" font-weight="normal" fill="#FFFFFF">
            <tspan x="146" y="130.5">Reference</tspan>
        </text>
        <text id="Invoice-number" opacity="0.406482515" font-family="ArialMT, Arial" font-size="20" font-weight="normal" fill="#FFFFFF">
            <tspan x="188.914545" y="269">Invoice number</tspan>
        </text>
        <text id="Address" opacity="0.3" font-family="ArialMT, Arial" font-size="37" font-weight="normal" fill="#FFFFFF">
            <tspan x="35" y="370.649168">Address</tspan>
        </text>
        <text id="Amount" opacity="0.406482515" font-family="ArialMT, Arial" font-size="16" font-weight="normal" fill="#FFFFFF">
            <tspan x="336.707272" y="126.5">Amount</tspan>
        </text>
        <text id="Issued-date" opacity="0.406482515" font-family="ArialMT, Arial" font-size="22" font-weight="normal" fill="#FFFFFF">
            <tspan x="318" y="246">Issued date</tspan>
        </text>
        <text id="Total-tax" opacity="0.171363467" font-family="ArialMT, Arial" font-size="25" font-weight="normal" fill="#FFFFFF">
            <tspan x="351.707272" y="360.649168">Total tax</tspan>
        </text>
        <text id="Discount" opacity="0.24827939" font-family="ArialMT, Arial" font-size="18" font-weight="normal" fill="#FFFFFF">
            <tspan x="257.414545" y="44">Discount</tspan>
        </text>
        <text id="Booking-number" opacity="0.406482515" font-family="ArialMT, Arial" font-size="15" font-weight="normal" fill="#FFFFFF">
            <tspan x="245" y="320">Booking number</tspan>
        </text>
    </g>
</svg>