<?xml version="1.0" encoding="UTF-8"?>
<svg width="200px" height="200px" viewBox="0 0 200 200" version="1.1" xmlns="http://www.w3.org/2000/svg" xmlns:xlink="http://www.w3.org/1999/xlink">
    <!-- Generator: Sketch 59.1 (86144) - https://sketch.com -->
    <title>Rightbanner_img1</title>
    <desc>Created with Sketch.</desc>
    <g id="Rightbanner_img1" stroke="none" stroke-width="1" fill="none" fill-rule="evenodd">
        <rect id="Rectangle" fill="#F8D7A9" x="16.3466974" y="16.5" width="167" height="167" rx="6"></rect>
        <path d="M99.8466974,16.5 L183.346697,40.5 L183.346697,86.5 C183.346697,89.8137085 180.660406,92.5 177.346697,92.5 L22.3466974,92.5 C19.0329889,92.5 16.3466974,89.8137085 16.3466974,86.5 L16.3466974,40.5 L16.3466974,40.5 L99.8466974,16.5 Z" id="Triangle" fill="#F6BD6B" transform="translate(99.846697, 54.500000) scale(1, -1) translate(-99.846697, -54.500000) "></path>
        <path d="M57.5748574,106.58766 C57.5748574,106.235605 57.6896563,105.948608 57.9192574,105.72666 C58.1488586,105.504712 58.4320291,105.39374 58.7687774,105.39374 C59.1208325,105.39374 59.4078297,105.504712 59.6297774,105.72666 C59.8517252,105.948608 59.9626974,106.235605 59.9626974,106.58766 L59.9626974,122.13158 C59.9626974,122.468328 59.8517252,122.751499 59.6297774,122.9811 C59.4078297,123.210701 59.1208325,123.3255 58.7687774,123.3255 C58.4320291,123.3255 58.1488586,123.210701 57.9192574,122.9811 C57.6896563,122.751499 57.5748574,122.468328 57.5748574,122.13158 L57.5748574,106.58766 Z M69.6747774,121.0295 C69.9502988,121.0295 70.1837231,121.136646 70.3750574,121.35094 C70.5663917,121.565234 70.6620574,121.840752 70.6620574,122.1775 C70.6620574,122.514248 70.5357787,122.789766 70.2832174,123.00406 C70.0306562,123.218354 69.7053928,123.3255 69.3074174,123.3255 L68.8941374,123.3255 C68.144107,123.3255 67.4591405,123.130342 66.8392174,122.74002 C66.2192943,122.349698 65.7333125,121.817797 65.3812574,121.1443 C65.0292023,120.470803 64.8531774,119.713131 64.8531774,118.87126 L64.8531774,113.20014 L63.7970174,113.20014 C63.4755758,113.20014 63.2153651,113.108301 63.0163774,112.92462 C62.8173898,112.740939 62.7178974,112.51134 62.7178974,112.23582 C62.7178974,111.929685 62.8173898,111.684781 63.0163774,111.5011 C63.2153651,111.317419 63.4755758,111.22558 63.7970174,111.22558 L64.8531774,111.22558 L64.8531774,107.91934 C64.8531774,107.582592 64.960323,107.307074 65.1746174,107.09278 C65.3889118,106.878486 65.6644291,106.77134 66.0011774,106.77134 C66.3379258,106.77134 66.613443,106.878486 66.8277374,107.09278 C67.0420318,107.307074 67.1491774,107.582592 67.1491774,107.91934 L67.1491774,111.22558 L69.1007774,111.22558 C69.422219,111.22558 69.6824298,111.317419 69.8814174,111.5011 C70.0804051,111.684781 70.1798974,111.929685 70.1798974,112.23582 C70.1798974,112.51134 70.0804051,112.740939 69.8814174,112.92462 C69.6824298,113.108301 69.422219,113.20014 69.1007774,113.20014 L67.1491774,113.20014 L67.1491774,118.87126 C67.1491774,119.48353 67.3175491,119.996298 67.6542974,120.40958 C67.9910458,120.822862 68.4043217,121.0295 68.8941374,121.0295 L69.6747774,121.0295 Z M77.9403774,110.67454 C78.9353157,110.67454 79.8269202,110.835258 80.6152174,111.1567 C81.4035147,111.478142 82.0272551,111.922031 82.4864574,112.48838 C82.6854451,112.733288 82.7849374,112.978192 82.7849374,113.2231 C82.7849374,113.483315 82.6548321,113.720566 82.3946174,113.93486 C82.2262433,114.057314 82.0119521,114.11854 81.7517374,114.11854 C81.3537621,114.11854 80.994059,113.973128 80.6726174,113.6823 C80.2899489,113.330245 79.8843262,113.081514 79.4557374,112.9361 C79.0271486,112.790686 78.5067272,112.71798 77.8944574,112.71798 C77.1903472,112.71798 76.6125264,112.836605 76.1609774,113.07386 C75.7094285,113.311115 75.4836574,113.644031 75.4836574,114.07262 C75.4836574,114.378755 75.56019,114.635139 75.7132574,114.84178 C75.8663249,115.048421 76.1571486,115.239752 76.5857374,115.41578 C76.9667053,115.572249 77.4988435,115.725692 78.1821651,115.876114 L78.4454974,115.93238 C80.1139324,116.269128 81.2963606,116.735977 81.9928174,117.33294 C82.6892743,117.929903 83.0374974,118.702882 83.0374974,119.6519 C83.0374974,120.35601 82.846166,120.995057 82.4634974,121.56906 C82.0808289,122.143063 81.5183145,122.594605 80.7759374,122.9237 C80.0335604,123.252795 79.141956,123.41734 78.1010974,123.41734 C77.0602389,123.41734 76.080622,123.256622 75.1622174,122.93518 C74.2438128,122.613738 73.5244067,122.192809 73.0039774,121.67238 C72.8049898,121.473392 72.7054974,121.236141 72.7054974,120.96062 C72.7054974,120.593258 72.8585626,120.294781 73.1646974,120.06518 C73.4555256,119.850886 73.7233895,119.74374 73.9682974,119.74374 C74.2744323,119.74374 74.5652561,119.881499 74.8407774,120.15702 C75.1316056,120.478462 75.5678412,120.757805 76.1494974,120.99506 C76.7311537,121.232315 77.3510675,121.35094 78.0092574,121.35094 C78.8817418,121.35094 79.559055,121.205528 80.0412174,120.9147 C80.5233798,120.623872 80.7644574,120.233556 80.7644574,119.74374 C80.7644574,119.269231 80.5272065,118.875088 80.0526974,118.5613 C79.6146891,118.271649 78.8962787,118.02439 77.8974474,117.819516 L77.6418974,117.76918 C74.7030027,117.202831 73.2335774,115.993616 73.2335774,114.1415 C73.2335774,113.39147 73.4555219,112.756249 73.8994174,112.23582 C74.343313,111.715391 74.9249605,111.325075 75.6443774,111.06486 C76.3637944,110.804645 77.12912,110.67454 77.9403774,110.67454 Z M98.0762974,121.0295 C98.3518188,121.0295 98.5852431,121.136646 98.7765774,121.35094 C98.9679117,121.565234 99.0635774,121.840752 99.0635774,122.1775 C99.0635774,122.514248 98.9372987,122.789766 98.6847374,123.00406 C98.4321762,123.218354 98.1069128,123.3255 97.7089374,123.3255 L97.2956574,123.3255 C96.545627,123.3255 95.8606605,123.130342 95.2407374,122.74002 C94.6208143,122.349698 94.1348325,121.817797 93.7827774,121.1443 C93.4307223,120.470803 93.2546974,119.713131 93.2546974,118.87126 L93.2546974,113.20014 L92.1985374,113.20014 C91.8770958,113.20014 91.6168851,113.108301 91.4178974,112.92462 C91.2189098,112.740939 91.1194174,112.51134 91.1194174,112.23582 C91.1194174,111.929685 91.2189098,111.684781 91.4178974,111.5011 C91.6168851,111.317419 91.8770958,111.22558 92.1985374,111.22558 L93.2546974,111.22558 L93.2546974,107.91934 C93.2546974,107.582592 93.361843,107.307074 93.5761374,107.09278 C93.7904318,106.878486 94.0659491,106.77134 94.4026974,106.77134 C94.7394458,106.77134 95.014963,106.878486 95.2292574,107.09278 C95.4435518,107.307074 95.5506974,107.582592 95.5506974,107.91934 L95.5506974,111.22558 L97.5022974,111.22558 C97.823739,111.22558 98.0839498,111.317419 98.2829374,111.5011 C98.4819251,111.684781 98.5814174,111.929685 98.5814174,112.23582 C98.5814174,112.51134 98.4819251,112.740939 98.2829374,112.92462 C98.0839498,113.108301 97.823739,113.20014 97.5022974,113.20014 L95.5506974,113.20014 L95.5506974,118.87126 C95.5506974,119.48353 95.7190691,119.996298 96.0558174,120.40958 C96.3925658,120.822862 96.8058417,121.0295 97.2956574,121.0295 L98.0762974,121.0295 Z M108.178697,110.65158 C109.234863,110.65158 110.183867,110.881178 111.025737,111.34038 C111.867608,111.799582 112.525788,112.469242 113.000297,113.34938 C113.474806,114.229518 113.712057,115.289494 113.712057,116.52934 L113.712057,122.1775 C113.712057,122.514248 113.601085,122.793592 113.379137,123.01554 C113.15719,123.237488 112.877846,123.34846 112.541097,123.34846 C112.204349,123.34846 111.925005,123.237488 111.703057,123.01554 C111.48111,122.793592 111.370137,122.514248 111.370137,122.1775 L111.370137,116.52934 C111.370137,115.289494 111.037221,114.35197 110.371377,113.71674 C109.705534,113.08151 108.821583,112.7639 107.719497,112.7639 C107.076614,112.7639 106.49114,112.894005 105.963057,113.15422 C105.434975,113.414435 105.021699,113.766484 104.723217,114.21038 C104.424736,114.654276 104.275497,115.151737 104.275497,115.70278 L104.275497,122.1775 C104.275497,122.514248 104.168352,122.793592 103.954057,123.01554 C103.739763,123.237488 103.456593,123.34846 103.104537,123.34846 C102.767789,123.34846 102.488445,123.237488 102.266497,123.01554 C102.04455,122.793592 101.933577,122.514248 101.933577,122.1775 L101.933577,106.5647 C101.933577,106.212645 102.04455,105.929474 102.266497,105.71518 C102.488445,105.500886 102.767789,105.39374 103.104537,105.39374 C103.456593,105.39374 103.739763,105.500886 103.954057,105.71518 C104.168352,105.929474 104.275497,106.212645 104.275497,106.5647 L104.275497,112.1899 C104.765313,111.700084 105.346961,111.321248 106.020457,111.05338 C106.693954,110.785512 107.41336,110.65158 108.178697,110.65158 Z M123.309337,110.67454 C124.487957,110.67454 125.555586,110.953884 126.512257,111.51258 C127.468929,112.071276 128.226601,112.836602 128.785297,113.80858 C129.343994,114.780558 129.623337,115.863494 129.623337,117.05742 L129.623337,122.1775 C129.623337,122.514248 129.512365,122.793592 129.290417,123.01554 C129.06847,123.237488 128.789126,123.34846 128.452377,123.34846 C128.115629,123.34846 127.836285,123.237488 127.614337,123.01554 C127.39239,122.793592 127.281417,122.514248 127.281417,122.1775 L127.281417,121.32798 C126.745681,121.98617 126.095155,122.498938 125.329817,122.8663 C124.56448,123.233662 123.737929,123.41734 122.850137,123.41734 C121.748052,123.41734 120.749302,123.141823 119.853857,122.59078 C118.958413,122.039737 118.254313,121.278238 117.741537,120.30626 C117.228762,119.334282 116.972377,118.251346 116.972377,117.05742 C116.972377,115.863494 117.247895,114.780558 117.798937,113.80858 C118.34998,112.836602 119.111479,112.071276 120.083457,111.51258 C121.055436,110.953884 122.130718,110.67454 123.309337,110.67454 Z M123.309337,121.35094 C124.074675,121.35094 124.767294,121.163435 125.387217,120.78842 C126.007141,120.413405 126.493122,119.900637 126.845177,119.2501 C127.197233,118.599563 127.373257,117.868677 127.373257,117.05742 C127.373257,116.246163 127.197233,115.51145 126.845177,114.85326 C126.493122,114.19507 126.007141,113.678475 125.387217,113.30346 C124.767294,112.928445 124.074675,112.74094 123.309337,112.74094 C122.544,112.74094 121.851381,112.928445 121.231457,113.30346 C120.611534,113.678475 120.121726,114.19507 119.762017,114.85326 C119.402309,115.51145 119.222457,116.246163 119.222457,117.05742 C119.222457,117.868677 119.402309,118.599563 119.762017,119.2501 C120.121726,119.900637 120.611534,120.413405 121.231457,120.78842 C121.851381,121.163435 122.544,121.35094 123.309337,121.35094 Z M138.462937,121.0295 C138.738459,121.0295 138.971883,121.136646 139.163217,121.35094 C139.354552,121.565234 139.450217,121.840752 139.450217,122.1775 C139.450217,122.514248 139.323939,122.789766 139.071377,123.00406 C138.818816,123.218354 138.493553,123.3255 138.095577,123.3255 L137.682297,123.3255 C136.932267,123.3255 136.247301,123.130342 135.627377,122.74002 C135.007454,122.349698 134.521473,121.817797 134.169417,121.1443 C133.817362,120.470803 133.641337,119.713131 133.641337,118.87126 L133.641337,113.20014 L132.585177,113.20014 C132.263736,113.20014 132.003525,113.108301 131.804537,112.92462 C131.60555,112.740939 131.506057,112.51134 131.506057,112.23582 C131.506057,111.929685 131.60555,111.684781 131.804537,111.5011 C132.003525,111.317419 132.263736,111.22558 132.585177,111.22558 L133.641337,111.22558 L133.641337,107.91934 C133.641337,107.582592 133.748483,107.307074 133.962777,107.09278 C134.177072,106.878486 134.452589,106.77134 134.789337,106.77134 C135.126086,106.77134 135.401603,106.878486 135.615897,107.09278 C135.830192,107.307074 135.937337,107.582592 135.937337,107.91934 L135.937337,111.22558 L137.888937,111.22558 C138.210379,111.22558 138.47059,111.317419 138.669577,111.5011 C138.868565,111.684781 138.968057,111.929685 138.968057,112.23582 C138.968057,112.51134 138.868565,112.740939 138.669577,112.92462 C138.47059,113.108301 138.210379,113.20014 137.888937,113.20014 L135.937337,113.20014 L135.937337,118.87126 C135.937337,119.48353 136.105709,119.996298 136.442457,120.40958 C136.779206,120.822862 137.192482,121.0295 137.682297,121.0295 L138.462937,121.0295 Z M60.1258974,140.4471 C61.4422774,140.4471 62.5519996,140.714964 63.4550974,141.2507 C64.3581953,141.786436 65.123521,142.551762 65.7510974,143.5467 C65.9347784,143.837528 66.0266174,144.113045 66.0266174,144.37326 C66.0266174,144.710008 65.8735523,144.985526 65.5674174,145.19982 C65.3990433,145.306967 65.2000586,145.36054 64.9704574,145.36054 C64.7408563,145.36054 64.5265651,145.303141 64.3275774,145.18834 C64.1285898,145.073539 63.9755246,144.916648 63.8683774,144.71766 C63.4550954,144.028857 62.9385005,143.504608 62.3185774,143.1449 C61.6986543,142.785192 60.9141955,142.60534 59.9651774,142.60534 C58.801865,142.60534 57.8605144,142.831111 57.1410974,143.28266 C56.4216805,143.734209 56.0619774,144.388562 56.0619774,145.24574 C56.0619774,146.041691 56.3834142,146.707524 57.0262974,147.24326 C57.631364,147.747482 58.6838595,148.088993 60.1838126,148.2678 L60.4702974,148.29942 C62.3071066,148.483101 63.7306124,149.037962 64.7408574,149.96402 C65.7511025,150.890078 66.2562174,152.110772 66.2562174,153.62614 C66.2562174,154.728226 65.9577404,155.673403 65.3607774,156.4617 C64.7638145,157.249997 63.9717024,157.839298 62.9844174,158.22962 C61.9971325,158.619942 60.9371564,158.8151 59.8044574,158.8151 C58.3197033,158.8151 56.9689035,158.478357 55.7520174,157.80486 C54.5351314,157.131363 53.6970997,156.251239 53.2378974,155.16446 C53.1613637,154.980779 53.1230974,154.827714 53.1230974,154.70526 C53.1230974,154.475659 53.2072833,154.272848 53.3756574,154.09682 C53.5159692,153.95013 53.6987974,153.843303 53.9241459,153.776337 L54.0644574,153.74094 C54.1103777,153.725633 54.1869102,153.71798 54.2940574,153.71798 C54.5389653,153.71798 54.7723897,153.790686 54.9943374,153.9361 C55.1792939,154.057278 55.3243874,154.213001 55.4296207,154.403272 L55.4879774,154.52158 C55.7634988,155.118543 56.30688,155.623658 57.1181374,156.03694 C57.9293948,156.450222 58.8248259,156.65686 59.8044574,156.65686 C60.9524632,156.65686 61.9244268,156.392823 62.7203774,155.86474 C63.5163281,155.336657 63.9142974,154.613425 63.9142974,153.69502 C63.9142974,152.822536 63.5775541,152.076343 62.9040574,151.45642 C62.2754605,150.877825 61.3401979,150.509244 60.0982445,150.350666 L59.8274174,150.3199 C57.9293813,150.136219 56.4369962,149.581358 55.3502174,148.6553 C54.2634387,147.729242 53.7200574,146.569774 53.7200574,145.17686 C53.7200574,144.197228 53.9994013,143.351544 54.5580974,142.63978 C55.1167936,141.928016 55.8821192,141.384635 56.8540974,141.00962 C57.8260756,140.634605 58.9166647,140.4471 60.1258974,140.4471 Z M69.9068574,141.84766 C69.9068574,141.495605 70.0216563,141.208608 70.2512574,140.98666 C70.4808586,140.764712 70.7640291,140.65374 71.1007774,140.65374 C71.4528325,140.65374 71.7398297,140.764712 71.9617774,140.98666 C72.1837252,141.208608 72.2946974,141.495605 72.2946974,141.84766 L72.2946974,157.39158 C72.2946974,157.728328 72.1837252,158.011499 71.9617774,158.2411 C71.7398297,158.470701 71.4528325,158.5855 71.1007774,158.5855 C70.7640291,158.5855 70.4808586,158.470701 70.2512574,158.2411 C70.0216563,158.011499 69.9068574,157.728328 69.9068574,157.39158 L69.9068574,141.84766 Z M93.6474974,140.65374 C93.9842458,140.65374 94.2674163,140.768539 94.4970174,140.99814 C94.7266186,141.227741 94.8414174,141.510912 94.8414174,141.84766 L94.8414174,157.39158 C94.8414174,157.728328 94.722792,158.011499 94.4855374,158.2411 C94.2482829,158.470701 93.968939,158.5855 93.6474974,158.5855 C93.3107491,158.5855 93.0275786,158.470701 92.7979774,158.2411 C92.5683763,158.011499 92.4535774,157.728328 92.4535774,157.39158 L92.4535774,145.98046 L86.8972574,157.29974 C86.6370428,157.697715 86.2926462,157.8967 85.8640574,157.8967 C85.3589349,157.8967 84.9915786,157.659449 84.7619774,157.18494 L79.2745374,146.1871 L79.2745374,157.39158 C79.2745374,157.728328 79.1597386,158.011499 78.9301374,158.2411 C78.7005363,158.470701 78.4173658,158.5855 78.0806174,158.5855 C77.7438691,158.5855 77.4606986,158.470701 77.2310974,158.2411 C77.0014963,158.011499 76.8866974,157.728328 76.8866974,157.39158 L76.8866974,141.84766 C76.8866974,141.510912 77.0014963,141.227741 77.2310974,140.99814 C77.4606986,140.768539 77.7438691,140.65374 78.0806174,140.65374 C78.5398197,140.65374 78.8918695,140.868031 79.1367774,141.29662 L85.9558974,154.95782 L92.5913374,141.29662 C92.8362453,140.868031 93.1882951,140.65374 93.6474974,140.65374 Z M101.821257,157.39158 C101.821257,157.728328 101.710285,158.011499 101.488337,158.2411 C101.26639,158.470701 100.979393,158.5855 100.627337,158.5855 C100.290589,158.5855 100.007419,158.470701 99.7778174,158.2411 C99.5482163,158.011499 99.4334174,157.728328 99.4334174,157.39158 L99.4334174,141.84766 C99.4334174,141.495605 99.5482163,141.208608 99.7778174,140.98666 C100.007419,140.764712 100.290589,140.65374 100.627337,140.65374 L105.219337,140.65374 C106.352036,140.65374 107.366093,140.906297 108.261537,141.41142 C109.156982,141.916543 109.853428,142.620642 110.350897,143.52374 C110.848367,144.426838 111.097097,145.452374 111.097097,146.60038 C111.097097,147.717772 110.848367,148.712696 110.350897,149.58518 C109.853428,150.457664 109.156982,151.138804 108.261537,151.62862 C107.366093,152.118436 106.352036,152.36334 105.219337,152.36334 L101.821257,152.36334 L101.821257,157.39158 Z M105.219337,150.15918 C106.260196,150.15918 107.117361,149.826263 107.790857,149.16042 C108.464354,148.494577 108.801097,147.641239 108.801097,146.60038 C108.801097,145.513601 108.464354,144.61817 107.790857,143.91406 C107.117361,143.20995 106.260196,142.8579 105.219337,142.8579 L101.821257,142.8579 L101.821257,150.15918 L105.219337,150.15918 Z M124.413897,156.19766 C124.750646,156.19766 125.033816,156.312459 125.263417,156.54206 C125.493019,156.771661 125.607817,157.054832 125.607817,157.39158 C125.607817,157.728328 125.493019,158.011499 125.263417,158.2411 C125.033816,158.470701 124.750646,158.5855 124.413897,158.5855 L114.908457,158.5855 C114.571709,158.5855 114.292365,158.470701 114.070417,158.2411 C113.84847,158.011499 113.737497,157.728328 113.737497,157.39158 L113.737497,141.84766 C113.737497,141.510912 113.852296,141.227741 114.081897,140.99814 C114.311499,140.768539 114.587016,140.65374 114.908457,140.65374 C115.245206,140.65374 115.528376,140.768539 115.757977,140.99814 C115.987579,141.227741 116.102377,141.510912 116.102377,141.84766 L116.102377,156.19766 L124.413897,156.19766 Z M140.049657,156.38134 C140.401713,156.38134 140.684883,156.480832 140.899177,156.67982 C141.113472,156.878808 141.220617,157.139018 141.220617,157.46046 C141.220617,157.797208 141.113472,158.068899 140.899177,158.27554 C140.684883,158.482181 140.401713,158.5855 140.049657,158.5855 L129.671737,158.5855 C129.334989,158.5855 129.051819,158.470701 128.822217,158.2411 C128.592616,158.011499 128.477817,157.728328 128.477817,157.39158 L128.477817,141.84766 C128.477817,141.495605 128.592616,141.208608 128.822217,140.98666 C129.051819,140.764712 129.334989,140.65374 129.671737,140.65374 L140.049657,140.65374 C140.401713,140.65374 140.684883,140.757059 140.899177,140.9637 C141.113472,141.170341 141.220617,141.442032 141.220617,141.77878 C141.220617,142.100222 141.113472,142.360432 140.899177,142.55942 C140.684883,142.758408 140.401713,142.8579 140.049657,142.8579 L130.865657,142.8579 L130.865657,148.43718 L137.455177,148.43718 C137.791926,148.43718 138.07127,148.540499 138.293217,148.74714 C138.515165,148.953781 138.626137,149.217818 138.626137,149.53926 C138.626137,149.860702 138.515165,150.124739 138.293217,150.33138 C138.07127,150.538021 137.791926,150.64134 137.455177,150.64134 L130.865657,150.64134 L130.865657,156.38134 L140.049657,156.38134 Z" id="ItsthatSIMPLE." fill="#472F0C" fill-rule="nonzero"></path>
        <path d="M40.9111328,40.3476562 C40.9111328,39.7207 40.969726,39.3237313 41.0869141,39.1567383 C41.2041021,38.9897453 41.4531231,38.90625 41.8339844,38.90625 C42.191408,38.90625 42.4272455,38.9736321 42.5415039,39.1083984 C42.6557623,39.2431647 42.7128906,39.5712865 42.7128906,40.0927734 C42.7128906,40.608401 42.6601568,40.9233393 42.5546875,41.0375977 C42.4492182,41.151856 42.2089863,41.2089844 41.8339844,41.2089844 C41.4531231,41.2089844 41.2041021,41.151856 41.0869141,41.0375977 C40.969726,40.9233393 40.9111328,40.6933611 40.9111328,40.3476562 Z M43.2929688,50.4814453 C43.2929688,51.2255897 43.2490239,51.7910137 43.1611328,52.1777344 C43.0732417,52.5644551 42.9296885,52.8867175 42.7304688,53.1445312 C42.3964827,53.5781272 41.9335967,53.9077137 41.3417969,54.1333008 C40.749997,54.3588878 40.055668,54.4716797 39.2587891,54.4716797 C38.5966764,54.4716797 38.1103531,54.4042975 37.7998047,54.2695312 C37.4892563,54.134765 37.3339844,53.9267592 37.3339844,53.6455078 C37.3339844,53.4638663 37.4086907,53.3041999 37.5581055,53.1665039 C37.7075203,53.0288079 37.8847646,52.9599609 38.0898438,52.9599609 C38.2216803,52.9599609 38.4145498,52.9752196 38.6684565,53.0057372 L38.828125,53.0258789 C39.162111,53.0698244 39.4140617,53.0917969 39.5839844,53.0917969 C40.4394574,53.0917969 41.0488263,52.8940449 41.4121094,52.4985352 C41.7753924,52.1030254 41.9570312,51.4189502 41.9570312,50.4462891 L41.9570312,44.1269531 L38.5205078,44.1269531 C37.9521456,44.1269531 37.5961921,44.0815434 37.4526367,43.9907227 C37.3090813,43.8999019 37.2373047,43.7343762 37.2373047,43.4941406 C37.2373047,43.2890615 37.2958979,43.1352544 37.4130859,43.0327148 C37.530274,42.9301753 37.7060535,42.8789062 37.9404297,42.8789062 L42.7832031,42.8789062 C42.941407,42.8789062 43.0659175,42.9111325 43.1567383,42.9755859 C43.247559,43.0400394 43.2929688,43.1279291 43.2929688,43.2392578 L43.2929688,50.4814453 Z M49.1992188,47.7568359 C49.1992188,48.4951209 49.3544906,49.034178 49.6650391,49.3740234 C49.9755875,49.7138689 50.4677701,49.8837891 51.1416016,49.8837891 C51.7802766,49.8837891 52.3266579,49.6816426 52.7807617,49.2773438 C53.2348656,48.8730449 53.4619141,48.366214 53.4619141,47.7568359 L53.4619141,44.1269531 L52.2578125,44.1269531 C52.0292957,44.1269531 51.86377,44.0786138 51.7612305,43.9819336 C51.6586909,43.8852534 51.6074219,43.734376 51.6074219,43.5292969 C51.6074219,43.3066395 51.6630854,43.1425787 51.7744141,43.0371094 C51.8857427,42.9316401 52.0644519,42.8789062 52.3105469,42.8789062 L54.1826172,42.8789062 C54.4052746,42.8789062 54.5620113,42.9272456 54.652832,43.0239258 C54.7436528,43.120606 54.7890625,43.3564434 54.7890625,43.7314453 L54.7890625,49.7607422 L55.1933594,49.7607422 C55.4804702,49.7607422 55.6870111,49.8076167 55.8129883,49.9013672 C55.9389655,49.9951177 56.0019531,50.1503895 56.0019531,50.3671875 C56.0019531,50.5781261 55.9418951,50.7363276 55.8217773,50.8417969 C55.7016596,50.9472662 55.5273449,51 55.2988281,51 L53.9628906,51 C53.8046867,51 53.6816411,50.9677738 53.59375,50.9033203 C53.5058589,50.8388669 53.4619141,50.7509771 53.4619141,50.6396484 L53.4619141,50.0419922 C52.8994112,50.4755881 52.4174825,50.7729484 52.0161133,50.934082 C51.6147441,51.0952156 51.1914085,51.1757812 50.7460938,51.1757812 C49.779292,51.1757812 49.0542016,50.9194362 48.5708008,50.4067383 C48.0873999,49.8940404 47.8457031,49.1191458 47.8457031,48.0820312 L47.8457031,44.1269531 L47.6611328,44.1269531 C47.2626933,44.1269531 46.9902351,44.0800786 46.84375,43.9863281 C46.6972649,43.8925777 46.6240234,43.7285168 46.6240234,43.4941406 C46.6240234,43.2890615 46.6811518,43.1352544 46.7954102,43.0327148 C46.9096685,42.9301753 47.0869129,42.8789062 47.3271484,42.8789062 L48.6542969,42.8789062 C48.859376,42.8789062 49.0014644,42.9199215 49.0805664,43.0019531 C49.1596684,43.0839848 49.1992188,43.2656236 49.1992188,43.546875 L49.1992188,47.7568359 Z M58.3574219,50.3671875 L58.3574219,48.8027344 C58.3574219,48.5449206 58.4057612,48.3603521 58.5024414,48.2490234 C58.5991216,48.1376948 58.7558583,48.0820312 58.9726562,48.0820312 C59.1828624,48.0820312 59.3549344,48.2076403 59.4888762,48.4588618 L59.5439453,48.5742188 C59.6376958,48.7734385 59.7226559,48.9228511 59.7988281,49.0224609 C60.0449231,49.3388688 60.4082007,49.5922842 60.8886719,49.7827148 C61.369143,49.9731455 61.8994112,50.0683594 62.4794922,50.0683594 C63.100589,50.0683594 63.5986309,49.9423841 63.9736328,49.6904297 C64.3486347,49.4384753 64.5361328,49.1074239 64.5361328,48.6972656 C64.5361328,48.2812479 64.3852554,47.9853524 64.0834961,47.8095703 C63.7817368,47.6337882 63.2646521,47.5458984 62.5322266,47.5458984 L62.0488281,47.5458984 C60.8535096,47.5458984 59.9423859,47.3378927 59.3154297,46.921875 C58.6884734,46.5058573 58.375,45.9023477 58.375,45.1113281 C58.375,44.3378868 58.6811493,43.7373068 59.293457,43.3095703 C59.9057648,42.8818338 60.7656195,42.6679688 61.8730469,42.6679688 C62.324221,42.6679688 62.7841773,42.7309564 63.2529297,42.8569336 L63.9426,43.0365669 C63.969799,43.0427879 63.9860026,43.0458984 63.9912109,43.0458984 C64.0556644,43.0458984 64.17871,42.9887701 64.3603516,42.8745117 C64.5419931,42.7602533 64.7207022,42.703125 64.8964844,42.703125 C65.0957041,42.703125 65.2436519,42.7763665 65.340332,42.9228516 C65.4370122,43.0693367 65.4853516,43.289061 65.4853516,43.5820312 L65.4853516,44.6103516 C65.4853516,44.9209 65.438477,45.1450188 65.3447266,45.2827148 C65.2509761,45.4204108 65.1015635,45.4892578 64.8964844,45.4892578 C64.742675,45.4892578 64.5574654,45.3748638 64.3408512,45.1460728 L64.2460938,45.0410156 C64.0644522,44.8359365 63.9150396,44.6806646 63.7978516,44.5751953 C63.4873031,44.2880845 63.1562518,44.0815436 62.8046875,43.9555664 C62.4531232,43.8295892 62.0400414,43.7666016 61.5654297,43.7666016 C61.0146457,43.7666016 60.5708025,43.8881824 60.2338867,44.1313477 C59.896971,44.3745129 59.7285156,44.6835919 59.7285156,45.0585938 C59.7285156,45.4277362 59.9013655,45.6914055 60.2470703,45.8496094 C60.5661825,45.9956438 61.2247839,46.0842618 62.2228921,46.1154655 L62.4794922,46.1220703 C63.6982483,46.1513673 64.5888644,46.3637676 65.1513672,46.7592773 C65.71387,47.1547871 65.9951172,47.7656209 65.9951172,48.5917969 C65.9951172,49.3828165 65.6845734,50.0156226 65.0634766,50.4902344 C64.4423797,50.9648461 63.6044975,51.2021484 62.5498047,51.2021484 C62.2158186,51.2021484 61.8437521,51.171387 61.4335938,51.1098633 C61.0234354,51.0483395 60.5078156,50.9443367 59.8867188,50.7978516 C59.6816396,50.9326179 59.5058601,51.0336911 59.359375,51.1010742 C59.2128899,51.1684574 59.0898442,51.2021484 58.9902344,51.2021484 C58.7851552,51.2021484 58.6284185,51.1303718 58.5200195,50.9868164 C58.4116206,50.843261 58.3574219,50.6367201 58.3574219,50.3671875 Z M75.390625,43.3710938 C75.6777358,43.3710938 75.8872064,43.4208979 76.019043,43.5205078 C76.1508796,43.6201177 76.2167969,43.7783192 76.2167969,43.9951172 C76.2167969,44.2001963 76.1552741,44.3540034 76.0322266,44.456543 C75.9091791,44.5590825 75.7246106,44.6103516 75.4785156,44.6103516 L71.9189453,44.6103516 L71.9189453,47.5458984 C71.9189453,48.5068407 72.0434558,49.1396469 72.2924805,49.4443359 C72.5415052,49.749025 72.9677704,49.9013672 73.5712891,49.9013672 C74.0378441,49.9013672 74.5851418,49.7824872 75.2131948,49.544724 L75.8650178,49.2815561 C76.3893117,49.0736689 76.7233658,48.9697266 76.8671875,48.9697266 C77.0312508,48.9697266 77.1704096,49.0283197 77.284668,49.1455078 C77.3989264,49.2626959 77.4560547,49.4062492 77.4560547,49.5761719 C77.4560547,49.7695322 77.3842781,49.9379876 77.2407227,50.081543 C77.0971673,50.2250984 76.8525408,50.3642571 76.5068359,50.4990234 C75.9326143,50.7275402 75.4155296,50.8945307 74.9555664,51 C74.4956032,51.1054693 74.0634786,51.1582031 73.6591797,51.1582031 C72.9736294,51.1582031 72.3979515,51.0483409 71.9321289,50.8286133 C71.4663063,50.6088856 71.1191418,50.2822287 70.890625,49.8486328 C70.7734369,49.6435537 70.6899417,49.400392 70.6401367,49.1191406 C70.5965574,48.8730456 70.5720443,48.5103169 70.566597,48.0309456 L70.5654297,44.6103516 L69.0712891,44.6103516 C68.8251941,44.6103516 68.6464849,44.5620122 68.5351562,44.465332 C68.4238276,44.3686519 68.3681641,44.2119151 68.3681641,43.9951172 C68.3681641,43.7548816 68.4443352,43.5908208 68.5966797,43.5029297 C68.7490242,43.4150386 69.0742163,43.3710938 69.5722656,43.3710938 L70.5654297,43.3710938 L70.5654297,41.1035156 C70.5654297,40.8515612 70.6196284,40.6655279 70.7280273,40.5454102 C70.8364263,40.4252924 71.0048817,40.3652344 71.2333984,40.3652344 C71.4912122,40.3652344 71.6699214,40.4384758 71.7695312,40.5849609 C71.8691411,40.731446 71.9189453,41.0654271 71.9189453,41.5869141 L71.9189453,43.3710938 L75.390625,43.3710938 Z M97.2402344,51 C97.1171869,51 97.030762,50.9692386 96.980957,50.9077148 C96.9311521,50.8461911 96.90625,50.7275399 96.90625,50.5517578 L96.90625,49.8310547 C96.5546857,50.27051 96.115237,50.6118152 95.5878906,50.8549805 C95.0605442,51.0981457 94.4892609,51.2197266 93.8740234,51.2197266 C92.766596,51.2197266 91.8393592,50.8256875 91.0922852,50.0375977 C90.3452111,49.2495078 89.9716797,48.2695371 89.9716797,47.0976562 C89.9716797,45.8847596 90.3701132,44.8754923 91.1669922,44.0698242 C91.9638712,43.2641561 92.9570253,42.8613281 94.1464844,42.8613281 C94.750003,42.8613281 95.2919898,42.9682606 95.7724609,43.1821289 C96.2529321,43.3959972 96.6660139,43.7109354 97.0117188,44.1269531 L97.0117188,40.7607422 L96.5458984,40.7607422 C96.0361303,40.7607422 95.7065437,40.7153325 95.5571289,40.6245117 C95.4077141,40.533691 95.3330078,40.3681653 95.3330078,40.1279297 C95.3330078,39.9169911 95.3930658,39.7587896 95.5131836,39.6533203 C95.6333014,39.547851 95.807616,39.4951172 96.0361328,39.4951172 L97.8378906,39.4951172 C98.0136728,39.4951172 98.1411129,39.5244138 98.2202148,39.5830078 C98.2993168,39.6416019 98.3388672,39.7324213 98.3388672,39.8554688 L98.3388672,49.7607422 L98.734375,49.7607422 C99.0214858,49.7607422 99.2294915,49.8090815 99.3583984,49.9057617 C99.4873053,50.0024419 99.5517578,50.1562489 99.5517578,50.3671875 C99.5517578,50.5664072 99.4960943,50.7216791 99.3847656,50.8330078 C99.2734369,50.9443365 99.1240244,51 98.9365234,51 L97.2402344,51 Z M91.4833984,47.0537109 C91.4833984,47.8623087 91.744138,48.5244115 92.265625,49.0400391 C92.787112,49.5556666 93.4492147,49.8134766 94.2519531,49.8134766 C95.0605509,49.8134766 95.7255833,49.5454128 96.2470703,49.0092773 C96.7685573,48.4731419 97.0292969,47.7919963 97.0292969,46.9658203 C97.0292969,46.1513631 96.7700221,45.4804714 96.2514648,44.953125 C95.7329076,44.4257786 95.0664103,44.1621094 94.2519531,44.1621094 C93.4257771,44.1621094 92.757815,44.4287083 92.2480469,44.9619141 C91.7382787,45.4951199 91.4833984,46.1923785 91.4833984,47.0537109 Z M104.535156,49.7607422 L107.453125,49.7607422 C107.681642,49.7607422 107.850097,49.8090815 107.958496,49.9057617 C108.066895,50.0024419 108.121094,50.1562489 108.121094,50.3671875 C108.121094,50.6074231 108.069825,50.7729488 107.967285,50.8637695 C107.864746,50.9545903 107.675783,51 107.400391,51 L101.652344,51 C101.423827,51 101.250977,50.9472662 101.133789,50.8417969 C101.016601,50.7363276 100.958008,50.5781261 100.958008,50.3671875 C100.958008,50.1621083 101.018066,50.0097661 101.138184,49.9101562 C101.258301,49.8105464 101.444335,49.7607422 101.696289,49.7607422 L103.225586,49.7607422 L103.225586,44.1269531 L102.62793,44.1269531 C102.059567,44.1269531 101.705079,44.0815434 101.564453,43.9907227 C101.423827,43.8999019 101.353516,43.7343762 101.353516,43.4941406 C101.353516,43.2890615 101.410644,43.1352544 101.524902,43.0327148 C101.639161,42.9301753 101.813475,42.8789062 102.047852,42.8789062 L104.051758,42.8789062 C104.209962,42.8789062 104.330078,42.9096677 104.412109,42.9711914 C104.494141,43.0327152 104.535156,43.1220697 104.535156,43.2392578 L104.535156,44.7333984 C105.0918,44.0361293 105.671872,43.5175798 106.275391,43.1777344 C106.878909,42.8378889 107.529293,42.6679688 108.226562,42.6679688 C108.748049,42.6679688 109.16992,42.7734364 109.492188,42.984375 C109.814455,43.1953136 109.975586,43.4677718 109.975586,43.8017578 C109.975586,44.0185558 109.89502,44.2104484 109.733887,44.3774414 C109.572753,44.5444344 109.395509,44.6279297 109.202148,44.6279297 C109.086634,44.6279297 108.903321,44.5622814 108.652205,44.4309832 L108.520996,44.3598633 C108.201659,44.1811515 107.916017,44.0917969 107.664062,44.0917969 C107.207029,44.0917969 106.7251,44.2543929 106.218262,44.5795898 C105.711423,44.9047868 105.150394,45.4189418 104.535156,46.1220703 L104.535156,49.7607422 Z M116.198242,49.9892578 C117.10059,49.9892578 117.840329,49.7036161 118.41748,49.1323242 C118.994632,48.5610323 119.283203,47.8330122 119.283203,46.9482422 C119.283203,46.0634721 118.993167,45.3325224 118.413086,44.7553711 C117.833005,44.1782198 117.094731,43.8896484 116.198242,43.8896484 C115.301753,43.8896484 114.564944,44.1782198 113.987793,44.7553711 C113.410642,45.3325224 113.12207,46.0634721 113.12207,46.9482422 C113.12207,47.8388716 113.409177,48.5683565 113.983398,49.1367188 C114.55762,49.705081 115.295894,49.9892578 116.198242,49.9892578 Z M120.8125,46.9482422 C120.8125,48.2021547 120.38477,49.2275351 119.529297,50.0244141 C118.673824,50.821293 117.563483,51.2197266 116.198242,51.2197266 C114.83886,51.2197266 113.73145,50.821293 112.875977,50.0244141 C112.020504,49.2275351 111.592773,48.2021547 111.592773,46.9482422 C111.592773,45.6943297 112.020504,44.6704141 112.875977,43.8764648 C113.73145,43.0825156 114.83886,42.6855469 116.198242,42.6855469 C117.557624,42.6855469 118.6665,43.0839804 119.524902,43.8808594 C120.383305,44.6777384 120.8125,45.7001891 120.8125,46.9482422 Z M124.732422,53.25 L126.841797,53.25 C127.064454,53.25 127.231445,53.3027338 127.342773,53.4082031 C127.454102,53.5136724 127.509766,53.6718739 127.509766,53.8828125 C127.509766,54.1113293 127.455567,54.2724605 127.347168,54.3662109 C127.238769,54.4599614 127.046876,54.5068359 126.771484,54.5068359 L122.895508,54.5068359 C122.661132,54.5068359 122.483887,54.4541021 122.36377,54.3486328 C122.243652,54.2431635 122.183594,54.0878917 122.183594,53.8828125 C122.183594,53.6484363 122.2583,53.4843755 122.407715,53.390625 C122.535785,53.3102675 122.757482,53.2643494 123.072813,53.2528699 L123.405273,53.25 L123.405273,44.1269531 L123.238281,44.1269531 C122.833982,44.1269531 122.55713,44.0800786 122.407715,43.9863281 C122.2583,43.8925777 122.183594,43.7285168 122.183594,43.4941406 C122.183594,43.2890615 122.243652,43.1352544 122.36377,43.0327148 C122.483887,42.9301753 122.661132,42.8789062 122.895508,42.8789062 L124.231445,42.8789062 C124.407227,42.8789062 124.534668,42.9082028 124.61377,42.9667969 C124.692871,43.0253909 124.732422,43.1162103 124.732422,43.2392578 L124.732422,44.0917969 C125.130861,43.6816386 125.571775,43.3740245 126.055176,43.1689453 C126.538577,42.9638662 127.058591,42.8613281 127.615234,42.8613281 C128.792975,42.8613281 129.77734,43.2597616 130.568359,44.0566406 C131.359379,44.8535196 131.754883,45.8525331 131.754883,47.0537109 C131.754883,48.2080136 131.379887,49.1572228 130.629883,49.9013672 C129.879879,50.6455115 128.921881,51.0175781 127.755859,51.0175781 C127.134763,51.0175781 126.563479,50.9077159 126.041992,50.6879883 C125.520505,50.4682606 125.083986,50.1533224 124.732422,49.7431641 L124.732422,53.25 Z M127.457031,49.7255859 C128.271488,49.7255859 128.939451,49.4692408 129.460938,48.956543 C129.982424,48.4438451 130.243164,47.7802775 130.243164,46.9658203 C130.243164,46.1689413 129.98096,45.5112331 129.456543,44.9926758 C128.932126,44.4741185 128.265629,44.2148438 127.457031,44.2148438 C126.648433,44.2148438 125.986331,44.4726537 125.470703,44.9882812 C124.955076,45.5039088 124.697266,46.1630819 124.697266,46.9658203 C124.697266,47.7744181 124.953611,48.4365209 125.466309,48.9521484 C125.979006,49.467776 126.642574,49.7255859 127.457031,49.7255859 Z M147.794922,40.3476562 C147.794922,39.7148406 147.85205,39.3164071 147.966309,39.1523438 C148.080567,38.9882804 148.325193,38.90625 148.700195,38.90625 C149.063478,38.90625 149.30371,38.975097 149.420898,39.112793 C149.538087,39.250489 149.59668,39.5771459 149.59668,40.0927734 C149.59668,40.5966822 149.542481,40.9086908 149.434082,41.0288086 C149.325683,41.1489264 149.081057,41.2089844 148.700195,41.2089844 C148.325193,41.2089844 148.080567,41.1533209 147.966309,41.0419922 C147.85205,40.9306635 147.794922,40.6992205 147.794922,40.3476562 Z M149.420898,49.7607422 L152.242188,49.7607422 C152.470704,49.7607422 152.63916,49.8090815 152.747559,49.9057617 C152.855958,50.0024419 152.910156,50.1562489 152.910156,50.3671875 C152.910156,50.6074231 152.858887,50.7729488 152.756348,50.8637695 C152.653808,50.9545903 152.464845,51 152.189453,51 L145.369141,51 C145.134764,51 144.958985,50.9472662 144.841797,50.8417969 C144.724609,50.7363276 144.666016,50.5781261 144.666016,50.3671875 C144.666016,50.1621083 144.727538,50.0097661 144.850586,49.9101562 C144.973633,49.8105464 145.158202,49.7607422 145.404297,49.7607422 L148.084961,49.7607422 L148.084961,44.1269531 L146.371094,44.1269531 C146.130858,44.1269531 145.947755,44.0727544 145.821777,43.9643555 C145.6958,43.8559565 145.632812,43.6992198 145.632812,43.4941406 C145.632812,43.2890615 145.691406,43.1352544 145.808594,43.0327148 C145.925782,42.9301753 146.101561,42.8789062 146.335938,42.8789062 L148.911133,42.8789062 C149.069337,42.8789062 149.193847,42.9111325 149.284668,42.9755859 C149.375489,43.0400394 149.420898,43.1279291 149.420898,43.2392578 L149.420898,49.7607422 Z M161.804688,43.3710938 C162.091798,43.3710938 162.301269,43.4208979 162.433105,43.5205078 C162.564942,43.6201177 162.630859,43.7783192 162.630859,43.9951172 C162.630859,44.2001963 162.569337,44.3540034 162.446289,44.456543 C162.323242,44.5590825 162.138673,44.6103516 161.892578,44.6103516 L158.333008,44.6103516 L158.333008,47.5458984 C158.333008,48.5068407 158.457518,49.1396469 158.706543,49.4443359 C158.955568,49.749025 159.381833,49.9013672 159.985352,49.9013672 C160.451907,49.9013672 160.999204,49.7824872 161.627257,49.544724 L162.27908,49.2815561 C162.803374,49.0736689 163.137428,48.9697266 163.28125,48.9697266 C163.445313,48.9697266 163.584472,49.0283197 163.69873,49.1455078 C163.812989,49.2626959 163.870117,49.4062492 163.870117,49.5761719 C163.870117,49.7695322 163.798341,49.9379876 163.654785,50.081543 C163.51123,50.2250984 163.266603,50.3642571 162.920898,50.4990234 C162.346677,50.7275402 161.829592,50.8945307 161.369629,51 C160.909666,51.1054693 160.477541,51.1582031 160.073242,51.1582031 C159.387692,51.1582031 158.812014,51.0483409 158.346191,50.8286133 C157.880369,50.6088856 157.533204,50.2822287 157.304688,49.8486328 C157.187499,49.6435537 157.104004,49.400392 157.054199,49.1191406 C157.01062,48.8730456 156.986107,48.5103169 156.980659,48.0309456 L156.979492,44.6103516 L155.485352,44.6103516 C155.239257,44.6103516 155.060547,44.5620122 154.949219,44.465332 C154.83789,44.3686519 154.782227,44.2119151 154.782227,43.9951172 C154.782227,43.7548816 154.858398,43.5908208 155.010742,43.5029297 C155.163087,43.4150386 155.488279,43.3710938 155.986328,43.3710938 L156.979492,43.3710938 L156.979492,41.1035156 C156.979492,40.8515612 157.033691,40.6655279 157.14209,40.5454102 C157.250489,40.4252924 157.418944,40.3652344 157.647461,40.3652344 C157.905275,40.3652344 158.083984,40.4384758 158.183594,40.5849609 C158.283204,40.731446 158.333008,41.0654271 158.333008,41.5869141 L158.333008,43.3710938 L161.804688,43.3710938 Z" id="justdropit" fill="#FFFFFF" fill-rule="nonzero"></path>
    </g>
</svg>