<?xml version="1.0" encoding="UTF-8"?>
<svg width="200px" height="200px" viewBox="0 0 200 200" version="1.1" xmlns="http://www.w3.org/2000/svg" xmlns:xlink="http://www.w3.org/1999/xlink">
    <!-- Generator: Sketch 59.1 (86144) - https://sketch.com -->
    <title>Slide8_Clean</title>
    <desc>Created with Sketch.</desc>
    <defs>
        <circle id="path-1" cx="20" cy="20" r="20"></circle>
        <filter x="-18.8%" y="-13.8%" width="137.5%" height="137.5%" filterUnits="objectBoundingBox" id="filter-2">
            <feMorphology radius="0.5" operator="dilate" in="SourceAlpha" result="shadowSpreadOuter1"></feMorphology>
            <feOffset dx="0" dy="2" in="shadowSpreadOuter1" result="shadowOffsetOuter1"></feOffset>
            <feGaussianBlur stdDeviation="2" in="shadowOffsetOuter1" result="shadowBlurOuter1"></feGaussianBlur>
            <feComposite in="shadowBlurOuter1" in2="SourceAlpha" operator="out" result="shadowBlurOuter1"></feComposite>
            <feColorMatrix values="0 0 0 0 0   0 0 0 0 0   0 0 0 0 0  0 0 0 0.5 0" type="matrix" in="shadowBlurOuter1"></feColorMatrix>
        </filter>
    </defs>
    <g id="Slide8_Clean" stroke="none" stroke-width="1" fill="none" fill-rule="evenodd">
        <g id="Slide8_Identify_Document" transform="translate(9.000000, 9.000000)" fill="#FFFFFF" fill-rule="nonzero" opacity="0.5">
            <path d="M181.104789,9.01396571 C176.788666,55.2828785 137.830461,91.0004742 91,91.0004742 C41.0182301,91.0004742 0.5,50.4822441 0.5,0.500474233 L1.5,0.500474233 C1.5,49.9299593 41.5705149,90.0004742 91,90.0004742 C137.484666,90.0004742 176.126635,54.4146611 180.155217,8.41121302 L180.102,8.96847423 L181.104789,9.01396571 Z" id="Path" transform="translate(90.802394, 45.750474) scale(1, -1) translate(-90.802394, -45.750474) "></path>
        </g>
        <g id="Slide12_Tables_Sub_tables--" transform="translate(20.500000, 20.500000)">
            <g id="Group-12-Copy-4">
                <g id="icon">
                    <g id="Group-24">
                        <path d="M79.4909225,158.981845 C123.392547,158.981845 158.981845,123.392547 158.981845,79.4909225 C158.981845,35.5892983 123.392547,0 79.4909225,0 C35.5892983,0 0,35.5892983 0,79.4909225 C0,123.392547 35.5892983,158.981845 79.4909225,158.981845 Z" id="Oval-Copy" stroke="#FFFFFF" stroke-width="2" fill="#AA52A5" stroke-dasharray="2,2"></path>
                        <g id="Group-2" transform="translate(41.740923, 32.490923)">
                            <g id="Group">
                                <g id="Group-8-Copy-3" opacity="0.380138579" transform="translate(5.250000, 4.250000)">
                                    <g id="Group-8-Copy-2">
                                        <g id="Group-8-Copy">
                                            <path d="M1,0 L50.5021086,0 L50.5021086,0 L65.625,13.8250662 L65.625,86.5 C65.625,87.0522847 65.1772847,87.5 64.625,87.5 L1,87.5 C0.44771525,87.5 6.76353751e-17,87.0522847 0,86.5 L0,1 C-6.76353751e-17,0.44771525 0.44771525,1.01453063e-16 1,0 Z" id="Rectangle-Copy" fill="#F9F9F9"></path>
                                            <path d="M9.04411765,78.6 L9.66911765,78.6 L9.66911765,77.8744975 C11.4246324,77.8179648 12.5,76.8569095 12.5,75.3399497 C12.5,74.5484925 12.1875,73.9360553 11.5716912,73.5026382 C11.1672794,73.2199749 10.7352941,73.0692211 9.66911765,72.8619347 L9.66911765,71.3072864 C10.1102941,71.3732412 10.3492647,71.6276382 10.4136029,72.1458543 L12.2977941,71.8160804 C12.1231618,71.0057789 11.7463235,70.4687186 11.1488971,70.1483668 C10.7077206,69.9128141 10.2665441,69.7903266 9.66911765,69.7526382 L9.66911765,69.225 L9.04411765,69.225 L9.04411765,69.7432161 C8.60294118,69.7526382 8.19852941,69.8374372 7.80330882,69.9976131 C6.93933824,70.336809 6.37867647,71.1471106 6.37867647,72.0893216 C6.37867647,72.9373116 6.80147059,73.6439698 7.52757353,74.0208543 C7.90441176,74.2187186 8.32720588,74.3506281 9.04411765,74.5013819 L9.04411765,76.2821608 C8.75919118,76.2444724 8.57536765,76.1596734 8.41911765,75.9900754 C8.25367647,75.8016332 8.18014706,75.6037688 8.14338235,75.2080402 L6.25,75.5566583 C6.29595588,75.8958543 6.33272059,76.0654523 6.38786765,76.2444724 C6.55330882,76.6967337 6.81985294,77.0547739 7.19669118,77.3091709 C7.65625,77.6295226 8.22610294,77.7991206 9.04411765,77.8556533 L9.04411765,78.6 Z M9.04411765,71.2978643 L9.04411765,72.7488693 L8.86216108,72.6985199 C8.70921415,72.6534705 8.63511029,72.6216709 8.56617647,72.5792714 C8.35477941,72.4567839 8.24448529,72.2683417 8.24448529,72.0233668 C8.24448529,71.5993719 8.52941176,71.3355528 9.04411765,71.2978643 Z M9.66911765,76.2915829 L9.66911765,74.595603 L9.85382373,74.641098 C10.0380129,74.6895915 10.1245915,74.7254188 10.2389706,74.7840452 C10.46875,74.9065327 10.5882353,75.1232412 10.5882353,75.4247487 C10.5882353,75.961809 10.2849265,76.2444724 9.66911765,76.2915829 Z" id="$-copy" fill="#494342"></path>
                                            <path d="M50.5021086,3.73034936e-14 L50.5021086,12.8250662 C50.5021086,13.3773509 50.9498238,13.8250662 51.5021086,13.8250662 L65.625,13.8250662 L65.625,13.8250662 L50.5021086,3.73034936e-14 Z" id="Path-2-Copy" fill="#DCDCDC"></path>
                                            <line x1="6.25" y1="9.375" x2="43.75" y2="9.375" id="Line-Copy-3" stroke="#494342" stroke-width="1.5" stroke-linecap="round" stroke-linejoin="round"></line>
                                            <line x1="5.88942308" y1="43.75" x2="34.7355769" y2="43.75" id="Line-Copy-10" stroke="#494342" stroke-width="1.5" stroke-linecap="round" stroke-linejoin="round"></line>
                                            <line x1="5.88942308" y1="50" x2="34.7355769" y2="50" id="Line-Copy-11" stroke="#494342" stroke-width="1.5" stroke-linecap="round" stroke-linejoin="round"></line>
                                            <line x1="5.88942308" y1="56.25" x2="34.7355769" y2="56.25" id="Line-Copy-12" stroke="#494342" stroke-width="1.5" stroke-linecap="round" stroke-linejoin="round"></line>
                                            <line x1="50.3605769" y1="43.75" x2="59.0144231" y2="43.75" id="Line-Copy-13" stroke="#494342" stroke-width="1.5" stroke-linecap="round" stroke-linejoin="round"></line>
                                            <line x1="50.3605769" y1="50" x2="59.0144231" y2="50" id="Line-Copy-14" stroke="#494342" stroke-width="1.5" stroke-linecap="round" stroke-linejoin="round"></line>
                                            <line x1="50.3605769" y1="56.25" x2="59.0144231" y2="56.25" id="Line-Copy-15" stroke="#494342" stroke-width="1.5" stroke-linecap="round" stroke-linejoin="round"></line>
                                            <line x1="6.25" y1="25" x2="21.875" y2="25" id="Line-Copy-16" stroke="#494342" stroke-width="1.5" stroke-linecap="round" stroke-linejoin="round"></line>
                                            <line x1="6.25" y1="31.25" x2="21.875" y2="31.25" id="Line-Copy-17" stroke="#494342" stroke-width="1.5" stroke-linecap="round" stroke-linejoin="round"></line>
                                        </g>
                                    </g>
                                </g>
                                <g id="Group-8-Copy-3" transform="translate(38.062500, 48.000000) rotate(7.000000) translate(-38.062500, -48.000000) translate(5.250000, 4.250000)">
                                    <g id="Group-8-Copy-2">
                                        <g id="Group-8-Copy">
                                            <path d="M1,0 L50.5021086,0 L50.5021086,0 L65.625,13.8250662 L65.625,86.5 C65.625,87.0522847 65.1772847,87.5 64.625,87.5 L1,87.5 C0.44771525,87.5 6.76353751e-17,87.0522847 0,86.5 L0,1 C-6.76353751e-17,0.44771525 0.44771525,1.01453063e-16 1,0 Z" id="Rectangle-Copy" fill="#F9F9F9"></path>
                                            <path d="M9.04411765,78.6 L9.66911765,78.6 L9.66911765,77.8744975 C11.4246324,77.8179648 12.5,76.8569095 12.5,75.3399497 C12.5,74.5484925 12.1875,73.9360553 11.5716912,73.5026382 C11.1672794,73.2199749 10.7352941,73.0692211 9.66911765,72.8619347 L9.66911765,71.3072864 C10.1102941,71.3732412 10.3492647,71.6276382 10.4136029,72.1458543 L12.2977941,71.8160804 C12.1231618,71.0057789 11.7463235,70.4687186 11.1488971,70.1483668 C10.7077206,69.9128141 10.2665441,69.7903266 9.66911765,69.7526382 L9.66911765,69.225 L9.04411765,69.225 L9.04411765,69.7432161 C8.60294118,69.7526382 8.19852941,69.8374372 7.80330882,69.9976131 C6.93933824,70.336809 6.37867647,71.1471106 6.37867647,72.0893216 C6.37867647,72.9373116 6.80147059,73.6439698 7.52757353,74.0208543 C7.90441176,74.2187186 8.32720588,74.3506281 9.04411765,74.5013819 L9.04411765,76.2821608 C8.75919118,76.2444724 8.57536765,76.1596734 8.41911765,75.9900754 C8.25367647,75.8016332 8.18014706,75.6037688 8.14338235,75.2080402 L6.25,75.5566583 C6.29595588,75.8958543 6.33272059,76.0654523 6.38786765,76.2444724 C6.55330882,76.6967337 6.81985294,77.0547739 7.19669118,77.3091709 C7.65625,77.6295226 8.22610294,77.7991206 9.04411765,77.8556533 L9.04411765,78.6 Z M9.04411765,71.2978643 L9.04411765,72.7488693 L8.86216108,72.6985199 C8.70921415,72.6534705 8.63511029,72.6216709 8.56617647,72.5792714 C8.35477941,72.4567839 8.24448529,72.2683417 8.24448529,72.0233668 C8.24448529,71.5993719 8.52941176,71.3355528 9.04411765,71.2978643 Z M9.66911765,76.2915829 L9.66911765,74.595603 L9.85382373,74.641098 C10.0380129,74.6895915 10.1245915,74.7254188 10.2389706,74.7840452 C10.46875,74.9065327 10.5882353,75.1232412 10.5882353,75.4247487 C10.5882353,75.961809 10.2849265,76.2444724 9.66911765,76.2915829 Z" id="$-copy" fill="#494342"></path>
                                            <path d="M50.5021086,3.73034936e-14 L50.5021086,12.8250662 C50.5021086,13.3773509 50.9498238,13.8250662 51.5021086,13.8250662 L65.625,13.8250662 L65.625,13.8250662 L50.5021086,3.73034936e-14 Z" id="Path-2-Copy" fill="#DCDCDC"></path>
                                            <line x1="6.25" y1="9.375" x2="43.75" y2="9.375" id="Line-Copy-3" stroke="#494342" stroke-width="1.5" stroke-linecap="round" stroke-linejoin="round"></line>
                                            <line x1="5.88942308" y1="43.75" x2="34.7355769" y2="43.75" id="Line-Copy-10" stroke="#494342" stroke-width="1.5" stroke-linecap="round" stroke-linejoin="round"></line>
                                            <line x1="5.88942308" y1="50" x2="34.7355769" y2="50" id="Line-Copy-11" stroke="#494342" stroke-width="1.5" stroke-linecap="round" stroke-linejoin="round"></line>
                                            <line x1="5.88942308" y1="56.25" x2="34.7355769" y2="56.25" id="Line-Copy-12" stroke="#494342" stroke-width="1.5" stroke-linecap="round" stroke-linejoin="round"></line>
                                            <line x1="50.3605769" y1="43.75" x2="59.0144231" y2="43.75" id="Line-Copy-13" stroke="#494342" stroke-width="1.5" stroke-linecap="round" stroke-linejoin="round"></line>
                                            <line x1="50.3605769" y1="50" x2="59.0144231" y2="50" id="Line-Copy-14" stroke="#494342" stroke-width="1.5" stroke-linecap="round" stroke-linejoin="round"></line>
                                            <line x1="50.3605769" y1="56.25" x2="59.0144231" y2="56.25" id="Line-Copy-15" stroke="#494342" stroke-width="1.5" stroke-linecap="round" stroke-linejoin="round"></line>
                                            <line x1="6.25" y1="25" x2="21.875" y2="25" id="Line-Copy-16" stroke="#494342" stroke-width="1.5" stroke-linecap="round" stroke-linejoin="round"></line>
                                            <line x1="6.25" y1="31.25" x2="21.875" y2="31.25" id="Line-Copy-17" stroke="#494342" stroke-width="1.5" stroke-linecap="round" stroke-linejoin="round"></line>
                                        </g>
                                    </g>
                                </g>
                                <path d="M17.75,88.625 C37.7119226,81.4991792 51.4736922,67.8556896 59.0353088,47.6945309 C56.3550902,46.1795232 51.2489242,45.189294 43.716811,44.7238433 L70.421735,29.25 L83.375,55.7070923 C76.8353689,52.3832863 72.5176139,50.7213834 70.421735,50.7213834 C61.5315375,73.8146342 43.9742925,86.4491731 17.75,88.625 Z" id="Path-4" fill="#EE9C28"></path>
                                <path d="M67.75,91.75 C68.5861458,86.9692069 69.7594911,83.81515 71.2700358,82.2878293 C72.7588716,80.7824585 75.752193,79.7698488 80.25,79.25 C75.7967694,78.0449388 72.803448,76.6867573 71.2700358,75.1754554 C69.7655374,73.6926505 68.5921921,70.8841654 67.75,66.75 C67.0320976,70.9654634 65.9276078,73.7739486 64.4365306,75.1754554 C62.8193531,76.6954875 59.7571763,78.053669 55.25,79.25 C60.0393581,79.7974851 63.1015349,80.8100949 64.4365306,82.2878293 C65.9615546,83.9759101 67.0660444,87.129967 67.75,91.75 Z" id="Oval" fill="#EE9C28"></path>
                                <path d="M80.25,69.875 C80.6680729,67.4846034 81.2547456,65.907575 82.0100179,65.1439147 C82.7544358,64.3912293 84.2510965,63.8849244 86.5,63.625 C84.2733847,63.0224694 82.776724,62.3433786 82.0100179,61.5877277 C81.2577687,60.8463253 80.6710961,59.4420827 80.25,57.375 C79.8910488,59.4827317 79.3388039,60.8869743 78.5932653,61.5877277 C77.7846766,62.3477438 76.2535881,63.0268345 74,63.625 C76.394679,63.8987425 77.9257675,64.4050474 78.5932653,65.1439147 C79.3557773,65.9879551 79.9080222,67.5649835 80.25,69.875 Z" id="Oval-Copy" fill="#EE9C28"></path>
                                <path d="M89.625,82.375 C90.0430729,79.9846034 90.6297456,78.407575 91.3850179,77.6439147 C92.1294358,76.8912293 93.6260965,76.3849244 95.875,76.125 C93.6483847,75.5224694 92.151724,74.8433786 91.3850179,74.0877277 C90.6327687,73.3463253 90.0460961,71.9420827 89.625,69.875 C89.2660488,71.9827317 88.7138039,73.3869743 87.9682653,74.0877277 C87.1596766,74.8477438 85.6285881,75.5268345 83.375,76.125 C85.769679,76.3987425 87.3007675,76.9050474 87.9682653,77.6439147 C88.7307773,78.4879551 89.2830222,80.0649835 89.625,82.375 Z" id="Oval-Copy-2" fill="#EE9C28"></path>
                            </g>
                        </g>
                    </g>
                </g>
            </g>
        </g>
        <g id="Group-5" transform="translate(130.000000, 30.000000)">
            <g id="Oval-Copy">
                <use fill="black" fill-opacity="1" filter="url(#filter-2)" xlink:href="#path-1"></use>
                <use stroke="#FFFFFF" stroke-width="1" fill="#494342" fill-rule="evenodd" xlink:href="#path-1"></use>
            </g>
            <text id="2" font-family="Lato-Bold, Lato" font-size="18" font-weight="bold" fill="#FFFFFF">
                <tspan x="14.78" y="27">2</tspan>
            </text>
        </g>
    </g>
</svg>