<?xml version="1.0" encoding="UTF-8"?>
<svg width="100px" height="101px" viewBox="0 0 100 101" version="1.1" xmlns="http://www.w3.org/2000/svg" xmlns:xlink="http://www.w3.org/1999/xlink">
    <!-- Generator: Sketch 59.1 (86144) - https://sketch.com -->
    <title>Group 12</title>
    <desc>Created with Sketch.</desc>
    <g id="Mobirise-images" stroke="none" stroke-width="1" fill="none" fill-rule="evenodd">
        <g id="Artboard-Copy-3" transform="translate(-582.000000, -789.000000)">
            <g id="Group-12" transform="translate(582.334513, 789.926527)">
                <g id="icon">
                    <g id="Group-24">
                        <circle id="Oval-Copy" stroke="#EE9C27" stroke-width="2" fill="#FFFFFF" cx="49.6818266" cy="49.6818266" r="48.6818266"></circle>
                        <g id="Group-2" transform="translate(23.531706, 21.110398)" stroke="#EE9C28" stroke-linecap="round" stroke-linejoin="round" stroke-width="1.5">
                            <g id="Group">
                                <path d="M19.8205294,2.13162821e-14 L28.6296536,6.44091652 L28.6288605,23.664902 C22.4556949,24.2076215 17.6182483,29.2655958 17.6182483,35.4250409 C17.6182483,37.3578335 18.0945735,39.1821685 18.9390274,40.7925665 L2.20228104,40.7924713 C0.985994808,40.7924713 1.24344979e-14,39.8312391 1.24344979e-14,38.6454991 L1.24344979e-14,2.14697217 C1.24344979e-14,0.961232183 0.985994808,2.13162821e-14 2.20228104,2.13162821e-14 L19.8205294,2.13162821e-14 Z" id="Combined-Shape"></path>
                                <path d="M19.8205294,0 L28.6296536,6.44091652 L20.8205294,6.44091652 C20.2682446,6.44091652 19.8205294,5.99320127 19.8205294,5.44091652 L19.8205294,0 L19.8205294,0 Z" id="Rectangle-Copy-5"></path>
                                <line x1="4.40456209" y1="20.1725927" x2="12.8250484" y2="20.1725927" id="Line-Copy-25"></line>
                                <line x1="5.0522918" y1="7.64858837" x2="13.4727781" y2="7.64858837" id="Line-Copy-26"></line>
                                <line x1="4.21024317" y1="17.8467062" x2="12.6307295" y2="17.8467062" id="Line-Copy-27"></line>
                                <line x1="4.40456209" y1="22.3195649" x2="12.8250484" y2="22.3195649" id="Line-Copy-28"></line>
                                <line x1="4.21024317" y1="27.1949809" x2="20.727351" y2="27.1949809" id="Line-Copy-29"></line>
                                <line x1="4.21024317" y1="14.4473336" x2="24.4194104" y2="14.4473336" id="Line-Copy-30"></line>
                                <line x1="19.8205294" y1="18.0256205" x2="23.1887239" y2="18.0256205" id="Line-Copy-31"></line>
                                <line x1="19.8205294" y1="20.1725927" x2="23.1887239" y2="20.1725927" id="Line-Copy-32"></line>
                                <line x1="19.8205294" y1="22.3195649" x2="23.1887239" y2="22.3195649" id="Line-Copy-33"></line>
                                <line x1="5.0522918" y1="4.24921576" x2="13.4727781" y2="4.24921576" id="Line-Copy-36"></line>
                                <ellipse id="Oval" cx="29.7307941" cy="35.4250409" rx="12.1125457" ry="11.808347"></ellipse>
                                <ellipse id="Oval" cx="29.7307941" cy="35.4250409" rx="9.91026469" ry="9.66137478"></ellipse>
                                <path d="M36.3821169,48.3860725 L52.6902665,48.1902176 C53.2425114,48.1835853 53.6955709,48.6258918 53.7022031,49.1781367 C53.702299,49.1861196 53.7022993,49.1941034 53.7022039,49.2020864 L53.7000273,49.384359 C53.6935439,49.9272749 53.2550228,50.3658258 52.7121074,50.372346 L36.3560515,50.5687762 L36.3560515,50.5687762 L36.3821169,48.3860725 Z" id="Rectangle" transform="translate(45.035243, 49.373347) rotate(44.000000) translate(-45.035243, -49.373347) "></path>
                                <line x1="25.326232" y1="35.4250409" x2="34.1353562" y2="35.4250409" id="Line-4"></line>
                            </g>
                        </g>
                    </g>
                </g>
            </g>
        </g>
    </g>
</svg>