<?xml version="1.0" encoding="UTF-8"?>
<svg width="200px" height="200px" viewBox="0 0 200 200" version="1.1" xmlns="http://www.w3.org/2000/svg" xmlns:xlink="http://www.w3.org/1999/xlink">
    <!-- Generator: Sketch 59.1 (86144) - https://sketch.com -->
    <title>Slide8_Extract_Data</title>
    <desc>Created with Sketch.</desc>
    <defs>
        <circle id="path-1" cx="20" cy="20" r="20"></circle>
        <filter x="-18.8%" y="-13.8%" width="137.5%" height="137.5%" filterUnits="objectBoundingBox" id="filter-2">
            <feMorphology radius="0.5" operator="dilate" in="SourceAlpha" result="shadowSpreadOuter1"></feMorphology>
            <feOffset dx="0" dy="2" in="shadowSpreadOuter1" result="shadowOffsetOuter1"></feOffset>
            <feGaussianBlur stdDeviation="2" in="shadowOffsetOuter1" result="shadowBlurOuter1"></feGaussianBlur>
            <feComposite in="shadowBlurOuter1" in2="SourceAlpha" operator="out" result="shadowBlurOuter1"></feComposite>
            <feColorMatrix values="0 0 0 0 0   0 0 0 0 0   0 0 0 0 0  0 0 0 0.5 0" type="matrix" in="shadowBlurOuter1"></feColorMatrix>
        </filter>
    </defs>
    <g id="Slide8_Extract_Data" stroke="none" stroke-width="1" fill="none" fill-rule="evenodd">
        <g id="Slide8_Identify_Document" transform="translate(9.000000, 9.000000)" fill="#FFFFFF" fill-rule="nonzero" opacity="0.5">
            <path d="M181.104789,9.01396571 C176.788666,55.2828785 137.830461,91.0004742 91,91.0004742 C41.0182301,91.0004742 0.5,50.4822441 0.5,0.500474233 L1.5,0.500474233 C1.5,49.9299593 41.5705149,90.0004742 91,90.0004742 C137.484666,90.0004742 176.126635,54.4146611 180.155217,8.41121302 L180.102,8.96847423 L181.104789,9.01396571 Z" id="Path" transform="translate(90.802394, 45.750474) scale(1, -1) translate(-90.802394, -45.750474) "></path>
        </g>
        <g id="Slide12_Extract_Data" transform="translate(21.000000, 20.000000)">
            <g id="Group-12-Copy-4">
                <g id="icon">
                    <g id="Group-24">
                        <path d="M79.4909225,158.981845 C123.392547,158.981845 158.981845,123.392547 158.981845,79.4909225 C158.981845,35.5892983 123.392547,0 79.4909225,0 C35.5892983,0 0,35.5892983 0,79.4909225 C0,123.392547 35.5892983,158.981845 79.4909225,158.981845 Z" id="Oval-Copy" stroke="#FFFFFF" stroke-width="2" fill="#AA52A5" stroke-dasharray="4,2"></path>
                        <g id="Group-14" transform="translate(50.490923, 38.865923)">
                            <g id="Group-2">
                                <g id="Group">
                                    <path d="M1,0 L45.6923839,0 L45.6923839,0 L59.375,12.8375614 L59.375,80.25 C59.375,80.8022847 58.9272847,81.25 58.375,81.25 L1,81.25 C0.44771525,81.25 6.76353751e-17,80.8022847 0,80.25 L0,1 C-6.76353751e-17,0.44771525 0.44771525,1.01453063e-16 1,0 Z" id="Rectangle-Copy" fill="#F9F9F9"></path>
                                    <g id="Group-4" transform="translate(5.654762, 5.705357)">
                                        <g id="Group-3">
                                            <rect id="Rectangle" fill="#DCDCDC" x="0" y="3" width="13.9800084" height="6.67372881"></rect>
                                            <rect id="Rectangle-Copy-20" fill="#DCDCDC" x="0" y="11.7711864" width="13.9800084" height="6.67372881"></rect>
                                            <rect id="Rectangle-Copy-23" fill="#DCDCDC" x="0" y="20.5423729" width="13.9800084" height="6.67372881"></rect>
                                            <rect id="Rectangle-Copy-26" fill="#DCDCDC" x="0" y="29.3135593" width="13.9800084" height="6.67372881"></rect>
                                            <rect id="Rectangle-Copy-35" fill="#DCDCDC" x="0" y="55.2321429" width="13.9800084" height="6.67372881"></rect>
                                            <rect id="Rectangle-Copy-29" fill="#DCDCDC" x="0" y="38.0765738" width="13.9800084" height="6.67372881"></rect>
                                            <rect id="Rectangle-Copy-36" fill="#DCDCDC" x="0" y="63.9951574" width="13.9800084" height="6.67372881"></rect>
                                            <rect id="Rectangle-Copy-32" fill="#DCDCDC" x="0" y="46.8395884" width="13.9800084" height="6.67372881"></rect>
                                            <rect id="Rectangle-Copy-18" fill="#DCDCDC" x="16.7760101" y="3" width="13.9800084" height="6.67372881"></rect>
                                            <rect id="Rectangle-Copy-21" fill="#B6C931" x="16.7760101" y="11.7711864" width="13.9800084" height="6.67372881"></rect>
                                            <rect id="Rectangle-Copy-37" fill="#B6C931" x="86.4502465" y="16.1696429" width="6.25" height="3.125"></rect>
                                            <rect id="Rectangle-Copy-40" fill="#B6C931" x="80.9702381" y="28.6696429" width="6.25" height="3.125"></rect>
                                            <rect id="Rectangle-Copy-44" fill="#B6C931" x="72.4702381" y="13.0446429" width="6.25" height="3.125"></rect>
                                            <rect id="Rectangle-Copy-45" fill="#B6C931" x="71.8452381" y="0.669642857" width="6.25" height="3.125"></rect>
                                            <rect id="Rectangle-Copy-24" fill="#B6C931" x="16.7760101" y="20.5423729" width="13.9800084" height="6.67372881"></rect>
                                            <rect id="Rectangle-Copy-27" fill="#B6C931" x="16.7791155" y="29.3135593" width="13.9800084" height="6.67372881"></rect>
                                            <rect id="Rectangle-Copy-38" fill="#B6C931" x="16.7791155" y="55.2321429" width="13.9800084" height="6.67372881"></rect>
                                            <rect id="Rectangle-Copy-30" fill="#B6C931" x="16.7791155" y="38.0765738" width="13.9800084" height="6.67372881"></rect>
                                            <rect id="Rectangle-Copy-39" fill="#B6C931" x="16.7791155" y="63.9951574" width="13.9800084" height="6.67372881"></rect>
                                            <rect id="Rectangle-Copy-33" fill="#B6C931" x="16.7791155" y="46.8395884" width="13.9800084" height="6.67372881"></rect>
                                            <rect id="Rectangle-Copy-19" fill="#DCDCDC" x="33.5520201" y="3" width="13.9800084" height="6.67372881"></rect>
                                            <rect id="Rectangle-Copy-22" fill="#B6C931" x="33.5520201" y="11.7711864" width="13.9800084" height="6.67372881"></rect>
                                            <rect id="Rectangle-Copy-25" fill="#B6C931" x="33.5520201" y="20.5423729" width="13.9800084" height="6.67372881"></rect>
                                            <rect id="Rectangle-Copy-28" fill="#B6C931" x="33.5582311" y="29.3135593" width="13.9800084" height="6.67372881"></rect>
                                            <rect id="Rectangle-Copy-41" fill="#B6C931" x="33.5582311" y="55.2321429" width="13.9800084" height="6.67372881"></rect>
                                            <rect id="Rectangle-Copy-31" fill="#B6C931" x="33.5582311" y="38.0765738" width="13.9800084" height="6.67372881"></rect>
                                            <rect id="Rectangle-Copy-42" fill="#B6C931" x="33.5582311" y="63.9951574" width="13.9800084" height="6.67372881"></rect>
                                            <rect id="Rectangle-Copy-34" fill="#B6C931" x="33.5582311" y="46.8395884" width="13.9800084" height="6.67372881"></rect>
                                        </g>
                                    </g>
                                    <path d="M45.6923839,0 L45.6923839,11.8375614 C45.6923839,12.3898462 46.1400992,12.8375614 46.6923839,12.8375614 L59.375,12.8375614 L59.375,12.8375614 L45.6923839,0 Z" id="Path-2-Copy" fill="#C6C0C0"></path>
                                </g>
                            </g>
                            <g id="Group-2" transform="translate(37.500000, 21.875000)" fill="#EE9C28">
                                <g id="Group">
                                    <path d="M25.6438406,21.2267844 L25.6438406,31.4739634 L46.875,15.253111 L25.6438406,0 L25.6438406,9.95725026 C11.5217283,9.18883423 2.9737814,17.3280841 0,34.375 C6.55692653,23.2868205 15.1048734,18.904082 25.6438406,21.2267844 Z" id="Path-3"></path>
                                </g>
                            </g>
                        </g>
                    </g>
                </g>
            </g>
        </g>
        <g id="Group-5" transform="translate(130.000000, 30.000000)">
            <g id="Oval-Copy">
                <use fill="black" fill-opacity="1" filter="url(#filter-2)" xlink:href="#path-1"></use>
                <use stroke="#FFFFFF" stroke-width="1" fill="#494342" fill-rule="evenodd" xlink:href="#path-1"></use>
            </g>
            <path d="M15.752,17.613 C15.8420005,16.9889969 16.0159987,16.4415024 16.274,15.9705 C16.5320013,15.4994976 16.8544981,15.1065016 17.2415,14.7915 C17.6285019,14.4764984 18.0724975,14.2395008 18.5735,14.0805 C19.0745025,13.9214992 19.6129971,13.842 20.189,13.842 C20.789003,13.842 21.3304976,13.9274991 21.8135,14.0985 C22.2965024,14.2695009 22.7089983,14.5064985 23.051,14.8095 C23.3930017,15.1125015 23.6554991,15.467998 23.8385,15.876 C24.0215009,16.284002 24.113,16.7249976 24.113,17.199 C24.113,17.6130021 24.0665005,17.9774984 23.9735,18.2925 C23.8804995,18.6075016 23.7470009,18.8819988 23.573,19.116 C23.3989991,19.3500012 23.1830013,19.5479992 22.925,19.71 C22.6669987,19.8720008 22.3760016,20.0069995 22.052,20.115 C22.8320039,20.3610012 23.4139981,20.7359975 23.798,21.24 C24.1820019,21.7440025 24.374,22.3769962 24.374,23.139 C24.374,23.7870032 24.2540012,24.3599975 24.014,24.858 C23.7739988,25.3560025 23.450002,25.7744983 23.042,26.1135 C22.633998,26.4525017 22.1615027,26.7089991 21.6245,26.883 C21.0874973,27.0570009 20.519003,27.144 19.919,27.144 C19.2649967,27.144 18.6950024,27.0690008 18.209,26.919 C17.7229976,26.7689993 17.3000018,26.5470015 16.94,26.253 C16.5799982,25.9589985 16.2740013,25.5990021 16.022,25.173 C15.7699987,24.7469979 15.5540009,24.2550028 15.374,23.697 L16.355,23.292 C16.6130013,23.1839995 16.8544989,23.1554997 17.0795,23.2065 C17.3045011,23.2575003 17.4679995,23.378999 17.57,23.571 C17.6780005,23.7810011 17.7964994,23.987999 17.9255,24.192 C18.0545006,24.396001 18.2089991,24.5774992 18.389,24.7365 C18.5690009,24.8955008 18.7804988,25.0244995 19.0235,25.1235 C19.2665012,25.2225005 19.5559983,25.272 19.892,25.272 C20.2700019,25.272 20.5999986,25.2105006 20.882,25.0875 C21.1640014,24.9644994 21.3994991,24.804001 21.5885,24.606 C21.7775009,24.407999 21.9184995,24.1875012 22.0115,23.9445 C22.1045005,23.7014988 22.151,23.4570012 22.151,23.211 C22.151,22.8989984 22.1180003,22.6155013 22.052,22.3605 C21.9859997,22.1054987 21.8480011,21.8880009 21.638,21.708 C21.427999,21.5279991 21.126502,21.3870005 20.7335,21.285 C20.340498,21.1829995 19.8140033,21.132 19.154,21.132 L19.154,19.548 C19.7000027,19.542 20.1529982,19.4910005 20.513,19.395 C20.8730018,19.2989995 21.1594989,19.1655009 21.3725,18.9945 C21.5855011,18.8234991 21.7339996,18.6180012 21.818,18.378 C21.9020004,18.1379988 21.944,17.8740014 21.944,17.586 C21.944,16.9739969 21.7730017,16.5090016 21.431,16.191 C21.0889983,15.8729984 20.6330029,15.714 20.063,15.714 C19.7989987,15.714 19.5560011,15.7514996 19.334,15.8265 C19.1119989,15.9015004 18.9125009,16.0064993 18.7355,16.1415 C18.5584991,16.2765007 18.4100006,16.4339991 18.29,16.614 C18.1699994,16.7940009 18.0800003,16.9919989 18.02,17.208 C17.9179995,17.4840014 17.7845008,17.6669995 17.6195,17.757 C17.4544992,17.8470004 17.2220015,17.8680002 16.922,17.82 L15.752,17.613 Z" id="3" fill="#FFFFFF" fill-rule="nonzero"></path>
        </g>
    </g>
</svg>