<?xml version="1.0" encoding="UTF-8"?>
<svg width="1920px" height="1200px" viewBox="0 0 1920 1200" version="1.1" xmlns="http://www.w3.org/2000/svg" xmlns:xlink="http://www.w3.org/1999/xlink">
    <!-- Generator: Sketch 59.1 (86144) - https://sketch.com -->
    <title>Slide8_Bg</title>
    <desc>Created with Sketch.</desc>
    <g id="Slide8_Bg" stroke="none" stroke-width="1" fill="none" fill-rule="evenodd">
        <rect fill="#1E81C1" x="0" y="0" width="1920" height="1200"></rect>
        <g id="Group" opacity="0.3" transform="translate(1645.000000, 433.000000) scale(-1, -1) translate(-1645.000000, -433.000000) translate(1105.000000, -67.000000)" stroke="#FFFFFF">
            <polygon id="Path" points="791.901212 897.667349 935.914898 814.520685 1079.92444 897.667349 1079.92444 999.612462 791.901212 999.612462"></polygon>
            <path d="M748.07132,995.323133 C744.954823,995.323133 742.219599,996.939402 740.653061,999.380382 L667.792497,957.320097 C668.820278,955.417873 669.400477,953.246271 669.400477,950.933764 C669.400477,943.635689 663.590198,937.692793 656.341855,937.481435 L656.341855,848.922343 C658.575621,848.719273 660.328651,846.837771 660.328651,844.550129 C660.328651,843.895333 660.187745,843.269547 659.926656,842.710069 L675.774378,833.559502 L786.812038,897.667349 L786.812038,999.612462 L755.636092,999.612462 C754.096148,997.043306 751.284162,995.323133 748.07132,995.323133 Z" id="Path"></path>
            <path d="M218.080235,990.499193 L205.676409,983.337879 L205.676409,897.667349 L285.876491,851.367467 C286.241187,851.446209 286.618317,851.500084 287.003735,851.520806 L287.003735,939.512132 C280.882635,939.72349 275.975809,944.758789 275.975809,950.933764 C275.975809,952.873286 276.46069,954.700913 277.314411,956.300605 L263.053948,964.535287 L218.080235,990.499193 Z" id="Path"></path>
            <polygon id="Path" points="522.746886 979.960292 498.792955 966.130834 498.792955 897.667349 552.216852 866.821483 552.216852 962.948028"></polygon>
            <path d="M422.666699,978.76674 L367.170662,946.727321 C367.58509,945.869455 367.81717,944.912127 367.81717,943.896779 C367.81717,940.457027 365.152399,937.634773 361.774811,937.386117 L361.774811,838.375154 L375.235429,830.604631 L376.391683,829.937402 L471.2708,884.716478 L471.2708,940.867311 C465.891526,941.074525 461.593909,945.504759 461.593909,950.933764 C461.593909,952.628774 462.012481,954.224321 462.750163,955.625087 L422.666699,978.76674 Z" id="Path"></path>
            <path d="M318.160422,968.231983 L316.237477,967.121317 L316.237477,864.666458 L360.800906,838.938776 L360.800906,937.386117 C357.423319,937.638918 354.762692,940.457027 354.762692,943.896779 C354.762692,944.912127 354.994771,945.869455 355.409199,946.727321 L318.160422,968.231983 Z" id="Path"></path>
            <path d="M627.253162,967.034287 L596.544057,949.309207 C597.38949,947.688794 597.870226,945.848734 597.870226,943.896779 C597.870226,937.609908 592.901236,932.483435 586.680674,932.22649 L586.680674,846.924801 L622.963834,825.975472 L651.953064,842.710069 C651.691974,843.269547 651.546924,843.895333 651.546924,844.550129 C651.546924,846.837771 653.299954,848.719273 655.537865,848.922343 L655.537865,937.481435 C648.289521,937.692793 642.479242,943.635689 642.479242,950.933764 C642.479242,953.246271 643.059441,955.417873 644.083078,957.315953 L627.253162,967.034287 Z" id="Path"></path>
            <path d="M312.064188,964.709346 L297.501193,956.300605 C298.35077,954.700913 298.83565,952.873286 298.83565,950.933764 C298.83565,944.758789 293.932969,939.72349 287.807725,939.512132 L287.807725,851.520806 C288.218008,851.500084 288.615859,851.442064 289.005421,851.35089 L312.064188,864.666458 L312.064188,964.709346 Z" id="Path"></path>
            <path d="M493.699636,963.19254 L480.595427,955.625087 C481.333108,954.224321 481.751681,952.628774 481.751681,950.933764 C481.751681,945.504759 477.454064,941.074525 472.07479,940.867311 L472.07479,885.180638 L493.699636,897.667349 L493.699636,963.19254 Z" id="Path"></path>
            <path d="M556.385996,960.540202 L556.385996,864.413657 L585.706768,847.488423 L585.706768,932.22649 C579.482062,932.483435 574.517216,937.609908 574.517216,943.896779 C574.517216,945.848734 574.997952,947.688794 575.843385,949.305062 L556.385996,960.540202 Z" id="Path"></path>
            <path d="M203.131822,893.257837 L136.873094,855.006144 L136.873094,829.572706 L191.444956,798.063754 C192.576344,798.710262 193.881792,799.079103 195.274269,799.079103 C196.140424,799.079103 196.977568,798.934053 197.756692,798.668819 L280.721008,846.568393 C280.882635,847.103005 281.106426,847.612751 281.384093,848.085199 L203.131822,893.257837 Z" id="Path"></path>
            <path d="M496.248368,893.257837 L472.07479,879.30405 L472.07479,851.835771 C475.916536,851.628557 478.97087,848.445751 478.97087,844.550129 C478.97087,843.364865 478.684914,842.241766 478.183457,841.255427 L494.926343,831.586825 L548.996747,862.805677 L496.248368,893.257837 Z" id="Path"></path>
            <path d="M471.2708,878.839891 L381.480857,826.999108 L410.975689,809.970267 L465.162133,841.255427 C464.660675,842.24591 464.37472,843.364865 464.37472,844.550129 C464.37472,848.445751 467.429053,851.628557 471.2708,851.835771 L471.2708,878.839891 Z" id="Path"></path>
            <path d="M292.942486,848.810447 C293.4398,848.16394 293.829362,847.426258 294.078018,846.630557 L347.336144,815.884153 C348.218876,822.626894 353.875816,827.869407 360.800906,828.109775 L360.800906,834.123124 L314.152905,861.052647 L292.942486,848.810447 Z" id="Path"></path>
            <path d="M553.165892,860.397851 L499.095487,829.178999 L553.675638,797.670048 C555.780931,801.047635 559.531504,803.293834 563.804255,803.293834 C564.620678,803.293834 565.41638,803.210949 566.183071,803.05761 L576.647375,809.099969 C575.880683,810.579476 575.445534,812.262053 575.445534,814.048237 C575.445534,819.817073 579.995952,824.529118 585.706768,824.786064 L585.706768,841.611835 L553.165892,860.397851 Z" id="Path"></path>
            <path d="M659.524661,842.017975 C658.728959,840.894875 657.419367,840.161338 655.93986,840.161338 C654.460352,840.161338 653.15076,840.894875 652.355059,842.017975 L632.255307,830.413994 L623.767824,825.511312 L642.802496,814.520685 L674.974532,833.095343 L659.524661,842.017975 Z" id="Path"></path>
            <path d="M280.948943,841.885358 L201.453389,795.987471 C201.556996,795.846565 201.656459,795.70566 201.751777,795.56061 L281.16859,841.41291 C281.089849,841.566248 281.019396,841.723731 280.948943,841.885358 Z" id="Path"></path>
            <path d="M586.680674,841.048213 L586.680674,824.786064 C592.39149,824.533263 596.946052,819.821218 596.946052,814.048237 C596.946052,812.854685 596.751271,811.70672 596.390719,810.633352 L617.87466,823.037178 L586.680674,841.048213 Z" id="Path"></path>
            <path d="M281.570585,840.716671 L202.153772,794.864371 C202.692528,793.811724 202.995061,792.618172 202.995061,791.358311 C202.995061,787.392237 200.01118,784.130689 196.165289,783.687252 L196.165289,780.098306 L238.436932,755.692649 C240.616823,759.136544 244.458569,761.424186 248.834928,761.424186 C253.21543,761.424186 257.061321,759.136544 259.241211,755.692649 L347.145508,806.44763 L347.145508,809.597282 L293.245018,840.716671 C291.993446,838.818591 289.84671,837.567019 287.40573,837.567019 C284.96475,837.567019 282.818013,838.818591 281.570585,840.716671 Z" id="Path"></path>
            <path d="M465.564128,840.559188 L411.775534,809.506108 L434.229236,796.546948 L494.122353,831.12681 L477.781462,840.559188 C476.480158,838.569935 474.229815,837.252054 471.672795,837.252054 C469.115775,837.252054 466.865431,838.569935 465.564128,840.559188 Z" id="Path"></path>
            <path d="M361.774811,833.559502 L361.774811,828.109775 C364.489314,828.018601 367.009035,827.156591 369.118473,825.739248 L372.218394,827.529576 L361.774811,833.559502 Z" id="Path"></path>
            <path d="M680.063706,830.161193 L642.802496,808.648242 L618.67865,822.573019 L595.901694,809.427367 C594.17353,805.801123 590.476833,803.297978 586.195793,803.297978 C585.909838,803.297978 585.628027,803.310411 585.346216,803.331133 L574.339012,796.973809 C575.234176,795.299521 575.739778,793.389008 575.739778,791.358311 C575.739778,784.897381 570.613305,779.638291 564.20625,779.426933 L564.20625,683.137677 C623.270511,654.805347 653.84838,640.639183 655.93986,640.639183 C659.072934,640.639183 747.673469,683.225791 747.673469,684.970532 C747.673469,688.700383 747.673469,721.920492 747.673469,784.630859 L680.063706,830.161193 Z" id="Path"></path>
            <path d="M498.291497,828.718984 L436.313809,792.933137 L436.313809,771.295858 L459.762138,757.760644 C462.654844,762.439534 467.835193,765.556032 473.74079,765.556032 C479.650531,765.556032 484.826735,762.43539 487.723586,757.760644 L552.48623,795.150326 C552.697588,795.784401 552.962822,796.39361 553.273643,796.973809 L498.291497,828.718984 Z" id="Path"></path>
            <path d="M377.307568,824.591283 L372.877334,822.030118 C374.443872,819.763198 375.359757,817.011397 375.359757,814.048237 C375.359757,811.656989 374.762981,809.41079 373.714478,807.438113 L390.154832,797.947715 L406.8024,807.562441 L377.473339,824.495964 L377.307568,824.591283 Z" id="Path"></path>
            <path d="M577.1364,808.254536 L567.521673,802.705347 C570.207166,801.82676 572.469942,800.019854 573.937017,797.670048 L584.053201,803.509337 C581.15635,804.097824 578.682216,805.84671 577.1364,808.254536 Z" id="Path"></path>
            <polygon id="Path" points="407.60639 807.098282 390.954678 797.483555 432.14052 773.707828 432.14052 792.933137"></polygon>
            <path d="M373.225454,806.588536 C371.314941,803.546635 368.277185,801.279715 364.692384,800.392839 L370.643568,796.957232 C372.504349,799.907958 375.794906,801.868202 379.541334,801.868202 C380.332892,801.868202 381.103727,801.781172 381.841409,801.615401 L373.225454,806.588536 Z" id="Path"></path>
            <path d="M347.145508,805.316242 L259.730236,754.847216 C260.629545,753.135629 261.139291,751.187818 261.139291,749.123967 C261.139291,742.493121 255.896779,737.088982 249.328097,736.832036 L249.328097,654.224128 L278.967978,637.112402 C280.737585,639.905645 283.854083,641.758138 287.40573,641.758138 C290.957377,641.758138 294.073874,639.905645 295.843481,637.112402 L347.145508,666.731562 L347.145508,805.316242 Z" id="Path"></path>
            <path d="M352.238826,803.277257 L352.238826,669.669855 L375.600125,683.159482 C375.347324,683.710672 375.206419,684.324025 375.206419,684.970532 C375.206419,687.229164 376.930439,689.085801 379.139339,689.288871 L379.139339,780.852565 C373.519697,781.063923 369.027299,785.684794 369.027299,791.358311 C369.027299,793.127918 369.466593,794.798063 370.241573,796.260993 L363.50712,800.152471 C362.786015,800.036431 362.04419,799.978411 361.289931,799.978411 C357.841891,799.978411 354.683951,801.217551 352.238826,803.277257 Z" id="Path"></path>
            <path d="M387.262126,798.482327 C387.701419,798.014023 388.090981,797.500133 388.434957,796.957232 L389.172638,797.384093 L387.262126,798.482327 Z" id="Path"></path>
            <path d="M389.976628,796.919933 L388.836952,796.260993 C389.611932,794.798063 390.051225,793.127918 390.051225,791.358311 C390.051225,785.684794 385.558827,781.063923 379.939185,780.852565 L379.939185,689.288871 C382.148086,689.085801 383.87625,687.229164 383.87625,684.970532 C383.87625,684.324025 383.735344,683.710672 383.482543,683.159482 L430.731465,655.877696 L432.14052,656.689974 L432.14052,772.57644 L389.976628,796.919933 Z" id="Path"></path>
            <path d="M552.125678,793.811724 L488.212611,756.911067 C489.464183,754.594415 490.172855,751.942076 490.172855,749.123967 C490.172855,740.209623 483.081994,732.957136 474.229815,732.70019 L474.229815,635.769655 C474.756138,635.433969 475.207864,634.998819 475.564272,634.489073 L563.406404,682.463244 C562.967111,683.308676 562.967111,715.629906 563.406404,779.426933 C556.999349,779.638291 551.872877,784.897381 551.872877,791.358311 C551.872877,792.1996 551.959907,793.020167 552.125678,793.811724 Z" id="Path"></path>
            <path d="M436.313809,770.168614 L436.313809,656.689974 L471.279088,636.503193 C471.407561,636.511481 471.540178,636.51977 471.672795,636.51977 C472.228128,636.51977 472.758596,636.424451 473.255909,636.250392 L473.255909,732.70019 C464.40373,732.957136 457.308725,740.209623 457.308725,749.123967 C457.308725,751.942076 458.017396,754.594415 459.268969,756.911067 L436.313809,770.168614 Z" id="Path"></path>
            <path d="M376.00212,682.463244 L352.238826,668.745681 L352.238826,640.883695 L287.886466,603.734381 L314.152905,588.570465 L429.931619,655.413536 L383.080548,682.463244 C382.293135,681.356721 381.00012,680.635617 379.541334,680.635617 C378.078404,680.635617 376.785389,681.356721 376.00212,682.463244 Z" id="Path"></path>
            <path d="M347.145508,665.807387 L296.245476,636.420307 C296.974869,635.031974 297.385153,633.453003 297.385153,631.778715 C297.385153,626.399441 293.133123,622.014794 287.807725,621.80758 L287.807725,609.565381 L347.145508,643.826133 L347.145508,665.807387 Z" id="Path"></path>
            <path d="M249.328097,653.299954 L249.328097,628.164904 C253.339759,627.949401 256.651037,625.073272 257.521336,621.26468 L282.797292,606.672674 L287.003735,609.105366 L287.003735,621.80758 C281.678337,622.014794 277.426307,626.399441 277.426307,631.778715 C277.426307,633.453003 277.83659,635.031974 278.565983,636.416163 L249.328097,653.299954 Z" id="Path"></path>
            <path d="M434.100764,653.00571 L316.237477,584.956654 L316.237477,580.924271 L348.923403,562.055369 C351.497,566.174783 356.076428,568.918295 361.289931,568.918295 C366.507578,568.918295 371.082861,566.174783 373.656459,562.055369 L468.875407,617.029227 C468.560441,617.708889 468.382237,618.471436 468.382237,619.275426 C468.382237,622.06867 470.52483,624.3646 473.255909,624.609113 L473.255909,627.307038 C472.758596,627.132978 472.228128,627.03766 471.672795,627.03766 C469.053611,627.03766 466.93174,629.159531 466.93174,631.778715 C466.93174,632.499819 467.093367,633.179481 467.379322,633.792834 L434.100764,653.00571 Z" id="Path"></path>
            <path d="M257.32241,616.565068 C257.177361,616.109197 256.999157,615.669903 256.783654,615.251331 L277.219093,603.45257 L278.624003,604.264848 L257.32241,616.565068 Z" id="Path"></path>
            <path d="M469.364431,616.17965 L374.149628,561.209937 C375.239573,559.162663 375.861215,556.829434 375.861215,554.351155 C375.861215,546.464593 369.59921,540.045105 361.774811,539.78816 L361.774811,435.688023 C367.734284,435.435222 372.487772,430.524251 372.487772,424.502614 C372.487772,422.633545 372.031901,420.87637 371.223767,419.32641 L436.272366,381.775101 L552.216852,448.713491 L552.216852,573.402405 L478.117148,616.17965 C477.147387,614.807893 475.55184,613.916873 473.74079,613.916873 C471.933884,613.916873 470.334193,614.812038 469.364431,616.17965 Z" id="Path"></path>
            <path d="M241.383514,614.401754 L175.729851,576.502325 L203.131822,560.683613 L276.236899,602.888948 L256.294629,614.401754 C254.703226,611.973207 251.955569,610.369371 248.834928,610.369371 C245.71843,610.369371 242.970773,611.973207 241.383514,614.401754 Z" id="Path"></path>
            <polygon id="Path" points="283.713177 601.326555 282.308267 600.514276 287.003735 597.803918 287.003735 599.428475"></polygon>
            <path d="M281.330217,599.950654 L205.676409,556.274101 L205.676409,478.664193 L281.989157,522.726164 C281.595451,523.530154 281.37166,524.433607 281.37166,525.390936 C281.37166,528.590319 283.862371,531.205359 287.003735,531.412573 L287.003735,596.67253 L281.330217,599.950654 Z" id="Path"></path>
            <polygon id="Path" points="287.807725 598.964316 287.807725 597.339759 312.064188 583.336241 312.064188 584.956654"></polygon>
            <path d="M287.807725,596.20837 L287.807725,531.412573 C290.953232,531.205359 293.4398,528.590319 293.4398,525.390936 C293.4398,522.058935 290.741874,519.356866 287.40573,519.356866 C285.317013,519.356866 283.476953,520.417801 282.391152,522.03407 L205.676409,477.740019 L205.676409,477.661277 C206.534275,476.028432 207.0233,474.171795 207.0233,472.199118 C207.0233,470.226441 206.534275,468.369805 205.676409,466.736959 L205.676409,389.980772 L208.009638,388.638026 L312.064188,448.713491 L312.064188,582.204853 L287.807725,596.20837 Z" id="Path"></path>
            <path d="M316.237477,579.792882 L316.237477,448.713491 L350.908513,428.700769 C352.508204,432.658555 356.312652,435.493241 360.800906,435.688023 L360.800906,539.78816 C352.980652,540.045105 346.722791,546.464593 346.722791,554.351155 C346.722791,556.829434 347.340289,559.162663 348.434378,561.205792 L316.237477,579.792882 Z" id="Path"></path>
            <path d="M314.152905,445.103824 L212.178782,386.2302 L248.358336,365.343035 C248.515818,365.355468 248.677445,365.363757 248.834928,365.363757 C250.80346,365.363757 252.539913,364.381563 253.588415,362.885478 L351.356095,419.330554 C350.568682,420.834928 350.116955,422.54237 350.09209,424.35342 L314.152905,445.103824 Z" id="Path"></path>
            <path d="M351.84512,418.485122 L254.081584,362.040045 L352.238826,305.371178 L352.238826,194.60704 L432.14052,240.737007 L432.14052,376.984314 L377.568658,408.489121 L366.764523,414.730405 C365.14411,413.818664 363.279185,413.300629 361.289931,413.300629 C357.319712,413.300629 353.834373,415.368624 351.84512,418.485122 Z" id="Path"></path>
            <path d="M206.93627,383.204877 L196.165289,376.984314 L196.165289,240.737007 L314.152905,172.617498 L347.145508,191.668747 L347.145508,302.432884 L253.671301,356.395538 C252.639375,354.824856 250.857336,353.788786 248.834928,353.788786 C245.643833,353.788786 243.053659,356.383105 243.053659,359.578344 C243.053659,360.456931 243.24844,361.289931 243.600704,362.035901 L206.93627,383.204877 Z" id="Path"></path>
            <path d="M194.076573,237.12734 L122.256222,195.659687 L186.459388,158.593258 C188.307737,161.514975 191.560996,163.454497 195.274269,163.454497 C201.022384,163.454497 205.684697,158.792184 205.684697,153.039925 C205.684697,147.420283 201.237886,142.844999 195.67212,142.633641 L195.67212,57.302942 L203.131822,52.9970364 L347.145508,136.139556 L347.145508,186.848951 L314.152905,167.801846 L194.076573,237.12734 Z" id="Path"></path>
        </g>
        <circle id="Oval" stroke="#61A7D3" cx="1711.26709" cy="308.704753" r="5.37679036"></circle>
        <circle id="Oval" stroke="#61A7D3" cx="1823.82443" cy="503.353232" r="11.0498257"></circle>
        <circle id="Oval-Copy" stroke="#61A7D3" cx="1713.2336" cy="296.238485" r="4.67411296"></circle>
    </g>
</svg>