<?xml version="1.0" encoding="UTF-8"?>
<svg width="200px" height="200px" viewBox="0 0 200 200" version="1.1" xmlns="http://www.w3.org/2000/svg" xmlns:xlink="http://www.w3.org/1999/xlink">
    <!-- Generator: Sketch 59.1 (86144) - https://sketch.com -->
    <title>Slide10_Environment_Setup</title>
    <desc>Created with Sketch.</desc>
    <defs>
        <circle id="path-1" cx="20" cy="20" r="20"></circle>
        <filter x="-18.8%" y="-13.8%" width="137.5%" height="137.5%" filterUnits="objectBoundingBox" id="filter-2">
            <feMorphology radius="0.5" operator="dilate" in="SourceAlpha" result="shadowSpreadOuter1"></feMorphology>
            <feOffset dx="0" dy="2" in="shadowSpreadOuter1" result="shadowOffsetOuter1"></feOffset>
            <feGaussianBlur stdDeviation="2" in="shadowOffsetOuter1" result="shadowBlurOuter1"></feGaussianBlur>
            <feComposite in="shadowBlurOuter1" in2="SourceAlpha" operator="out" result="shadowBlurOuter1"></feComposite>
            <feColorMatrix values="0 0 0 0 0   0 0 0 0 0   0 0 0 0 0  0 0 0 0.5 0" type="matrix" in="shadowBlurOuter1"></feColorMatrix>
        </filter>
    </defs>
    <g id="Slide10_Environment_Setup" stroke="none" stroke-width="1" fill="none" fill-rule="evenodd">
        <g id="Slide12_Extract_Data" transform="translate(20.000000, 20.000000)">
            <g id="Group-12-Copy-4">
                <g id="icon">
                    <g id="Group-24">
                        <g id="Group-11" fill="#AA52A5" stroke="#FFFFFF" stroke-linecap="round" stroke-linejoin="round" stroke-width="1.5">
                            <g id="technical-support-copy">
                                <path d="M61.8656921,155.585937 C61.8656921,158.01323 63.8346482,159.980469 66.2602234,159.980469 L93.7380601,159.980469 C96.1653518,159.980469 98.1325914,158.01323 98.1325914,155.585937 L98.1325914,147.066383 C103.910713,145.511131 97.7984389,116.317198 102.989479,113.326857 L109.004494,119.341872 C109.828468,120.165846 110.945984,120.629332 112.113281,120.629332 C113.277145,120.629332 109.421739,108.187912 112.113281,105.494467 C114.634868,102.971097 126.02326,110.075816 146.278457,126.808624 C147.993355,125.09201 147.993355,122.30938 146.278457,120.594482 L140.27031,114.586334 C143.260651,109.395294 145.550613,103.871231 147.105865,98.0931091 L155.592804,98.0931091 C158.020096,98.0931091 159.987335,96.1258695 159.987335,93.6985779 L159.987335,66.2207412 C159.987335,63.7934495 158.020096,61.8262099 155.592804,61.8262099 L147.104149,61.8262099 C145.548897,56.0498047 143.260651,50.5257418 140.27031,45.3347018 L146.245842,39.3591689 C147.069817,38.5351943 147.533302,37.4159621 147.533302,36.2503812 C147.531586,35.0848008 147.0681,33.9655687 146.244126,33.141594 L126.806908,13.7198256 C125.09201,12.0049288 122.30938,12.0049288 120.592766,13.7215426 L114.625816,19.6902085 C109.434776,16.6998671 103.910713,14.4099046 98.1325914,12.8546523 L98.1325914,4.4140625 C98.1325914,1.98677041 96.1653518,0.01953125 93.7380601,0.01953125 L66.2602234,0.01953125 C63.8346482,0.01953125 61.8656921,1.98677041 61.8656921,4.4140625 L61.8656921,12.8563692 C56.0892869,14.4099046 50.5652236,16.6998671 45.3741835,19.6902085 L39.4055176,13.7215426 C37.6906203,12.0066453 34.9079895,12.0049288 33.1913757,13.7198256 L13.7558744,33.1433105 C12.9301833,33.9672852 12.4666978,35.0848008 12.4666978,36.2503812 C12.4666978,37.4159621 12.9301833,38.5351943 13.7541579,39.3591689 L19.7296903,45.3347018 C16.7393494,50.5257418 14.4493868,56.0480882 12.8941345,61.8262099 L4.42264546,61.8262099 C1.99535381,61.8262099 0.028114209,63.7934495 0.028114209,66.2190247 L0.0125451305,93.6968614 C0.0125451305,94.8624418 0.474433789,95.9816744 1.2984084,96.805649 C2.12238301,97.6296236 3.23989868,98.0931091 4.40719604,98.0931091 L12.8941345,98.0931091 C14.4493868,103.871231 16.7393494,109.395294 19.7296903,114.586334 L13.7215426,120.594482 C12.0066453,122.30938 12.0049288,125.09201 13.7215426,126.808624 L33.1433105,146.244126 C33.9672852,147.0681 35.0848008,147.533302 36.2503813,147.533302 C37.4176786,147.533302 38.5351943,147.069817 39.3591689,146.245842 L45.372467,140.230827 C50.5652236,143.221168 56.0892869,145.511131 61.8656921,147.066383 L61.8656921,155.585937 Z" id="Combined-Shape"></path>
                            </g>
                        </g>
                        <g id="Group-2" transform="translate(40.000000, 44.000000)">
                            <g id="Group">
                                <g id="Group-3">
                                    <path d="M18.1818182,70.0952381 C18.1818182,66.3083708 21.564775,63.2380952 25.7373024,63.2380952 L55.9594533,63.2380952 C60.1321947,63.237901 63.5151515,66.3083708 63.5151515,70.0952381 L18.1818182,70.0952381 Z" id="Path" fill="#DCDCDC"></path>
                                    <polygon id="Path" fill="#494342" points="50.9090909 63.2380952 32.7272727 63.2380952 35.3246543 52.952381 48.3117093 52.952381"></polygon>
                                    <path d="M80,44.5714286 L1.95399252e-14,44.5714286 L1.95399252e-14,4.58830081 C1.95399252e-14,2.05424362 2.16140203,-2.30926389e-14 4.82764682,-2.30926389e-14 L75.1723532,-2.30926389e-14 C77.838598,-2.30926389e-14 80,2.05424362 80,4.58830081 L80,44.5714286 L80,44.5714286 Z" id="Path" fill="#494342"></path>
                                    <path d="M75.1723438,52.952381 L4.82765625,52.952381 C2.16140625,52.952381 1.95399252e-14,50.9376504 1.95399252e-14,48.4523354 L1.95399252e-14,42.6666667 L80,42.6666667 L80,48.4523354 C80,50.9376504 77.8385938,52.952381 75.1723438,52.952381" id="Path" fill="#DCDCDC"></path>
                                </g>
                                <g id="setting-2" transform="translate(21.333333, 5.333333)" fill="#EE9C28">
                                    <g id="setting">
                                        <path d="M20.7703458,21.9507083 C20.7703458,21.8309996 20.7287036,21.711165 20.645731,21.5914563 C19.9812016,20.7884889 19.4473962,20.0996916 19.0438162,19.5250645 C19.2929835,19.0339566 19.4828669,18.5786606 19.6130299,18.159743 L22.3718242,17.7284895 C22.4789219,17.7162794 22.5738636,17.6535928 22.6568362,17.540052 C22.7398089,17.425756 22.7809524,17.3091942 22.7809524,17.1894225 L22.7809524,13.8648933 C22.7809524,13.7332892 22.7398089,13.6163497 22.6568362,13.5147043 C22.5738636,13.4130589 22.4729374,13.3499317 22.3543071,13.3263298 L19.6488122,12.9130137 C19.5180258,12.5056138 19.3164852,12.0141912 19.0436292,11.4394383 C19.2213565,11.1757266 19.4886644,10.8162228 19.8446801,10.3612415 C20.2005711,9.90594548 20.4501748,9.58263121 20.5921821,9.39092101 C20.6754041,9.27114934 20.716797,9.15723093 20.716797,9.04954342 C20.716797,8.72604033 19.8623842,7.76767815 18.1542445,6.17433101 C18.0356765,6.07866472 17.9110616,6.03076864 17.7800883,6.03076864 C17.6380186,6.03076864 17.5193883,6.07224501 17.4240102,6.15645652 L15.3237608,7.75571986 C14.8374574,7.50421824 14.3924846,7.31861306 13.9890292,7.19846376 L13.5796517,4.44931685 C13.5679943,4.32954517 13.5085857,4.22456402 13.4017997,4.13481394 C13.2949513,4.04500092 13.176321,4 13.0456593,4 L9.73548011,4 C9.46262409,4 9.28464741,4.14375118 9.20161241,4.4311906 C9.05910639,4.98234169 8.92277189,5.90495489 8.79223488,7.19846376 C8.28211819,7.36613151 7.825301,7.55784171 7.42190798,7.77346848 L5.37520735,6.15639358 C5.25657701,6.07237089 5.13202451,6.0307057 5.00142516,6.0307057 C4.77569712,6.0307057 4.30709793,6.38404157 3.59525356,7.09096506 C2.88328451,7.7976368 2.39654479,8.33072458 2.13572013,8.69016547 C2.05256045,8.78614645 2.01122996,8.90591812 2.01122996,9.0496693 C2.01122996,9.15735681 2.05249811,9.27712848 2.13572013,9.40892137 C2.80006249,10.2117629 3.33393019,10.9005602 3.73744789,11.4753131 C3.48834288,11.9667357 3.29858421,12.421717 3.16817188,12.8409493 L0.409377528,13.2719511 C0.302466844,13.2839094 0.207649847,13.3467219 0.124490166,13.4603256 C0.0415175017,13.5743699 0,13.6909946 0,13.8107033 L0,17.1350438 C0,17.2668996 0.0415175017,17.3835873 0.124490166,17.4852327 C0.207649847,17.5873187 0.30838901,17.6441521 0.427268703,17.6560474 L3.1325142,18.087301 C3.27489554,18.5423452 3.48273241,19.0337049 3.75558842,19.5607506 C3.56570507,19.8245252 3.28698923,20.1900711 2.9191292,20.6570106 C2.55101982,21.1244537 2.30789932,21.4419147 2.18933132,21.6094566 C2.10629631,21.7292283 2.06471647,21.8433985 2.06471647,21.9506454 C2.06471647,22.2745891 2.9191292,23.2326365 4.62770531,24.8261096 C4.74633565,24.9217129 4.87076347,24.9692943 5.0014875,24.9692943 C5.15571317,24.9692943 5.27434351,24.927755 5.35731618,24.8437323 L7.45744097,23.2447207 C7.94374432,23.4962853 8.38871718,23.6817016 8.79229722,23.8015362 L9.20167475,26.5509349 C9.21339441,26.6706436 9.27286542,26.7757507 9.37952675,26.8653749 C9.48631276,26.9551879 9.6049431,27 9.73554244,27 L13.0457216,27 C13.3187647,27 13.4966167,26.8563747 13.579714,26.5688094 C13.7220953,26.0055741 13.8584298,25.0772965 13.9890915,23.78341 C14.4635505,23.6402253 14.9203054,23.4539278 15.3594184,23.2266574 L17.4061814,24.8437323 C17.5248117,24.927755 17.6493642,24.9692943 17.7799636,24.9692943 C18.0054423,24.9692943 18.4713609,24.6130633 19.1772831,23.8999089 C19.882956,23.1876356 20.3726256,22.6510862 20.6456686,22.2918342 C20.7287036,22.208252 20.7703458,22.0945854 20.7703458,21.9507083 Z M14.6119787,18.7526851 C13.7222824,19.6508153 12.6483755,20.1000692 11.3907567,20.1000692 C10.1328263,20.1000692 9.05891938,19.6507524 8.169223,18.7526851 C7.27940196,17.8541144 6.83442909,16.7698126 6.83442909,15.5000315 C6.83442909,14.2303133 7.27940196,13.1460744 8.169223,12.2476925 C9.05891938,11.3492476 10.1328886,10.9001196 11.3907567,10.9001196 C12.6483755,10.9001196 13.7222824,11.3491847 14.6119787,12.2476925 C15.5019868,13.1460744 15.946835,14.2303133 15.946835,15.5000315 C15.946835,16.7698126 15.5020491,17.8541144 14.6119787,18.7526851 Z" id="Shape"></path>
                                        <path d="M31.9761411,23.7096811 C31.8198726,23.368818 31.6391298,23.0631101 31.4346716,22.7924338 C32.0486786,21.4633335 32.3553342,20.6518607 32.3553342,20.3580153 C32.3553342,20.3114918 32.3317453,20.2700347 32.2832395,20.234756 C30.8384353,19.4116677 30.0923811,19 30.0441915,19 L29.9359861,19.0354641 C29.4425165,19.5178128 28.8885253,20.1761846 28.2748977,21.0111354 C28.0342657,20.9877192 27.8539656,20.9756713 27.7336179,20.9756713 C27.6128908,20.9756713 27.4325907,20.9877192 27.1917057,21.0111354 C27.0238008,20.7639989 26.7104416,20.3669122 26.2530826,19.8203698 C25.7958501,19.2738273 25.5187912,19 25.4224752,19 C25.3984436,19 25.2179538,19.0940972 24.8807527,19.2827242 C24.5438046,19.4709187 24.1887063,19.6704814 23.8155211,19.8825864 C23.4420197,20.0946913 23.2318698,20.2117723 23.1836169,20.2354356 C23.1351111,20.270529 23.1112692,20.3119861 23.1112692,20.3585096 C23.1112692,20.6528492 23.4181778,21.4637042 24.0319951,22.7929281 C23.8277266,23.0636044 23.6469206,23.3693123 23.4905256,23.7099282 C21.6968208,23.8860748 20.8,24.0685851 20.8,24.2567178 L20.8,26.7261062 C20.8,26.9143007 21.6968208,27.0965639 23.4905256,27.2728958 C23.6346518,27.590528 23.8153946,27.8962359 24.0319951,28.1897106 C23.4181778,29.5188109 23.1112692,30.3302837 23.1112692,30.6241291 C23.1112692,30.671085 23.1351111,30.7125422 23.1836169,30.7476356 C24.6518202,31.5825864 25.3984436,32 25.4224752,32 C25.518728,32 25.7957869,31.7236396 26.2530826,31.1709187 C26.7103784,30.6180742 27.0233581,30.2186398 27.1917057,29.9716886 C27.432401,29.9947341 27.6128908,30.0065349 27.7336179,30.0065349 C27.8539023,30.0065349 28.0342657,29.9947341 28.2748977,29.9716886 C28.4430556,30.2186398 28.7562251,30.6180742 29.2135208,31.1709187 C29.6708166,31.7236396 29.9476225,32 30.0441915,32 C30.0682231,32 30.8149097,31.582401 32.2832395,30.7476356 C32.3317453,30.7125422 32.3553342,30.6713322 32.3553342,30.6241291 C32.3553342,30.3302219 32.0482991,29.5187491 31.4346716,28.1897106 C31.6513353,27.8962359 31.8317619,27.590528 31.9761411,27.2728958 C33.7697827,27.0965639 34.6666667,26.9143007 34.6666667,26.7261062 L34.6666667,24.2567178 C34.6666667,24.0685234 33.7697827,23.886013 31.9761411,23.7096811 Z M29.3669435,27.0875434 C28.9161616,27.5286203 28.3712138,27.7495604 27.7331752,27.7495604 C27.094947,27.7495604 26.5502521,27.5286203 26.0992172,27.0875434 C25.6477397,26.6464664 25.4217795,26.1145668 25.4217795,25.4912267 C25.4217795,24.8799344 25.6507752,24.3503208 26.1082607,23.9038069 C26.5654932,23.4570458 27.1072789,23.2335108 27.733112,23.2335108 C28.3588185,23.2335108 28.9009205,23.4567986 29.358406,23.9038069 C29.815512,24.3503826 30.0445077,24.8799962 30.0445077,25.4912267 C30.0441282,26.1145668 29.8186108,26.6464664 29.3669435,27.0875434 Z" id="Shape"></path>
                                        <path d="M31.9761411,4.70967573 C31.8198726,4.36863217 31.6391298,4.06292862 31.4346716,3.79225618 C32.0486786,2.46360729 32.3553342,1.65214602 32.3553342,1.35818129 C32.3553342,1.31134958 32.3317453,1.27001659 32.2832395,1.23467656 C30.8384353,0.41153826 30.0923811,0 30.0441915,0 L29.9359861,0.0352164553 C29.4425165,0.517620109 28.8885253,1.17598247 28.2748977,2.0108596 C28.0342657,1.98750552 27.8539656,1.97564314 27.7336179,1.97564314 C27.6128908,1.97564314 27.4325907,1.98750552 27.1917057,2.0108596 C27.0238008,1.76391193 26.7104416,1.36707808 26.2530826,0.820296274 C25.7958501,0.273390903 25.5187912,0 25.4224752,0 C25.3984436,0 25.2179538,0.0940341139 24.8807527,0.282349475 C24.5438046,0.470726619 24.1887063,0.670533665 23.8155211,0.882264879 C23.4420197,1.09405788 23.2318698,1.21156963 23.1836169,1.2349237 C23.1351111,1.27020194 23.1112692,1.31134958 23.1112692,1.35842842 C23.1112692,1.65239315 23.4181778,2.4639162 24.0319951,3.79262688 C23.8277266,4.06323754 23.6469206,4.3688793 23.4905256,4.70992287 C21.6968208,4.88619049 20.8,5.06838931 20.8,5.2565811 L20.8,7.72611958 C20.8,7.91418781 21.6968208,8.09657198 23.4905256,8.27277782 C23.6346518,8.5901584 23.8153946,8.8960473 24.0319951,9.19007381 C23.4181778,10.5190316 23.1112692,11.330184 23.1112692,11.6242723 C23.1112692,11.6710422 23.1351111,11.7123752 23.1836169,11.7476534 C24.6518202,12.5825305 25.3984436,13 25.4224752,13 C25.518728,13 25.7957869,12.7237671 26.2530826,12.1709923 C26.7103784,11.6182175 27.0233581,11.2186034 27.1917057,10.9715322 C27.432401,10.9948862 27.6128908,11.0068104 27.7336179,11.0068104 C27.8539023,11.0068104 28.0342657,10.9948862 28.2748977,10.9715322 C28.4430556,11.2186034 28.7562251,11.6181557 29.2135208,12.1709923 C29.6708166,12.7237671 29.9476225,13 30.0441915,13 C30.0682231,13 30.8149097,12.5825305 32.2832395,11.7476534 C32.3317453,11.7123752 32.3553342,11.6712275 32.3553342,11.6242723 C32.3553342,11.330184 32.0482991,10.5190316 31.4346716,9.19007381 C31.6513353,8.8960473 31.8317619,8.59034375 31.9761411,8.27277782 C33.7697827,8.0965102 34.6666667,7.91418781 34.6666667,7.72611958 L34.6666667,5.2565811 C34.6666667,5.06838931 33.7697827,4.88612871 31.9761411,4.70967573 Z M29.3669435,8.08761341 C28.9161616,8.52868406 28.3712138,8.7491885 27.7331752,8.7491885 C27.094947,8.7491885 26.5502521,8.52868406 26.0992172,8.08761341 C25.6477397,7.64678988 25.4217795,7.11458893 25.4217795,6.49131945 C25.4217795,5.87985058 25.6507752,5.35055344 26.1082607,4.90367515 C26.5654932,4.45679687 27.1072789,4.23332684 27.733112,4.23332684 C28.3588185,4.23332684 28.9009205,4.457044 29.358406,4.90367515 C29.815512,5.35049165 30.0445077,5.87985058 30.0445077,6.49131945 C30.0441282,7.11458893 29.8186108,7.64678988 29.3669435,8.08761341 Z" id="Shape"></path>
                                    </g>
                                </g>
                            </g>
                        </g>
                    </g>
                </g>
            </g>
        </g>
        <g id="Group-11" stroke-linecap="round" stroke-linejoin="round" transform="translate(110.500000, 113.000000)" fill="#FFFFFF" stroke="#AA52A5" stroke-width="1.5">
            <g id="technical-support-copy">
                <path d="M34.5659097,0.00720214844 C35.4609735,0.00720214844 36.1863931,0.732621589 36.1863931,1.62768555 L36.1863931,1.62768555 L36.1863931,4.74015303 C38.3170755,5.31365232 40.3540738,6.15807601 42.2682698,7.2607644 L42.2682698,7.2607644 L44.4685824,5.05981883 C45.1015838,4.4268175 46.1276789,4.4268175 46.7600472,5.0591857 L46.7600472,5.0591857 L53.9275213,12.2209628 C54.2313619,12.5248034 54.4022722,12.9375203 54.4029052,13.3673281 C54.4029052,13.797136 54.2319949,14.2098529 53.9281543,14.5136935 L53.9281543,14.5136935 L51.7246767,16.7171713 C52.8273649,18.6313673 53.6711557,20.6683655 54.2446549,22.7984149 L54.2446549,22.7984149 L57.3748465,22.7984149 C58.2699103,22.7984149 58.9953299,23.5238345 58.9953299,24.4188983 L58.9953299,24.4188983 L58.9953299,34.5513506 C58.9953299,35.4464144 58.2699103,36.171834 57.3748465,36.171834 L57.3748465,36.171834 L54.2452879,36.171834 C53.6717886,38.3025164 52.8273649,40.3395147 51.7246767,42.2537107 L51.7246767,42.2537107 L53.9401812,44.4692154 C54.5725495,45.1015838 54.5725495,46.1276789 53.9401812,46.7606802 L53.9401812,46.7606802 L46.7784042,53.9275213 C46.4745636,54.2319949 46.0618467,54.4029052 45.6326719,54.4029052 C45.202231,54.4029052 44.7901471,54.2319949 44.4863065,53.9281543 L44.4863065,53.9281543 L42.2682698,51.7101176 C40.3540738,52.8128059 38.3170755,53.6572297 36.1863931,54.2307288 L36.1863931,54.2307288 L36.1863931,57.3723145 C36.1863931,58.2673784 35.4609735,58.9927979 34.5659097,58.9927979 L34.5659097,58.9927979 L24.4334574,58.9927979 C23.5390265,58.9927979 22.812974,58.2673784 22.812974,57.3723145 L22.812974,57.3723145 L22.812974,54.2307288 C20.6829245,53.6572297 18.6459262,52.8128059 16.7310972,51.7101176 L16.7310972,51.7101176 L14.5136935,53.9281543 C14.2098529,54.2319949 13.797769,54.4029052 13.3679612,54.4029052 L13.3679612,54.4029052 C12.9375203,54.4029052 12.5254364,54.2313619 12.2215958,53.9275213 L12.2215958,53.9275213 L5.05981883,46.7606802 C4.4268175,46.1276789 4.42745046,45.1015838 5.05981883,44.4692154 L5.05981883,44.4692154 L7.27532331,42.2537107 C6.17263508,40.3395147 5.32821139,38.3025164 4.7547121,36.171834 L4.7547121,36.171834 L1.62515354,36.171834 C1.19471264,36.171834 0.782628734,36.0009237 0.478788097,35.6970831 C0.17494746,35.3932424 0.00403718231,34.9805254 0.00466839126,34.5507176 L0.00466839126,34.5507176 L0.0103671146,24.4182653 C0.0103671146,23.5238345 0.735786717,22.7984149 1.63085051,22.7984149 L1.63085051,22.7984149 L4.7547121,22.7984149 C5.32821139,20.6677325 6.17263508,18.6313673 7.27532331,16.7171713 L7.27532331,16.7171713 L5.07184573,14.5136935 C4.76800509,14.2098529 4.59709481,13.797136 4.59709481,13.3673281 C4.59709481,12.9375203 4.76800509,12.5254364 5.07247869,12.2215958 L5.07247869,12.2215958 L12.2393198,5.0591857 C12.8723211,4.4268175 13.8984162,4.42745046 14.5307846,5.05981883 L14.5307846,5.05981883 L16.7317302,7.2607644 C18.6459262,6.15807601 20.6829245,5.31365232 22.812974,4.74078616 L22.812974,4.74078616 L22.812974,1.62768555 C22.812974,0.732621589 23.5390265,0.00720214844 24.4334574,0.00720214844 L24.4334574,0.00720214844 Z M29.5,16.110123 C22.1166725,16.110123 16.110123,22.1166725 16.110123,29.5 C16.110123,36.8833275 22.1166725,42.889877 29.5,42.889877 C36.8833275,42.889877 42.889877,36.8833275 42.889877,29.5 C42.889877,22.1166725 36.8833275,16.110123 29.5,16.110123 Z" id="Combined-Shape"></path>
            </g>
        </g>
        <g id="Group-5" transform="translate(130.000000, 30.000000)">
            <g id="Oval-Copy">
                <use fill="black" fill-opacity="1" filter="url(#filter-2)" xlink:href="#path-1"></use>
                <use stroke="#FFFFFF" stroke-width="1" fill="#494342" fill-rule="evenodd" xlink:href="#path-1"></use>
            </g>
            <text id="4" font-family="Lato-Bold, Lato" font-size="18" font-weight="bold" fill="#FFFFFF">
                <tspan x="14.78" y="27">4</tspan>
            </text>
        </g>
    </g>
</svg>