<?xml version="1.0" encoding="UTF-8"?>
<svg width="800px" height="580px" viewBox="0 0 800 580" version="1.1" xmlns="http://www.w3.org/2000/svg" xmlns:xlink="http://www.w3.org/1999/xlink">
    <!-- Generator: Sketch 59.1 (86144) - https://sketch.com -->
    <title>Slide10_Production_Cycle</title>
    <desc>Created with Sketch.</desc>
    <defs>
        <linearGradient x1="7.76675576%" y1="71.3157537%" x2="60.1968544%" y2="42.9448372%" id="linearGradient-1">
            <stop stop-color="#000000" stop-opacity="0.1" offset="0%"></stop>
            <stop stop-color="#FFFFFF" stop-opacity="0" offset="100%"></stop>
        </linearGradient>
    </defs>
    <g id="Slide10_Production_Cycle" stroke="none" stroke-width="1" fill="none" fill-rule="evenodd">
        <path d="M774.074074,577.851852 C774.074074,579.038241 773.162062,580 772.037037,580 L275,580 C123.121694,580 0,450.162577 0,290 C0,129.837423 123.121694,0 275,0 L772.037037,0 C773.162062,0 774.074074,0.961758686 774.074074,2.14814815" id="Path" fill="url(#linearGradient-1)"></path>
        <g id="Group-11" transform="translate(158.000000, 14.000000)">
            <g id="Group-6" transform="translate(35.798290, 191.000000)">
                <path d="M0,65 C0,29.1014941 29.1014941,0 65,0 C100.898506,0 130,29.1014941 130,65 C130,100.898506 100.898506,130 65,130 C29.1014941,130 0,100.898506 0,65 Z" id="Fill-15" stroke="#FFFFFF" stroke-width="1.5" fill="#AA52A5" stroke-linecap="round" stroke-linejoin="round"></path>
                <g id="Group-4" transform="translate(36.000000, 27.500000)">
                    <g id="Group-3">
                        <g id="Group-2">
                            <g id="Group">
                                <path d="M1.72796935,0 L44.0707752,0 L44.0707752,0 L57.0498084,11.7037597 L57.0498084,73.0740741 C57.0498084,73.6263588 56.6020932,74.0740741 56.0498084,74.0740741 L1.72796935,74.0740741 C1.1756846,74.0740741 0.727969349,73.6263588 0.727969349,73.0740741 L0.727969349,1 C0.727969349,0.44771525 1.1756846,1.01453063e-16 1.72796935,0 Z" id="Rectangle" fill="#F9F9F9"></path>
                                <path d="M8.4899707,66.5396825 L9.02636917,66.5396825 L9.02636917,65.9255005 C10.5330178,65.8776422 11.4559387,65.0640504 11.4559387,63.7798516 C11.4559387,63.1098349 11.1877395,62.5913695 10.6592292,62.2244556 C10.3121478,61.9851639 9.94140185,61.8575417 9.02636917,61.6820611 L9.02636917,60.3659568 C9.40500338,60.4217915 9.61009691,60.637154 9.6653144,61.0758555 L11.282398,60.7966818 C11.132522,60.1107123 10.8091053,59.6560581 10.2963714,59.3848608 C9.91773721,59.1854511 9.539103,59.081758 9.02636917,59.0498524 L9.02636917,58.6031746 L8.4899707,58.6031746 L8.4899707,59.041876 C8.11133649,59.0498524 7.76425513,59.1216399 7.42506198,59.2572386 C6.68356998,59.5443886 6.202389,60.2303581 6.202389,61.0279971 C6.202389,61.7458722 6.56524679,62.3441015 7.1884156,62.6631571 C7.51183232,62.8306612 7.87469011,62.9423307 8.4899707,63.0699529 L8.4899707,64.5774906 C8.24543611,64.5455851 8.08767185,64.4737976 7.95357223,64.3302225 C7.8115844,64.1706947 7.7484787,64.0031906 7.71692585,63.6681822 L6.09195402,63.9633086 C6.13139509,64.2504586 6.16294794,64.3940337 6.21027721,64.5455851 C6.35226504,64.9284518 6.58102321,65.2315546 6.90443994,65.4469171 C7.29885057,65.7181144 7.78791977,65.8616894 8.4899707,65.9095477 L8.4899707,66.5396825 Z M8.4899707,60.3579804 L8.4899707,61.5863444 L8.33380874,61.5437206 C8.20254395,61.5055835 8.13894523,61.4786632 8.07978364,61.4427694 C7.89835474,61.3390763 7.80369619,61.1795485 7.80369619,60.9721624 C7.80369619,60.6132249 8.04823079,60.3898859 8.4899707,60.3579804 Z M9.02636917,64.585467 L9.02636917,63.1497168 L9.18489087,63.1882311 C9.34296892,63.2292838 9.41727393,63.2596138 9.51543836,63.3092446 C9.71264368,63.4129377 9.81519044,63.5963947 9.81519044,63.8516391 C9.81519044,64.3062934 9.55487942,64.5455851 9.02636917,64.585467 Z" id="$" fill="#494342"></path>
                                <path d="M44.0707752,0 L44.0707752,10.7037597 C44.0707752,11.2560445 44.5184904,11.7037597 45.0707752,11.7037597 L57.0498084,11.7037597 L57.0498084,11.7037597 L44.0707752,0 Z" id="Path-2" fill="#DCDCDC"></path>
                                <line x1="6.09195402" y1="7.93650794" x2="38.2758621" y2="7.93650794" id="Line" stroke="#494342" stroke-width="1.5" stroke-linecap="round" stroke-linejoin="round"></line>
                                <line x1="5.78249337" y1="37.037037" x2="30.5393457" y2="37.037037" id="Line-Copy-6" stroke="#494342" stroke-width="1.5" stroke-linecap="round" stroke-linejoin="round"></line>
                                <line x1="5.78249337" y1="42.3280423" x2="30.5393457" y2="42.3280423" id="Line-Copy-4" stroke="#494342" stroke-width="1.5" stroke-linecap="round" stroke-linejoin="round"></line>
                                <line x1="5.78249337" y1="47.6190476" x2="30.5393457" y2="47.6190476" id="Line-Copy-5" stroke="#494342" stroke-width="1.5" stroke-linecap="round" stroke-linejoin="round"></line>
                                <line x1="43.9493074" y1="37.037037" x2="51.3763631" y2="37.037037" id="Line-Copy-7" stroke="#494342" stroke-width="1.5" stroke-linecap="round" stroke-linejoin="round"></line>
                                <line x1="43.9493074" y1="42.3280423" x2="51.3763631" y2="42.3280423" id="Line-Copy-8" stroke="#494342" stroke-width="1.5" stroke-linecap="round" stroke-linejoin="round"></line>
                                <line x1="43.9493074" y1="47.6190476" x2="51.3763631" y2="47.6190476" id="Line-Copy-9" stroke="#494342" stroke-width="1.5" stroke-linecap="round" stroke-linejoin="round"></line>
                                <line x1="6.09195402" y1="21.1640212" x2="19.5019157" y2="21.1640212" id="Line-Copy" stroke="#494342" stroke-width="1.5" stroke-linecap="round" stroke-linejoin="round"></line>
                                <line x1="6.09195402" y1="26.4550265" x2="19.5019157" y2="26.4550265" id="Line-Copy-2" stroke="#494342" stroke-width="1.5" stroke-linecap="round" stroke-linejoin="round"></line>
                            </g>
                        </g>
                    </g>
                </g>
                <g id="Group-12" transform="translate(56.062655, 47.261280)">
                    <path d="M31.8957243,43.7689427 L55.6421612,43.7689427 C56.1944459,43.7689427 56.6421612,44.216658 56.6421612,44.7689427 L56.6421612,50.4928738 C56.6421612,51.0451586 56.1944459,51.4928738 55.6421612,51.4928738 L31.8957243,51.4928738 C31.3434395,51.4928738 30.8957243,51.0451586 30.8957243,50.4928738 L30.8957243,44.7689427 C30.8957243,44.216658 31.3434395,43.7689427 31.8957243,43.7689427 Z" id="Rectangle" fill="#EE9C28" transform="translate(43.768943, 47.630908) rotate(51.000000) translate(-43.768943, -47.630908) "></path>
                    <path d="M21.8844714,3.90798505e-14 C33.9709312,3.90798505e-14 43.7689427,9.79801157 43.7689427,21.8844714 C43.7689427,33.9709312 33.9709312,43.7689427 21.8844714,43.7689427 C9.79801157,43.7689427 4.26325641e-14,33.9709312 4.26325641e-14,21.8844714 C4.26325641e-14,9.79801157 9.79801157,3.90798505e-14 21.8844714,3.90798505e-14 Z M21.8844714,3.64741189 C11.8124215,3.64741189 3.64741189,11.8124215 3.64741189,21.8844714 C3.64741189,31.9565212 11.8124215,40.1215308 21.8844714,40.1215308 C31.9565212,40.1215308 40.1215308,31.9565212 40.1215308,21.8844714 C40.1215308,11.8124215 31.9565212,3.64741189 21.8844714,3.64741189 Z" id="Combined-Shape" fill="#FFB650"></path>
                </g>
                <text id="Manual-Review-Copy" font-family="Lato-Medium, Lato" font-size="18" font-weight="400" fill="#FFFFFF">
                    <tspan x="3.5" y="158">Manual Review</tspan>
                </text>
            </g>
            <g id="Group-7" transform="translate(31.798290, 0.000000)">
                <path d="M4,65 C4,29.1014941 33.1014941,0 69,0 C104.898506,0 134,29.1014941 134,65 C134,100.898506 104.898506,130 69,130 C33.1014941,130 4,100.898506 4,65 Z" id="Fill-15" stroke="#FFFFFF" stroke-width="1.5" fill="#AA52A5" stroke-linecap="round" stroke-linejoin="round"></path>
                <g id="Group-2" transform="translate(38.363636, 16.000000)">
                    <g id="Group">
                        <path d="M13.1429641,38.5126382 L15.1496149,38.5126382 L26.0839272,49.4469505 C26.2103793,49.5747846 26.362859,49.674979 26.5319226,49.7452302 C26.6996041,49.815251 26.8783416,49.8509525 27.0568488,49.8509525 L38.9396675,49.8509525 C39.6997625,49.8509525 40.3140574,49.2352755 40.3140574,48.4765625 C40.3140574,47.7178495 39.6997625,47.1021725 38.9396675,47.1021725 L30.3745483,47.1021725 L38.964313,38.5124079 L48.0145109,38.5124079 L60.0924206,58.4407171 L1.06505434,58.4407171 L13.1429641,38.5126382 Z" id="Path" fill="#EE9C28"></path>
                        <path d="M18.5438494,46.6696094 L44.8165767,46.6696094 C45.0927191,46.6696094 45.3165767,46.893467 45.3165767,47.1696094 L45.3165767,49.7803029 C45.3165767,50.0564453 45.0927191,50.2803029 44.8165767,50.2803029 L18.5438494,50.2803029 C18.267707,50.2803029 18.0438494,50.0564453 18.0438494,49.7803029 L18.0438494,47.1696094 C18.0438494,46.893467 18.267707,46.6696094 18.5438494,46.6696094 Z" id="Rectangle" fill="#494342"></path>
                        <rect id="Rectangle" fill="#EE9C28" x="0" y="61.1894971" width="61.1590873" height="33.9013892"></rect>
                        <g id="Group-9-Copy" transform="translate(31.676301, 28.965995) rotate(43.000000) translate(-31.676301, -28.965995) translate(14.176301, 6.965995)">
                            <g id="Group-8" transform="translate(0.510060, 0.435474)">
                                <path d="M1,0 L25.6518647,0 L25.6518647,0 L33.3333333,6.70306238 L33.3333333,41.4242424 C33.3333333,41.9765272 32.8856181,42.4242424 32.3333333,42.4242424 L1,42.4242424 C0.44771525,42.4242424 6.76353751e-17,41.9765272 0,41.4242424 L0,1 C-6.76353751e-17,0.44771525 0.44771525,1.01453063e-16 1,0 Z" id="Rectangle-Copy" fill="#F9F9F9"></path>
                                <path d="M4.59383754,38.1090909 L4.91129785,38.1090909 L4.91129785,37.7573321 C5.80298786,37.7299223 6.34920635,37.2639561 6.34920635,36.5284605 C6.34920635,36.1447236 6.19047619,35.8477844 5.87768441,35.6376428 C5.67226891,35.5005939 5.45284781,35.4275011 4.91129785,35.3269986 L4.91129785,34.5732298 C5.13538749,34.6052079 5.25676937,34.7285519 5.28944911,34.9798081 L6.2464986,34.8199178 C6.15779645,34.4270443 5.96638655,34.1666514 5.66293184,34.0113294 C5.4388422,33.897122 5.21475257,33.8377341 4.91129785,33.8194609 L4.91129785,33.5636364 L4.59383754,33.5636364 L4.59383754,33.8148926 C4.3697479,33.8194609 4.1643324,33.8605756 3.96358543,33.9382366 C3.52474323,34.1026953 3.23996265,34.4955688 3.23996265,34.9523984 C3.23996265,35.363545 3.45471522,35.7061672 3.82352941,35.888899 C4.01493931,35.9848333 4.22969188,36.0487894 4.59383754,36.1218821 L4.59383754,36.9852901 C4.44911298,36.9670169 4.3557423,36.9259022 4.27637722,36.8436729 C4.1923436,36.752307 4.15499533,36.6563728 4.1363212,36.4645043 L3.17460317,36.6335313 C3.19794585,36.7979899 3.21661998,36.8802193 3.24463119,36.9670169 C3.3286648,37.1862951 3.46405229,37.3598904 3.65546218,37.4832344 C3.88888889,37.6385564 4.178338,37.7207857 4.59383754,37.7481955 L4.59383754,38.1090909 Z M4.59383754,34.5686615 L4.59383754,35.2721791 L4.50141515,35.2477672 C4.42372782,35.2259251 4.38608777,35.2105071 4.35107376,35.1899497 C4.24369748,35.1305619 4.18767507,35.039196 4.18767507,34.9204203 C4.18767507,34.714847 4.33239963,34.5869347 4.59383754,34.5686615 Z M4.91129785,36.9898584 L4.91129785,36.1675651 L5.00511682,36.1896233 C5.09867321,36.2131353 5.14264965,36.2305061 5.20074697,36.258931 C5.31746032,36.3183189 5.37815126,36.4233897 5.37815126,36.5695751 C5.37815126,36.829968 5.22408964,36.9670169 4.91129785,36.9898584 Z" id="$-copy" fill="#494342"></path>
                                <path d="M25.6518647,3.73034936e-14 L25.6518647,5.70306238 C25.6518647,6.25534713 26.0995799,6.70306238 26.6518647,6.70306238 L33.3333333,6.70306238 L33.3333333,6.70306238 L25.6518647,3.73034936e-14 Z" id="Path-2-Copy" fill="#DCDCDC"></path>
                                <line x1="3.17460317" y1="4.54545455" x2="22.2222222" y2="4.54545455" id="Line-Copy-3" stroke="#494342" stroke-width="1.5" stroke-linecap="round" stroke-linejoin="round"></line>
                                <line x1="2.99145299" y1="21.2121212" x2="17.6434676" y2="21.2121212" id="Line-Copy-10" stroke="#494342" stroke-width="1.5" stroke-linecap="round" stroke-linejoin="round"></line>
                                <line x1="2.99145299" y1="24.2424242" x2="17.6434676" y2="24.2424242" id="Line-Copy-11" stroke="#494342" stroke-width="1.5" stroke-linecap="round" stroke-linejoin="round"></line>
                                <line x1="2.99145299" y1="27.2727273" x2="17.6434676" y2="27.2727273" id="Line-Copy-12" stroke="#494342" stroke-width="1.5" stroke-linecap="round" stroke-linejoin="round"></line>
                                <line x1="25.5799756" y1="21.2121212" x2="29.97558" y2="21.2121212" id="Line-Copy-13" stroke="#494342" stroke-width="1.5" stroke-linecap="round" stroke-linejoin="round"></line>
                                <line x1="25.5799756" y1="24.2424242" x2="29.97558" y2="24.2424242" id="Line-Copy-14" stroke="#494342" stroke-width="1.5" stroke-linecap="round" stroke-linejoin="round"></line>
                                <line x1="25.5799756" y1="27.2727273" x2="29.97558" y2="27.2727273" id="Line-Copy-15" stroke="#494342" stroke-width="1.5" stroke-linecap="round" stroke-linejoin="round"></line>
                                <line x1="3.17460317" y1="12.1212121" x2="11.1111111" y2="12.1212121" id="Line-Copy-16" stroke="#494342" stroke-width="1.5" stroke-linecap="round" stroke-linejoin="round"></line>
                                <line x1="3.17460317" y1="15.1515152" x2="11.1111111" y2="15.1515152" id="Line-Copy-17" stroke="#494342" stroke-width="1.5" stroke-linecap="round" stroke-linejoin="round"></line>
                            </g>
                        </g>
                        <polygon id="Rectangle" fill="#EE9C28" points="15.0135464 50.2803029 45.3165767 50.2803029 45.3165767 55.7605184 15.0135464 55.7605184"></polygon>
                    </g>
                </g>
                <text id="Input-Documents" font-family="Lato-Medium, Lato" font-size="18" font-weight="400" fill="#FFFFFF">
                    <tspan x="0" y="158">Input Documents</tspan>
                </text>
            </g>
            <g id="Group-5" transform="translate(35.798290, 382.000000)">
                <text id="Receive-Output" font-family="Lato-Medium, Lato" font-size="18" font-weight="400" fill="#FFFFFF">
                    <tspan x="2.5" y="158">Receive Output</tspan>
                </text>
                <path d="M0,65 C0,29.1014941 29.1014941,0 65,0 C100.898506,0 130,29.1014941 130,65 C130,100.898506 100.898506,130 65,130 C29.1014941,130 0,100.898506 0,65 Z" id="Fill-15" stroke="#FFFFFF" stroke-width="1.5" fill="#AA52A5" stroke-linecap="round" stroke-linejoin="round"></path>
                <g id="Group-4" transform="translate(36.000000, 27.500000)">
                    <g id="Group-3">
                        <g id="Group-2">
                            <g id="Group">
                                <path d="M1.72796935,0 L44.0707752,0 L44.0707752,0 L57.0498084,11.7037597 L57.0498084,73.0740741 C57.0498084,73.6263588 56.6020932,74.0740741 56.0498084,74.0740741 L1.72796935,74.0740741 C1.1756846,74.0740741 0.727969349,73.6263588 0.727969349,73.0740741 L0.727969349,1 C0.727969349,0.44771525 1.1756846,1.01453063e-16 1.72796935,0 Z" id="Rectangle" fill="#F9F9F9"></path>
                                <path d="M8.4899707,66.5396825 L9.02636917,66.5396825 L9.02636917,65.9255005 C10.5330178,65.8776422 11.4559387,65.0640504 11.4559387,63.7798516 C11.4559387,63.1098349 11.1877395,62.5913695 10.6592292,62.2244556 C10.3121478,61.9851639 9.94140185,61.8575417 9.02636917,61.6820611 L9.02636917,60.3659568 C9.40500338,60.4217915 9.61009691,60.637154 9.6653144,61.0758555 L11.282398,60.7966818 C11.132522,60.1107123 10.8091053,59.6560581 10.2963714,59.3848608 C9.91773721,59.1854511 9.539103,59.081758 9.02636917,59.0498524 L9.02636917,58.6031746 L8.4899707,58.6031746 L8.4899707,59.041876 C8.11133649,59.0498524 7.76425513,59.1216399 7.42506198,59.2572386 C6.68356998,59.5443886 6.202389,60.2303581 6.202389,61.0279971 C6.202389,61.7458722 6.56524679,62.3441015 7.1884156,62.6631571 C7.51183232,62.8306612 7.87469011,62.9423307 8.4899707,63.0699529 L8.4899707,64.5774906 C8.24543611,64.5455851 8.08767185,64.4737976 7.95357223,64.3302225 C7.8115844,64.1706947 7.7484787,64.0031906 7.71692585,63.6681822 L6.09195402,63.9633086 C6.13139509,64.2504586 6.16294794,64.3940337 6.21027721,64.5455851 C6.35226504,64.9284518 6.58102321,65.2315546 6.90443994,65.4469171 C7.29885057,65.7181144 7.78791977,65.8616894 8.4899707,65.9095477 L8.4899707,66.5396825 Z M8.4899707,60.3579804 L8.4899707,61.5863444 L8.33380874,61.5437206 C8.20254395,61.5055835 8.13894523,61.4786632 8.07978364,61.4427694 C7.89835474,61.3390763 7.80369619,61.1795485 7.80369619,60.9721624 C7.80369619,60.6132249 8.04823079,60.3898859 8.4899707,60.3579804 Z M9.02636917,64.585467 L9.02636917,63.1497168 L9.18489087,63.1882311 C9.34296892,63.2292838 9.41727393,63.2596138 9.51543836,63.3092446 C9.71264368,63.4129377 9.81519044,63.5963947 9.81519044,63.8516391 C9.81519044,64.3062934 9.55487942,64.5455851 9.02636917,64.585467 Z" id="$" fill="#494342"></path>
                                <path d="M44.0707752,0 L44.0707752,10.7037597 C44.0707752,11.2560445 44.5184904,11.7037597 45.0707752,11.7037597 L57.0498084,11.7037597 L57.0498084,11.7037597 L44.0707752,0 Z" id="Path-2" fill="#DCDCDC"></path>
                                <line x1="6.09195402" y1="7.93650794" x2="38.2758621" y2="7.93650794" id="Line" stroke="#494342" stroke-width="1.5" stroke-linecap="round" stroke-linejoin="round"></line>
                                <line x1="5.78249337" y1="37.037037" x2="30.5393457" y2="37.037037" id="Line-Copy-6" stroke="#494342" stroke-width="1.5" stroke-linecap="round" stroke-linejoin="round"></line>
                                <line x1="5.78249337" y1="42.3280423" x2="30.5393457" y2="42.3280423" id="Line-Copy-4" stroke="#494342" stroke-width="1.5" stroke-linecap="round" stroke-linejoin="round"></line>
                                <line x1="5.78249337" y1="47.6190476" x2="30.5393457" y2="47.6190476" id="Line-Copy-5" stroke="#494342" stroke-width="1.5" stroke-linecap="round" stroke-linejoin="round"></line>
                                <line x1="43.9493074" y1="37.037037" x2="51.3763631" y2="37.037037" id="Line-Copy-7" stroke="#494342" stroke-width="1.5" stroke-linecap="round" stroke-linejoin="round"></line>
                                <line x1="43.9493074" y1="42.3280423" x2="51.3763631" y2="42.3280423" id="Line-Copy-8" stroke="#494342" stroke-width="1.5" stroke-linecap="round" stroke-linejoin="round"></line>
                                <line x1="43.9493074" y1="47.6190476" x2="51.3763631" y2="47.6190476" id="Line-Copy-9" stroke="#494342" stroke-width="1.5" stroke-linecap="round" stroke-linejoin="round"></line>
                                <line x1="6.09195402" y1="21.1640212" x2="19.5019157" y2="21.1640212" id="Line-Copy" stroke="#494342" stroke-width="1.5" stroke-linecap="round" stroke-linejoin="round"></line>
                                <line x1="6.09195402" y1="26.4550265" x2="19.5019157" y2="26.4550265" id="Line-Copy-2" stroke="#494342" stroke-width="1.5" stroke-linecap="round" stroke-linejoin="round"></line>
                            </g>
                        </g>
                    </g>
                </g>
                <path d="M27.2017098,54.5 C37.6239347,50.7795715 44.809027,43.6562337 48.7569868,33.1299867 C47.3576306,32.3389932 44.6916745,31.8219893 40.7591185,31.578975 L54.7018998,23.5 L61.4648677,37.3133871 C58.0504919,35.5780106 55.7961692,34.7103223 54.7018998,34.7103223 C50.060281,46.7674301 40.8935509,53.3639893 27.2017098,54.5 Z" id="Path-4" fill="#EE9C28" transform="translate(44.333289, 39.000000) scale(1, -1) translate(-44.333289, -39.000000) "></path>
            </g>
            <path id="Stroke-28" d="M22.7145111,55.0198264 C22.8256376,55.0198264 22.9352379,55.0446215 23.0346325,55.092248 L23.0346325,55.092248 L33.6028493,60.1561853 C33.9564456,60.3256169 34.0997689,60.7376711 33.9229707,61.0765343 C33.853706,61.2092917 33.7413788,61.3169385 33.6028493,61.3833172 L33.6028493,61.3833172 L23.0346325,66.4472545 C22.6810361,66.6166861 22.2510665,66.4793346 22.0742683,66.1404715 C22.024571,66.0452184 21.9986979,65.9401847 21.9986979,65.8336885 L21.9986979,65.8336885 L21.998,61.519 L0.75,61.5198264 L0.75,450.019826 L23.464,450.019 L23.4649569,445.705964 C23.4649569,445.634967 23.476456,445.564619 23.4988473,445.497387 L23.5405273,445.399181 C23.7173254,445.060318 24.1472951,444.922967 24.5008914,445.092398 L24.5008914,445.092398 L35.0691083,450.156336 C35.2076377,450.222714 35.3199649,450.330361 35.3892297,450.463119 C35.5660278,450.801982 35.4227046,451.214036 35.0691083,451.383468 L35.0691083,451.383468 L24.5008914,456.447405 C24.4014969,456.495031 24.2918965,456.519826 24.18077,456.519826 C23.7854373,456.519826 23.4649569,456.212699 23.4649569,455.833839 L23.4649569,455.833839 L23.464,451.519 L-3.63797881e-12,451.519826 C-0.379695766,451.519826 -0.693490961,451.237673 -0.743153384,450.871597 L-0.75,450.769826 L-0.75,60.7698264 C-0.75,60.3556128 -0.414213562,60.0198264 -3.63797881e-12,60.0198264 L-3.63797881e-12,60.0198264 L21.998,60.019 L21.9986979,55.705814 C21.9986979,55.3585252 22.2679905,55.0715124 22.6173795,55.0260887 Z" fill="#FFFFFF" fill-rule="nonzero"></path>
            <g id="Group-8" transform="translate(218.642871, 208.000000)">
                <path d="M0,50 C0,22.3857647 22.3857647,3.55271368e-14 50,3.55271368e-14 C77.6142353,3.55271368e-14 100,22.3857647 100,50 C100,77.6142353 77.6142353,100 50,100 C22.3857647,100 0,77.6142353 0,50 Z" id="Fill-15" stroke="#B35AB0" stroke-width="2" fill="#FFFFFF" stroke-linecap="round" stroke-linejoin="round" stroke-dasharray="5"></path>
                <g id="Group-2" transform="translate(21.000000, 20.000000)">
                    <g id="Group">
                        <circle id="Oval" stroke="#494342" stroke-width="1.5" stroke-linecap="round" stroke-linejoin="round" cx="44.4444444" cy="13.3333333" r="13.3333333"></circle>
                        <path d="M31.4243268,16.0195691 C28.3745445,14.3088064 24.8567448,13.3333333 21.1111111,13.3333333 C9.45176639,13.3333333 0,22.7850997 0,34.4444444 C0,46.1037892 9.45176639,55.5555556 21.1111111,55.5555556 C32.7704558,55.5555556 42.2222222,46.1037892 42.2222222,34.4444444 C42.2222222,31.4117687 41.5827574,28.528448 40.4313087,25.9219632" id="Path" stroke="#494342" stroke-width="1.5" stroke-linecap="round" stroke-linejoin="round"></path>
                        <circle id="Oval-Copy-2" stroke="#494342" stroke-width="1.5" stroke-linecap="round" stroke-linejoin="round" cx="21.1111111" cy="34.4444444" r="14.4444444"></circle>
                        <circle id="Oval-Copy-3" stroke="#494342" stroke-width="1.5" stroke-linecap="round" stroke-linejoin="round" cx="21.1111111" cy="34.4444444" r="7.77777778"></circle>
                        <line x1="12.2222222" y1="54.4444444" x2="10" y2="58.8888889" id="Line" stroke="#494342" stroke-width="1.5" stroke-linecap="round" stroke-linejoin="round"></line>
                        <line x1="32.2222222" y1="54.4444444" x2="30" y2="58.8888889" id="Line-Copy" stroke="#494342" stroke-width="1.5" stroke-linecap="round" stroke-linejoin="round" transform="translate(31.111111, 56.666667) scale(-1, 1) translate(-31.111111, -56.666667) "></line>
                        <path d="M45.1962562,16.072076 L43.6926327,16.072076 L43.6926327,6.94293377 L45.1962562,6.94293377 L45.1962562,16.072076 Z M44.4444444,17.5756994 C44.7427839,17.5756994 44.9963687,17.6801167 45.2052063,17.8889543 C45.4140439,18.0977919 45.5184612,18.3513767 45.5184612,18.6497162 C45.5184612,18.9480556 45.4080772,19.2016404 45.187306,19.410478 C44.9665348,19.6193156 44.7189168,19.7237329 44.4444444,19.7237329 C44.1699721,19.7237329 43.9223541,19.6193156 43.7015829,19.410478 C43.4808117,19.2016404 43.3704277,18.9480556 43.3704277,18.6497162 C43.3704277,18.3513767 43.474845,18.0977919 43.6836826,17.8889543 C43.8925202,17.6801167 44.146105,17.5756994 44.4444444,17.5756994 Z" id="!" fill="#494342" fill-rule="nonzero"></path>
                    </g>
                </g>
            </g>
            <g id="Group-9" transform="translate(373.487451, 208.000000)">
                <path d="M0,50 C0,22.3857647 22.3857647,3.55271368e-14 50,3.55271368e-14 C77.6142353,3.55271368e-14 100,22.3857647 100,50 C100,77.6142353 77.6142353,100 50,100 C22.3857647,100 0,77.6142353 0,50 Z" id="Fill-15-Copy" stroke="#B35AB0" stroke-width="2" fill="#FFFFFF" stroke-linecap="round" stroke-linejoin="round" stroke-dasharray="5"></path>
                <g id="Group-4" transform="translate(18.064281, 27.100088)">
                    <g id="Group-3">
                        <g id="Group-3-Copy" stroke="#494342" stroke-linecap="round" stroke-linejoin="round" stroke-width="1.5">
                            <path d="M32.7030403,40.8632542 L32.7030403,45.2811327 C32.7030403,46.6704704 31.5767595,47.7967512 30.1874218,47.7967512 L2.51561848,47.7967512 C1.12628076,47.7967512 0,46.6704704 0,45.2811327 L0,2.51561848 C0,1.12628076 1.12628076,0 2.51561848,0 L22.6405663,0 L32.7030403,7.54685545 L32.7030403,10.8025393 L32.7030403,22.6405663 L32.7030403,40.8632542 Z" id="Path-Copy"></path>
                            <path d="M22.6405663,0 L32.7030403,7.54685545 L23.6405663,7.54685545 C23.0882816,7.54685545 22.6405663,7.0991402 22.6405663,6.54685545 L22.6405663,0 L22.6405663,0 Z" id="Rectangle-Copy-4"></path>
                            <line x1="5.03123697" y1="23.636332" x2="14.6497782" y2="23.636332" id="Line-Copy-7"></line>
                            <line x1="5.77112476" y1="8.96189085" x2="15.389666" y2="8.96189085" id="Line-Copy-8"></line>
                            <line x1="4.80927063" y1="20.9110786" x2="14.4278119" y2="20.9110786" id="Line-Copy-15"></line>
                            <line x1="5.03123697" y1="26.1519505" x2="14.6497782" y2="26.1519505" id="Line-Copy-16"></line>
                            <line x1="4.80927063" y1="31.8645008" x2="27.9026483" y2="31.8645008" id="Line-Copy-17"></line>
                            <line x1="4.80927063" y1="16.928016" x2="27.8937696" y2="16.928016" id="Line-Copy-18"></line>
                            <line x1="22.6405663" y1="21.1207135" x2="26.4879829" y2="21.1207135" id="Line-Copy-19"></line>
                            <line x1="22.6405663" y1="23.636332" x2="26.4879829" y2="23.636332" id="Line-Copy-20"></line>
                            <line x1="22.6405663" y1="26.1519505" x2="26.4879829" y2="26.1519505" id="Line-Copy-21"></line>
                            <line x1="20.1249479" y1="37.7342772" x2="27.8197809" y2="37.7342772" id="Line-Copy-22"></line>
                            <line x1="20.1249479" y1="40.2498957" x2="27.8197809" y2="40.2498957" id="Line-Copy-23"></line>
                            <line x1="5.77112476" y1="4.97882825" x2="15.389666" y2="4.97882825" id="Line-Copy-24"></line>
                        </g>
                        <g id="Group-2" transform="translate(37.734277, 15.093711)" fill="#494342">
                            <g id="Group" transform="translate(0.000000, -0.000000)">
                                <polygon id="Fill-377" points="12.2081485 4.14662387 28.4856799 4.14662387 28.4856799 2.48797432 12.2081485 2.48797432"></polygon>
                                <polygon id="Fill-379" points="12.2081485 12.4398716 28.4856799 12.4398716 28.4856799 10.7812221 12.2081485 10.7812221"></polygon>
                                <polygon id="Fill-380" points="12.2081485 21.5624441 20.3469142 21.5624441 20.3469142 19.9037946 12.2081485 19.9037946"></polygon>
                                <polygon id="Fill-380-Copy" points="2.77874842 5.86421172 7.38272954 1.17284234 6.23173426 -8.8817842e-16 1.62775314 4.69136938"></polygon>
                                <polygon id="Fill-380-Copy-2" points="-7.54951657e-15 3.66081667 2.30199056 6.00650136 3.45298584 4.83365901 1.15099528 2.48797432"></polygon>
                                <polygon id="Fill-380-Copy-4" points="2.77874842 14.1574595 7.38272954 9.46609009 6.23173426 8.29324775 1.62775314 12.9846171"></polygon>
                                <polygon id="Fill-380-Copy-3" points="-7.54951657e-15 11.9540644 2.30199056 14.2997491 3.45298584 13.1269068 1.15099528 10.7812221"></polygon>
                                <polygon id="Fill-380-Copy-6" points="2.77874842 23.280032 7.38272954 18.5886626 6.23173426 17.4158203 1.62775314 22.1071896"></polygon>
                                <polygon id="Fill-380-Copy-5" points="-7.54951657e-15 21.0766369 2.30199056 23.4223216 3.45298584 22.2494793 1.15099528 19.9037946"></polygon>
                            </g>
                        </g>
                    </g>
                </g>
            </g>
            <g id="Group-10" transform="translate(531.332031, 208.000000)">
                <path d="M0,50 C0,22.3857647 22.3857647,3.55271368e-14 50,3.55271368e-14 C77.6142353,3.55271368e-14 100,22.3857647 100,50 C100,77.6142353 77.6142353,100 50,100 C22.3857647,100 0,77.6142353 0,50 Z" id="Fill-15-Copy-2" stroke="#B35AB0" stroke-width="2" fill="#FFFFFF" stroke-linecap="round" stroke-linejoin="round" stroke-dasharray="5"></path>
                <g id="Group-2" transform="translate(18.500000, 15.576466)">
                    <g id="Group">
                        <g id="gears-3" transform="translate(14.907692, 0.000000)" stroke="#494342" stroke-linecap="round" stroke-linejoin="round" stroke-width="1.5">
                            <g id="gears">
                                <path d="M35.3505556,14.4935897 L31.863812,14.4935897 C31.3033932,14.4935897 30.8416688,14.1850833 30.6270256,13.6674551 C30.4123825,13.1498269 30.5214295,12.6045919 30.9168974,12.2084338 L33.382188,9.74383333 C33.7445278,9.38149359 33.9439872,8.8990641 33.9439872,8.38695726 C33.9439872,7.87416026 33.7445278,7.39242094 33.382188,7.02939103 L30.2398397,3.88704274 C29.5151603,3.16236325 28.2514573,3.16098291 27.5253974,3.88704274 L25.060797,6.35164316 C24.6646389,6.74711111 24.1180235,6.85753846 23.6017756,6.64220513 C23.0841474,6.42756197 22.775641,5.96583761 22.775641,5.4054188 L22.775641,1.91867521 C22.775641,0.860643162 21.9149979,0 20.8569658,0 L16.412265,0 C15.3542329,0 14.4935897,0.860643162 14.4935897,1.91867521 L14.4935897,5.4054188 C14.4935897,5.96583761 14.1850833,6.42756197 13.6674551,6.64220513 C13.1512073,6.85822863 12.6045919,6.74711111 12.2084338,6.35164316 L9.74383333,3.88704274 C9.0177735,3.16098291 7.75407051,3.16236325 7.02939103,3.88704274 L3.88704274,7.02939103 C3.52470299,7.39173077 3.32524359,7.87416026 3.32524359,8.38695726 C3.32524359,8.8990641 3.52470299,9.38080342 3.88704274,9.74383333 L6.35233333,12.2084338 C6.74780128,12.6045919 6.85615812,13.1498269 6.64220513,13.6674551 C6.42825214,14.1850833 5.96583761,14.4935897 5.4054188,14.4935897 L1.91867521,14.4935897 C0.860643162,14.4935897 0,15.3542329 0,16.412265 L0,20.8562756 C0,21.9149979 0.860643162,22.775641 1.91867521,22.775641 L5.4054188,22.775641 C5.96583761,22.775641 6.42756197,23.0841474 6.64220513,23.6017756 C6.85684829,24.1194038 6.74780128,24.6646389 6.35233333,25.060797 L3.88704274,27.5253974 C3.52470299,27.8877372 3.32524359,28.3701667 3.32524359,28.8822735 C3.32524359,29.3950705 3.52470299,29.8768098 3.88704274,30.2398397 L7.02939103,33.382188 C7.75476068,34.1075577 9.0177735,34.108938 9.74383333,33.382188 L12.2084338,30.9168974 C12.6045919,30.5214295 13.1491368,30.4123825 13.6674551,30.6270256 C14.1850833,30.8416688 14.4935897,31.3033932 14.4935897,31.863812 L14.4935897,35.3505556 C14.4935897,36.4085876 15.3542329,37.2692308 16.412265,37.2692308 L20.8562756,37.2692308 C21.9143077,37.2692308 22.7749509,36.4085876 22.7749509,35.3505556 L22.7749509,31.863812 C22.7749509,31.3033932 23.0834573,30.8416688 23.6010855,30.6270256 C24.1194038,30.4116923 24.6639487,30.5214295 25.0601068,30.9168974 L27.5247073,33.382188 C28.2507671,34.1082479 29.5144701,34.1068675 30.2391496,33.382188 L33.3814979,30.2398397 C33.7438376,29.8775 33.943297,29.3950705 33.943297,28.8822735 C33.943297,28.3701667 33.7438376,27.8884274 33.3814979,27.5253974 L30.9162073,25.060797 C30.5207393,24.6646389 30.4123825,24.1194038 30.6263355,23.6017756 C30.8402885,23.0841474 31.3033932,22.775641 31.863812,22.775641 L35.3505556,22.775641 C36.4085876,22.775641 37.2692308,21.9149979 37.2692308,20.8569658 L37.2692308,16.412265 C37.2692308,15.3542329 36.4085876,14.4935897 35.3505556,14.4935897 Z" id="Shape"></path>
                                <path d="M18.6346154,12.4230769 C15.209297,12.4230769 12.4230769,15.209297 12.4230769,18.6346154 C12.4230769,22.0599338 15.209297,24.8461538 18.6346154,24.8461538 C22.0599338,24.8461538 24.8461538,22.0599338 24.8461538,18.6346154 C24.8461538,15.209297 22.0599338,12.4230769 18.6346154,12.4230769 Z" id="Shape"></path>
                            </g>
                        </g>
                        <g id="gears-3-copy" transform="translate(0.000000, 34.784615)" stroke="#494342" stroke-linecap="round" stroke-linejoin="round" stroke-width="1.5">
                            <g id="gears">
                                <path d="M28.2804444,11.5948718 L25.4910496,11.5948718 C25.0427145,11.5948718 24.673335,11.3480667 24.5016205,10.9339641 C24.329906,10.5198615 24.4171436,10.0836735 24.7335179,9.76674701 L26.7057504,7.79506667 C26.9956222,7.50519487 27.1551897,7.11925128 27.1551897,6.70956581 C27.1551897,6.29932821 26.9956222,5.91393675 26.7057504,5.62351282 L24.1918718,3.10963419 C23.6121282,2.5298906 22.6011658,2.52878632 22.0203179,3.10963419 L20.0486376,5.08131453 C19.7317111,5.39768889 19.2944188,5.48603077 18.8814205,5.3137641 C18.4673179,5.14204957 18.2205128,4.77267009 18.2205128,4.32433504 L18.2205128,1.53494017 C18.2205128,0.68851453 17.5319983,0 16.6855726,0 L13.129812,0 C12.2833863,0 11.5948718,0.68851453 11.5948718,1.53494017 L11.5948718,4.32433504 C11.5948718,4.77267009 11.3480667,5.14204957 10.9339641,5.3137641 C10.5209658,5.48658291 10.0836735,5.39768889 9.76674701,5.08131453 L7.79506667,3.10963419 C7.2142188,2.52878632 6.20325641,2.5298906 5.62351282,3.10963419 L3.10963419,5.62351282 C2.81976239,5.91338462 2.66019487,6.29932821 2.66019487,6.70956581 C2.66019487,7.11925128 2.81976239,7.50464274 3.10963419,7.79506667 L5.08186667,9.76674701 C5.39824103,10.0836735 5.4849265,10.5198615 5.3137641,10.9339641 C5.14260171,11.3480667 4.77267009,11.5948718 4.32433504,11.5948718 L1.53494017,11.5948718 C0.68851453,11.5948718 0,12.2833863 0,13.129812 L0,16.6850205 C0,17.5319983 0.68851453,18.2205128 1.53494017,18.2205128 L4.32433504,18.2205128 C4.77267009,18.2205128 5.14204957,18.4673179 5.3137641,18.8814205 C5.48547863,19.2955231 5.39824103,19.7317111 5.08186667,20.0486376 L3.10963419,22.0203179 C2.81976239,22.3101897 2.66019487,22.6961333 2.66019487,23.1058188 C2.66019487,23.5160564 2.81976239,23.9014479 3.10963419,24.1918718 L5.62351282,26.7057504 C6.20380855,27.2860462 7.2142188,27.2871504 7.79506667,26.7057504 L9.76674701,24.7335179 C10.0836735,24.4171436 10.5193094,24.329906 10.9339641,24.5016205 C11.3480667,24.673335 11.5948718,25.0427145 11.5948718,25.4910496 L11.5948718,28.2804444 C11.5948718,29.1268701 12.2833863,29.8153846 13.129812,29.8153846 L16.6850205,29.8153846 C17.5314462,29.8153846 18.2199607,29.1268701 18.2199607,28.2804444 L18.2199607,25.4910496 C18.2199607,25.0427145 18.4667658,24.673335 18.8808684,24.5016205 C19.2955231,24.3293538 19.731159,24.4171436 20.0480855,24.7335179 L22.0197658,26.7057504 C22.6006137,27.2865983 23.6115761,27.285494 24.1913197,26.7057504 L26.7051983,24.1918718 C26.9950701,23.902 27.1546376,23.5160564 27.1546376,23.1058188 C27.1546376,22.6961333 26.9950701,22.3107419 26.7051983,22.0203179 L24.7329658,20.0486376 C24.4165915,19.7317111 24.329906,19.2955231 24.5010684,18.8814205 C24.6722308,18.4673179 25.0427145,18.2205128 25.4910496,18.2205128 L28.2804444,18.2205128 C29.1268701,18.2205128 29.8153846,17.5319983 29.8153846,16.6855726 L29.8153846,13.129812 C29.8153846,12.2833863 29.1268701,11.5948718 28.2804444,11.5948718 Z" id="Shape"></path>
                                <path d="M14.9076923,9.93846154 C12.1674376,9.93846154 9.93846154,12.1674376 9.93846154,14.9076923 C9.93846154,17.647947 12.1674376,19.8769231 14.9076923,19.8769231 C17.647947,19.8769231 19.8769231,17.647947 19.8769231,14.9076923 C19.8769231,12.1674376 17.647947,9.93846154 14.9076923,9.93846154 Z" id="Shape"></path>
                            </g>
                        </g>
                        <g id="Group-46" transform="translate(37.269231, 42.238462)" fill="#494342">
                            <polygon id="Fill-236" points="17.3176596 14.9076923 24.8461538 7.4569098 17.3176596 0 16.4422244 0.870074931 22.476164 6.84418097 2.66453526e-15 6.84418097 2.66453526e-15 8.06963862 22.476164 8.06963862 16.4422244 14.0376174"></polygon>
                        </g>
                    </g>
                </g>
            </g>
            <text id="Precision-Issue?" font-family="Lato-Bold, Lato" font-size="16" font-weight="bold" letter-spacing="0.0407999982" fill="#FFFFFF">
                <tspan x="235.887271" y="340">Precision </tspan>
                <tspan x="246.960471" y="359">Issue?</tspan>
            </text>
            <text id="Provide-Input" font-family="Lato-Bold, Lato" font-size="16" font-weight="bold" letter-spacing="0.0407999982" fill="#FFFFFF">
                <tspan x="396.052651" y="340">Provide </tspan>
                <tspan x="404.529451" y="359">Input</tspan>
            </text>
            <text id="Further-Training" font-family="Lato-Bold, Lato" font-size="16" font-weight="bold" letter-spacing="0.0407999982" fill="#FFFFFF">
                <tspan x="554.869231" y="340">Further </tspan>
                <tspan x="552.872831" y="359">Training</tspan>
            </text>
            <path id="Stroke-1" d="M208.02535,251.926529 C208.136477,251.926529 208.246077,251.951324 208.345472,251.99895 L208.345472,251.99895 L218.913689,257.062888 C219.267285,257.232319 219.410608,257.644373 219.23381,257.983237 C219.164545,258.115994 219.052218,258.223641 218.913689,258.29002 L218.913689,258.29002 L208.345472,263.353957 C207.991875,263.523388 207.561906,263.386037 207.385108,263.047174 C207.33541,262.951921 207.309537,262.846887 207.309537,262.740391 L207.309537,262.740391 L207.309,258.426 L165.79829,258.426529 L165.79829,256.926529 L207.309,256.926 L207.309537,252.612516 C207.309537,252.265228 207.57883,251.978215 207.928219,251.932791 Z" fill="#FFFFFF" fill-rule="nonzero"></path>
            <path id="Stroke-1" d="M101.85913,163 L101.859,172.902 L106.173142,172.90204 C106.520431,172.90204 106.807444,173.171333 106.852867,173.520722 L106.85913,173.617853 C106.85913,173.72898 106.834334,173.83858 106.786708,173.937975 L106.786708,173.937975 L101.722771,184.506192 C101.553339,184.859788 101.141285,185.003111 100.802422,184.826313 C100.669664,184.757048 100.562017,184.644721 100.495639,184.506192 L100.495639,184.506192 L95.4317014,173.937975 C95.2622699,173.584378 95.3996213,173.154409 95.7384844,172.977611 C95.8337375,172.927913 95.9387712,172.90204 96.0452674,172.90204 L96.0452674,172.90204 L100.359,172.902 L100.35913,163 L101.85913,163 Z" fill="#FFFFFF" fill-rule="nonzero"></path>
            <path id="Stroke-1" d="M101.85913,358 L101.859,367.902 L106.173142,367.90204 C106.520431,367.90204 106.807444,368.171333 106.852867,368.520722 L106.85913,368.617853 C106.85913,368.72898 106.834334,368.83858 106.786708,368.937975 L106.786708,368.937975 L101.722771,379.506192 C101.553339,379.859788 101.141285,380.003111 100.802422,379.826313 C100.669664,379.757048 100.562017,379.644721 100.495639,379.506192 L100.495639,379.506192 L95.4317014,368.937975 C95.2622699,368.584378 95.3996213,368.154409 95.7384844,367.977611 C95.8337375,367.927913 95.9387712,367.90204 96.0452674,367.90204 L96.0452674,367.90204 L100.359,367.902 L100.35913,358 L101.85913,358 Z" fill="#FFFFFF" fill-rule="nonzero"></path>
            <path id="Stroke-1-Copy" d="M361.75848,251.926529 C361.869606,251.926529 361.979207,251.951324 362.078601,251.99895 L362.078601,251.99895 L372.646818,257.062888 C373.000414,257.232319 373.143738,257.644373 372.966939,257.983237 C372.897675,258.115994 372.785348,258.223641 372.646818,258.29002 L372.646818,258.29002 L362.078601,263.353957 C361.725005,263.523388 361.295035,263.386037 361.118237,263.047174 C361.06854,262.951921 361.042667,262.846887 361.042667,262.740391 L361.042667,262.740391 L361.042,258.426 L319.53142,258.426529 L319.53142,256.926529 L361.042,256.926 L361.042667,252.612516 C361.042667,252.265228 361.311959,251.978215 361.661348,251.932791 Z" fill="#FFFFFF" fill-rule="nonzero"></path>
            <path id="Stroke-1-Copy-2" d="M517.447641,251.926529 C517.558767,251.926529 517.668367,251.951324 517.767762,251.99895 L517.767762,251.99895 L528.335979,257.062888 C528.689575,257.232319 528.832898,257.644373 528.6561,257.983237 C528.586835,258.115994 528.474508,258.223641 528.335979,258.29002 L528.335979,258.29002 L517.767762,263.353957 C517.414166,263.523388 516.984196,263.386037 516.807398,263.047174 C516.757701,262.951921 516.731827,262.846887 516.731827,262.740391 L516.731827,262.740391 L516.731,258.426 L475.22058,258.426529 L475.22058,256.926529 L516.731,256.926 L516.731827,252.612516 C516.731827,252.265228 517.00112,251.978215 517.350509,251.932791 Z" fill="#FFFFFF" fill-rule="nonzero"></path>
            <path id="Stroke-1-Copy-2" d="M580.274339,186.063234 L580.274339,190.063234 L578.774339,190.063234 L578.774339,186.063234 L580.274339,186.063234 Z M580.274339,178.063234 L580.274339,182.063234 L578.774339,182.063234 L578.774339,178.063234 L580.274339,178.063234 Z M580.274339,170.063234 L580.274339,174.063234 L578.774339,174.063234 L578.774339,170.063234 L580.274339,170.063234 Z M580.274339,162.063234 L580.274339,166.063234 L578.774339,166.063234 L578.774339,162.063234 L580.274339,162.063234 Z M580.274339,154.063234 L580.274339,158.063234 L578.774339,158.063234 L578.774339,154.063234 L580.274339,154.063234 Z M580.274339,146.063234 L580.274339,150.063234 L578.774339,150.063234 L578.774339,146.063234 L580.274339,146.063234 Z M580.274339,138.063234 L580.274339,142.063234 L578.774339,142.063234 L578.774339,138.063234 L580.274339,138.063234 Z M580.274339,130.063234 L580.274339,134.063234 L578.774339,134.063234 L578.774339,130.063234 L580.274339,130.063234 Z M580.274339,122.063234 L580.274339,126.063234 L578.774339,126.063234 L578.774339,122.063234 L580.274339,122.063234 Z M580.274339,114.063234 L580.274339,118.063234 L578.774339,118.063234 L578.774339,114.063234 L580.274339,114.063234 Z M580.274339,106.063234 L580.274339,110.063234 L578.774339,110.063234 L578.774339,106.063234 L580.274339,106.063234 Z M580.274339,98.0632341 L580.274339,102.063234 L578.774339,102.063234 L578.774339,98.0632341 L580.274339,98.0632341 Z M580.274339,90.0632341 L580.274339,94.0632341 L578.774339,94.0632341 L578.774339,90.0632341 L580.274339,90.0632341 Z M580.274339,82.0632341 L580.274339,86.0632341 L578.774339,86.0632341 L578.774339,82.0632341 L580.274339,82.0632341 Z M580.274339,74.0632341 L580.274339,78.0632341 L578.774339,78.0632341 L578.774339,74.0632341 L580.274339,74.0632341 Z M580.274339,66.0632341 L580.274339,70.0632341 L578.774339,70.0632341 L578.774339,66.0632341 L580.274339,66.0632341 Z M176.41581,55.4559495 C176.811143,55.4559495 177.131624,55.7630766 177.131624,56.1419371 L177.131624,56.1419371 L177.131,60.455 L180.381624,60.4559495 L180.381624,61.9559495 L177.131,61.955 L177.131624,66.2698116 C177.131624,66.3408091 177.120124,66.4111565 177.097733,66.4783894 L177.056053,66.5765946 C176.879255,66.9154577 176.449285,67.0528092 176.095689,66.8833776 L176.095689,66.8833776 L165.527472,61.8194403 C165.388943,61.7530616 165.276615,61.6454148 165.207351,61.5126574 C165.030553,61.1737942 165.173876,60.76174 165.527472,60.5923084 L165.527472,60.5923084 L176.095689,55.5283711 C176.195084,55.4807446 176.304684,55.4559495 176.41581,55.4559495 Z M579.524339,60.4559495 C579.938553,60.4559495 580.274339,60.7917359 580.274339,61.2059495 L580.274339,61.2059495 L580.274339,62.0632341 L578.774339,62.0632341 L578.774339,61.9559495 L576.381624,61.9559495 L576.381624,60.4559495 Z M316.381624,60.4559495 L316.381624,61.9559495 L312.381624,61.9559495 L312.381624,60.4559495 L316.381624,60.4559495 Z M324.381624,60.4559495 L324.381624,61.9559495 L320.381624,61.9559495 L320.381624,60.4559495 L324.381624,60.4559495 Z M332.381624,60.4559495 L332.381624,61.9559495 L328.381624,61.9559495 L328.381624,60.4559495 L332.381624,60.4559495 Z M340.381624,60.4559495 L340.381624,61.9559495 L336.381624,61.9559495 L336.381624,60.4559495 L340.381624,60.4559495 Z M348.381624,60.4559495 L348.381624,61.9559495 L344.381624,61.9559495 L344.381624,60.4559495 L348.381624,60.4559495 Z M356.381624,60.4559495 L356.381624,61.9559495 L352.381624,61.9559495 L352.381624,60.4559495 L356.381624,60.4559495 Z M364.381624,60.4559495 L364.381624,61.9559495 L360.381624,61.9559495 L360.381624,60.4559495 L364.381624,60.4559495 Z M372.381624,60.4559495 L372.381624,61.9559495 L368.381624,61.9559495 L368.381624,60.4559495 L372.381624,60.4559495 Z M380.381624,60.4559495 L380.381624,61.9559495 L376.381624,61.9559495 L376.381624,60.4559495 L380.381624,60.4559495 Z M388.381624,60.4559495 L388.381624,61.9559495 L384.381624,61.9559495 L384.381624,60.4559495 L388.381624,60.4559495 Z M396.381624,60.4559495 L396.381624,61.9559495 L392.381624,61.9559495 L392.381624,60.4559495 L396.381624,60.4559495 Z M404.381624,60.4559495 L404.381624,61.9559495 L400.381624,61.9559495 L400.381624,60.4559495 L404.381624,60.4559495 Z M412.381624,60.4559495 L412.381624,61.9559495 L408.381624,61.9559495 L408.381624,60.4559495 L412.381624,60.4559495 Z M420.381624,60.4559495 L420.381624,61.9559495 L416.381624,61.9559495 L416.381624,60.4559495 L420.381624,60.4559495 Z M428.381624,60.4559495 L428.381624,61.9559495 L424.381624,61.9559495 L424.381624,60.4559495 L428.381624,60.4559495 Z M436.381624,60.4559495 L436.381624,61.9559495 L432.381624,61.9559495 L432.381624,60.4559495 L436.381624,60.4559495 Z M452.381624,60.4559495 L452.381624,61.9559495 L448.381624,61.9559495 L448.381624,60.4559495 L452.381624,60.4559495 Z M460.381624,60.4559495 L460.381624,61.9559495 L456.381624,61.9559495 L456.381624,60.4559495 L460.381624,60.4559495 Z M468.381624,60.4559495 L468.381624,61.9559495 L464.381624,61.9559495 L464.381624,60.4559495 L468.381624,60.4559495 Z M476.381624,60.4559495 L476.381624,61.9559495 L472.381624,61.9559495 L472.381624,60.4559495 L476.381624,60.4559495 Z M484.381624,60.4559495 L484.381624,61.9559495 L480.381624,61.9559495 L480.381624,60.4559495 L484.381624,60.4559495 Z M492.381624,60.4559495 L492.381624,61.9559495 L488.381624,61.9559495 L488.381624,60.4559495 L492.381624,60.4559495 Z M500.381624,60.4559495 L500.381624,61.9559495 L496.381624,61.9559495 L496.381624,60.4559495 L500.381624,60.4559495 Z M508.381624,60.4559495 L508.381624,61.9559495 L504.381624,61.9559495 L504.381624,60.4559495 L508.381624,60.4559495 Z M516.381624,60.4559495 L516.381624,61.9559495 L512.381624,61.9559495 L512.381624,60.4559495 L516.381624,60.4559495 Z M524.381624,60.4559495 L524.381624,61.9559495 L520.381624,61.9559495 L520.381624,60.4559495 L524.381624,60.4559495 Z M532.381624,60.4559495 L532.381624,61.9559495 L528.381624,61.9559495 L528.381624,60.4559495 L532.381624,60.4559495 Z M540.381624,60.4559495 L540.381624,61.9559495 L536.381624,61.9559495 L536.381624,60.4559495 L540.381624,60.4559495 Z M548.381624,60.4559495 L548.381624,61.9559495 L544.381624,61.9559495 L544.381624,60.4559495 L548.381624,60.4559495 Z M556.381624,60.4559495 L556.381624,61.9559495 L552.381624,61.9559495 L552.381624,60.4559495 L556.381624,60.4559495 Z M564.381624,60.4559495 L564.381624,61.9559495 L560.381624,61.9559495 L560.381624,60.4559495 L564.381624,60.4559495 Z M572.381624,60.4559495 L572.381624,61.9559495 L568.381624,61.9559495 L568.381624,60.4559495 L572.381624,60.4559495 Z M308.381624,60.4559495 L308.381624,61.9559495 L304.381624,61.9559495 L304.381624,60.4559495 L308.381624,60.4559495 Z M300.381624,60.4559495 L300.381624,61.9559495 L296.381624,61.9559495 L296.381624,60.4559495 L300.381624,60.4559495 Z M292.381624,60.4559495 L292.381624,61.9559495 L288.381624,61.9559495 L288.381624,60.4559495 L292.381624,60.4559495 Z M284.381624,60.4559495 L284.381624,61.9559495 L280.381624,61.9559495 L280.381624,60.4559495 L284.381624,60.4559495 Z M276.381624,60.4559495 L276.381624,61.9559495 L272.381624,61.9559495 L272.381624,60.4559495 L276.381624,60.4559495 Z M268.381624,60.4559495 L268.381624,61.9559495 L264.381624,61.9559495 L264.381624,60.4559495 L268.381624,60.4559495 Z M260.381624,60.4559495 L260.381624,61.9559495 L256.381624,61.9559495 L256.381624,60.4559495 L260.381624,60.4559495 Z M252.381624,60.4559495 L252.381624,61.9559495 L248.381624,61.9559495 L248.381624,60.4559495 L252.381624,60.4559495 Z M244.381624,60.4559495 L244.381624,61.9559495 L240.381624,61.9559495 L240.381624,60.4559495 L244.381624,60.4559495 Z M236.381624,60.4559495 L236.381624,61.9559495 L232.381624,61.9559495 L232.381624,60.4559495 L236.381624,60.4559495 Z M228.381624,60.4559495 L228.381624,61.9559495 L224.381624,61.9559495 L224.381624,60.4559495 L228.381624,60.4559495 Z M220.381624,60.4559495 L220.381624,61.9559495 L216.381624,61.9559495 L216.381624,60.4559495 L220.381624,60.4559495 Z M212.381624,60.4559495 L212.381624,61.9559495 L208.381624,61.9559495 L208.381624,60.4559495 L212.381624,60.4559495 Z M204.381624,60.4559495 L204.381624,61.9559495 L200.381624,61.9559495 L200.381624,60.4559495 L204.381624,60.4559495 Z M196.381624,60.4559495 L196.381624,61.9559495 L192.381624,61.9559495 L192.381624,60.4559495 L196.381624,60.4559495 Z M188.381624,60.4559495 L188.381624,61.9559495 L184.381624,61.9559495 L184.381624,60.4559495 L188.381624,60.4559495 Z M444.381624,60.4559495 L444.381624,61.9559495 L440.381624,61.9559495 L440.381624,60.4559495 L444.381624,60.4559495 Z" fill="#FFFFFF" fill-rule="nonzero"></path>
            <path id="Path-18" d="M264.503982,372.294209 L264.503982,450.294209 C264.503982,450.708423 264.168195,451.044209 263.753982,451.044209 L263.753982,451.044209 L177.131,451.044 L177.131624,455.358071 C177.131624,455.429069 177.120124,455.499416 177.097733,455.566649 L177.056053,455.664854 C176.879255,456.003718 176.449285,456.141069 176.095689,455.971637 L176.095689,455.971637 L165.527472,450.9077 C165.388943,450.841321 165.276615,450.733675 165.207351,450.600917 C165.030553,450.262054 165.173876,449.85 165.527472,449.680568 L165.527472,449.680568 L176.095689,444.616631 C176.195084,444.569004 176.304684,444.544209 176.41581,444.544209 C176.811143,444.544209 177.131624,444.851336 177.131624,445.230197 L177.131624,445.230197 L177.131,449.544 L263.003982,449.544209 L263.003982,372.294209 L264.503982,372.294209 Z" fill="#FFFFFF" fill-rule="nonzero"></path>
            <text id="NO" font-family="Lato-Bold, Lato" font-size="20" font-weight="bold" letter-spacing="0.008" fill="#FFFFFF">
                <tspan x="221.642871" y="435.294209">NO</tspan>
            </text>
            <text id="YES" font-family="Lato-Bold, Lato" font-size="20" font-weight="bold" letter-spacing="0.04" fill="#FFFFFF">
                <tspan x="323.642871" y="243.382319">Y</tspan>
                <tspan x="336.642871" y="243.382319">ES</tspan>
            </text>
        </g>
    </g>
</svg>