<?xml version="1.0" encoding="UTF-8"?>
<svg width="500px" height="700px" viewBox="0 0 500 700" version="1.1" xmlns="http://www.w3.org/2000/svg" xmlns:xlink="http://www.w3.org/1999/xlink">
    <!-- Generator: Sketch 59.1 (86144) - https://sketch.com -->
    <title>Slide11_Left</title>
    <desc>Created with Sketch.</desc>
    <g id="Slide11_Left" stroke="none" stroke-width="1" fill="none" fill-rule="evenodd">
        <rect id="Rectangle" fill-opacity="0" fill="#FFFFFF" x="0" y="0" width="500" height="700"></rect>
        <path d="M317.367153,592.061796 C319.877649,592.061796 321.912808,594.096955 321.912808,596.607451 L321.912808,611.641161 C321.912808,614.151656 319.877649,616.186815 317.367153,616.186815 L244.043517,616.186815 C241.533021,616.186815 239.497862,614.151656 239.497862,611.641161 L239.497862,596.607451 C239.497862,594.096955 241.533021,592.061796 244.043517,592.061796 L317.367153,592.061796 Z M280.705335,598.424755 C277.55756,598.424755 275.005785,600.976531 275.005785,604.124306 C275.005785,607.27208 277.55756,609.823856 280.705335,609.823856 C283.85311,609.823856 286.404885,607.27208 286.404885,604.124306 C286.404885,600.976531 283.85311,598.424755 280.705335,598.424755 Z M259.000722,598.424755 C255.852948,598.424755 253.301172,600.976531 253.301172,604.124306 C253.301172,607.27208 255.852948,609.823856 259.000722,609.823856 C262.148497,609.823856 264.700272,607.27208 264.700272,604.124306 C264.700272,600.976531 262.148497,598.424755 259.000722,598.424755 Z M301.80679,598.424755 C298.659015,598.424755 296.10724,600.976531 296.10724,604.124306 C296.10724,607.27208 298.659015,609.823856 301.80679,609.823856 C304.954565,609.823856 307.50634,607.27208 307.50634,604.124306 C307.50634,600.976531 304.954565,598.424755 301.80679,598.424755 Z M241.058096,517.82202 L246.195255,516.489082 C249.148106,527.869396 246.877861,535.067938 239.259341,536.422531 L239.25945,548.134283 L253.301172,548.134283 L253.301172,538.3043 L307.50634,538.3043 L307.505951,546.507815 L324.566443,546.508153 L324.566503,565.670747 C332.572728,566.803415 335.001944,574.063211 331.987349,585.68149 L326.85019,584.348551 C329.388725,574.565014 327.79295,570.822347 322.235943,570.822347 C316.485823,570.822347 314.676173,574.104871 316.523781,582.676182 L311.335674,583.794516 C309.126707,573.546813 311.8343,567.063915 319.258969,565.758972 L319.259172,551.815424 L307.505951,551.814815 L307.50634,584.740976 L253.301172,584.740976 L253.301172,553.441553 L233.952179,553.441553 L233.951697,536.488488 C226.259376,535.39733 223.360716,529.008499 225.46036,518.771674 L225.54358,518.376056 L230.731687,519.49439 C228.884079,528.065701 230.693729,531.348225 236.443849,531.348225 C241.926762,531.348225 243.553373,527.704697 241.157433,518.210145 L241.058096,517.82202 L246.195255,516.489082 Z M273.958901,541.712145 L266.518706,558.244789 L261.789437,558.244789 L261.789437,560.898424 L268.23446,560.898424 L273.181352,549.906079 L278.962685,574.196709 L286.294272,556.180334 L290.109036,566.234808 L295.278276,560.898424 L301.632839,560.898424 L301.632839,558.244789 L294.154292,558.244789 L291.108664,561.388896 L286.380743,548.927636 L279.626553,565.525136 L273.958901,541.712145 Z M281.730574,489.854074 L281.730574,498.058576 L299.632839,498.058576 C300.737409,498.058576 301.632839,498.954006 301.632839,500.058576 L301.632839,529.913159 C301.632839,531.017728 300.737409,531.913159 299.632839,531.913159 L261.174673,531.913159 C260.070103,531.913159 259.174673,531.017728 259.174673,529.913159 L259.174673,500.058576 C259.174673,498.954006 260.070103,498.058576 261.174673,498.058576 L279.076938,498.058576 L279.076938,489.854074 L281.730574,489.854074 Z M271.116032,506.703622 C268.184907,506.703622 265.808761,509.079768 265.808761,512.010893 C265.808761,514.942018 268.184907,517.318164 271.116032,517.318164 C274.047157,517.318164 276.423303,514.942018 276.423303,512.010893 C276.423303,509.079768 274.047157,506.703622 271.116032,506.703622 Z M291.175728,506.703622 C288.244603,506.703622 285.868457,509.079768 285.868457,512.010893 C285.868457,514.942018 288.244603,517.318164 291.175728,517.318164 C294.106853,517.318164 296.482999,514.942018 296.482999,512.010893 C296.482999,509.079768 294.106853,506.703622 291.175728,506.703622 Z M271.116032,509.357258 C272.581594,509.357258 273.769668,510.545331 273.769668,512.010893 C273.769668,513.476455 272.581594,514.664528 271.116032,514.664528 C269.65047,514.664528 268.462397,513.476455 268.462397,512.010893 C268.462397,510.545331 269.65047,509.357258 271.116032,509.357258 Z M291.175728,509.357258 C292.64129,509.357258 293.829363,510.545331 293.829363,512.010893 C293.829363,513.476455 292.64129,514.664528 291.175728,514.664528 C289.710165,514.664528 288.522092,513.476455 288.522092,512.010893 C288.522092,510.545331 289.710165,509.357258 291.175728,509.357258 Z M280.403756,476.186815 C284.177865,476.186815 287.237386,479.246335 287.237386,483.020444 C287.237386,486.794554 284.177865,489.854074 280.403756,489.854074 C276.629647,489.854074 273.570127,486.794554 273.570127,483.020444 C273.570127,479.246335 276.629647,476.186815 280.403756,476.186815 Z" id="Combined-Shape" fill="#AA52A5"></path>
        <g id="Group-59" transform="translate(302.134613, 578.186815)">
            <g id="Group-11">
                <g id="technical-support-copy">
                    <path d="M23.3862018,0.263157895 C23.9850402,0.263157895 24.470379,0.748496503 24.470379,1.34733501 L24.470379,1.34733501 L24.470379,3.42971736 C25.8959024,3.81341448 27.258747,4.37837234 28.5394312,5.11612104 L28.5394312,5.11612104 L30.0115404,3.64358832 C30.4350471,3.22008163 31.1215514,3.22008163 31.5446346,3.64316473 L31.5446346,3.64316473 L36.3400009,8.43471944 C36.5432841,8.63800265 36.6576308,8.91412901 36.6580543,9.20168997 C36.6580543,9.48925103 36.5437076,9.76537739 36.3404244,9.9686606 L36.3404244,9.9686606 L34.8661976,11.4428875 C35.6039462,12.7235717 36.1684806,14.0864161 36.5521777,15.5115161 L36.5521777,15.5115161 L38.6464182,15.5115161 C39.2452566,15.5115161 39.7305954,15.9968548 39.7305954,16.5956932 L39.7305954,16.5956932 L39.7305954,23.3747648 C39.7305954,23.9736032 39.2452566,24.4589419 38.6464182,24.4589419 L38.6464182,24.4589419 L36.5526012,24.4589419 C36.1689041,25.8844654 35.6039462,27.2473099 34.8661976,28.5279942 L34.8661976,28.5279942 L36.3484709,30.0102676 C36.7715541,30.4333508 36.7715541,31.1198551 36.3484709,31.5433618 L36.3484709,31.5433618 L31.5569163,36.3383045 C31.3536331,36.5420112 31.0775067,36.656358 30.7903693,36.656358 C30.5023847,36.656358 30.2266818,36.5420112 30.0233986,36.338728 L30.0233986,36.338728 L28.5394312,34.8547606 C27.258747,35.5925092 25.8959024,36.1574671 24.470379,36.5411641 L24.470379,36.5411641 L24.470379,38.6430279 C24.470379,39.2418664 23.9850402,39.727205 23.3862018,39.727205 L23.3862018,39.727205 L16.6071303,39.727205 C16.0087154,39.727205 15.5229532,39.2418664 15.5229532,38.6430279 L15.5229532,38.6430279 L15.5229532,36.5411641 C14.0978532,36.1574671 12.7350086,35.5925092 11.4539009,34.8547606 L11.4539009,34.8547606 L9.97035697,36.338728 C9.76707376,36.5420112 9.49137088,36.656358 9.20380992,36.656358 L9.20380992,36.656358 L9.08104849,36.6494078 C8.83853107,36.6217601 8.61108203,36.5125473 8.43683928,36.3383045 L8.43683928,36.3383045 L3.64528469,31.5433618 C3.221778,31.1198551 3.22220148,30.4333508 3.64528469,30.0102676 L3.64528469,30.0102676 L5.12755798,28.5279942 C4.38980939,27.2473099 3.82485152,25.8844654 3.44115441,24.4589419 L3.44115441,24.4589419 L1.34733735,24.4589419 C1.0593528,24.4589419 0.783649923,24.3445952 0.580366714,24.141312 C0.377083504,23.9380287 0.262736753,23.6619023 0.26315906,23.3743413 L0.26315906,23.3743413 L0.266971766,16.5952698 C0.266971766,15.9968548 0.752310483,15.5115161 1.35114888,15.5115161 L1.35114888,15.5115161 L3.44115441,15.5115161 C3.82485152,14.0859927 4.38980939,12.7235717 5.12755798,11.4428875 L5.12755798,11.4428875 L3.65333123,9.9686606 C3.45004802,9.76537739 3.33570127,9.48925103 3.33570127,9.20168997 C3.33570127,8.91412901 3.45004802,8.63842613 3.65375471,8.43514292 L3.65375471,8.43514292 L8.44869747,3.64316473 C8.87220416,3.22008163 9.55870847,3.22050511 9.98179168,3.64358832 L9.98179168,3.64358832 L11.4543244,5.11612104 C12.7350086,4.37837234 14.0978532,3.81341448 15.5229532,3.43014095 L15.5229532,3.43014095 L15.5229532,1.34733501 C15.5229532,0.748496503 16.0087154,0.263157895 16.6071303,0.263157895 L16.6071303,0.263157895 Z" id="Combined-Shape" stroke="#494342" stroke-width="1.5" fill="#494342" stroke-linecap="round" stroke-linejoin="round"></path>
                    <path d="M20.0249051,7.69068148 C17.707873,7.69068148 15.6151013,8.23203736 13.746527,9.31476537 C11.8779527,10.3974934 10.4018012,11.8747526 9.31802815,13.7465875 C8.23425508,15.6184224 7.69237667,17.7104417 7.69237667,20.0227083 C7.69237667,22.3349749 8.23425508,24.4269942 9.31802815,26.2988291 C10.4018012,28.1706639 11.8779527,29.6387477 13.746527,30.7031243 C15.6151013,31.767501 17.707873,32.2996814 20.0249051,32.2996814 C22.3419372,32.2996814 24.434709,31.767501 26.3032832,30.7031243 C28.1718575,29.6387477 29.6386663,28.1706639 30.7037536,26.2988291 C31.7688409,24.4269942 32.3013766,22.3349749 32.3013766,20.0227083 C32.3013766,17.7104417 31.7688409,15.6184224 30.7037536,13.7465875 C29.6386663,11.8747526 28.1718575,10.3974934 26.3032832,9.31476537 C24.434709,8.23203736 22.3419372,7.69068148 20.0249051,7.69068148 Z" id="Path-Copy-15" fill="#1E81C1"></path>
                </g>
            </g>
            <path d="M17.4111475,21.1436066 L16.2308197,18.0852459 C16.1958468,17.9943165 16.1591259,17.8885252 16.1206557,17.7678689 C16.0821856,17.6472125 16.0454647,17.5186892 16.0104918,17.3822951 C15.9517374,17.6089192 15.8918646,17.8053244 15.8308722,17.9715145 L14.6045902,21.1436066 L17.4111475,21.1436066 Z M19.5304918,23.9344262 L18.7436066,23.9344262 C18.6526771,23.9344262 18.5792353,23.9116942 18.5232787,23.8662295 C18.4673221,23.8207648 18.4253553,23.7630605 18.397377,23.6931148 L17.6944262,21.8780328 L14.3213115,21.8780328 L13.6183607,23.6931148 C13.5973769,23.7560659 13.5571588,23.8120216 13.4977049,23.8609836 C13.4382511,23.9099456 13.3648092,23.9344262 13.277377,23.9344262 L12.4904918,23.9344262 L15.4963934,16.4170492 L16.5245902,16.4170492 L19.5304918,23.9344262 Z M22.7409836,20.3147541 C23.0312583,20.3147541 23.2874306,20.2762845 23.5095082,20.1993443 C23.7315858,20.122404 23.9186878,20.0148641 24.0708197,19.8767213 C24.2229516,19.7385785 24.337486,19.5733343 24.4144262,19.3809836 C24.4913665,19.1886329 24.5298361,18.9770503 24.5298361,18.7462295 C24.5298361,18.2671014 24.382078,17.8928975 24.0865574,17.6236066 C23.7910368,17.3543156 23.3425167,17.2196721 22.7409836,17.2196721 L21.5344262,17.2196721 L21.5344262,20.3147541 L22.7409836,20.3147541 Z M22.7409836,16.4170492 C23.2166144,16.4170492 23.6301622,16.4721306 23.9816393,16.5822951 C24.3331165,16.6924596 24.6242611,16.8489607 24.855082,17.0518033 C25.0859028,17.2546458 25.2581415,17.4994521 25.3718033,17.7862295 C25.485465,18.0730069 25.5422951,18.3930037 25.5422951,18.7462295 C25.5422951,19.095958 25.4810935,19.4159548 25.3586885,19.7062295 C25.2362835,19.9965042 25.0570504,20.2465563 24.8209836,20.4563934 C24.5849169,20.6662306 24.2928979,20.8297262 23.944918,20.9468852 C23.5969382,21.0640443 23.1956307,21.122623 22.7409836,21.122623 L21.5344262,21.122623 L21.5344262,23.9344262 L20.5219672,23.9344262 L20.5219672,16.4170492 L22.7409836,16.4170492 Z M27.84,23.9344262 L26.8222951,23.9344262 L26.8222951,16.4170492 L27.84,16.4170492 L27.84,23.9344262 Z" id="API" fill="#FFFFFF" fill-rule="nonzero"></path>
        </g>
        <polygon id="Triangle" fill="#494342" transform="translate(459.112152, 652.000000) rotate(90.000000) translate(-459.112152, -652.000000) " points="459.112152 642.522461 468.589691 661.477539 449.634613 661.477539"></polygon>
        <g id="Group-50" transform="translate(104.597500, 367.253670)">
            <g id="Group-49">
                <g id="Group-60" transform="translate(0.097500, 55.803719)">
                    <g id="Group-57">
                        <g id="Group-11" fill="#FFFFFF" stroke="#494342" stroke-linecap="round" stroke-linejoin="round" stroke-width="1.5">
                            <g id="technical-support-copy">
                                <path d="M41.0104013,0.00854492188 C42.0723414,0.00854492188 42.9330087,0.869212054 42.9330087,1.93115234 L42.9330087,1.93115234 L42.9330087,5.62391038 C45.460937,6.30433326 47.8777147,7.30619187 50.1487947,8.61446624 L50.1487947,8.61446624 L52.7593351,6.00317488 C53.5103536,5.25215635 54.7277546,5.25215635 55.4780221,6.00242372 L55.4780221,6.00242372 L63.9818049,14.4994474 C64.3422938,14.8599363 64.5450687,15.3496004 64.5458197,15.8595418 C64.5458197,16.3694834 64.3430448,16.8591475 63.9825559,17.2196364 L63.9825559,17.2196364 L61.3682605,19.833932 C62.6765347,22.105012 63.6776423,24.5217896 64.3580652,27.0489668 L64.3580652,27.0489668 L68.0718517,27.0489668 C69.1337918,27.0489668 69.9944592,27.9096342 69.9944592,28.9715743 L69.9944592,28.9715743 L69.9944592,40.9931278 C69.9944592,42.0550679 69.1337918,42.9157352 68.0718517,42.9157352 L68.0718517,42.9157352 L64.3588161,42.9157352 C63.6783933,45.4436635 62.6765347,47.8604412 61.3682605,50.1315212 L61.3682605,50.1315212 L63.9968251,52.7600861 C64.7470927,53.5103536 64.7470927,54.7277546 63.9968251,55.4787731 L63.9968251,55.4787731 L55.4998016,63.9818049 C55.1393127,64.3430448 54.6496487,64.5458197 54.1404582,64.5458197 C53.6297656,64.5458197 53.1408525,64.3430448 52.7803636,63.9825559 L52.7803636,63.9825559 L50.1487947,61.350987 C47.8777147,62.6592612 45.460937,63.66112 42.9330087,64.3415427 L42.9330087,64.3415427 L42.9330087,68.0688477 C42.9330087,69.1307879 42.0723414,69.9914551 41.0104013,69.9914551 L41.0104013,69.9914551 L28.9888477,69.9914551 C27.9276586,69.9914551 27.0662403,69.1307879 27.0662403,68.0688477 L27.0662403,68.0688477 L27.0662403,64.3415427 C24.539063,63.66112 22.1222853,62.6592612 19.8504543,61.350987 L19.8504543,61.350987 L17.2196364,63.9825559 C16.8591475,64.3430448 16.3702344,64.5458197 15.860293,64.5458197 L15.860293,64.5458197 L15.6904875,64.5383456 C15.2425385,64.4986539 14.8206329,64.3022395 14.5001984,63.9818049 L14.5001984,63.9818049 L6.00317488,55.4787731 C5.25215635,54.7277546 5.25290732,53.5103536 6.00317488,52.7600861 L6.00317488,52.7600861 L8.63173952,50.1315212 C7.32346535,47.8604412 6.32160673,45.4436635 5.64118385,42.9157352 L5.64118385,42.9157352 L1.92814827,42.9157352 C1.41745567,42.9157352 0.928542566,42.7129603 0.568053674,42.3524714 C0.207564783,41.9919826 0.00478987732,41.5023183 0.00553876929,40.9923769 L0.00553876929,40.9923769 L0.0122999664,28.9708233 C0.0122999664,27.9096342 0.872967291,27.0489668 1.93490739,27.0489668 L1.93490739,27.0489668 L5.64118385,27.0489668 C6.32160673,24.5210386 7.32346535,22.105012 8.63173952,19.833932 L8.63173952,19.833932 L6.01744409,17.2196364 C5.65695519,16.8591475 5.45418029,16.3694834 5.45418029,15.8595418 C5.45418029,15.3496004 5.65695519,14.8606873 6.01819506,14.5001984 L6.01819506,14.5001984 L14.5212269,6.00242372 C15.2722454,5.25215635 16.4896464,5.25290732 17.2399139,6.00317488 L17.2399139,6.00317488 L19.8512053,8.61446624 C22.1222853,7.30619187 24.539063,6.30433326 27.0662403,5.62466154 L27.0662403,5.62466154 L27.0662403,1.93115234 C27.0662403,0.869212054 27.9276586,0.00854492188 28.9888477,0.00854492188 L28.9888477,0.00854492188 Z M35,19.1137052 C26.2401199,19.1137052 19.1137052,26.2401199 19.1137052,35 C19.1137052,43.7598801 26.2401199,50.8862948 35,50.8862948 C43.7598801,50.8862948 50.8862948,43.7598801 50.8862948,35 C50.8862948,26.2401199 43.7598801,19.1137052 35,19.1137052 Z" id="Combined-Shape"></path>
                            </g>
                        </g>
                        <g id="Group-48" transform="translate(73.992494, 31.775432)" stroke="#637381" stroke-linecap="round">
                            <line x1="-2.17603713e-13" y1="0.509259259" x2="13.5232205" y2="0.509259259" id="Path-15"></line>
                            <line x1="6.76161024" y1="5.90839495" x2="20.2848307" y2="5.90839495" id="Path-15-Copy"></line>
                            <line x1="2.5462963" y1="11.3075306" x2="16.0695168" y2="11.3075306" id="Path-15-Copy-2"></line>
                        </g>
                        <path d="M31.136,35.542 L29.6735,31.7525 L29.5839445,31.5026113 C29.5685371,31.4568706 29.552889,31.4090836 29.537,31.35925 C29.4893331,31.2097493 29.4438336,31.0505008 29.4005,30.8815 C29.3276996,31.1623014 29.2535135,31.4056598 29.1779401,31.6115797 L27.6585,35.542 L31.136,35.542 Z M33.762,39 L32.787,39 C32.6743328,39 32.5833337,38.9718336 32.514,38.9155 C32.4446663,38.8591664 32.3926668,38.7876671 32.358,38.701 L31.487,36.452 L27.3075,36.452 L26.4365,38.701 C26.4104999,38.7790004 26.360667,38.848333 26.287,38.909 C26.213333,38.969667 26.1223339,39 26.014,39 L25.039,39 L28.7635,29.6855 L30.0375,29.6855 L33.762,39 Z M37.74,34.515 C38.0996685,34.515 38.417082,34.4673338 38.69225,34.372 C38.967418,34.2766662 39.1992491,34.1434175 39.38775,33.97225 C39.5762509,33.8010825 39.7181662,33.5963345 39.8135,33.358 C39.9088338,33.1196655 39.9565,32.8575014 39.9565,32.5715 C39.9565,31.9778304 39.7734185,31.5141683 39.40725,31.1805 C39.0410815,30.8468317 38.4853371,30.68 37.74,30.68 L36.245,30.68 L36.245,34.515 L37.74,34.515 Z M37.74,29.6855 C38.3293363,29.6855 38.8417478,29.7537493 39.27725,29.89025 C39.7127522,30.0267507 40.0734986,30.2206654 40.3595,30.472 C40.6455014,30.7233346 40.858916,31.0266649 40.99975,31.382 C41.140584,31.7373351 41.211,32.1338311 41.211,32.5715 C41.211,33.0048355 41.1351674,33.4013315 40.9835,33.761 C40.8318326,34.1206685 40.6097515,34.4304987 40.31725,34.6905 C40.0247485,34.9505013 39.6629188,35.1530826 39.23175,35.29825 C38.8005812,35.4434174 38.3033361,35.516 37.74,35.516 L36.245,35.516 L36.245,39 L34.9905,39 L34.9905,29.6855 L37.74,29.6855 Z M44.058,39 L42.797,39 L42.797,29.6855 L44.058,29.6855 L44.058,39 Z" id="API" fill="#000000" fill-rule="nonzero"></path>
                        <g id="Group-Copy-9" opacity="0.6" transform="translate(103.000000, 20.196281)" fill="#637381">
                            <g id="Group-2">
                                <path d="M18.7232725,10.0909784 C17.4174212,10.0909784 16.2379602,10.3960801 15.1848543,11.0062925 C14.1317484,11.616505 13.2998072,12.4490705 12.6890057,13.504014 C12.0782043,14.5589576 11.7728082,15.7379945 11.7728082,17.0411601 C11.7728082,18.3443256 12.0782043,19.5233625 12.6890057,20.5783061 C13.2998072,21.6332496 14.1317484,22.4606439 15.1848543,23.0605138 C16.2379602,23.6603836 17.4174212,23.9603141 18.7232725,23.9603141 C20.0291238,23.9603141 21.2085848,23.6603836 22.2616907,23.0605138 C23.3147966,22.4606439 24.1414724,21.6332496 24.7417428,20.5783061 C25.3420131,19.5233625 25.6421438,18.3443256 25.6421438,17.0411601 C25.6421438,15.7379945 25.3420131,14.5589576 24.7417428,13.504014 C24.1414724,12.4490705 23.3147966,11.616505 22.2616907,11.0062925 C21.2085848,10.3960801 20.0291238,10.0909784 18.7232725,10.0909784 Z" id="Path-Copy-15"></path>
                                <path d="M3.47748881,20.5390576 L3.56337868,20.5373962 C3.89687906,22.0132775 4.44126938,23.4034542 5.19655318,24.70794 C6.54904207,27.0438864 8.39119759,28.8759738 10.723075,30.2042571 C13.0549524,31.5325404 15.6666159,32.196672 18.5581439,32.196672 C20.0206412,32.196672 21.4115435,32.0267735 22.7308609,31.6869739 C22.8277796,32.0280272 22.9656102,32.3524714 23.1439338,32.6604623 C23.2203362,32.7924203 23.3021208,32.9188401 23.3892878,33.0397218 C21.8601894,33.4682427 20.2478718,33.6826723 18.5532935,33.6826723 C15.3798356,33.6826723 12.5076985,32.9495744 9.93679594,31.4833565 C7.36589337,30.0171386 5.34736342,27.9986087 3.88114555,25.4277061 C2.97024446,23.8305097 2.34230037,22.1247999 1.99730802,20.3105563 C2.45970453,20.463713 2.95272161,20.5390576 3.47748881,20.5390576 Z M33.1651862,8.2549662 C34.6314041,10.8258688 35.364502,13.6980059 35.364502,16.8714638 C35.364502,20.0047513 34.6314041,22.8568035 33.1651862,25.4277061 C32.5498922,26.5065778 31.8373341,27.4881746 31.0275073,28.3725011 C30.9861349,28.2845516 30.9406544,28.1979964 30.8921219,28.1127031 C30.6868419,27.7519343 30.4403738,27.4316209 30.1527151,27.1517606 C30.8018673,26.4109656 31.3795283,25.5958521 31.8847566,24.70794 C33.2139267,22.3719936 33.8785018,19.761269 33.8785018,16.8756881 C33.8785018,13.9901072 33.2139267,11.3793827 31.8847566,9.04343626 C31.3934924,8.18006537 30.8337442,7.38396033 30.2055092,6.65511833 C30.4704198,6.39203882 30.6994187,6.08985231 30.8921219,5.75118664 C30.9625487,5.62741515 31.0265488,5.5009865 31.0841222,5.37190056 C31.8696368,6.23911607 32.5638606,7.20058698 33.1651862,8.2549662 Z M18.5532935,0 C20.2892842,0 21.9389444,0.225038214 23.5022887,0.675118383 C23.3711264,0.840530935 23.2521329,1.01655178 23.1439338,1.20342749 C22.993539,1.46318131 22.8719466,1.73463818 22.7791561,2.01779939 C21.4468969,1.66325028 20.0392339,1.48600025 18.5581439,1.48600025 C15.6666159,1.48600025 13.0549524,2.16158247 10.723075,3.51276718 C8.39119759,4.86395189 6.54904207,6.70748981 5.19655318,9.04343626 C4.71357219,9.87761519 4.31683003,10.746835 4.00632579,11.6510992 C3.83512214,11.6321438 3.6581878,11.6230561 3.47748881,11.6230561 C3.10033299,11.6230561 2.73957754,11.662646 2.39522041,11.7418263 C2.7547619,10.5239642 3.2500411,9.36156029 3.88114555,8.2549662 C5.34736342,5.68406363 7.36589337,3.66553368 9.93679594,2.19931581 C12.5076985,0.73309794 15.3798356,0 18.5532935,0 Z" id="Combined-Shape"></path>
                                <path d="M27.0208485,0 C26.3679228,0 25.7781924,0.152550824 25.2516394,0.457657049 C24.7250864,0.762763274 24.3091158,1.17904603 24.0037151,1.70651781 C23.6983144,2.23398959 23.5456163,2.82350803 23.5456163,3.47509081 C23.5456163,4.1266736 23.6983144,4.71619204 24.0037151,5.24366381 C24.3091158,5.77113559 24.7250864,6.18483274 25.2516394,6.48476768 C25.7781924,6.78470261 26.3679228,6.93466783 27.0208485,6.93466783 C27.6737742,6.93466783 28.2635046,6.78470261 28.7900576,6.48476768 C29.3166106,6.18483274 29.7299484,5.77113559 30.0300836,5.24366381 C30.3302188,4.71619204 30.4802842,4.1266736 30.4802842,3.47509081 C30.4802842,2.82350803 30.3302188,2.23398959 30.0300836,1.70651781 C29.7299484,1.17904603 29.3166106,0.762763274 28.7900576,0.457657049 C28.2635046,0.152550824 27.6737742,0 27.0208485,0 Z" id="Path-Copy-14"></path>
                                <path d="M3.47523217,12.613723 C2.8223065,12.613723 2.23257603,12.7662739 1.70602306,13.0713801 C1.1794701,13.3764863 0.763499503,13.7927691 0.458098786,14.3202408 C0.152698068,14.8477126 0,15.4372311 0,16.0888139 C0,16.7403966 0.152698068,17.3299151 0.458098786,17.8573869 C0.763499503,18.3848586 1.1794701,18.7985558 1.70602306,19.0984907 C2.23257603,19.3984256 2.8223065,19.5483909 3.47523217,19.5483909 C4.12815784,19.5483909 4.71788831,19.3984256 5.24444127,19.0984907 C5.77099423,18.7985558 6.18433211,18.3848586 6.48446729,17.8573869 C6.78460248,17.3299151 6.93466783,16.7403966 6.93466783,16.0888139 C6.93466783,15.4372311 6.78460248,14.8477126 6.48446729,14.3202408 C6.18433211,13.7927691 5.77099423,13.3764863 5.24444127,13.0713801 C4.71788831,12.7662739 4.12815784,12.613723 3.47523217,12.613723 Z" id="Path-Copy-13"></path>
                                <path d="M27.0208485,26.9092758 C26.3679228,26.9092758 25.7781924,27.0618266 25.2516394,27.3669329 C24.7250864,27.6720391 24.3091158,28.0883218 24.0037151,28.6157936 C23.6983144,29.1432654 23.5456163,29.7327838 23.5456163,30.3843666 C23.5456163,31.0359494 23.6983144,31.6254679 24.0037151,32.1529396 C24.3091158,32.6804114 24.7250864,33.0941086 25.2516394,33.3940435 C25.7781924,33.6939784 26.3679228,33.8439436 27.0208485,33.8439436 C27.6737742,33.8439436 28.2635046,33.6939784 28.7900576,33.3940435 C29.3166106,33.0941086 29.7299484,32.6804114 30.0300836,32.1529396 C30.3302188,31.6254679 30.4802842,31.0359494 30.4802842,30.3843666 C30.4802842,29.7327838 30.3302188,29.1432654 30.0300836,28.6157936 C29.7299484,28.0883218 29.3166106,27.6720391 28.7900576,27.3669329 C28.2635046,27.0618266 27.6737742,26.9092758 27.0208485,26.9092758 Z" id="Path-Copy-12"></path>
                            </g>
                        </g>
                    </g>
                </g>
                <text id="RPA" font-family="Lato-Heavy, Lato" font-size="20" font-weight="600" line-spacing="27" fill="#000000">
                    <tspan x="71.8125" y="20.0060522">RPA</tspan>
                </text>
            </g>
            <g id="Group-48" transform="translate(126.097500, 125.803719) rotate(90.000000) translate(-126.097500, -125.803719) translate(116.097500, 119.803719)" stroke="#637381" stroke-linecap="round">
                <line x1="-2.17603713e-13" y1="0.5" x2="13.2773437" y2="0.5" id="Path-15"></line>
                <line x1="6.63867187" y1="5.80096959" x2="19.9160156" y2="5.80096959" id="Path-15-Copy"></line>
                <line x1="2.5" y1="11.1019392" x2="15.7773437" y2="11.1019392" id="Path-15-Copy-2"></line>
            </g>
        </g>
        <text id="Extended,-Automated" font-family="Lato-Regular, Lato" font-size="13" font-weight="normal" line-spacing="22" fill="#000000">
            <tspan x="176.195" y="407.25367">Extended, Automated Data Entry</tspan>
        </text>
        <g id="Group-11" transform="translate(4.000000, 173.085938)" fill="#FFFFFF" stroke="#494342" stroke-linecap="round" stroke-linejoin="round" stroke-width="1.5">
            <g id="technical-support-copy">
                <path d="M93.1521972,0.0194091797 C95.5643183,0.0194091797 97.5192627,1.9743531 97.5192627,4.38647461 L97.5192627,4.38647461 L97.5192627,12.7743107 C103.261271,14.3198427 108.750809,16.595493 113.909405,19.5671447 L113.909405,19.5671447 L119.839061,13.6357829 C121.544946,11.929898 124.310185,11.929898 126.014365,13.6340767 L126.014365,13.6340767 L145.3301,32.9344591 C146.148925,33.7532838 146.609513,34.8655208 146.611219,36.0238164 C146.611219,37.1821123 146.15063,38.2943493 145.331806,39.1131741 L145.331806,39.1131741 L139.39362,45.0513599 C142.365272,50.2099559 144.639216,55.6994934 146.184748,61.4397961 L146.184748,61.4397961 L154.620349,61.4397961 C157.03247,61.4397961 158.987414,63.3947405 158.987414,65.8068615 L158.987414,65.8068615 L158.987414,93.1129618 C158.987414,95.5250828 157.03247,97.4800272 154.620349,97.4800272 L154.620349,97.4800272 L146.186454,97.4800272 C144.640922,103.222036 142.365272,108.711574 139.39362,113.87017 L139.39362,113.87017 L145.364217,119.840767 C147.068396,121.544946 147.068396,124.310185 145.364217,126.01607 L145.364217,126.01607 L126.063835,145.3301 C125.24501,146.15063 124.132773,146.611219 122.976184,146.611219 C121.816182,146.611219 120.705651,146.15063 119.886826,145.331806 L119.886826,145.331806 L113.909405,139.354385 C108.750809,142.326036 103.261271,144.601687 97.5192627,146.147218 L97.5192627,146.147218 L97.5192627,154.613525 C97.5192627,157.025647 95.5643183,158.980591 93.1521972,158.980591 L93.1521972,158.980591 L65.846097,158.980591 C63.4356817,158.980591 61.4790316,157.025647 61.4790316,154.613525 L61.4790316,154.613525 L61.4790316,146.147218 C55.7387289,144.601687 50.2491909,142.326036 45.0888891,139.354385 L45.0888891,139.354385 L39.1131741,145.331806 C38.2943493,146.15063 37.1838181,146.611219 36.0255226,146.611219 L36.0255226,146.611219 C34.8655208,146.611219 33.7549896,146.148925 32.9361649,145.3301 L32.9361649,145.3301 L13.6357829,126.01607 C11.929898,124.310185 11.9316038,121.544946 13.6357829,119.840767 L13.6357829,119.840767 L19.6063798,113.87017 C16.6347284,108.711574 14.3590781,103.222036 12.8135462,97.4800272 L12.8135462,97.4800272 L4.37965107,97.4800272 C3.21964931,97.4800272 2.10911811,97.0194385 1.29029335,96.2006137 C0.471468578,95.3817889 0.0108798642,94.2695515 0.0125809188,93.111256 L0.0125809188,93.111256 L0.0279384952,65.8051558 C0.0279384952,63.3947405 1.98288285,61.4397961 4.39500392,61.4397961 L4.39500392,61.4397961 L12.8135462,61.4397961 C14.3590781,55.6977876 16.6347284,50.2099559 19.6063798,45.0513599 L19.6063798,45.0513599 L13.6681944,39.1131741 C12.8493697,38.2943493 12.3887809,37.1821123 12.3887809,36.0238164 C12.3887809,34.8655208 12.8493697,33.7549896 13.6699002,32.9361649 L13.6699002,32.9361649 L32.9839296,13.6340767 C34.6898146,11.929898 37.4550539,11.9316038 39.1592331,13.6357829 L39.1592331,13.6357829 L45.0905949,19.5671447 C50.2491909,16.595493 55.7387289,14.3198427 61.4790316,12.7760169 L61.4790316,12.7760169 L61.4790316,4.38647461 C61.4790316,1.9743531 63.4356817,0.0194091797 65.846097,0.0194091797 L65.846097,0.0194091797 Z M79.5,43.4154161 C59.6025581,43.4154161 43.4154161,59.6025581 43.4154161,79.5 C43.4154161,99.3974419 59.6025581,115.584584 79.5,115.584584 C99.3974419,115.584584 115.584584,99.3974419 115.584584,79.5 C115.584584,59.6025581 99.3974419,43.4154161 79.5,43.4154161 Z" id="Combined-Shape"></path>
            </g>
        </g>
        <path d="M76.36,255.575937 L74.79,251.135937 C74.6966662,250.902603 74.5983339,250.629272 74.495,250.315937 C74.3916662,250.002603 74.2933338,249.662606 74.2,249.295937 C74.1066662,249.669273 74.0083339,250.014269 73.905,250.330937 C73.8016662,250.647606 73.7033338,250.922603 73.61,251.155937 L72.05,255.575937 L76.36,255.575937 Z M81.4,261.085937 L79.07,261.085937 C78.8099987,261.085937 78.5983342,261.024271 78.435,260.900937 C78.2716659,260.777604 78.1500004,260.619272 78.07,260.425937 L77.09,257.655937 L71.31,257.655937 L70.33,260.425937 C70.263333,260.592605 70.1466675,260.74427 69.98,260.880937 C69.8133325,261.017605 69.6033346,261.085937 69.35,261.085937 L67,261.085937 L72.67,246.575937 L75.74,246.575937 L81.4,261.085937 Z M87.64,253.795937 C88.5800047,253.795937 89.2683312,253.569273 89.705,253.115937 C90.1416689,252.662602 90.36,252.042608 90.36,251.255937 C90.36,250.895936 90.3050006,250.567606 90.195,250.270937 C90.0849995,249.974269 89.9183345,249.720939 89.695,249.510937 C89.4716656,249.300936 89.1900017,249.139271 88.85,249.025937 C88.5099983,248.912604 88.106669,248.855937 87.64,248.855937 L85.74,248.855937 L85.74,253.795937 L87.64,253.795937 Z M87.64,246.575937 C88.6333383,246.575937 89.4916631,246.692603 90.215,246.925937 C90.938337,247.159272 91.533331,247.484269 92,247.900937 C92.466669,248.317606 92.8116656,248.812601 93.035,249.385937 C93.2583345,249.959274 93.37,250.582601 93.37,251.255937 C93.37,251.969274 93.2533345,252.622601 93.02,253.215937 C92.7866655,253.809274 92.4333357,254.319269 91.96,254.745937 C91.4866643,255.172606 90.8900036,255.50427 90.17,255.740937 C89.4499964,255.977605 88.6066715,256.095937 87.64,256.095937 L85.74,256.095937 L85.74,261.085937 L82.74,261.085937 L82.74,246.575937 L87.64,246.575937 Z M98.3,261.085937 L95.28,261.085937 L95.28,246.575937 L98.3,246.575937 L98.3,261.085937 Z" id="API" fill="#494342" fill-rule="nonzero"></path>
        <text id="Standard,-Custom-Dee" font-family="Lato-Regular, Lato" font-size="13" font-weight="normal" line-spacing="22" fill="#000000">
            <tspan x="176.195" y="201.085938">Standard, Custom Deep Integration</tspan>
        </text>
        <g id="Group-59" transform="translate(249.000000, 222.085938)">
            <g id="Group-11">
                <g id="technical-support-copy">
                    <path d="M35.6639578,0.401315789 C36.5771864,0.401315789 37.3173279,1.14145717 37.3173279,2.05468589 L37.3173279,2.05468589 L37.3173279,5.23031898 C39.4912512,5.81545707 41.5695891,6.67701782 43.5226326,7.80208459 L43.5226326,7.80208459 L45.7675992,5.55647219 C46.4134469,4.91062449 47.4603659,4.91062449 48.1055678,5.55582622 L48.1055678,5.55582622 L55.4185014,12.8629471 C55.7285082,13.172954 55.902887,13.5940467 55.9035329,14.0325772 C55.9035329,14.4711078 55.7291541,14.8922005 55.4191472,15.2022074 L55.4191472,15.2022074 L53.1709514,17.4504034 C54.296018,19.4034468 55.1569329,21.4817846 55.742071,23.6550621 L55.742071,23.6550621 L58.9357878,23.6550621 C59.8490164,23.6550621 60.5891579,24.3952036 60.5891579,25.3084322 L60.5891579,25.3084322 L60.5891579,35.6465163 C60.5891579,36.5597449 59.8490164,37.2998864 58.9357878,37.2998864 L58.9357878,37.2998864 L55.7427168,37.2998864 C55.1575787,39.4738097 54.296018,41.5521477 53.1709514,43.5051911 L53.1709514,43.5051911 L55.4314181,45.765658 C56.07662,46.4108599 56.07662,47.457779 55.4314181,48.1036267 L55.4314181,48.1036267 L48.1242974,55.4159144 C47.8142905,55.7265671 47.3931978,55.9009459 46.9553131,55.9009459 C46.5161367,55.9009459 46.0956898,55.7265671 45.7856829,55.4165602 L45.7856829,55.4165602 L43.5226326,53.1535099 C41.5695891,54.2785765 39.4912512,55.1401374 37.3173279,55.7252753 L37.3173279,55.7252753 L37.3173279,58.9306175 C37.3173279,59.8438462 36.5771864,60.5839876 35.6639578,60.5839876 L35.6639578,60.5839876 L25.3258737,60.5839876 C24.4132909,60.5839876 23.6725036,59.8438462 23.6725036,58.9306175 L23.6725036,58.9306175 L23.6725036,55.7252753 C21.4992261,55.1401374 19.4208881,54.2785765 17.4671989,53.1535099 L17.4671989,53.1535099 L15.2047944,55.4165602 C14.8947875,55.7265671 14.4743406,55.9009459 14.0358101,55.9009459 L14.0358101,55.9009459 C13.5966337,55.9009459 13.1761868,55.7259213 12.8661799,55.4159144 L12.8661799,55.4159144 L5.55905915,48.1036267 C4.91321145,47.457779 4.91385725,46.4108599 5.55905915,45.765658 L5.55905915,45.765658 L7.81952592,43.5051911 C6.69445931,41.5521477 5.83289857,39.4738097 5.24776047,37.2998864 L5.24776047,37.2998864 L2.05468946,37.2998864 C1.61551302,37.2998864 1.19506613,37.1255076 0.885059238,36.8155007 C0.575052344,36.5054938 0.400673548,36.084401 0.401317567,35.6458705 L0.401317567,35.6458705 L0.407131942,25.3077864 C0.407131942,24.3952036 1.14727349,23.6550621 2.06050205,23.6550621 L2.06050205,23.6550621 L5.24776047,23.6550621 C5.83289857,21.4811388 6.69445931,19.4034468 7.81952592,17.4504034 L7.81952592,17.4504034 L5.57133013,15.2022074 C5.26132323,14.8922005 5.08694444,14.4711078 5.08694444,14.0325772 C5.08694444,13.5940467 5.26132323,13.1735998 5.57197593,12.863593 L5.57197593,12.863593 L12.8842636,5.55582622 C13.5301113,4.91062449 14.5770304,4.9112703 15.2222323,5.55647219 L15.2222323,5.55647219 L17.4678447,7.80208459 C19.4208881,6.67701782 21.4992261,5.81545707 23.6725036,5.23096495 L23.6725036,5.23096495 L23.6725036,2.05468589 C23.6725036,1.14145717 24.4132909,0.401315789 25.3258737,0.401315789 L25.3258737,0.401315789 Z" id="Combined-Shape" stroke="#494342" stroke-width="1.5" fill="#494342" stroke-linecap="round" stroke-linejoin="round"></path>
                    <path d="M30.5379803,11.7282893 C27.0045064,11.7282893 23.8130294,12.553857 20.9634537,14.2050172 C18.1138779,15.8561774 15.8627469,18.1089978 14.2099929,20.9635459 C12.557239,23.8180941 11.7308744,27.0084236 11.7308744,30.5346301 C11.7308744,34.0608367 12.557239,37.2511662 14.2099929,40.1057143 C15.8627469,42.9602625 18.1138779,45.1990902 20.9634537,46.8222646 C23.8130294,48.4454391 27.0045064,49.2570141 30.5379803,49.2570141 C34.0714542,49.2570141 37.2629312,48.4454391 40.1125069,46.8222646 C42.9620826,45.1990902 45.198966,42.9602625 46.8232242,40.1057143 C48.4474824,37.2511662 49.2595993,34.0608367 49.2595993,30.5346301 C49.2595993,27.0084236 48.4474824,23.8180941 46.8232242,20.9635459 C45.198966,18.1089978 42.9620826,15.8561774 40.1125069,14.2050172 C37.2629312,12.553857 34.0714542,11.7282893 30.5379803,11.7282893 Z" id="Path-Copy-15" fill="#1E81C1"></path>
                </g>
            </g>
            <path d="M26.552,32.244 L24.752,27.58 C24.6986664,27.4413326 24.642667,27.2800009 24.584,27.096 C24.525333,26.9119991 24.4693336,26.716001 24.416,26.508 C24.3263996,26.8536017 24.2350935,27.1531198 24.1420802,27.4065597 L22.272,32.244 L26.552,32.244 Z M29.784,36.5 L28.584,36.5 C28.4453326,36.5 28.3333338,36.4653337 28.248,36.396 C28.1626662,36.3266663 28.0986669,36.2386672 28.056,36.132 L26.984,33.364 L21.84,33.364 L20.768,36.132 C20.7359998,36.2280005 20.6746671,36.313333 20.584,36.388 C20.4933329,36.462667 20.381334,36.5 20.248,36.5 L19.048,36.5 L23.632,25.036 L25.2,25.036 L29.784,36.5 Z M34.68,30.98 C35.1226689,30.98 35.5133316,30.9213339 35.852,30.804 C36.1906684,30.6866661 36.4759988,30.5226677 36.708,30.312 C36.9400012,30.1013323 37.1146661,29.8493348 37.232,29.556 C37.3493339,29.2626652 37.408,28.9400018 37.408,28.588 C37.408,27.8573297 37.1826689,27.2866687 36.732,26.876 C36.2813311,26.4653313 35.5973379,26.26 34.68,26.26 L32.84,26.26 L32.84,30.98 L34.68,30.98 Z M34.68,25.036 C35.405337,25.036 36.0359973,25.1199992 36.572,25.288 C37.1080027,25.4560008 37.5519982,25.6946651 37.904,26.004 C38.2560018,26.3133349 38.5186658,26.6866645 38.692,27.124 C38.8653342,27.5613355 38.952,28.0493306 38.952,28.588 C38.952,29.121336 38.8586676,29.6093311 38.672,30.052 C38.4853324,30.4946689 38.2120018,30.8759984 37.852,31.196 C37.4919982,31.5160016 37.0466693,31.7653324 36.516,31.944 C35.9853307,32.1226676 35.3733368,32.212 34.68,32.212 L32.84,32.212 L32.84,36.5 L31.296,36.5 L31.296,25.036 L34.68,25.036 Z M42.456,36.5 L40.904,36.5 L40.904,25.036 L42.456,25.036 L42.456,36.5 Z" id="API" fill="#FFFFFF" fill-rule="nonzero"></path>
        </g>
        <g id="Group-Copy-9" opacity="0.6" transform="translate(179.195000, 239.085938)" fill="#637381">
            <g id="Group-2">
                <path d="M18.7232725,10.0909784 C17.4174212,10.0909784 16.2379602,10.3960801 15.1848543,11.0062925 C14.1317484,11.616505 13.2998072,12.4490705 12.6890057,13.504014 C12.0782043,14.5589576 11.7728082,15.7379945 11.7728082,17.0411601 C11.7728082,18.3443256 12.0782043,19.5233625 12.6890057,20.5783061 C13.2998072,21.6332496 14.1317484,22.4606439 15.1848543,23.0605138 C16.2379602,23.6603836 17.4174212,23.9603141 18.7232725,23.9603141 C20.0291238,23.9603141 21.2085848,23.6603836 22.2616907,23.0605138 C23.3147966,22.4606439 24.1414724,21.6332496 24.7417428,20.5783061 C25.3420131,19.5233625 25.6421438,18.3443256 25.6421438,17.0411601 C25.6421438,15.7379945 25.3420131,14.5589576 24.7417428,13.504014 C24.1414724,12.4490705 23.3147966,11.616505 22.2616907,11.0062925 C21.2085848,10.3960801 20.0291238,10.0909784 18.7232725,10.0909784 Z" id="Path-Copy-15"></path>
                <path d="M3.47748881,20.5390576 L3.56337868,20.5373962 C3.89687906,22.0132775 4.44126938,23.4034542 5.19655318,24.70794 C6.54904207,27.0438864 8.39119759,28.8759738 10.723075,30.2042571 C13.0549524,31.5325404 15.6666159,32.196672 18.5581439,32.196672 C20.0206412,32.196672 21.4115435,32.0267735 22.7308609,31.6869739 C22.8277796,32.0280272 22.9656102,32.3524714 23.1439338,32.6604623 C23.2203362,32.7924203 23.3021208,32.9188401 23.3892878,33.0397218 C21.8601894,33.4682427 20.2478718,33.6826723 18.5532935,33.6826723 C15.3798356,33.6826723 12.5076985,32.9495744 9.93679594,31.4833565 C7.36589337,30.0171386 5.34736342,27.9986087 3.88114555,25.4277061 C2.97024446,23.8305097 2.34230037,22.1247999 1.99730802,20.3105563 C2.45970453,20.463713 2.95272161,20.5390576 3.47748881,20.5390576 Z M33.1651862,8.2549662 C34.6314041,10.8258688 35.364502,13.6980059 35.364502,16.8714638 C35.364502,20.0047513 34.6314041,22.8568035 33.1651862,25.4277061 C32.5498922,26.5065778 31.8373341,27.4881746 31.0275073,28.3725011 C30.9861349,28.2845516 30.9406544,28.1979964 30.8921219,28.1127031 C30.6868419,27.7519343 30.4403738,27.4316209 30.1527151,27.1517606 C30.8018673,26.4109656 31.3795283,25.5958521 31.8847566,24.70794 C33.2139267,22.3719936 33.8785018,19.761269 33.8785018,16.8756881 C33.8785018,13.9901072 33.2139267,11.3793827 31.8847566,9.04343626 C31.3934924,8.18006537 30.8337442,7.38396033 30.2055092,6.65511833 C30.4704198,6.39203882 30.6994187,6.08985231 30.8921219,5.75118664 C30.9625487,5.62741515 31.0265488,5.5009865 31.0841222,5.37190056 C31.8696368,6.23911607 32.5638606,7.20058698 33.1651862,8.2549662 Z M18.5532935,0 C20.2892842,0 21.9389444,0.225038214 23.5022887,0.675118383 C23.3711264,0.840530935 23.2521329,1.01655178 23.1439338,1.20342749 C22.993539,1.46318131 22.8719466,1.73463818 22.7791561,2.01779939 C21.4468969,1.66325028 20.0392339,1.48600025 18.5581439,1.48600025 C15.6666159,1.48600025 13.0549524,2.16158247 10.723075,3.51276718 C8.39119759,4.86395189 6.54904207,6.70748981 5.19655318,9.04343626 C4.71357219,9.87761519 4.31683003,10.746835 4.00632579,11.6510992 C3.83512214,11.6321438 3.6581878,11.6230561 3.47748881,11.6230561 C3.10033299,11.6230561 2.73957754,11.662646 2.39522041,11.7418263 C2.7547619,10.5239642 3.2500411,9.36156029 3.88114555,8.2549662 C5.34736342,5.68406363 7.36589337,3.66553368 9.93679594,2.19931581 C12.5076985,0.73309794 15.3798356,0 18.5532935,0 Z" id="Combined-Shape"></path>
                <path d="M27.0208485,0 C26.3679228,0 25.7781924,0.152550824 25.2516394,0.457657049 C24.7250864,0.762763274 24.3091158,1.17904603 24.0037151,1.70651781 C23.6983144,2.23398959 23.5456163,2.82350803 23.5456163,3.47509081 C23.5456163,4.1266736 23.6983144,4.71619204 24.0037151,5.24366381 C24.3091158,5.77113559 24.7250864,6.18483274 25.2516394,6.48476768 C25.7781924,6.78470261 26.3679228,6.93466783 27.0208485,6.93466783 C27.6737742,6.93466783 28.2635046,6.78470261 28.7900576,6.48476768 C29.3166106,6.18483274 29.7299484,5.77113559 30.0300836,5.24366381 C30.3302188,4.71619204 30.4802842,4.1266736 30.4802842,3.47509081 C30.4802842,2.82350803 30.3302188,2.23398959 30.0300836,1.70651781 C29.7299484,1.17904603 29.3166106,0.762763274 28.7900576,0.457657049 C28.2635046,0.152550824 27.6737742,0 27.0208485,0 Z" id="Path-Copy-14"></path>
                <path d="M3.47523217,12.613723 C2.8223065,12.613723 2.23257603,12.7662739 1.70602306,13.0713801 C1.1794701,13.3764863 0.763499503,13.7927691 0.458098786,14.3202408 C0.152698068,14.8477126 0,15.4372311 0,16.0888139 C0,16.7403966 0.152698068,17.3299151 0.458098786,17.8573869 C0.763499503,18.3848586 1.1794701,18.7985558 1.70602306,19.0984907 C2.23257603,19.3984256 2.8223065,19.5483909 3.47523217,19.5483909 C4.12815784,19.5483909 4.71788831,19.3984256 5.24444127,19.0984907 C5.77099423,18.7985558 6.18433211,18.3848586 6.48446729,17.8573869 C6.78460248,17.3299151 6.93466783,16.7403966 6.93466783,16.0888139 C6.93466783,15.4372311 6.78460248,14.8477126 6.48446729,14.3202408 C6.18433211,13.7927691 5.77099423,13.3764863 5.24444127,13.0713801 C4.71788831,12.7662739 4.12815784,12.613723 3.47523217,12.613723 Z" id="Path-Copy-13"></path>
                <path d="M27.0208485,26.9092758 C26.3679228,26.9092758 25.7781924,27.0618266 25.2516394,27.3669329 C24.7250864,27.6720391 24.3091158,28.0883218 24.0037151,28.6157936 C23.6983144,29.1432654 23.5456163,29.7327838 23.5456163,30.3843666 C23.5456163,31.0359494 23.6983144,31.6254679 24.0037151,32.1529396 C24.3091158,32.6804114 24.7250864,33.0941086 25.2516394,33.3940435 C25.7781924,33.6939784 26.3679228,33.8439436 27.0208485,33.8439436 C27.6737742,33.8439436 28.2635046,33.6939784 28.7900576,33.3940435 C29.3166106,33.0941086 29.7299484,32.6804114 30.0300836,32.1529396 C30.3302188,31.6254679 30.4802842,31.0359494 30.4802842,30.3843666 C30.4802842,29.7327838 30.3302188,29.1432654 30.0300836,28.6157936 C29.7299484,28.0883218 29.3166106,27.6720391 28.7900576,27.3669329 C28.2635046,27.0618266 27.6737742,26.9092758 27.0208485,26.9092758 Z" id="Path-Copy-12"></path>
            </g>
        </g>
        <g id="Group-48" transform="translate(154.195000, 246.511272)" stroke="#637381" stroke-linecap="round">
            <line x1="-2.17603713e-13" y1="0.5" x2="13.2773437" y2="0.5" id="Path-15"></line>
            <line x1="6.63867187" y1="5.80096959" x2="19.9160156" y2="5.80096959" id="Path-15-Copy"></line>
            <line x1="2.5" y1="11.1019392" x2="15.7773437" y2="11.1019392" id="Path-15-Copy-2"></line>
        </g>
        <g id="Group-58" transform="translate(228.509724, 255.526897) rotate(-129.000000) translate(-228.509724, -255.526897) translate(217.009724, 241.526897)" stroke="#637381" stroke-linecap="round">
            <g id="Group-48" transform="translate(11.024143, 12.000000) rotate(130.000000) translate(-11.024143, -12.000000) translate(1.024143, 6.000000)">
                <line x1="-2.17603713e-13" y1="0.5" x2="13.2773437" y2="0.5" id="Path-15"></line>
                <line x1="6.63867187" y1="5.80096959" x2="19.9160156" y2="5.80096959" id="Path-15-Copy"></line>
                <line x1="2.5" y1="11.1019392" x2="15.7773437" y2="11.1019392" id="Path-15-Copy-2"></line>
            </g>
            <polyline id="Path-16" points="0 20.5071984 0 27.900665 7.43728973 26.1288755"></polyline>
        </g>
        <g id="Group-Copy-9" transform="translate(60.766667, 44.585938)">
            <g id="Group-2">
                <path d="M23.9527695,12.9094356 C22.2821878,12.9094356 20.7732979,13.2997535 19.4260547,14.0804012 C18.0788114,14.8610488 17.0145051,15.9261537 16.233104,17.2757479 C15.4517029,18.6253421 15.0610082,20.1336895 15.0610082,21.8008352 C15.0610082,23.467981 15.4517029,24.9763284 16.233104,26.3259225 C17.0145051,27.6755167 18.0788114,28.7340061 19.4260547,29.5014224 C20.7732979,30.2688387 22.2821878,30.6525411 23.9527695,30.6525411 C25.6233512,30.6525411 27.1322411,30.2688387 28.4794844,29.5014224 C29.8267277,28.7340061 30.8842978,27.6755167 31.6522265,26.3259225 C32.4201551,24.9763284 32.8041137,23.467981 32.8041137,21.8008352 C32.8041137,20.1336895 32.4201551,18.6253421 31.6522265,17.2757479 C30.8842978,15.9261537 29.8267277,14.8610488 28.4794844,14.0804012 C27.1322411,13.2997535 25.6233512,12.9094356 23.9527695,12.9094356 Z" id="Path-Copy-15" fill="#1E81C1"></path>
                <path d="M4.44876759,26.2757118 L4.55864317,26.2735698 C4.98529142,28.1616778 5.68173373,29.9401429 6.64797463,31.6089824 C8.37821995,34.5973696 10.7348981,36.9411675 13.7180796,38.6404464 C16.7012612,40.3397254 20.0423745,41.1893521 23.7415197,41.1893521 C25.6129917,41.1893521 27.3928236,40.9718858 29.0810283,40.5369497 C29.2036674,40.9735638 29.3800008,41.3886478 29.608142,41.7826811 C29.7057138,41.9512019 29.8101472,42.1126621 29.9214424,42.267062 C27.9649573,42.816196 25.9027316,43.0903992 23.7353146,43.0903992 C19.6754952,43.0903992 16.0011568,42.1525436 12.7121892,40.2768042 C9.4232216,38.4010649 6.84090687,35.8187501 4.96516753,32.5297825 C3.80023117,30.4871544 2.99704472,28.3057961 2.55560145,25.9856813 C3.1464007,26.1792756 3.7772651,26.2757118 4.44876759,26.2757118 Z M42.4283768,10.5606166 C44.3041162,13.8495842 45.2419718,17.5239226 45.2419718,21.583742 C45.2419718,25.5921712 44.3041162,29.2408149 42.4283768,32.5297825 C41.6411038,33.9102064 40.7293609,35.1661468 39.6931424,36.2976094 C39.6402534,36.1836963 39.5822812,36.0734031 39.520435,35.9647117 C39.2580113,35.5035158 38.9429724,35.0939991 38.5753153,34.7361585 C39.4052793,33.7872372 40.1441107,32.7446563 40.7903172,31.6089824 C42.4907307,28.6205953 43.3409247,25.2806833 43.3409247,21.5891462 C43.3409247,17.8976092 42.4907307,14.5576972 40.7903172,11.56931 C40.1620008,10.465077 39.446117,9.44685364 38.6426624,8.51463638 C38.9818932,8.17611947 39.2743061,7.7900785 39.520435,7.35751979 C39.6102096,7.1997458 39.6918211,7.03859683 39.7652698,6.87407269 C40.7719166,7.9830352 41.6595062,9.21245992 42.4283768,10.5606166 Z M23.7353146,0 C25.9562709,0 28.0667748,0.287917173 30.0668449,0.863756306 C29.8991293,1.07479418 29.7467156,1.30021348 29.608142,1.53955038 C29.4155825,1.87212895 29.2599307,2.21970403 29.1411863,2.58227724 C27.4358763,2.12764788 25.6356334,1.90104702 23.7415197,1.90104702 C20.0423745,1.90104702 16.7012612,2.7653225 13.7180796,4.49389937 C10.7348981,6.22247625 8.37821995,8.58092288 6.64797463,11.56931 C6.0300554,12.636547 5.52247599,13.7486177 5.12523522,14.9055266 C4.90514066,14.8809966 4.67934998,14.8694296 4.44876759,14.8694296 C3.96622275,14.8694296 3.50466313,14.9200872 3.06408609,15.0214029 C3.52386726,13.4640896 4.15759362,11.9766366 4.96516753,10.5606166 C6.84090687,7.27164901 9.4232216,4.68933427 12.7121892,2.81359494 C16.0011568,0.9378556 19.6754952,0 23.7353146,0 Z" id="Combined-Shape" fill="#494342"></path>
                <path d="M34.567897,0 C33.7326062,0 32.9781613,0.195158978 32.3045396,0.585482789 C31.630918,0.9758066 31.0987648,1.50835907 30.7080643,2.18315616 C30.3173637,2.85795326 30.1220164,3.61212694 30.1220164,4.44569982 C30.1220164,5.2792727 30.3173637,6.03344638 30.7080643,6.70824348 C31.0987648,7.38304058 31.630918,7.91228526 32.3045396,8.29599342 C32.9781613,8.67970157 33.7326062,8.87155277 34.567897,8.87155277 C35.4031879,8.87155277 36.1576328,8.67970157 36.8312545,8.29599342 C37.5048761,7.91228526 38.0336612,7.38304058 38.4176255,6.70824348 C38.8015898,6.03344638 38.9935691,5.2792727 38.9935691,4.44569982 C38.9935691,3.61212694 38.8015898,2.85795326 38.4176255,2.18315616 C38.0336612,1.50835907 37.5048761,0.9758066 36.8312545,0.585482789 C36.1576328,0.195158978 35.4031879,0 34.567897,0 Z" id="Path-Copy-14" fill="#AA52A5"></path>
                <path d="M4.44588066,16.1367945 C3.61058981,16.1367945 2.85614488,16.3319535 2.18252323,16.7222773 C1.50890158,17.1126011 0.976748462,17.6451536 0.586047905,18.3199506 C0.195347348,18.9947477 0,19.7489214 0,20.5824943 C0,21.4160672 0.195347348,22.1702409 0.586047905,22.845038 C0.976748462,23.5198351 1.50890158,24.0490797 2.18252323,24.4327879 C2.85614488,24.8164961 3.61058981,25.0083473 4.44588066,25.0083473 C5.2811715,25.0083473 6.03561643,24.8164961 6.70923808,24.4327879 C7.38285973,24.0490797 7.9116448,23.5198351 8.29560914,22.845038 C8.67957348,22.1702409 8.87155277,21.4160672 8.87155277,20.5824943 C8.87155277,19.7489214 8.67957348,18.9947477 8.29560914,18.3199506 C7.9116448,17.6451536 7.38285973,17.1126011 6.70923808,16.7222773 C6.03561643,16.3319535 5.2811715,16.1367945 4.44588066,16.1367945 Z" id="Path-Copy-13" fill="#EE9C27"></path>
                <path d="M34.567897,34.4251616 C33.7326062,34.4251616 32.9781613,34.6203205 32.3045396,35.0106444 C31.630918,35.4009682 31.0987648,35.9335206 30.7080643,36.6083177 C30.3173637,37.2831148 30.1220164,38.0372885 30.1220164,38.8708614 C30.1220164,39.7044343 30.3173637,40.458608 30.7080643,41.133405 C31.0987648,41.8082021 31.630918,42.3374468 32.3045396,42.721155 C32.9781613,43.1048631 33.7326062,43.2967143 34.567897,43.2967143 C35.4031879,43.2967143 36.1576328,43.1048631 36.8312545,42.721155 C37.5048761,42.3374468 38.0336612,41.8082021 38.4176255,41.133405 C38.8015898,40.458608 38.9935691,39.7044343 38.9935691,38.8708614 C38.9935691,38.0372885 38.8015898,37.2831148 38.4176255,36.6083177 C38.0336612,35.9335206 37.5048761,35.4009682 36.8312545,35.0106444 C36.1576328,34.6203205 35.4031879,34.4251616 34.567897,34.4251616 Z" id="Path-Copy-12" fill="#AFC22E"></path>
            </g>
        </g>
        <text id="API" font-family="Lato-Heavy, Lato" font-size="20" font-weight="600" line-spacing="27" fill="#000000">
            <tspan x="176.375" y="183.846764">API</tspan>
        </text>
        <path d="M457,652 L297.231719,652 C179.723043,652 84.4634388,566.740396 84.4634388,449.231719 C84.4634388,401.281984 84.4634388,367.004223 84.4634388,346.398438 M84.4634388,161.324219 C84.4634388,135.98068 84.4634388,115.13693 84.4634388,98.7929687 M84.4634388,34.4804688 C84.4634388,28.8181424 84.4634388,20.3246528 84.4634388,9" id="Shape" stroke="#494342" stroke-width="1.5"></path>
    </g>
</svg>