<?xml version="1.0" encoding="UTF-8"?>
<svg width="200px" height="200px" viewBox="0 0 200 200" version="1.1" xmlns="http://www.w3.org/2000/svg" xmlns:xlink="http://www.w3.org/1999/xlink">
    <!-- Generator: Sketch 59.1 (86144) - https://sketch.com -->
    <title>Slide8_Identify_Document</title>
    <desc>Created with Sketch.</desc>
    <defs>
        <linearGradient x1="0.93822338%" y1="6.07143477%" x2="0.93822338%" y2="63.8653783%" id="linearGradient-1">
            <stop stop-color="#FFFFFF" stop-opacity="0" offset="0%"></stop>
            <stop stop-color="#FFFFFF" offset="100%"></stop>
        </linearGradient>
        <circle id="path-2" cx="20" cy="20" r="20"></circle>
        <filter x="-18.8%" y="-13.8%" width="137.5%" height="137.5%" filterUnits="objectBoundingBox" id="filter-3">
            <feMorphology radius="0.5" operator="dilate" in="SourceAlpha" result="shadowSpreadOuter1"></feMorphology>
            <feOffset dx="0" dy="2" in="shadowSpreadOuter1" result="shadowOffsetOuter1"></feOffset>
            <feGaussianBlur stdDeviation="2" in="shadowOffsetOuter1" result="shadowBlurOuter1"></feGaussianBlur>
            <feComposite in="shadowBlurOuter1" in2="SourceAlpha" operator="out" result="shadowBlurOuter1"></feComposite>
            <feColorMatrix values="0 0 0 0 0   0 0 0 0 0   0 0 0 0 0  0 0 0 0.5 0" type="matrix" in="shadowBlurOuter1"></feColorMatrix>
        </filter>
    </defs>
    <g id="Slide8_Identify_Document" stroke="none" stroke-width="1" fill="none" fill-rule="evenodd">
        <g transform="translate(9.000000, 0.000000)">
            <g id="Slide8_Tables_Sub_tables--" transform="translate(12.000000, 20.000000)">
                <g id="Group-12-Copy-4" fill="#AA52A5">
                    <g id="icon">
                        <g id="Group-24">
                            <circle id="Oval-Copy" cx="79.4909225" cy="79.4909225" r="79.4909225"></circle>
                        </g>
                    </g>
                </g>
                <g id="Group-4" transform="translate(30.490923, 31.490923)">
                    <g id="Group-3">
                        <g id="Group-10" transform="translate(17.750000, 41.750000)">
                            <g id="Group-9">
                                <g id="Group-8">
                                    <path d="M1,0 L28.8583478,0 L28.8583478,0 L37.5,7.90003781 L37.5,49 C37.5,49.5522847 37.0522847,50 36.5,50 L1,50 C0.44771525,50 6.76353751e-17,49.5522847 0,49 L0,1 C-6.76353751e-17,0.44771525 0.44771525,1.01453063e-16 1,0 Z" id="Rectangle-Copy" fill="#F9F9F9"></path>
                                    <path d="M5.16806723,44.9142857 L5.52521008,44.9142857 L5.52521008,44.4997128 C6.52836134,44.4674085 7.14285714,43.918234 7.14285714,43.0513999 C7.14285714,42.5991385 6.96428571,42.2491744 6.61239496,42.0015075 C6.38130252,41.8399856 6.13445378,41.7538406 5.52521008,41.6353912 L5.52521008,40.7470208 C5.77731092,40.7847093 5.91386555,40.930079 5.95063025,41.2262024 L7.02731092,41.0377602 C6.92752101,40.5747308 6.71218487,40.2678392 6.37079832,40.084781 C6.11869748,39.9501795 5.86659664,39.8801866 5.52521008,39.8586504 L5.52521008,39.5571429 L5.16806723,39.5571429 L5.16806723,39.8532663 C4.91596639,39.8586504 4.68487395,39.907107 4.45903361,39.998636 C3.96533613,40.1924623 3.64495798,40.6554917 3.64495798,41.1938981 C3.64495798,41.6784637 3.88655462,42.0822685 4.30147059,42.297631 C4.51680672,42.4106963 4.75840336,42.4860732 5.16806723,42.5722182 L5.16806723,43.5898062 C5.0052521,43.5682699 4.90021008,43.5198134 4.81092437,43.4229002 C4.71638655,43.315219 4.67436975,43.2021536 4.65336134,42.976023 L3.57142857,43.1752333 C3.59768908,43.3690596 3.61869748,43.4659727 3.65021008,43.5682699 C3.7447479,43.826705 3.89705882,44.0312994 4.11239496,44.1766691 C4.375,44.3597272 4.70063025,44.4566403 5.16806723,44.4889447 L5.16806723,44.9142857 Z M5.16806723,40.7416368 L5.16806723,41.5707825 L5.06409204,41.5420114 C4.9766938,41.5162688 4.93434874,41.4980976 4.89495798,41.4738693 C4.77415966,41.4038765 4.71113445,41.2961953 4.71113445,41.1562096 C4.71113445,40.9139268 4.87394958,40.763173 5.16806723,40.7416368 Z M5.52521008,43.5951902 L5.52521008,42.6260589 L5.63075642,42.652056 C5.73600737,42.6797666 5.78548086,42.7002393 5.85084034,42.7337401 C5.98214286,42.803733 6.05042017,42.9275664 6.05042017,43.0998564 C6.05042017,43.406748 5.87710084,43.5682699 5.52521008,43.5951902 Z" id="$-copy" fill="#494342"></path>
                                    <path d="M28.8583478,3.73034936e-14 L28.8583478,6.90003781 C28.8583478,7.45232256 29.306063,7.90003781 29.8583478,7.90003781 L37.5,7.90003781 L37.5,7.90003781 L28.8583478,3.73034936e-14 Z" id="Path-2-Copy" fill="#DCDCDC"></path>
                                    <line x1="3.57142857" y1="5.35714286" x2="25" y2="5.35714286" id="Line-Copy-3" stroke="#494342" stroke-width="1.5" stroke-linecap="round" stroke-linejoin="round"></line>
                                    <line x1="3.36538462" y1="25" x2="19.8489011" y2="25" id="Line-Copy-10" stroke="#494342" stroke-width="1.5" stroke-linecap="round" stroke-linejoin="round"></line>
                                    <line x1="3.36538462" y1="28.5714286" x2="19.8489011" y2="28.5714286" id="Line-Copy-11" stroke="#494342" stroke-width="1.5" stroke-linecap="round" stroke-linejoin="round"></line>
                                    <line x1="3.36538462" y1="32.1428571" x2="19.8489011" y2="32.1428571" id="Line-Copy-12" stroke="#494342" stroke-width="1.5" stroke-linecap="round" stroke-linejoin="round"></line>
                                    <line x1="28.7774725" y1="25" x2="33.7225275" y2="25" id="Line-Copy-13" stroke="#494342" stroke-width="1.5" stroke-linecap="round" stroke-linejoin="round"></line>
                                    <line x1="28.7774725" y1="28.5714286" x2="33.7225275" y2="28.5714286" id="Line-Copy-14" stroke="#494342" stroke-width="1.5" stroke-linecap="round" stroke-linejoin="round"></line>
                                    <line x1="28.7774725" y1="32.1428571" x2="33.7225275" y2="32.1428571" id="Line-Copy-15" stroke="#494342" stroke-width="1.5" stroke-linecap="round" stroke-linejoin="round"></line>
                                    <line x1="3.57142857" y1="14.2857143" x2="12.5" y2="14.2857143" id="Line-Copy-16" stroke="#494342" stroke-width="1.5" stroke-linecap="round" stroke-linejoin="round"></line>
                                    <line x1="3.57142857" y1="17.8571429" x2="12.5" y2="17.8571429" id="Line-Copy-17" stroke="#494342" stroke-width="1.5" stroke-linecap="round" stroke-linejoin="round"></line>
                                </g>
                            </g>
                        </g>
                        <g id="Combined-Shape-2" transform="translate(30.250000, 23.000000)"></g>
                        <path d="M68.75,76.125 L98,76.125 C98.5522847,76.125 99,76.5727153 99,77.125 L99,84.5 C99,85.0522847 98.5522847,85.5 98,85.5 L68.75,85.5 C68.1977153,85.5 67.75,85.0522847 67.75,84.5 L67.75,77.125 C67.75,76.5727153 68.1977153,76.125 68.75,76.125 Z" id="Rectangle" fill="#EE9C28" transform="translate(83.375000, 80.812500) rotate(51.000000) translate(-83.375000, -80.812500) "></path>
                        <g id="Group-10-Copy-2" transform="translate(24.000000, 41.750000) rotate(11.000000) translate(-24.000000, -41.750000) translate(5.250000, 16.750000)">
                            <g id="Group-9">
                                <g id="Group-8">
                                    <path d="M1,0 L28.8583478,0 L28.8583478,0 L37.5,7.90003781 L37.5,49 C37.5,49.5522847 37.0522847,50 36.5,50 L1,50 C0.44771525,50 6.76353751e-17,49.5522847 0,49 L0,1 C-6.76353751e-17,0.44771525 0.44771525,1.01453063e-16 1,0 Z" id="Rectangle-Copy" fill="#DCDCDC"></path>
                                    <path d="M23.8063161,45.3051243 L24.163459,45.3051243 L24.163459,44.8905515 C25.1666102,44.8582471 25.781106,44.3090727 25.781106,43.4422385 C25.781106,42.9899772 25.6025346,42.6400131 25.2506439,42.3923462 C25.0195514,42.2308243 24.7727027,42.1446793 24.163459,42.0262299 L24.163459,41.1378595 C24.4155598,41.1755479 24.5521144,41.3209176 24.5888792,41.6170411 L25.6655598,41.4285989 C25.5657699,40.9655694 25.3504338,40.6586778 25.0090472,40.4756197 C24.7569464,40.3410181 24.5048455,40.2710253 24.163459,40.249489 L24.163459,39.9479815 L23.8063161,39.9479815 L23.8063161,40.244105 C23.5542153,40.249489 23.3231229,40.2979456 23.0972825,40.3894747 C22.603585,40.5833009 22.2832069,41.0463304 22.2832069,41.5847367 C22.2832069,42.0693024 22.5248035,42.4731071 22.9397195,42.6884696 C23.1550556,42.801535 23.3966523,42.8769119 23.8063161,42.9630569 L23.8063161,43.9806448 C23.643501,43.9591086 23.538459,43.910652 23.4491733,43.8137388 C23.3546355,43.7060576 23.3126187,43.5929923 23.2916102,43.3668616 L22.2096775,43.5660719 C22.235938,43.7598982 22.2569464,43.8568114 22.288459,43.9591086 C22.3829968,44.2175436 22.5353077,44.422138 22.7506439,44.5675077 C23.0132489,44.7505658 23.3388792,44.847479 23.8063161,44.8797834 L23.8063161,45.3051243 Z M23.8063161,41.1324754 L23.8063161,41.9616211 L23.7023409,41.93285 C23.6149427,41.9071075 23.5725976,41.8889363 23.5332069,41.864708 C23.4124086,41.7947152 23.3493834,41.6870339 23.3493834,41.5470483 C23.3493834,41.3047654 23.5121985,41.1540116 23.8063161,41.1324754 Z M24.163459,43.9860289 L24.163459,43.0168975 L24.2690053,43.0428946 C24.3742563,43.0706052 24.4237298,43.0910779 24.4890892,43.1245788 C24.6203918,43.1945716 24.6886691,43.318405 24.6886691,43.4906951 C24.6886691,43.7975867 24.5153497,43.9591086 24.163459,43.9860289 Z" id="$-copy" fill="#494342"></path>
                                    <path d="M28.8583478,2.84217094e-14 L28.8583478,6.90003781 C28.8583478,7.45232256 29.306063,7.90003781 29.8583478,7.90003781 L37.5,7.90003781 L37.5,7.90003781 L28.8583478,2.84217094e-14 Z" id="Path-2-Copy" fill="#DCDCDC"></path>
                                    <line x1="3.36538462" y1="25" x2="19.8489011" y2="25" id="Line-Copy-10" stroke="#494342" stroke-width="1.5" stroke-linecap="round" stroke-linejoin="round"></line>
                                    <line x1="3.36538462" y1="28.5714286" x2="19.8489011" y2="28.5714286" id="Line-Copy-11" stroke="#494342" stroke-width="1.5" stroke-linecap="round" stroke-linejoin="round"></line>
                                    <line x1="3.36538462" y1="32.1428571" x2="19.8489011" y2="32.1428571" id="Line-Copy-12" stroke="#494342" stroke-width="1.5" stroke-linecap="round" stroke-linejoin="round"></line>
                                    <line x1="28.7774725" y1="25" x2="33.7225275" y2="25" id="Line-Copy-13" stroke="#494342" stroke-width="1.5" stroke-linecap="round" stroke-linejoin="round"></line>
                                    <line x1="28.7774725" y1="28.5714286" x2="33.7225275" y2="28.5714286" id="Line-Copy-14" stroke="#494342" stroke-width="1.5" stroke-linecap="round" stroke-linejoin="round"></line>
                                    <line x1="28.7774725" y1="32.1428571" x2="33.7225275" y2="32.1428571" id="Line-Copy-15" stroke="#494342" stroke-width="1.5" stroke-linecap="round" stroke-linejoin="round"></line>
                                    <line x1="3.125" y1="37.5" x2="31.25" y2="37.5" id="Line-2-Copy-2" stroke="#494342" stroke-width="1.5" stroke-linecap="round" stroke-linejoin="round"></line>
                                    <line x1="3.57142857" y1="17.8571429" x2="12.5" y2="17.8571429" id="Line-Copy-17" stroke="#494342" stroke-width="1.5" stroke-linecap="round" stroke-linejoin="round"></line>
                                    <rect id="Rectangle" fill="#494342" x="4.01785714" y="4.01785714" width="7.58928571" height="7.58928571" rx="1.5"></rect>
                                </g>
                            </g>
                        </g>
                        <g id="Group-10-Copy" transform="translate(55.492574, 29.189520) rotate(-14.000000) translate(-55.492574, -29.189520) translate(36.492574, 4.189520)">
                            <g id="Group-9">
                                <g id="Group-8">
                                    <path d="M1,0 L28.8583478,0 L28.8583478,0 L37.5,7.90003781 L37.5,49 C37.5,49.5522847 37.0522847,50 36.5,50 L1,50 C0.44771525,50 6.76353751e-17,49.5522847 0,49 L0,1 C-6.76353751e-17,0.44771525 0.44771525,1.01453063e-16 1,0 Z" id="Rectangle-Copy" fill="#F9F9F9"></path>
                                    <path d="M5.16806723,44.9142857 L5.52521008,44.9142857 L5.52521008,44.4997128 C6.52836134,44.4674085 7.14285714,43.918234 7.14285714,43.0513999 C7.14285714,42.5991385 6.96428571,42.2491744 6.61239496,42.0015075 C6.38130252,41.8399856 6.13445378,41.7538406 5.52521008,41.6353912 L5.52521008,40.7470208 C5.77731092,40.7847093 5.91386555,40.930079 5.95063025,41.2262024 L7.02731092,41.0377602 C6.92752101,40.5747308 6.71218487,40.2678392 6.37079832,40.084781 C6.11869748,39.9501795 5.86659664,39.8801866 5.52521008,39.8586504 L5.52521008,39.5571429 L5.16806723,39.5571429 L5.16806723,39.8532663 C4.91596639,39.8586504 4.68487395,39.907107 4.45903361,39.998636 C3.96533613,40.1924623 3.64495798,40.6554917 3.64495798,41.1938981 C3.64495798,41.6784637 3.88655462,42.0822685 4.30147059,42.297631 C4.51680672,42.4106963 4.75840336,42.4860732 5.16806723,42.5722182 L5.16806723,43.5898062 C5.0052521,43.5682699 4.90021008,43.5198134 4.81092437,43.4229002 C4.71638655,43.315219 4.67436975,43.2021536 4.65336134,42.976023 L3.57142857,43.1752333 C3.59768908,43.3690596 3.61869748,43.4659727 3.65021008,43.5682699 C3.7447479,43.826705 3.89705882,44.0312994 4.11239496,44.1766691 C4.375,44.3597272 4.70063025,44.4566403 5.16806723,44.4889447 L5.16806723,44.9142857 Z M5.16806723,40.7416368 L5.16806723,41.5707825 L5.06409204,41.5420114 C4.9766938,41.5162688 4.93434874,41.4980976 4.89495798,41.4738693 C4.77415966,41.4038765 4.71113445,41.2961953 4.71113445,41.1562096 C4.71113445,40.9139268 4.87394958,40.763173 5.16806723,40.7416368 Z M5.52521008,43.5951902 L5.52521008,42.6260589 L5.63075642,42.652056 C5.73600737,42.6797666 5.78548086,42.7002393 5.85084034,42.7337401 C5.98214286,42.803733 6.05042017,42.9275664 6.05042017,43.0998564 C6.05042017,43.406748 5.87710084,43.5682699 5.52521008,43.5951902 Z" id="$-copy" fill="#494342"></path>
                                    <path d="M28.8583478,3.73034936e-14 L28.8583478,6.90003781 C28.8583478,7.45232256 29.306063,7.90003781 29.8583478,7.90003781 L37.5,7.90003781 L37.5,7.90003781 L28.8583478,3.73034936e-14 Z" id="Path-2-Copy" fill="#DCDCDC"></path>
                                    <line x1="3.57142857" y1="5.35714286" x2="25" y2="5.35714286" id="Line-Copy-3" stroke="#494342" stroke-width="1.5" stroke-linecap="round" stroke-linejoin="round"></line>
                                    <line x1="3.36538462" y1="25" x2="19.8489011" y2="25" id="Line-Copy-10" stroke="#494342" stroke-width="1.5" stroke-linecap="round" stroke-linejoin="round"></line>
                                    <line x1="3.36538462" y1="28.5714286" x2="19.8489011" y2="28.5714286" id="Line-Copy-11" stroke="#494342" stroke-width="1.5" stroke-linecap="round" stroke-linejoin="round"></line>
                                    <line x1="3.36538462" y1="32.1428571" x2="19.8489011" y2="32.1428571" id="Line-Copy-12" stroke="#494342" stroke-width="1.5" stroke-linecap="round" stroke-linejoin="round"></line>
                                    <line x1="28.7774725" y1="25" x2="33.7225275" y2="25" id="Line-Copy-13" stroke="#494342" stroke-width="1.5" stroke-linecap="round" stroke-linejoin="round"></line>
                                    <line x1="28.7774725" y1="28.5714286" x2="33.7225275" y2="28.5714286" id="Line-Copy-14" stroke="#494342" stroke-width="1.5" stroke-linecap="round" stroke-linejoin="round"></line>
                                    <line x1="28.7774725" y1="32.1428571" x2="33.7225275" y2="32.1428571" id="Line-Copy-15" stroke="#494342" stroke-width="1.5" stroke-linecap="round" stroke-linejoin="round"></line>
                                    <line x1="3.57142857" y1="14.2857143" x2="12.5" y2="14.2857143" id="Line-Copy-16" stroke="#494342" stroke-width="1.5" stroke-linecap="round" stroke-linejoin="round"></line>
                                    <line x1="3.57142857" y1="17.8571429" x2="12.5" y2="17.8571429" id="Line-Copy-17" stroke="#494342" stroke-width="1.5" stroke-linecap="round" stroke-linejoin="round"></line>
                                </g>
                            </g>
                        </g>
                        <g id="Group" transform="translate(30.250000, 23.000000)">
                            <circle id="Oval" fill="#FFB650" cx="26.5625" cy="26.5625" r="26.5625"></circle>
                            <circle id="Oval" fill="#F9F9F9" cx="26.5625" cy="26.5625" r="22.1354167"></circle>
                            <path d="M24.6520996,36.8164062 L28.2958984,36.8164062 L28.2958984,40.625 L24.6520996,40.625 L24.6520996,36.8164062 Z M18.4814453,22.1496582 C18.4814453,19.5129263 19.2260668,17.3919758 20.715332,15.7867432 C22.2045973,14.1815105 24.2492546,13.3789062 26.8493652,13.3789062 C29.2541624,13.3789062 31.1798023,14.0655449 32.6263428,15.4388428 C34.0728832,16.8121407 34.7961426,18.5668839 34.7961426,20.703125 C34.7961426,21.9970768 34.5306423,23.046871 33.9996338,23.8525391 C33.5276262,24.5686885 32.6288352,25.5838223 31.3032383,26.8979654 L30.7861328,27.4047852 C29.614252,28.5400447 28.8543719,29.5013388 28.5064697,30.2886963 C28.1585676,31.0760537 27.9846191,32.2387618 27.9846191,33.7768555 L24.7253418,33.7768555 C24.7253418,32.0312413 24.9328593,30.624395 25.3479004,29.5562744 C25.7629415,28.4881538 26.6723563,27.2644112 28.0761719,25.8850098 L29.5410156,24.4384766 C29.9804709,24.0234354 30.3344713,23.5900901 30.6030273,23.1384277 C31.091311,22.3449667 31.3354492,21.5210004 31.3354492,20.6665039 C31.3354492,19.4702089 30.9783971,18.4326216 30.2642822,17.5537109 C29.5501673,16.6748003 28.3691489,16.2353516 26.7211914,16.2353516 C24.682607,16.2353516 23.272709,16.9921799 22.4914551,18.5058594 C22.0519998,19.3481487 21.8017581,20.5627362 21.7407227,22.1496582 L18.4814453,22.1496582 Z" id="?" fill="#EE9C28"></path>
                        </g>
                    </g>
                </g>
            </g>
            <g id="Path-2" opacity="0.5" transform="translate(0.500000, 0.000000)" fill="url(#linearGradient-1)" fill-rule="nonzero">
                <path d="M1,0 L1,100 C1,149.429485 41.0705149,189.5 90.5,189.5 C136.984666,189.5 175.626635,153.914187 179.655217,107.910739 L179.602,108.468 L180.604789,108.513491 C176.288666,154.782404 137.330461,190.5 90.5,190.5 C40.5182301,190.5 9.9475983e-14,149.98177 9.9475983e-14,100 L9.9475983e-14,0 L1,0 Z" id="Path"></path>
            </g>
        </g>
        <g id="Group-5" transform="translate(130.000000, 30.000000)">
            <g id="Oval-Copy">
                <use fill="black" fill-opacity="1" filter="url(#filter-3)" xlink:href="#path-2"></use>
                <use stroke="#FFFFFF" stroke-width="1" fill="#494342" fill-rule="evenodd" xlink:href="#path-2"></use>
            </g>
            <text id="1" font-family="Lato-Bold, Lato" font-size="18" font-weight="bold" fill="#FFFFFF">
                <tspan x="14.78" y="27">1</tspan>
            </text>
        </g>
    </g>
</svg>