<?xml version="1.0" encoding="UTF-8"?>
<svg width="200px" height="200px" viewBox="0 0 200 200" version="1.1" xmlns="http://www.w3.org/2000/svg" xmlns:xlink="http://www.w3.org/1999/xlink">
    <!-- Generator: Sketch 59.1 (86144) - https://sketch.com -->
    <title>Slide10_Sample_Documents</title>
    <desc>Created with Sketch.</desc>
    <defs>
        <circle id="path-1" cx="20" cy="20" r="20"></circle>
        <filter x="-18.8%" y="-13.8%" width="137.5%" height="137.5%" filterUnits="objectBoundingBox" id="filter-2">
            <feMorphology radius="0.5" operator="dilate" in="SourceAlpha" result="shadowSpreadOuter1"></feMorphology>
            <feOffset dx="0" dy="2" in="shadowSpreadOuter1" result="shadowOffsetOuter1"></feOffset>
            <feGaussianBlur stdDeviation="2" in="shadowOffsetOuter1" result="shadowBlurOuter1"></feGaussianBlur>
            <feComposite in="shadowBlurOuter1" in2="SourceAlpha" operator="out" result="shadowBlurOuter1"></feComposite>
            <feColorMatrix values="0 0 0 0 0   0 0 0 0 0   0 0 0 0 0  0 0 0 0.5 0" type="matrix" in="shadowBlurOuter1"></feColorMatrix>
        </filter>
    </defs>
    <g id="Slide10_Sample_Documents" stroke="none" stroke-width="1" fill="none" fill-rule="evenodd">
        <g id="Slide12_Extract_Data" transform="translate(21.000000, 20.000000)">
            <g id="Group-12-Copy-4">
                <g id="icon">
                    <g id="Group-24">
                        <circle id="Oval-Copy" stroke="#FFFFFF" stroke-width="2" fill="#AA52A5" cx="79.4909225" cy="79.4909225" r="79.4909225"></circle>
                        <g id="Group-4" transform="translate(34.200000, 42.000000)">
                            <g id="Group-3">
                                <g id="Group-2">
                                    <g id="Group">
                                        <g id="Group-10" transform="translate(54.400000, 25.600000)">
                                            <g id="Group-9">
                                                <g id="Group-8">
                                                    <path d="M1,0 L25.7899183,0 L25.7899183,0 L33.5127273,6.95109697 L33.5127273,42.9940741 C33.5127273,43.5463588 33.065012,43.9940741 32.5127273,43.9940741 L1,43.9940741 C0.44771525,43.9940741 6.76353751e-17,43.5463588 0,42.9940741 L0,1 C-6.76353751e-17,0.44771525 0.44771525,1.01453063e-16 1,0 Z" id="Rectangle-Copy" fill="#F9F9F9"></path>
                                                    <path d="M4.62227655,39.5192483 L4.94227655,39.5192483 L4.94227655,39.1544733 C5.84110008,39.1260492 6.39168831,38.6428408 6.39168831,37.8801295 C6.39168831,37.4821931 6.23168831,37.1742662 5.91639419,36.9563487 C5.70933537,36.8142286 5.4881589,36.7384312 4.94227655,36.6342097 L4.94227655,35.852549 C5.1681589,35.8857104 5.29051184,36.0136185 5.32345302,36.2741721 L6.2881589,36.1083653 C6.19874714,35.7009542 6.00580596,35.430926 5.69992361,35.2698565 C5.47404125,35.1514231 5.2481589,35.0898377 4.94227655,35.0708884 L4.94227655,34.8055975 L4.62227655,34.8055975 L4.62227655,35.066151 C4.39639419,35.0708884 4.18933537,35.1135244 3.98698243,35.1940591 C3.54462949,35.3646033 3.25757066,35.7720143 3.25757066,36.2457481 C3.25757066,36.6721084 3.47404125,37.0274087 3.84580596,37.2169022 C4.03874714,37.3163863 4.25521772,37.3827091 4.62227655,37.4585064 L4.62227655,38.3538632 C4.47639419,38.3349139 4.38227655,38.2922778 4.30227655,38.2070058 C4.21757066,38.112259 4.17992361,38.0127749 4.16110008,37.8138068 L3.19168831,37.9890882 C3.21521772,38.1596324 3.23404125,38.2449045 3.26227655,38.3349139 C3.34698243,38.5623061 3.48345302,38.7423249 3.67639419,38.870233 C3.91168831,39.0313025 4.20345302,39.1165746 4.62227655,39.1449986 L4.62227655,39.5192483 Z M4.62227655,35.8478117 L4.62227655,36.5773617 L4.52911478,36.5520465 C4.45080596,36.5293961 4.41286478,36.5134076 4.37757066,36.4920896 C4.26933537,36.4305042 4.21286478,36.3357575 4.21286478,36.2125867 C4.21286478,35.9994065 4.35874714,35.8667611 4.62227655,35.8478117 Z M4.94227655,38.3586006 L4.94227655,37.5058798 L5.03684606,37.5287542 C5.13115091,37.5531362 5.17547916,37.5711498 5.23404125,37.6006266 C5.35168831,37.662212 5.41286478,37.7711707 5.41286478,37.9227655 C5.41286478,38.1927938 5.25757066,38.3349139 4.94227655,38.3586006 Z" id="$-copy" fill="#494342"></path>
                                                    <path d="M25.7899183,3.73034936e-14 L25.7899183,5.95109697 C25.7899183,6.50338172 26.2376336,6.95109697 26.7899183,6.95109697 L33.5127273,6.95109697 L33.5127273,6.95109697 L25.7899183,3.73034936e-14 Z" id="Path-2-Copy" fill="#DCDCDC"></path>
                                                    <line x1="3.19168831" y1="4.71365079" x2="22.3418182" y2="4.71365079" id="Line-Copy-3" stroke="#494342" stroke-linecap="round" stroke-linejoin="round"></line>
                                                    <line x1="3.00755245" y1="21.997037" x2="17.7384216" y2="21.997037" id="Line-Copy-10" stroke="#494342" stroke-linecap="round" stroke-linejoin="round"></line>
                                                    <line x1="3.00755245" y1="25.1394709" x2="17.7384216" y2="25.1394709" id="Line-Copy-11" stroke="#494342" stroke-linecap="round" stroke-linejoin="round"></line>
                                                    <line x1="3.00755245" y1="28.2819048" x2="17.7384216" y2="28.2819048" id="Line-Copy-12" stroke="#494342" stroke-linecap="round" stroke-linejoin="round"></line>
                                                    <line x1="25.7176424" y1="21.997037" x2="30.1369031" y2="21.997037" id="Line-Copy-13" stroke="#494342" stroke-linecap="round" stroke-linejoin="round"></line>
                                                    <line x1="25.7176424" y1="25.1394709" x2="30.1369031" y2="25.1394709" id="Line-Copy-14" stroke="#494342" stroke-linecap="round" stroke-linejoin="round"></line>
                                                    <line x1="25.7176424" y1="28.2819048" x2="30.1369031" y2="28.2819048" id="Line-Copy-15" stroke="#494342" stroke-linecap="round" stroke-linejoin="round"></line>
                                                    <line x1="3.19168831" y1="12.5697354" x2="11.1709091" y2="12.5697354" id="Line-Copy-16" stroke="#494342" stroke-linecap="round" stroke-linejoin="round"></line>
                                                    <line x1="3.19168831" y1="15.7121693" x2="11.1709091" y2="15.7121693" id="Line-Copy-17" stroke="#494342" stroke-linecap="round" stroke-linejoin="round"></line>
                                                </g>
                                            </g>
                                        </g>
                                        <g id="Group-10-Copy-2" transform="translate(25.600000, 12.800000)">
                                            <g id="Group-9">
                                                <g id="Group-8">
                                                    <path d="M1,0 L25.7899183,0 L25.7899183,0 L33.5127273,6.95109697 L33.5127273,42.9940741 C33.5127273,43.5463588 33.065012,43.9940741 32.5127273,43.9940741 L1,43.9940741 C0.44771525,43.9940741 6.76353751e-17,43.5463588 0,42.9940741 L0,1 C-6.76353751e-17,0.44771525 0.44771525,1.01453063e-16 1,0 Z" id="Rectangle-Copy" fill="#DCDCDC"></path>
                                                    <path d="M21.2787713,39.8631399 L21.5987713,39.8631399 L21.5987713,39.4983649 C22.4975948,39.4699409 23.048183,38.9867325 23.048183,38.2240212 C23.048183,37.8260848 22.888183,37.5181579 22.5728889,37.3002404 C22.3658301,37.1581202 22.1446536,37.0823228 21.5987713,36.9781014 L21.5987713,36.1964407 C21.8246536,36.2296021 21.9470066,36.3575102 21.9799477,36.6180638 L22.9446536,36.4522569 C22.8552419,36.0448459 22.6623007,35.7748177 22.3564183,35.6137482 C22.130536,35.4953148 21.9046536,35.4337294 21.5987713,35.41478 L21.5987713,35.1494891 L21.2787713,35.1494891 L21.2787713,35.4100427 C21.0528889,35.41478 20.8458301,35.4574161 20.6434772,35.5379508 C20.2011242,35.708495 19.9140654,36.115906 19.9140654,36.5896397 C19.9140654,37.0160001 20.130536,37.3713004 20.5023007,37.5607939 C20.6952419,37.660278 20.9117125,37.7266007 21.2787713,37.8023981 L21.2787713,38.6977549 C21.1328889,38.6788056 21.0387713,38.6361695 20.9587713,38.5508974 C20.8740654,38.4561507 20.8364183,38.3566666 20.8175948,38.1576984 L19.848183,38.3329799 C19.8717125,38.5035241 19.890536,38.5887961 19.9187713,38.6788056 C20.0034772,38.9061978 20.1399477,39.0862166 20.3328889,39.2141247 C20.568183,39.3751942 20.8599477,39.4604662 21.2787713,39.4888903 L21.2787713,39.8631399 Z M21.2787713,36.1917034 L21.2787713,36.9212534 L21.1856095,36.8959382 C21.1073007,36.8732878 21.0693595,36.8572993 21.0340654,36.8359813 C20.9258301,36.7743959 20.8693595,36.6796491 20.8693595,36.5564784 C20.8693595,36.3432982 21.0152419,36.2106527 21.2787713,36.1917034 Z M21.5987713,38.7024922 L21.5987713,37.8497715 L21.6933408,37.8726459 C21.7876456,37.8970279 21.8319739,37.9150415 21.890536,37.9445183 C22.008183,38.0061036 22.0693595,38.1150624 22.0693595,38.2666572 C22.0693595,38.5366854 21.9140654,38.6788056 21.5987713,38.7024922 Z" id="$-copy" fill="#494342"></path>
                                                    <path d="M25.7899183,2.84217094e-14 L25.7899183,5.95109697 C25.7899183,6.50338172 26.2376336,6.95109697 26.7899183,6.95109697 L33.5127273,6.95109697 L33.5127273,6.95109697 L25.7899183,2.84217094e-14 Z" id="Path-2-Copy" fill="#DCDCDC"></path>
                                                    <line x1="3.00755245" y1="21.997037" x2="17.7384216" y2="21.997037" id="Line-Copy-10" stroke="#494342" stroke-linecap="round" stroke-linejoin="round"></line>
                                                    <line x1="3.00755245" y1="25.1394709" x2="17.7384216" y2="25.1394709" id="Line-Copy-11" stroke="#494342" stroke-linecap="round" stroke-linejoin="round"></line>
                                                    <line x1="3.00755245" y1="28.2819048" x2="17.7384216" y2="28.2819048" id="Line-Copy-12" stroke="#494342" stroke-linecap="round" stroke-linejoin="round"></line>
                                                    <line x1="25.7176424" y1="21.997037" x2="30.1369031" y2="21.997037" id="Line-Copy-13" stroke="#494342" stroke-linecap="round" stroke-linejoin="round"></line>
                                                    <line x1="25.7176424" y1="25.1394709" x2="30.1369031" y2="25.1394709" id="Line-Copy-14" stroke="#494342" stroke-linecap="round" stroke-linejoin="round"></line>
                                                    <line x1="25.7176424" y1="28.2819048" x2="30.1369031" y2="28.2819048" id="Line-Copy-15" stroke="#494342" stroke-linecap="round" stroke-linejoin="round"></line>
                                                    <line x1="2.79272727" y1="32.9955556" x2="27.9272727" y2="32.9955556" id="Line-2-Copy-2" stroke="#494342" stroke-linecap="round" stroke-linejoin="round"></line>
                                                    <line x1="3.19168831" y1="15.7121693" x2="11.1709091" y2="15.7121693" id="Line-Copy-17" stroke="#494342" stroke-linecap="round" stroke-linejoin="round"></line>
                                                    <rect id="Rectangle" fill="#494342" x="2.79272727" y="2.74962963" width="11.1709091" height="8.24888889" rx="1"></rect>
                                                </g>
                                            </g>
                                        </g>
                                        <g id="Group-10-Copy">
                                            <g id="Group-9">
                                                <g id="Group-8">
                                                    <path d="M1,0 L25.7899183,0 L25.7899183,0 L33.5127273,6.95109697 L33.5127273,42.9940741 C33.5127273,43.5463588 33.065012,43.9940741 32.5127273,43.9940741 L1,43.9940741 C0.44771525,43.9940741 6.76353751e-17,43.5463588 0,42.9940741 L0,1 C-6.76353751e-17,0.44771525 0.44771525,1.01453063e-16 1,0 Z" id="Rectangle-Copy" fill="#F9F9F9"></path>
                                                    <path d="M4.62227655,39.5192483 L4.94227655,39.5192483 L4.94227655,39.1544733 C5.84110008,39.1260492 6.39168831,38.6428408 6.39168831,37.8801295 C6.39168831,37.4821931 6.23168831,37.1742662 5.91639419,36.9563487 C5.70933537,36.8142286 5.4881589,36.7384312 4.94227655,36.6342097 L4.94227655,35.852549 C5.1681589,35.8857104 5.29051184,36.0136185 5.32345302,36.2741721 L6.2881589,36.1083653 C6.19874714,35.7009542 6.00580596,35.430926 5.69992361,35.2698565 C5.47404125,35.1514231 5.2481589,35.0898377 4.94227655,35.0708884 L4.94227655,34.8055975 L4.62227655,34.8055975 L4.62227655,35.066151 C4.39639419,35.0708884 4.18933537,35.1135244 3.98698243,35.1940591 C3.54462949,35.3646033 3.25757066,35.7720143 3.25757066,36.2457481 C3.25757066,36.6721084 3.47404125,37.0274087 3.84580596,37.2169022 C4.03874714,37.3163863 4.25521772,37.3827091 4.62227655,37.4585064 L4.62227655,38.3538632 C4.47639419,38.3349139 4.38227655,38.2922778 4.30227655,38.2070058 C4.21757066,38.112259 4.17992361,38.0127749 4.16110008,37.8138068 L3.19168831,37.9890882 C3.21521772,38.1596324 3.23404125,38.2449045 3.26227655,38.3349139 C3.34698243,38.5623061 3.48345302,38.7423249 3.67639419,38.870233 C3.91168831,39.0313025 4.20345302,39.1165746 4.62227655,39.1449986 L4.62227655,39.5192483 Z M4.62227655,35.8478117 L4.62227655,36.5773617 L4.52911478,36.5520465 C4.45080596,36.5293961 4.41286478,36.5134076 4.37757066,36.4920896 C4.26933537,36.4305042 4.21286478,36.3357575 4.21286478,36.2125867 C4.21286478,35.9994065 4.35874714,35.8667611 4.62227655,35.8478117 Z M4.94227655,38.3586006 L4.94227655,37.5058798 L5.03684606,37.5287542 C5.13115091,37.5531362 5.17547916,37.5711498 5.23404125,37.6006266 C5.35168831,37.662212 5.41286478,37.7711707 5.41286478,37.9227655 C5.41286478,38.1927938 5.25757066,38.3349139 4.94227655,38.3586006 Z" id="$-copy" fill="#494342"></path>
                                                    <path d="M25.7899183,3.73034936e-14 L25.7899183,5.95109697 C25.7899183,6.50338172 26.2376336,6.95109697 26.7899183,6.95109697 L33.5127273,6.95109697 L33.5127273,6.95109697 L25.7899183,3.73034936e-14 Z" id="Path-2-Copy" fill="#DCDCDC"></path>
                                                    <line x1="3.19168831" y1="4.71365079" x2="22.3418182" y2="4.71365079" id="Line-Copy-3" stroke="#484341" stroke-linecap="round" stroke-linejoin="round"></line>
                                                    <line x1="3.00755245" y1="21.997037" x2="17.7384216" y2="21.997037" id="Line-Copy-10" stroke="#484341" stroke-linecap="round" stroke-linejoin="round"></line>
                                                    <line x1="3.00755245" y1="25.1394709" x2="17.7384216" y2="25.1394709" id="Line-Copy-11" stroke="#484341" stroke-linecap="round" stroke-linejoin="round"></line>
                                                    <line x1="3.00755245" y1="28.2819048" x2="17.7384216" y2="28.2819048" id="Line-Copy-12" stroke="#484341" stroke-linecap="round" stroke-linejoin="round"></line>
                                                    <line x1="25.7176424" y1="21.997037" x2="30.1369031" y2="21.997037" id="Line-Copy-13" stroke="#484341" stroke-linecap="round" stroke-linejoin="round"></line>
                                                    <line x1="25.7176424" y1="25.1394709" x2="30.1369031" y2="25.1394709" id="Line-Copy-14" stroke="#484341" stroke-linecap="round" stroke-linejoin="round"></line>
                                                    <line x1="25.7176424" y1="28.2819048" x2="30.1369031" y2="28.2819048" id="Line-Copy-15" stroke="#484341" stroke-linecap="round" stroke-linejoin="round"></line>
                                                    <line x1="3.19168831" y1="12.5697354" x2="11.1709091" y2="12.5697354" id="Line-Copy-16" stroke="#484341" stroke-linecap="round" stroke-linejoin="round"></line>
                                                    <line x1="3.19168831" y1="15.7121693" x2="11.1709091" y2="15.7121693" id="Line-Copy-17" stroke="#484341" stroke-linecap="round" stroke-linejoin="round"></line>
                                                </g>
                                            </g>
                                        </g>
                                    </g>
                                </g>
                                <g id="hands-and-gestures" transform="translate(6.400000, 38.400000)" fill="#EE9C28">
                                    <path d="M26.4930962,15.4556445 L26.4271985,15.4556445 C25.158951,15.4556445 24.1369725,16.5693271 24.1369725,17.9975432 L24.1369725,19.9659031 C24.1369725,20.3503333 23.834973,20.6617605 23.4621805,20.6617605 C23.0897646,20.6617605 22.7873885,20.3503333 22.7873885,19.9659031 L22.7873885,16.3312909 C22.7873885,14.9030748 21.7454523,13.7412415 20.4775813,13.7412415 C19.2025558,13.7412415 18.1602431,14.9030748 18.1602431,16.3312909 L18.1602431,20.1837468 C18.1602431,20.568177 17.8582436,20.8796042 17.4854511,20.8796042 C17.1130352,20.8796042 16.8106591,20.568177 16.8106591,20.1837468 L16.8106591,15.2735256 C16.8106591,13.8453095 15.7901867,12.672215 14.5223158,12.672215 L14.452276,12.672215 C13.216036,12.672215 12.1835138,13.7878391 12.1835138,15.1663512 L12.1835138,20.695932 C12.1835138,21.0803622 11.8815143,21.3917894 11.5087217,21.3917894 C11.1363059,21.3917894 10.8339297,21.0803622 10.8339297,20.695932 L10.8339297,15.3255596 C10.8339297,15.3080856 10.8320469,15.2902231 10.8320469,15.272749 C10.8320469,15.2288696 10.8339297,15.1857669 10.8339297,15.1426641 L10.8339297,2.59004953 C10.8339297,1.16183329 9.79048733,0 8.52261644,0 C7.25436893,0 6.21092655,1.16105671 6.21017338,2.5877196 L6.20678439,15.2878932 L6.20678439,15.2933296 L6.19624076,23.406747 C6.19360483,23.7923421 5.88972256,24.1037693 5.51580034,24.1041575 C5.14225475,24.1026044 4.84025524,23.7892356 4.84100831,23.4040288 L4.84552701,16.8982283 L1.00350529,20.6217642 C0.0598507673,21.5304173 -0.253068997,22.9399944 0.213862986,24.1818202 L5.14827968,37.4124298 C6.47451718,40.0114105 8.96394238,41.6 11.65332,41.6 L21.3127871,41.6 C25.4312025,41.6 28.7855816,37.9005396 28.7897238,33.3238794 C28.7919831,30.9171138 28.7942425,29.1456287 28.7961253,27.688289 C28.8010205,23.7698198 28.8025268,22.3276244 28.7931128,18.0142407 C28.7897238,16.5902959 27.7579547,15.4556445 26.4930962,15.4556445 L26.4930962,15.4556445 Z" id="Path"></path>
                                </g>
                            </g>
                        </g>
                    </g>
                </g>
            </g>
        </g>
        <g id="Group-5" transform="translate(130.000000, 30.000000)">
            <g id="Oval-Copy">
                <use fill="black" fill-opacity="1" filter="url(#filter-2)" xlink:href="#path-1"></use>
                <use stroke="#FFFFFF" stroke-width="1" fill="#494342" fill-rule="evenodd" xlink:href="#path-1"></use>
            </g>
            <text id="1" font-family="Lato-Bold, Lato" font-size="18" font-weight="bold" fill="#FFFFFF">
                <tspan x="14.78" y="27">1</tspan>
            </text>
        </g>
        <g id="Slide8_Identify_Document" transform="translate(100.000000, 145.500000) scale(1, -1) translate(-100.000000, -145.500000) translate(9.000000, 100.000000)" fill="#FFFFFF" fill-rule="nonzero" opacity="0.5">
            <path d="M181.104789,9.01396571 C176.788666,55.2828785 137.830461,91.0004742 91,91.0004742 C41.0182301,91.0004742 0.5,50.4822441 0.5,0.500474233 L1.5,0.500474233 C1.5,49.9299593 41.5705149,90.0004742 91,90.0004742 C137.484666,90.0004742 176.126635,54.4146611 180.155217,8.41121302 L180.102,8.96847423 L181.104789,9.01396571 Z" id="Path" transform="translate(90.802394, 45.750474) scale(1, -1) translate(-90.802394, -45.750474) "></path>
        </g>
    </g>
</svg>