<?xml version="1.0" encoding="UTF-8"?>
<svg width="100px" height="101px" viewBox="0 0 100 101" version="1.1" xmlns="http://www.w3.org/2000/svg" xmlns:xlink="http://www.w3.org/1999/xlink">
    <!-- Generator: Sketch 59.1 (86144) - https://sketch.com -->
    <title>Group 12 Copy 2</title>
    <desc>Created with Sketch.</desc>
    <g id="Mobirise-images" stroke="none" stroke-width="1" fill="none" fill-rule="evenodd">
        <g id="Artboard-Copy-3" transform="translate(-349.000000, -789.000000)">
            <g id="Group-12-Copy-2" transform="translate(349.265391, 789.926527)">
                <g id="icon">
                    <g id="Group-24">
                        <circle id="Oval-Copy" stroke="#AA52A5" stroke-width="2" fill="#FFFFFF" cx="49.6818266" cy="49.6818266" r="48.6818266"></circle>
                        <g id="Group-5" transform="translate(23.015160, 21.110398)" stroke="#B35AB0" stroke-linecap="round" stroke-linejoin="round" stroke-width="1.5">
                            <path d="M25.6157635,22.1569416 L25.6157635,23.6453202 M25.6157635,27.8287719 L25.6157635,29.4522651 M25.6157635,33.6790652 L25.6157635,35.4281755 M25.6157635,39.6318736 C25.6157635,40.0201929 25.6157635,40.6026718 25.6157635,41.3793103 C25.6157635,42.4675562 24.733566,43.3497537 23.6453202,43.3497537 L1.97044335,43.3497537 C0.882197537,43.3497537 0,42.4675562 0,41.3793103 L0,7.8817734 C0,6.79352759 0.882197537,5.91133005 1.97044335,5.91133005 L17.7339901,5.91133005 L25.6157635,11.8226601 L25.6157635,14.3727847 L25.6157635,17.2246641" id="Shape"></path>
                            <path d="M17.7339901,5.91133005 L25.6157635,11.8226601 L18.7339901,11.8226601 C18.1817054,11.8226601 17.7339901,11.3749448 17.7339901,10.8226601 L17.7339901,5.91133005 L17.7339901,5.91133005 Z" id="Rectangle"></path>
                            <circle id="Oval" cx="25.6157635" cy="19.7044335" r="1.97044335"></circle>
                            <circle id="Oval-Copy" cx="25.6157635" cy="25.6157635" r="1.97044335"></circle>
                            <circle id="Oval-Copy-2" cx="25.6157635" cy="31.5270936" r="1.97044335"></circle>
                            <circle id="Oval-Copy-3" cx="25.6157635" cy="37.4384236" r="1.97044335"></circle>
                            <line x1="27.5862069" y1="18.5139573" x2="39.8439751" y2="9.39250776" id="Line-2"></line>
                            <line x1="27.5862069" y1="47.6716592" x2="39.8439751" y2="38.8983851" id="Line-2-Copy" transform="translate(33.715091, 43.285022) scale(1, -1) translate(-33.715091, -43.285022) "></line>
                            <line x1="28.0007336" y1="25.1512498" x2="42.9526383" y2="21.247589" id="Line-3"></line>
                            <line x1="28.0007336" y1="32.1280545" x2="42.9526383" y2="36.453202" id="Line-3-Copy"></line>
                            <rect id="Rectangle" x="39.408867" y="0" width="9.85221675" height="9.85221675" rx="1"></rect>
                            <rect id="Rectangle-Copy" x="43.3497537" y="15.7635468" width="9.85221675" height="9.85221675" rx="1"></rect>
                            <rect id="Rectangle-Copy-2" x="43.3497537" y="31.5270936" width="9.85221675" height="9.85221675" rx="1"></rect>
                            <rect id="Rectangle-Copy-3" x="39.408867" y="47.2906404" width="9.85221675" height="9.85221675" rx="1"></rect>
                            <line x1="3.9408867" y1="24.4252874" x2="11.4749348" y2="24.4252874" id="Line-Copy-4"></line>
                            <line x1="4.52042886" y1="12.9310345" x2="12.054477" y2="12.9310345" id="Line-Copy-2"></line>
                            <line x1="3.76702405" y1="22.2906404" x2="11.3010722" y2="22.2906404" id="Line-Copy-6"></line>
                            <line x1="3.9408867" y1="26.3957307" x2="11.4749348" y2="26.3957307" id="Line-Copy-5"></line>
                            <line x1="3.76702405" y1="30.8702791" x2="21.855694" y2="30.8702791" id="Line-Copy-10"></line>
                            <line x1="3.76702405" y1="19.1707718" x2="21.8487395" y2="19.1707718" id="Line-Copy-3"></line>
                            <line x1="17.7339901" y1="22.454844" x2="20.7476094" y2="22.454844" id="Line-Copy-9"></line>
                            <line x1="17.7339901" y1="24.4252874" x2="20.7476094" y2="24.4252874" id="Line-Copy-11"></line>
                            <line x1="17.7339901" y1="26.3957307" x2="20.7476094" y2="26.3957307" id="Line-Copy-13"></line>
                            <line x1="15.7635468" y1="35.4679803" x2="21.7907853" y2="35.4679803" id="Line-Copy-12"></line>
                            <line x1="15.7635468" y1="37.4384236" x2="21.7907853" y2="37.4384236" id="Line-Copy-14"></line>
                            <line x1="4.52042886" y1="9.81116585" x2="12.054477" y2="9.81116585" id="Line-Copy"></line>
                        </g>
                    </g>
                </g>
            </g>
        </g>
    </g>
</svg>