<?xml version="1.0" encoding="UTF-8"?>
<svg width="100px" height="100px" viewBox="0 0 100 100" version="1.1" xmlns="http://www.w3.org/2000/svg" xmlns:xlink="http://www.w3.org/1999/xlink">
    <!-- Generator: Sketch 59.1 (86144) - https://sketch.com -->
    <title>Group 12 Copy</title>
    <desc>Created with Sketch.</desc>
    <g id="Mobirise-images" stroke="none" stroke-width="1" fill="none" fill-rule="evenodd">
        <g id="Artboard-Copy-3" transform="translate(-773.000000, -660.000000)" stroke="#00B0F0">
            <g id="Group-12-Copy" transform="translate(773.000000, 660.189614)">
                <g id="icon">
                    <g id="Group-24">
                        <circle id="Oval-Copy" stroke-width="2" fill="#FFFFFF" cx="49.6818266" cy="49.6818266" r="48.6818266"></circle>
                        <g id="Group-3" transform="translate(21.110398, 25.872303)" stroke-linecap="round" stroke-linejoin="round" stroke-width="1.5">
                            <g id="Group-2">
                                <g id="Group">
                                    <g id="multimedia">
                                        <path d="M8.38095238,27.5178346 L8.38095238,31.678103 C8.38095238,33.1969806 9.56589321,34.4282915 11.0275711,34.4282915 L22.4962798,34.4282915 L22.4962798,37.17848 C22.4962798,37.6847725 22.8912876,38.0952381 23.3785136,38.0952381 C23.6124912,38.0952381 23.8367922,37.9985518 24.0022058,37.826665 L27.2725168,34.4283774 L39.2581432,34.4283774 C40.7198211,34.4283774 41.9047619,33.1970665 41.9047619,31.678189 L41.9047619,9.67668133 C41.9047619,8.15771786 40.7198211,6.92640693 39.2581432,6.92640693 L33.5238095,6.92640693" id="Path"></path>
                                        <path d="M30.8771146,0 L2.64661219,0 C1.1849379,0 0,1.23131094 0,2.75018846 L0,24.7516961 C0,26.2705736 1.1849379,27.5018846 2.64661219,27.5018846 L14.9974415,27.5018846 L14.9974415,30.252073 C14.9974415,30.7583655 15.3924484,31.1688312 15.8796731,31.1688312 C16.1136502,31.1688312 16.3379506,31.0721449 16.5033638,30.9002581 L19.7737494,27.5018846 L30.8771973,27.5018846 C32.3388716,27.5018846 33.5238095,26.2705736 33.5238095,24.7516961 L33.5238095,2.75018846 C33.5238095,1.23131094 32.3387889,0 30.8771146,0 Z" id="Shape"></path>
                                    </g>
                                    <line x1="4.19047619" y1="6.06060606" x2="29.3333333" y2="6.06060606" id="Line-5-Copy"></line>
                                    <line x1="4.19047619" y1="9.52380952" x2="29.3333333" y2="9.52380952" id="Line-5-Copy-2"></line>
                                    <line x1="4.19047619" y1="12.987013" x2="29.3333333" y2="12.987013" id="Line-5-Copy-3"></line>
                                    <line x1="4.19047619" y1="16.4502165" x2="29.3333333" y2="16.4502165" id="Line-5-Copy-4"></line>
                                    <line x1="4.19047619" y1="19.9134199" x2="15.9238095" y2="19.9134199" id="Line-5-Copy-5"></line>
                                </g>
                            </g>
                            <g id="gears-2" transform="translate(28.571429, 19.047619)">
                                <g id="gears">
                                    <path d="M0,15.4604485 C0,15.5778797 0,15.7540265 0,15.9888889 C0,16.8005291 0.65978836,17.4603175 1.47089947,17.4603175 L4.14391534,17.4603175 C4.57354497,17.4603175 4.92751323,17.6968254 5.09206349,18.0936508 C5.25661376,18.4904762 5.17301587,18.9084656 4.86984127,19.2121693 L2.97989418,21.1015873 C2.7021164,21.3793651 2.54920635,21.7492063 2.54920635,22.1417989 C2.54920635,22.5349206 2.7021164,22.9042328 2.97989418,23.1825397 L5.38888889,25.5915344 C5.94497354,26.147619 6.91322751,26.1486772 7.46984127,25.5915344 L9.35925926,23.7015873 C9.66296296,23.3984127 10.0804233,23.3148148 10.4777778,23.4793651 C10.8746032,23.6439153 11.1111111,23.9978836 11.1111111,24.4275132 L11.1111111,27.1005291 C11.1111111,27.9116402 11.7708995,28.5714286 12.5820106,28.5714286 L15.9888889,28.5714286 C16.8,28.5714286 17.4597884,27.9116402 17.4597884,27.1005291 L17.4597884,24.4275132 C17.4597884,23.9978836 17.6962963,23.6439153 18.0931217,23.4793651 C18.4904762,23.3142857 18.9079365,23.3984127 19.2116402,23.7015873 L21.1010582,25.5915344 C21.657672,26.1481481 22.626455,26.1470899 23.1820106,25.5915344 L25.5910053,23.1825397 C25.8687831,22.9047619 26.0216931,22.5349206 26.0216931,22.1417989 C26.0216931,21.7492063 25.8687831,21.3798942 25.5910053,21.1015873 L23.7010582,19.2121693 C23.3978836,18.9084656 23.3148148,18.4904762 23.478836,18.0936508 C23.6428571,17.6968254 23.9978836,17.4603175 24.4275132,17.4603175 L27.1005291,17.4603175 C27.9116402,17.4603175 28.5714286,16.8005291 28.5714286,15.989418 L28.5714286,12.5820106 C28.5714286,11.7708995 27.9116402,11.1111111 27.1005291,11.1111111 L24.4275132,11.1111111 C23.9978836,11.1111111 23.6439153,10.8746032 23.4793651,10.4777778 C23.3148148,10.0809524 23.3984127,9.66296296 23.7015873,9.35925926 L25.5915344,7.46984127 C25.8693122,7.19206349 26.0222222,6.82222222 26.0222222,6.42962963 C26.0222222,6.03650794 25.8693122,5.66719577 25.5915344,5.38888889 L23.1825397,2.97989418 C22.6269841,2.42433862 21.6582011,2.42328042 21.1015873,2.97989418 L19.2121693,4.86931217 C18.9084656,5.17248677 18.489418,5.25714286 18.0936508,5.09206349 C17.6968254,4.92751323 17.4603175,4.57354497 17.4603175,4.14391534 L17.4603175,1.47089947 C17.4603175,0.65978836 16.8005291,0 15.989418,0 C14.7365037,0 13.9597905,0 13.3333333,0" id="Shape"></path>
                                    <path d="M9.64781923,15.3679225 C10.1390573,17.4741498 12.031926,19.047619 14.2857143,19.047619 C16.9116402,19.047619 19.047619,16.9116402 19.047619,14.2857143 C19.047619,11.6597884 16.9116402,9.52380952 14.2857143,9.52380952 C14.0175879,9.52380952 13.7545696,9.54607906 13.4984118,9.58886583" id="Shape"></path>
                                </g>
                            </g>
                        </g>
                    </g>
                </g>
            </g>
        </g>
    </g>
</svg>