<?xml version="1.0" encoding="UTF-8"?>
<svg width="100px" height="100px" viewBox="0 0 100 100" version="1.1" xmlns="http://www.w3.org/2000/svg" xmlns:xlink="http://www.w3.org/1999/xlink">
    <!-- Generator: Sketch 59.1 (86144) - https://sketch.com -->
    <title>Group 12 Copy 3</title>
    <desc>Created with Sketch.</desc>
    <g id="Mobirise-images" stroke="none" stroke-width="1" fill="none" fill-rule="evenodd">
        <g id="Artboard-Copy-3" transform="translate(-147.000000, -759.000000)">
            <g id="Group-12-Copy-3" transform="translate(147.000000, 759.000000)">
                <g id="icon">
                    <g id="Group-24">
                        <circle id="Oval-Copy" stroke="#AFC22E" stroke-width="2" fill="#FFFFFF" cx="49.6818266" cy="49.6818266" r="48.6818266"></circle>
                        <g id="Group-4" transform="translate(21.110398, 21.110398)">
                            <g id="Group-2" stroke="#AFC22E" stroke-linecap="round" stroke-linejoin="round" stroke-width="1.5">
                                <g id="Group">
                                    <path d="M24.7619048,30.9406098 L24.7619048,34.2857143 C24.7619048,35.3376852 23.9091138,36.1904762 22.8571429,36.1904762 L1.9047619,36.1904762 C0.852790953,36.1904762 0,35.3376852 0,34.2857143 L0,1.9047619 C0,0.852790953 0.852790953,0 1.9047619,0 L17.1428571,0 L24.7619048,5.71428571 L24.7619048,8.17940617 L24.7619048,17.1428571" id="Path"></path>
                                    <path d="M17.1428571,0 L24.7619048,5.71428571 L18.1428571,5.71428571 C17.5905724,5.71428571 17.1428571,5.26657046 17.1428571,4.71428571 L17.1428571,0 L17.1428571,0 Z" id="Rectangle"></path>
                                    <line x1="3.64145658" y1="18.0952381" x2="10.9243697" y2="18.0952381" id="Line-Copy-4"></line>
                                    <line x1="4.3697479" y1="3.76984127" x2="11.6526611" y2="3.76984127" id="Line-Copy"></line>
                                    <line x1="4.3697479" y1="6.78571429" x2="11.6526611" y2="6.78571429" id="Line-Copy-2"></line>
                                    <line x1="3.64145658" y1="15.8333333" x2="10.9243697" y2="15.8333333" id="Line-Copy-6"></line>
                                    <line x1="17.4789916" y1="15.8333333" x2="20.3921569" y2="15.8333333" id="Line-Copy-9"></line>
                                    <line x1="3.64145658" y1="20.3571429" x2="10.9243697" y2="20.3571429" id="Line-Copy-5"></line>
                                    <line x1="14.5658263" y1="31.6666667" x2="20.3921569" y2="31.6666667" id="Line-Copy-12"></line>
                                    <line x1="3.64145658" y1="24.1269841" x2="11.2605042" y2="24.1269841" id="Line-Copy-10"></line>
                                    <line x1="3.64145658" y1="12.8174603" x2="21.1204482" y2="12.8174603" id="Line-Copy-3"></line>
                                </g>
                            </g>
                            <rect id="Rectangle" stroke="#AFC22E" stroke-width="1.5" stroke-linecap="round" stroke-linejoin="round" x="38.0952381" y="22.8571429" width="19.047619" height="34.2857143" rx="1"></rect>
                            <path d="M31.8235891,15.036749 C36.7771493,15.1016601 39.629006,17.6623443 40.3791592,22.7188015" id="Path" stroke="#AFC22E" stroke-width="1.5" stroke-linecap="round" stroke-linejoin="round" transform="translate(36.101374, 18.877775) rotate(-30.000000) translate(-36.101374, -18.877775) "></path>
                            <polyline id="Path-2" stroke="#AFC22E" stroke-width="1.5" stroke-linecap="round" stroke-linejoin="round" transform="translate(40.407745, 19.258928) rotate(-22.000000) translate(-40.407745, -19.258928) " points="37.5506017 20.0810091 41.6789488 21.3915931 43.2648874 17.1262621"></polyline>
                            <path d="M12.4285714,17.1428571 L29.4761905,17.1428571 C30.0284752,17.1428571 30.4761905,17.5905724 30.4761905,18.1428571 L30.4761905,29.4761905 C30.4761905,30.0284752 30.0284752,30.4761905 29.4761905,30.4761905 L12.4285714,30.4761905 C11.8762867,30.4761905 11.4285714,30.0284752 11.4285714,29.4761905 L11.4285714,18.1428571 C11.4285714,17.5905724 11.8762867,17.1428571 12.4285714,17.1428571 Z" id="Rectangle" stroke="#AFC22E" stroke-width="1.5" stroke-linecap="round" stroke-linejoin="round"></path>
                            <g id="Group-3" transform="translate(13.333333, 19.047619)" stroke="#AFC22E" stroke-linecap="round" stroke-linejoin="round" stroke-width="1.5">
                                <polyline id="Path-3" points="1.9047619 0 0 0 0 1.9047619"></polyline>
                                <polyline id="Path-3-Copy-2" transform="translate(0.952381, 8.571429) scale(1, -1) translate(-0.952381, -8.571429) " points="1.9047619 7.61904762 0 7.61904762 0 9.52380952"></polyline>
                                <polyline id="Path-3-Copy" transform="translate(14.285714, 0.952381) scale(-1, 1) translate(-14.285714, -0.952381) " points="15.2380952 0 13.3333333 0 13.3333333 1.9047619"></polyline>
                                <polyline id="Path-3-Copy-3" transform="translate(14.285714, 8.571429) scale(-1, -1) translate(-14.285714, -8.571429) " points="15.2380952 7.61904762 13.3333333 7.61904762 13.3333333 9.52380952"></polyline>
                            </g>
                            <path d="M21.5662207,19.7423735 L24.0866823,26.6666675 L23.1054694,26.6666675 L22.4265258,24.7367937 L19.4317338,24.7367937 L18.7527903,26.6666675 L17.8180804,26.6666675 L20.338542,19.7423735 L21.5662207,19.7423735 Z M20.9291298,20.5468751 L19.7107517,23.946243 L22.1428576,23.946243 L20.9291298,20.5468751 Z" id="A" fill="#B6C931"></path>
                            <g id="Group-2-Copy" transform="translate(41.904762, 30.476190)" stroke="#AFC22E" stroke-linecap="round" stroke-linejoin="round" stroke-width="1.5">
                                <g id="Group">
                                    <path d="M11.4285714,16.2845315 L11.4285714,18.0451128 C11.4285714,18.5987817 11.0349756,19.047619 10.5494505,19.047619 L0.879120879,19.047619 C0.393595824,19.047619 0,18.5987817 0,18.0451128 L0,1.00250627 C0,0.448837344 0.393595824,0 0.879120879,0 L7.91208791,0 L11.4285714,3.0075188 L11.4285714,4.30495061 L11.4285714,9.85212384 L11.4285714,16.2845315 Z" id="Path"></path>
                                    <polygon id="Rectangle" points="7.91208791 0 11.4285714 3.0075188 7.91208791 3.0075188"></polygon>
                                </g>
                            </g>
                            <line x1="38.0952381" y1="26.6666667" x2="57.1428571" y2="26.6666667" id="Line-Copy-8" stroke="#AFC22E" stroke-width="1.5" stroke-linecap="round" stroke-linejoin="round"></line>
                            <line x1="38.0952381" y1="53.3333333" x2="57.1428571" y2="53.3333333" id="Line" stroke="#AFC22E" stroke-width="1.5" stroke-linecap="round" stroke-linejoin="round"></line>
                        </g>
                    </g>
                </g>
            </g>
        </g>
    </g>
</svg>