<?xml version="1.0" encoding="UTF-8"?>
<svg width="200px" height="200px" viewBox="0 0 200 200" version="1.1" xmlns="http://www.w3.org/2000/svg" xmlns:xlink="http://www.w3.org/1999/xlink">
    <!-- Generator: Sketch 59.1 (86144) - https://sketch.com -->
    <title>Slide10_Document_Training</title>
    <desc>Created with Sketch.</desc>
    <defs>
        <circle id="path-1" cx="20" cy="20" r="20"></circle>
        <filter x="-18.8%" y="-13.8%" width="137.5%" height="137.5%" filterUnits="objectBoundingBox" id="filter-2">
            <feMorphology radius="0.5" operator="dilate" in="SourceAlpha" result="shadowSpreadOuter1"></feMorphology>
            <feOffset dx="0" dy="2" in="shadowSpreadOuter1" result="shadowOffsetOuter1"></feOffset>
            <feGaussianBlur stdDeviation="2" in="shadowOffsetOuter1" result="shadowBlurOuter1"></feGaussianBlur>
            <feComposite in="shadowBlurOuter1" in2="SourceAlpha" operator="out" result="shadowBlurOuter1"></feComposite>
            <feColorMatrix values="0 0 0 0 0   0 0 0 0 0   0 0 0 0 0  0 0 0 0.5 0" type="matrix" in="shadowBlurOuter1"></feColorMatrix>
        </filter>
    </defs>
    <g id="Slide10_Document_Training" stroke="none" stroke-width="1" fill="none" fill-rule="evenodd">
        <g id="Slide12_Extract_Data" transform="translate(21.000000, 20.000000)">
            <g id="Group-12-Copy-4">
                <g id="icon">
                    <g id="Group-24">
                        <circle id="Oval-Copy" stroke="#FFFFFF" stroke-width="2" fill="#AA52A5" cx="79.4909225" cy="79.4909225" r="79.4909225"></circle>
                        <g id="Group-7" transform="translate(39.000000, 40.000000)">
                            <g id="Group-3">
                                <g id="Group-10-Copy-3">
                                    <g id="Group-9">
                                        <g id="Group-8">
                                            <path d="M1,0 L39.773413,0 L39.773413,0 L51.6835891,11.0827439 L51.6835891,69.143613 C51.6835891,69.6958978 51.2358739,70.143613 50.6835891,70.143613 L1,70.143613 C0.44771525,70.143613 6.76353751e-17,69.6958978 0,69.143613 L0,1 C-6.76353751e-17,0.44771525 0.44771525,1.01453063e-16 1,0 Z" id="Rectangle-Copy" fill="#F9F9F9"></path>
                                            <path d="M7.12851091,63.0090055 L7.6220174,63.0090055 L7.6220174,62.4274127 C9.00819005,62.3820938 9.85731152,61.6116722 9.85731152,60.3956146 C9.85731152,59.7611498 9.61055827,59.2701948 9.12430923,58.9227498 C8.8049815,58.6961552 8.46388142,58.5753048 7.6220174,58.4091354 L7.6220174,57.1628652 C7.97037493,57.2157373 8.15906859,57.4196724 8.20987073,57.8350958 L9.69764765,57.5707354 C9.55975613,56.9211643 9.26220075,56.4906346 8.7904666,56.2338274 C8.44210908,56.0449986 8.09375155,55.9468076 7.6220174,55.916595 L7.6220174,55.4936184 L7.12851091,55.4936184 L7.12851091,55.9090418 C6.78015338,55.916595 6.46082565,55.9845733 6.14875537,56.1129769 C5.46655522,56.3848904 5.02385086,57.0344616 5.02385086,57.7897769 C5.02385086,58.4695606 5.35769349,59.0360471 5.93103192,59.3381732 C6.2285873,59.4967894 6.56242993,59.6025336 7.12851091,59.723384 L7.12851091,61.1509299 C6.90353001,61.1207173 6.75838104,61.0527389 6.63500441,60.9167822 C6.50437034,60.7657191 6.44631076,60.6071029 6.41728096,60.2898705 L4.92224658,60.5693371 C4.95853383,60.8412506 4.98756362,60.9772074 5.03110831,61.1207173 C5.16174238,61.4832686 5.37220839,61.7702884 5.66976377,61.9742236 C6.03263619,62.2310308 6.482598,62.3669875 7.12851091,62.4123064 L7.12851091,63.0090055 Z M7.12851091,57.155312 L7.12851091,58.3184976 L6.98483611,58.2781354 C6.86406763,58.2420219 6.80555445,58.21653 6.75112359,58.1825408 C6.58420228,58.0843498 6.49711289,57.9332868 6.49711289,57.7369048 C6.49711289,57.3970129 6.7220938,57.1855246 7.12851091,57.155312 Z M7.6220174,61.1584831 L7.6220174,59.7989155 L7.76786325,59.8353862 C7.91330092,59.8742606 7.98166429,59.9029812 8.0719792,59.9499786 C8.25341542,60.0481696 8.34776225,60.2218921 8.34776225,60.463593 C8.34776225,60.8941227 8.10826645,61.1207173 7.6220174,61.1584831 Z" id="$-copy" fill="#494342"></path>
                                            <path d="M39.773413,3.73034936e-14 L39.773413,10.0827439 C39.773413,10.6350286 40.2211283,11.0827439 40.773413,11.0827439 L51.6835891,11.0827439 L51.6835891,11.0827439 L39.773413,3.73034936e-14 Z" id="Path-2-Copy" fill="#DCDCDC"></path>
                                            <line x1="4.92224658" y1="7.51538711" x2="34.4557261" y2="7.51538711" id="Line-Copy-3" stroke="#494342" stroke-linecap="round" stroke-linejoin="round"></line>
                                            <line x1="4.63827082" y1="35.0718065" x2="27.356332" y2="35.0718065" id="Line-Copy-10" stroke="#494342" stroke-linecap="round" stroke-linejoin="round"></line>
                                            <line x1="4.63827082" y1="40.0820646" x2="27.356332" y2="40.0820646" id="Line-Copy-11" stroke="#494342" stroke-linecap="round" stroke-linejoin="round"></line>
                                            <line x1="4.63827082" y1="45.0923226" x2="27.356332" y2="45.0923226" id="Line-Copy-12" stroke="#494342" stroke-linecap="round" stroke-linejoin="round"></line>
                                            <line x1="39.6619484" y1="35.0718065" x2="46.4773668" y2="35.0718065" id="Line-Copy-13" stroke="#494342" stroke-width="1.5" stroke-linecap="round" stroke-linejoin="round"></line>
                                            <line x1="39.6619484" y1="40.0820646" x2="46.4773668" y2="40.0820646" id="Line-Copy-14" stroke="#494342" stroke-width="1.5" stroke-linecap="round" stroke-linejoin="round"></line>
                                            <line x1="39.6619484" y1="45.0923226" x2="46.4773668" y2="45.0923226" id="Line-Copy-15" stroke="#494342" stroke-width="1.5" stroke-linecap="round" stroke-linejoin="round"></line>
                                            <line x1="4.92224658" y1="20.0410323" x2="17.227863" y2="20.0410323" id="Line-Copy-16" stroke="#494342" stroke-linecap="round" stroke-linejoin="round"></line>
                                            <line x1="4.92224658" y1="25.0512904" x2="17.227863" y2="25.0512904" id="Line-Copy-17" stroke="#494342" stroke-linecap="round" stroke-linejoin="round"></line>
                                        </g>
                                    </g>
                                </g>
                                <circle id="Oval" fill="#EE9C28" cx="52.8571429" cy="52.8571429" r="27.1428571"></circle>
                                <g id="Group-6" transform="translate(34.285714, 40.000000)" fill="#FFFFFF">
                                    <g id="Group-5">
                                        <g id="Group-4">
                                            <g id="Group-2" transform="translate(32.664311, 9.252662)">
                                                <g id="Group" transform="translate(0.432004, 0.175909)">
                                                    <path d="M4.49066258,13.0744906 L5.33562962,16.7078257 C5.42904641,17.1102808 4.9970215,17.4766274 4.42908738,17.4766274 L1.08472201,17.4766274 C0.516787881,17.4766274 0.0848739221,17.1102808 0.178179763,16.7078257 L1.02314681,13.0744906 L4.49066258,13.0744906 Z" id="Path"></path>
                                                    <path d="M2.75679375,10.1513704 C2.30069349,10.1513704 1.92902338,9.88729157 1.92491836,9.55880721 L1.81408301,0.603084851 C1.80997799,0.272926583 2.17920729,0.00294926507 2.63874688,-5.32907052e-15 L2.64629123,-5.32907052e-15 C3.10239148,-5.32907052e-15 3.47417254,0.264078788 3.47816661,0.592563149 L3.58900197,9.54828551 C3.59310698,9.87844377 3.22387768,10.1484211 2.7643381,10.1513704 C2.76189728,10.1513704 2.75934551,10.1513704 2.75679375,10.1513704 Z" id="Path"></path>
                                                    <ellipse id="Oval" cx="2.75701564" cy="11.5343365" rx="2.75701564" ry="1.98079019"></ellipse>
                                                </g>
                                            </g>
                                            <path d="M9.86181329,21.4303664 C8.60752951,21.3200747 7.63099255,20.7727449 6.9322024,19.788377 L6.9322024,12.2992358 L17.9602095,16.1673474 L28.9882166,12.2992358 L28.9882166,19.788377 L26.7608453,21.4303664 C16.7491077,21.5406581 11.1160971,21.5406581 9.86181329,21.4303664 Z" id="Path"></path>
                                            <path d="M8.77013886,22 L27.1502801,22 C28.1654388,22 28.9883275,21.437744 28.9883275,20.7441155 L28.9883275,18.8571429 L6.9322024,18.8571429 L6.9322024,20.7441155 C6.9322024,21.437744 7.75509113,22 8.77013886,22 Z" id="Path"></path>
                                            <path d="M17.9602095,13.4011948 L0.609927303,7.43060691 C-0.203309101,7.15236633 -0.203309101,6.0506697 0.609927303,5.7725354 L17.0329758,0.153840043 C17.6326405,-0.0512800142 18.2878894,-0.0512800142 18.8875542,0.153840043 L35.3104917,5.7725354 C36.1237281,6.05077598 36.1237281,7.15247261 35.3104917,7.43060691 L28.9883275,9.59361385 L17.9602095,13.4011948 Z" id="Path"></path>
                                        </g>
                                    </g>
                                </g>
                            </g>
                        </g>
                    </g>
                </g>
            </g>
        </g>
        <g id="Slide8_Identify_Document" transform="translate(9.000000, 9.000000)" fill="#FFFFFF" fill-rule="nonzero" opacity="0.5">
            <path d="M181.104789,9.01396571 C176.788666,55.2828785 137.830461,91.0004742 91,91.0004742 C41.0182301,91.0004742 0.5,50.4822441 0.5,0.500474233 L1.5,0.500474233 C1.5,49.9299593 41.5705149,90.0004742 91,90.0004742 C137.484666,90.0004742 176.126635,54.4146611 180.155217,8.41121302 L180.102,8.96847423 L181.104789,9.01396571 Z" id="Path" transform="translate(90.802394, 45.750474) scale(1, -1) translate(-90.802394, -45.750474) "></path>
        </g>
        <g id="Group-5" transform="translate(130.000000, 30.000000)">
            <g id="Oval-Copy">
                <use fill="black" fill-opacity="1" filter="url(#filter-2)" xlink:href="#path-1"></use>
                <use stroke="#FFFFFF" stroke-width="1" fill="#494342" fill-rule="evenodd" xlink:href="#path-1"></use>
            </g>
            <text id="2" font-family="Lato-Bold, Lato" font-size="18" font-weight="bold" fill="#FFFFFF">
                <tspan x="14.78" y="27">2</tspan>
            </text>
        </g>
    </g>
</svg>