<?xml version="1.0" encoding="UTF-8"?>
<svg width="1920px" height="1200px" viewBox="0 0 1920 1200" version="1.1" xmlns="http://www.w3.org/2000/svg" xmlns:xlink="http://www.w3.org/1999/xlink">
    <!-- Generator: Sketch 59.1 (86144) - https://sketch.com -->
    <title>Slide10_BG</title>
    <desc>Created with Sketch.</desc>
    <g id="Slide10_BG" stroke="none" stroke-width="1" fill="none" fill-rule="evenodd">
        <rect fill="#D98917" x="0" y="0" width="1920" height="1200"></rect>
        <g id="Group-11" transform="translate(-94.000000, 149.000000)" stroke="#FFFFFF" stroke-linecap="round" stroke-linejoin="round" stroke-opacity="0.5">
            <g id="technical-support-copy">
                <path d="M180.445766,0.0375976563 C185.118302,0.0375976563 188.905238,3.82453304 188.905238,8.49707031 L188.905238,8.49707031 L188.905238,24.7452057 C200.028123,27.7390663 210.661945,32.1472442 220.654697,37.9036514 L220.654697,37.9036514 L232.141074,26.4139695 C235.445556,23.109488 240.80212,23.109488 244.103297,26.4106643 L244.103297,26.4106643 L281.519942,63.7975685 C283.106093,65.3837197 283.998302,67.5382416 284.001607,69.7819839 C284.001607,72.0257271 283.109397,74.180249 281.523246,75.7664001 L281.523246,75.7664001 L270.020346,87.2693009 C275.776752,97.262053 280.181626,107.895874 283.175487,119.015454 L283.175487,119.015454 L299.516148,119.015454 C304.188684,119.015454 307.97562,122.80239 307.97562,127.474927 L307.97562,127.474927 L307.97562,180.369762 C307.97562,185.042299 304.188684,188.829235 299.516148,188.829235 L299.516148,188.829235 L283.178791,188.829235 C280.18493,199.952119 275.776752,210.585941 270.020346,220.578693 L270.020346,220.578693 L281.586031,232.144379 C284.887208,235.445556 284.887208,240.80212 281.586031,244.106602 L281.586031,244.106602 L244.199127,281.519942 C242.612976,283.109397 240.458454,284.001607 238.218016,284.001607 C235.970969,284.001607 233.819751,283.109397 232.2336,281.523246 L232.2336,281.523246 L220.654697,269.944343 C210.661945,275.700749 200.028123,280.108928 188.905238,283.102788 L188.905238,283.102788 L188.905238,299.50293 C188.905238,304.175467 185.118302,307.962402 180.445766,307.962402 L180.445766,307.962402 L127.55093,307.962402 C122.881698,307.962402 119.091457,304.175467 119.091457,299.50293 L119.091457,299.50293 L119.091457,283.102788 C107.971877,280.108928 97.3380554,275.700749 87.3419991,269.944343 L87.3419991,269.944343 L75.7664001,281.523246 C74.180249,283.109397 72.0290313,284.001607 69.785289,284.001607 L69.785289,284.001607 C67.5382416,284.001607 65.3870239,283.106093 63.8008728,281.519942 L63.8008728,281.519942 L26.4139695,244.106602 C23.109488,240.80212 23.1127922,235.445556 26.4139695,232.144379 L26.4139695,232.144379 L37.9796539,220.578693 C32.2232475,210.585941 27.8150696,199.952119 24.821209,188.829235 L24.821209,188.829235 L8.48385239,188.829235 C6.23680496,188.829235 4.08558729,187.937025 2.49943617,186.350874 C0.913285044,184.764723 0.0210754602,182.6102 0.0243705849,180.366458 L0.0243705849,180.366458 L0.0541198523,127.471622 C0.0541198523,122.80239 3.84105608,119.015454 8.51359251,119.015454 L8.51359251,119.015454 L24.821209,119.015454 C27.8150696,107.89257 32.2232475,97.262053 37.9796539,87.2693009 L37.9796539,87.2693009 L26.476754,75.7664001 C24.8906029,74.180249 23.9983933,72.0257271 23.9983933,69.7819839 C23.9983933,67.5382416 24.8906029,65.3870239 26.4800582,63.8008728 L26.4800582,63.8008728 L63.8933983,26.4106643 C67.1978798,23.109488 72.5544441,23.1127922 75.8556213,26.4139695 L75.8556213,26.4139695 L87.3453033,37.9036514 C97.3380554,32.1472442 107.971877,27.7390663 119.091457,24.7485108 L119.091457,24.7485108 L119.091457,8.49707031 C119.091457,3.82453304 122.881698,0.0375976563 127.55093,0.0375976563 L127.55093,0.0375976563 Z M154,84.1003029 C115.456528,84.1003029 84.1003029,115.456528 84.1003029,154 C84.1003029,192.543472 115.456528,223.899697 154,223.899697 C192.543472,223.899697 223.899697,192.543472 223.899697,154 C223.899697,115.456528 192.543472,84.1003029 154,84.1003029 Z" id="Combined-Shape"></path>
            </g>
        </g>
        <g id="Group-11-Copy-2" transform="translate(1654.000000, 531.000000)" stroke="#FFFFFF" stroke-linecap="round" stroke-linejoin="round" stroke-opacity="0.5">
            <g id="technical-support-copy">
                <path d="M255.436214,0.0532226563 C262.050584,0.0532226563 267.411311,5.41394937 267.411311,12.0283203 L267.411311,12.0283203 L267.411311,35.0289275 C283.156693,39.26699 298.209766,45.507138 312.35535,53.6558183 L312.35535,53.6558183 L328.615287,37.3912035 C333.29306,32.713431 340.875729,32.713431 345.548824,37.3865249 L345.548824,37.3865249 L398.515242,90.3108438 C400.760573,92.5561746 402.023571,95.6060823 402.028248,98.7822889 C402.028248,101.958497 400.765251,105.008404 398.51992,107.253735 L398.51992,107.253735 L382.236594,123.537062 C390.385273,137.682646 396.620743,152.735718 400.858806,168.476422 L400.858806,168.476422 L423.990391,168.476422 C430.604761,168.476422 435.965488,173.83715 435.965488,180.45152 L435.965488,180.45152 L435.965488,255.328625 C435.965488,261.942994 430.604761,267.303722 423.990391,267.303722 L423.990391,267.303722 L400.863483,267.303722 C396.625421,283.049104 390.385273,298.102177 382.236594,312.247761 L382.236594,312.247761 L398.608796,328.619965 C403.281892,333.29306 403.281892,340.875729 398.608796,345.553501 L398.608796,345.553501 L345.684479,398.515242 C343.439148,400.765251 340.38924,402.028248 337.217711,402.028248 C334.036826,402.028248 330.991596,400.765251 328.746265,398.51992 L328.746265,398.51992 L312.35535,382.129005 C298.209766,390.277684 283.156693,396.517833 267.411311,400.755894 L267.411311,400.755894 L267.411311,423.97168 C267.411311,430.586051 262.050584,435.946777 255.436214,435.946777 L255.436214,435.946777 L180.559109,435.946777 C173.949416,435.946777 168.584011,430.586051 168.584011,423.97168 L168.584011,423.97168 L168.584011,400.755894 C152.843307,396.517833 137.790234,390.277684 123.639973,382.129005 L123.639973,382.129005 L107.253735,398.51992 C105.008404,400.765251 101.963174,402.028248 98.7869676,402.028248 L98.7869676,402.028248 C95.6060823,402.028248 92.5608521,400.760573 90.3155212,398.515242 L90.3155212,398.515242 L37.3912035,345.553501 C32.713431,340.875729 32.7181085,333.29306 37.3912035,328.619965 L37.3912035,328.619965 L53.7634062,312.247761 C45.614727,298.102177 39.3745791,283.049104 35.1365166,267.303722 L35.1365166,267.303722 L12.0096092,267.303722 C8.82872391,267.303722 5.7834937,266.040724 3.53816289,263.795394 C1.29283208,261.550063 0.029834093,258.500154 0.0344986202,255.323947 L0.0344986202,255.323947 L0.0766112195,180.446842 C0.0766112195,173.83715 5.43733913,168.476422 12.0517089,168.476422 L12.0517089,168.476422 L35.1365166,168.476422 C39.3745791,152.73104 45.614727,137.682646 53.7634062,123.537062 L53.7634062,123.537062 L37.4800803,107.253735 C35.2347495,105.008404 33.9717515,101.958497 33.9717515,98.7822889 C33.9717515,95.6060823 35.2347495,92.5608521 37.4847578,90.3155212 L37.4847578,90.3155212 L90.4464989,37.3865249 C95.1242714,32.713431 102.70694,32.7181085 107.380035,37.3912035 L107.380035,37.3912035 L123.64465,53.6558183 C137.790234,45.507138 152.843307,39.26699 168.584011,35.0336062 L168.584011,35.0336062 L168.584011,12.0283203 C168.584011,5.41394937 173.949416,0.0532226563 180.559109,0.0532226563 L180.559109,0.0532226563 Z M218,119.051078 C163.438461,119.051078 119.051078,163.438461 119.051078,218 C119.051078,272.561539 163.438461,316.948922 218,316.948922 C272.561539,316.948922 316.948922,272.561539 316.948922,218 C316.948922,163.438461 272.561539,119.051078 218,119.051078 Z" id="Combined-Shape"></path>
            </g>
        </g>
        <g id="Group-11-Copy" transform="translate(1782.000000, 266.000000)" fill="#FFFFFF" fill-opacity="0.2">
            <g id="technical-support-copy">
                <path d="M135.920187,0.0283203125 C139.43976,0.0283203125 142.292257,2.88081709 142.292257,6.40039063 L142.292257,6.40039063 L142.292257,18.6392458 C150.670534,20.8943617 158.680426,24.2148074 166.207434,28.5508024 L166.207434,28.5508024 L174.859511,19.8962367 C177.348601,17.4071468 181.383415,17.4071468 183.870016,19.8937472 L183.870016,19.8937472 L212.053982,48.0553114 C213.248745,49.2500745 213.920799,50.8729612 213.923288,52.5630528 C213.923288,54.2531451 213.251234,55.8760317 212.056471,57.0707949 L212.056471,57.0707949 L203.391949,65.7353175 C207.727943,73.2623256 211.0459,81.2722168 213.301016,89.6480044 L213.301016,89.6480044 L225.609566,89.6480044 C229.129139,89.6480044 231.981636,92.5005018 231.981636,96.0200747 L231.981636,96.0200747 L231.981636,135.862938 C231.981636,139.382511 229.129139,142.235008 225.609566,142.235008 L225.609566,142.235008 L213.303505,142.235008 C211.048389,150.613285 207.727943,158.623177 203.391949,166.150185 L203.391949,166.150185 L212.103763,174.862 C214.590364,177.348601 214.590364,181.383415 212.103763,183.872505 L212.103763,183.872505 L183.9422,212.053982 C182.747437,213.251234 181.12455,213.923288 179.436947,213.923288 C177.744366,213.923288 176.123968,213.251234 174.929205,212.056471 L174.929205,212.056471 L166.207434,203.3347 C158.680426,207.670694 150.670534,210.991141 142.292257,213.246256 L142.292257,213.246256 L142.292257,225.599609 C142.292257,229.119183 139.43976,231.97168 135.920187,231.97168 L135.920187,231.97168 L96.0773239,231.97168 C92.56024,231.97168 89.7052536,229.119183 89.7052536,225.599609 L89.7052536,225.599609 L89.7052536,213.246256 C81.329466,210.991141 73.3195742,207.670694 65.7900772,203.3347 L65.7900772,203.3347 L57.0707949,212.056471 C55.8760317,213.251234 54.255634,213.923288 52.5655424,213.923288 L52.5655424,213.923288 C50.8729612,213.923288 49.2525635,213.248745 48.0578003,212.053982 L48.0578003,212.053982 L19.8962367,183.872505 C17.4071468,181.383415 17.4096357,177.348601 19.8962367,174.862 L19.8962367,174.862 L28.608051,166.150185 C24.2720566,158.623177 20.9516109,150.613285 18.6964951,142.235008 L18.6964951,142.235008 L6.39043427,142.235008 C4.69785309,142.235008 3.07745536,141.562954 1.88269218,140.368191 C0.687928994,139.173428 0.015875022,137.550541 0.0183570639,135.860449 L0.0183570639,135.860449 L0.040765603,96.0175858 C0.040765603,92.5005018 2.89326302,89.6480044 6.41283592,89.6480044 L6.41283592,89.6480044 L18.6964951,89.6480044 C20.9516109,81.2697279 24.2720566,73.2623256 28.608051,65.7353175 L28.608051,65.7353175 L19.943529,57.0707949 C18.7487658,55.8760317 18.0767118,54.2531451 18.0767118,52.5630528 C18.0767118,50.8729612 18.7487658,49.2525635 19.9460179,48.0578003 L19.9460179,48.0578003 L48.1274948,19.8937472 C50.6165848,17.4071468 54.6513995,17.4096357 57.1380005,19.8962367 L57.1380005,19.8962367 L65.7925661,28.5508024 C73.3195742,24.2148074 81.329466,20.8943617 89.7052536,18.6417354 L89.7052536,18.6417354 L89.7052536,6.40039063 C89.7052536,2.88081709 92.56024,0.0283203125 96.0773239,0.0283203125 L96.0773239,0.0283203125 Z M116,63.3482801 C86.9672546,63.3482801 63.3482801,86.9672546 63.3482801,116 C63.3482801,145.032745 86.9672546,168.65172 116,168.65172 C145.032745,168.65172 168.65172,145.032745 168.65172,116 C168.65172,86.9672546 145.032745,63.3482801 116,63.3482801 Z" id="Combined-Shape"></path>
            </g>
        </g>
    </g>
</svg>