<?xml version="1.0" encoding="UTF-8"?>
<svg width="321px" height="251px" viewBox="0 0 321 251" version="1.1" xmlns="http://www.w3.org/2000/svg" xmlns:xlink="http://www.w3.org/1999/xlink">
    <!-- Generator: Sketch 59.1 (86144) - https://sketch.com -->
    <title>Group 6</title>
    <desc>Created with Sketch.</desc>
    <g id="Mobirise-images" stroke="none" stroke-width="1" fill="none" fill-rule="evenodd">
        <g id="Artboard-Copy-3" transform="translate(-114.000000, -440.000000)">
            <g id="Group-6" transform="translate(114.562348, 439.129032)">
                <rect id="Rectangle" fill-opacity="0.01" fill="#FFFFFF" x="0" y="0.870967742" width="320" height="250"></rect>
                <g id="Logo" transform="translate(61.000000, 0.000000)">
                    <g id="Group-9" transform="translate(0.362625, 144.689725)" fill="#1E81C1">
                        <g id="Group-2" transform="translate(1.161785, 0.443653)">
                            <g id="Group-Copy">
                                <g id="Group-16">
                                    <g id="Group-15">
                                        <path d="M130.679573,8.99765171 C128.254347,8.99765171 124.984313,9.11235045 123.074033,10.1090184 C121.163753,11.1056863 119.668773,12.5591386 118.58905,14.4694188 C117.509326,16.3796991 116.969472,18.6636955 116.969472,21.3214767 L116.969472,34.7265935 C116.969472,35.1584829 117.110665,35.5156169 117.393054,35.7980062 C117.675443,36.0803954 118.032577,36.2215879 118.464467,36.2215879 C118.896356,36.2215879 119.25349,36.0803954 119.535879,35.7980062 C119.818269,35.5156169 119.959461,35.1584829 119.959461,34.7265935 L119.959461,21.3214767 C119.959461,18.1653615 120.848143,15.7567835 122.625535,14.0956702 C124.402926,12.434557 127.822458,11.9876406 130.679573,11.9876406 C132.440353,11.9876406 132.606464,8.99765171 130.679573,8.99765171 Z" id="Path-Copy-6"></path>
                                        <path d="M109.23426,32.8898776 C109.699372,32.8898776 110.073117,33.0310701 110.355506,33.3134594 C110.637895,33.5958486 110.779088,33.9695935 110.779088,34.4347052 C110.779088,34.8665947 110.637895,35.2237287 110.355506,35.5061179 C110.073117,35.7885072 109.699372,35.9296997 109.23426,35.9296997 L108.088098,35.9296997 C106.260873,35.9296997 104.633007,35.5144276 103.204449,34.683871 C101.775892,33.8533143 100.662963,32.7154688 99.8656285,31.2703003 C99.0682941,29.8251318 98.6696329,28.1889598 98.6696329,26.3617353 L98.6696329,12.3586207 L94.7826474,12.3586207 C94.3839802,12.3586207 94.060068,12.2340391 93.810901,11.9848721 C93.561734,11.7357051 93.4371524,11.4117929 93.4371524,11.0131257 C93.4371524,10.6144585 93.561734,10.2905463 93.810901,10.0413793 C94.060068,9.79221232 94.3839802,9.6676307 94.7826474,9.6676307 L98.6696329,9.6676307 L98.6696329,1.54482759 C98.6696329,1.07971588 98.8108254,0.705971008 99.0932147,0.423581758 C99.3756039,0.141192507 99.7327379,0 100.164627,0 C100.629739,0 101.003484,0.141192507 101.285873,0.423581758 C101.568262,0.705971008 101.709455,1.07971588 101.709455,1.54482759 L101.709455,9.6676307 L108.28743,9.6676307 C108.686098,9.6676307 109.01001,9.79221232 109.259177,10.0413793 C109.508344,10.2905463 109.632925,10.6144585 109.632925,11.0131257 C109.632925,11.4117929 109.508344,11.7357051 109.259177,11.9848721 C109.01001,12.2340391 108.686098,12.3586207 108.28743,12.3586207 L101.709455,12.3586207 L101.709455,26.3617353 C101.709455,28.2886266 102.307447,29.8583551 103.503448,31.0709677 C104.69945,32.2835804 106.244262,32.8898776 108.137931,32.8898776 L109.23426,32.8898776 Z" id="Path-Copy-5"></path>
                                        <path d="M44.6449635,8.30552466 C47.0701889,8.30552466 49.2379091,8.87860013 51.1481893,10.0247683 C53.0584696,11.1709364 54.5451436,12.7572757 55.6082561,14.7838339 C56.6713686,16.810392 57.2029168,19.1193048 57.2029168,21.7106415 C57.2029168,22.1425309 57.0700298,22.483054 56.8042516,22.732221 C56.5384735,22.981388 56.189645,23.1059696 55.7577555,23.1059696 L34.8776665,23.1059696 C34.9773333,25.0660832 35.4922707,26.8185314 36.4224941,28.3633667 C37.3527175,29.908202 38.5985338,31.112491 40.1599802,31.9762699 C41.7214267,32.8400488 43.4655694,33.2719318 45.3924608,33.2719318 C46.6881291,33.2719318 47.9920834,33.0476849 49.3043629,32.5991843 C50.6166423,32.1506837 51.6548225,31.5609974 52.4189346,30.8301075 C52.7511573,30.5643294 53.0999858,30.4314423 53.4654307,30.4314423 C53.8308756,30.4314423 54.1298715,30.5311076 54.3624274,30.7304412 C54.7278723,31.0294416 54.910592,31.3782702 54.910592,31.7769373 C54.910592,32.10916 54.7610941,32.4247668 54.4620937,32.7237671 C53.3989812,33.6872128 52.0119725,34.4845352 50.3010258,35.1157582 C48.5900792,35.7469813 46.9539072,36.0625881 45.3924608,36.0625881 C42.7679018,36.0625881 40.4340728,35.4729017 38.3909035,34.2935113 C36.3477342,33.1141209 34.744784,31.4696435 33.5820047,29.3600297 C32.4192254,27.2504159 31.8378445,24.8667541 31.8378445,22.2089729 C31.8378445,19.5179695 32.3776982,17.1176969 33.4574218,15.0080831 C34.5371454,12.8984692 36.0487358,11.2539918 37.9922383,10.0746014 C39.9357408,8.89521101 42.1532937,8.30552466 44.6449635,8.30552466 Z M44.3238166,11.0740329 C41.7324799,11.0740329 39.5481488,11.9377988 37.7707576,13.6653566 C35.9933665,15.3929143 34.9385754,17.6686053 34.6063527,20.4924978 L53.9914473,20.4924978 C53.7588914,17.6686053 52.7622384,15.3929143 51.0014584,13.6653566 C49.2406784,11.9377988 47.01482,11.0740329 44.3238166,11.0740329 Z" id="Combined-Shape-Copy-14"></path>
                                        <path d="M12.5326984,8.30552466 C12.5577003,8.30552466 12.5827296,8.30552466 12.6077864,8.30552466 C12.6319259,8.30552466 12.6557369,8.30599391 12.6792204,8.30692067 C15.0150785,8.33644591 17.1089307,8.83430751 18.9608362,9.8005191 C20.8711164,10.797187 22.3660959,12.2506393 23.4458195,14.1609195 C24.5255431,16.0711998 25.0653968,18.3551962 25.0653968,21.0129774 L25.0653968,34.4180942 C25.0653968,34.8499836 24.9242043,35.2071176 24.6418151,35.4895069 C24.3594258,35.7718961 24.0022919,35.9130886 23.5704024,35.9130886 C23.138513,35.9130886 22.781379,35.7718961 22.4989897,35.4895069 C22.2166005,35.2071176 22.075408,34.8499836 22.075408,34.4180942 L22.075408,21.0129774 C22.075408,17.8568622 21.1867257,15.4482842 19.4093346,13.7871709 C17.6475398,12.1406338 15.3553504,11.3101534 12.5326984,11.2957054 C9.7100465,11.3101534 7.41785702,12.1406338 5.65606229,13.7871709 C3.87867113,15.4482842 2.98998888,17.8568622 2.98998888,21.0129774 L2.98998888,34.4180942 C2.98998888,34.8499836 2.84879637,35.2071176 2.56640712,35.4895069 C2.28401787,35.7718961 1.92688388,35.9130886 1.49499444,35.9130886 C1.063105,35.9130886 0.705971008,35.7718961 0.423581758,35.4895069 C0.141192507,35.2071176 0,34.8499836 0,34.4180942 L0,21.0129774 C0,18.3551962 0.539853704,16.0711998 1.61957731,14.1609195 C2.69930091,12.2506393 4.1942804,10.797187 6.10456062,9.8005191 C7.95646616,8.83430751 10.0503183,8.33644591 12.3861764,8.30692067 C12.4096599,8.30599391 12.4334709,8.30552466 12.4576104,8.30552466 C12.4826672,8.30552466 12.5076966,8.30552466 12.5326984,8.30552466 Z" id="Combined-Shape-Copy-13"></path>
                                        <path d="M183.488081,8.30552466 C183.513083,8.30552466 183.538112,8.30552466 183.563169,8.30552466 C183.587308,8.30552466 183.611119,8.30599391 183.634603,8.30692067 C185.970461,8.33644591 188.064313,8.83430751 189.916219,9.8005191 C191.826499,10.797187 193.321478,12.2506393 194.401202,14.1609195 C195.480926,16.0711998 196.020779,18.3551962 196.020779,21.0129774 L196.020779,34.4180942 C196.020779,34.8499836 195.879587,35.2071176 195.597198,35.4895069 C195.314808,35.7718961 194.957674,35.9130886 194.525785,35.9130886 C194.093895,35.9130886 193.736762,35.7718961 193.454372,35.4895069 C193.171983,35.2071176 193.03079,34.8499836 193.03079,34.4180942 L193.03079,21.0129774 C193.03079,17.8568622 192.142108,15.4482842 190.364717,13.7871709 C188.602922,12.1406338 186.310733,11.3101534 183.488081,11.2957054 C180.665429,11.3101534 178.37324,12.1406338 176.611445,13.7871709 C174.834054,15.4482842 173.945371,17.8568622 173.945371,21.0129774 L173.945371,34.4180942 C173.945371,34.8499836 173.804179,35.2071176 173.52179,35.4895069 C173.2394,35.7718961 172.882266,35.9130886 172.450377,35.9130886 C172.018488,35.9130886 171.661354,35.7718961 171.378964,35.4895069 C171.096575,35.2071176 170.955383,34.8499836 170.955383,34.4180942 L170.955383,21.0129774 C170.955383,18.3551962 171.495236,16.0711998 172.57496,14.1609195 C173.654683,12.2506393 175.149663,10.797187 177.059943,9.8005191 C178.911849,8.83430751 181.005701,8.33644591 183.341559,8.30692067 C183.365042,8.30599391 183.388853,8.30552466 183.412993,8.30552466 C183.43805,8.30552466 183.463079,8.30552466 183.488081,8.30552466 Z" id="Combined-Shape-Copy-12"></path>
                                        <path d="M76.2083875,8.30552466 C76.2333893,8.30552466 76.2584186,8.30552466 76.2834755,8.30552466 C76.307615,8.30552466 76.331426,8.30599391 76.3549095,8.30692067 C78.6907675,8.33644591 80.7846197,8.83430751 82.6365253,9.8005191 C84.5468055,10.797187 86.041785,12.2506393 87.1215086,14.1609195 C88.2012322,16.0711998 88.7410859,18.3551962 88.7410859,21.0129774 L88.7410859,34.4180942 C88.7410859,34.8499836 88.5998934,35.2071176 88.3175041,35.4895069 C88.0351149,35.7718961 87.6779809,35.9130886 87.2460914,35.9130886 C86.814202,35.9130886 86.457068,35.7718961 86.1746788,35.4895069 C85.8922895,35.2071176 85.751097,34.8499836 85.751097,34.4180942 L85.751097,21.0129774 C85.751097,17.8568622 84.8624148,15.4482842 83.0850236,13.7871709 C81.3232289,12.1406338 79.0310394,11.3101534 76.2083875,11.2957054 C73.3857355,11.3101534 71.0935461,12.1406338 69.3317513,13.7871709 C67.5543602,15.4482842 66.6656779,17.8568622 66.6656779,21.0129774 L66.6656779,34.4180942 C66.6656779,34.8499836 66.5244854,35.2071176 66.2420962,35.4895069 C65.9597069,35.7718961 65.6025729,35.9130886 65.1706835,35.9130886 C64.738794,35.9130886 64.38166,35.7718961 64.0992708,35.4895069 C63.8168815,35.2071176 63.675689,34.8499836 63.675689,34.4180942 L63.675689,21.0129774 C63.675689,18.3551962 64.2155427,16.0711998 65.2952663,14.1609195 C66.3749899,12.2506393 67.8699694,10.797187 69.7802497,9.8005191 C71.6321552,8.83430751 73.7260074,8.33644591 76.0618654,8.30692067 C76.085349,8.30599391 76.10916,8.30552466 76.1332995,8.30552466 C76.1583563,8.30552466 76.1833856,8.30552466 76.2083875,8.30552466 Z" id="Combined-Shape-Copy-9" transform="translate(76.208387, 22.109307) scale(1, -1) translate(-76.208387, -22.109307) "></path>
                                    </g>
                                </g>
                            </g>
                            <path d="M150.177728,9.01359136 C152.769065,9.01359136 155.12781,9.6198886 157.254035,10.8325013 C159.38026,12.0451139 161.049654,13.7145077 162.262267,15.8407326 C163.474879,17.9669576 164.081177,20.3423139 164.081177,22.9668728 C164.081177,25.5582094 163.474879,27.9169549 162.262267,30.0431798 C161.049654,32.1694047 159.38026,33.8387985 157.254035,35.0514112 C155.12781,36.2640238 152.769065,36.8703211 150.177728,36.8703211 C147.553169,36.8703211 145.177813,36.2640238 143.051588,35.0514112 C140.925363,33.8387985 139.255969,32.1694047 138.043357,30.0431798 C136.830744,27.9169549 136.224447,25.5582094 136.224447,22.9668728 C136.224447,20.3423139 136.830744,17.9669576 138.043357,15.8407326 C139.255969,13.7145077 140.925363,12.0451139 143.051588,10.8325013 C145.177813,9.6198886 147.553169,9.01359136 150.177728,9.01359136 Z M150.177728,11.8042476 C148.117948,11.8042476 146.257529,12.2942687 144.596416,13.2743255 C142.935303,14.2543823 141.623043,15.5915584 140.659597,17.2858939 C139.696151,18.9802294 139.214436,20.8738701 139.214436,22.9668728 C139.214436,25.0598755 139.696151,26.9535161 140.659597,28.6478517 C141.623043,30.3421872 142.935303,31.6710578 144.596416,32.6345035 C146.257529,33.5979492 148.117948,34.0796648 150.177728,34.0796648 C152.237509,34.0796648 154.097928,33.5979492 155.759041,32.6345035 C157.420154,31.6710578 158.724108,30.3421872 159.670943,28.6478517 C160.617778,26.9535161 161.091188,25.0598755 161.091188,22.9668728 C161.091188,20.8738701 160.617778,18.9802294 159.670943,17.2858939 C158.724108,15.5915584 157.420154,14.2543823 155.759041,13.2743255 C154.097928,12.2942687 152.237509,11.8042476 150.177728,11.8042476 Z" id="o" fill-rule="nonzero"></path>
                        </g>
                    </g>
                    <g id="Group-Copy-9" transform="translate(67.548387, 67.270370)">
                        <g id="Group-2">
                            <path d="M33.7516298,18.1905683 C31.3976283,18.1905683 29.2714653,18.7405618 27.373077,19.8405653 C25.4746887,20.9405687 23.9749845,22.4413984 22.8739193,24.3430993 C21.7728541,26.2448002 21.2223297,28.3701988 21.2223297,30.7193587 C21.2223297,33.0685187 21.7728541,35.1939172 22.8739193,37.0956181 C23.9749845,38.997319 25.4746887,40.4888268 27.373077,41.5701861 C29.2714653,42.6515455 31.3976283,43.192217 33.7516298,43.192217 C36.1056312,43.192217 38.2317942,42.6515455 40.1301825,41.5701861 C42.0285708,40.4888268 43.5187832,38.997319 44.6008646,37.0956181 C45.6829459,35.1939172 46.2239784,33.0685187 46.2239784,30.7193587 C46.2239784,28.3701988 45.6829459,26.2448002 44.6008646,24.3430993 C43.5187832,22.4413984 42.0285708,20.9405687 40.1301825,19.8405653 C38.2317942,18.7405618 36.1056312,18.1905683 33.7516298,18.1905683 Z" id="Path-Copy-15" fill="#1E81C1"></path>
                            <path d="M6.26871797,37.0248666 L6.42340223,37.0212269 C7.02457601,39.6819739 8.00597334,42.1882 9.36760061,44.5399298 C11.8056736,48.7508389 15.1264473,52.0534633 19.3300213,54.4479018 C23.5335954,56.8423403 28.2415277,58.0395416 33.4539595,58.0395416 C36.0902592,58.0395416 38.5975055,57.7332917 40.9757167,57.1207873 C41.1504047,57.7349639 41.3989513,58.3201242 41.7205638,58.8755961 C41.8584083,59.1136739 42.0059718,59.341751 42.1632545,59.5598277 C39.4063588,60.331754 36.4999299,60.7182897 33.445216,60.7182897 C27.7245614,60.7182897 22.5470846,59.3967659 17.9126302,56.7536787 C13.2781759,54.1105914 9.63945968,50.4718752 6.99637243,45.8374209 C5.35498714,42.9593754 4.22326835,39.8858741 3.60120658,36.61688 C4.43360405,36.8889853 5.32253089,37.0248666 6.26871797,37.0248666 Z M59.7854401,14.8808689 C62.4285273,19.5153232 63.7500511,24.6928 63.7500511,30.4134546 C63.7500511,36.0616958 62.4285273,41.2029665 59.7854401,45.8374209 C58.6764605,47.781933 57.3922052,49.5511503 55.9326662,51.1450807 C55.8566165,50.9859193 55.7749771,50.8306068 55.6878857,50.6775483 C55.3177417,50.0270397 54.8733117,49.4494956 54.3545913,48.9449118 C55.5254677,47.609505 56.5666345,46.1403152 57.4772652,44.5399298 C59.8733024,40.3290206 61.071303,35.622781 61.071303,30.4210697 C61.071303,25.2193584 59.8733024,20.5131187 57.4772652,16.3022096 C56.5920364,14.7464666 55.5834524,13.3118845 54.4515083,11.9984584 C54.9289189,11.5210441 55.3410203,10.977012 55.6878857,10.3674143 C55.8145613,10.1447886 55.9297027,9.91739407 56.0333099,9.68523046 C57.4514467,11.2489741 58.7020789,12.9812768 59.7854401,14.8808689 Z M33.445216,0 C36.5743268,0 39.5478418,0.40559296 42.365787,1.21678562 C42.1305078,1.51460617 41.9157886,1.83218454 41.7205638,2.16936645 C41.4493935,2.63771725 41.2301669,3.12717401 41.0628835,3.63773904 C38.6592719,2.99800248 36.1227424,2.67874808 33.4539595,2.67874808 C28.2415277,2.67874808 23.5335954,3.89659079 19.3300213,6.33231275 C15.1264473,8.76803471 11.8056736,12.0913004 9.36760061,16.3022096 C8.49708971,17.8057094 7.78198856,19.3723559 7.22229549,21.0021554 C6.91190087,20.9686828 6.59368658,20.9523781 6.26871797,20.9523781 C5.58883029,20.9523781 4.9385073,21.0237462 4.3177453,21.1664833 C4.96577433,18.9713634 5.85863445,16.8758067 6.99637243,14.8808689 C9.63945968,10.2464145 13.2781759,6.60769829 17.9126302,3.96461105 C22.5470846,1.3215238 27.7245614,0 33.445216,0 Z" id="Combined-Shape" fill="#494342"></path>
                            <path d="M48.7093095,0 C47.5323087,0 46.4692272,0.274996742 45.5200331,0.824998475 C44.5708389,1.37500021 43.8209868,2.12541505 43.2704542,3.0762655 C42.7199216,4.02711596 42.4446594,5.08981523 42.4446594,6.2643952 C42.4446594,7.43897518 42.7199216,8.50167445 43.2704542,9.4525249 C43.8209868,10.4033754 44.5708389,11.1491292 45.5200331,11.6898089 C46.4692272,12.2304886 47.5323087,12.5008244 48.7093095,12.5008244 C49.8863102,12.5008244 50.9493917,12.2304886 51.8985858,11.6898089 C52.84778,11.1491292 53.5928862,10.4033754 54.1339269,9.4525249 C54.6749675,8.50167445 54.9454838,7.43897518 54.9454838,6.2643952 C54.9454838,5.08981523 54.6749675,4.02711596 54.1339269,3.0762655 C53.5928862,2.12541505 52.84778,1.37500021 51.8985858,0.824998475 C50.9493917,0.274996742 49.8863102,0 48.7093095,0 Z" id="Path-Copy-14" fill="#AA52A5"></path>
                            <path d="M6.26465002,22.7382104 C5.08764928,22.7382104 4.02456779,23.0132072 3.07537365,23.5632089 C2.1261795,24.1132106 1.37632738,24.8636255 0.825794775,25.8144759 C0.275262172,26.7653264 0,27.8280256 0,29.0026056 C0,30.1771856 0.275262172,31.2398849 0.825794775,32.1907353 C1.37632738,33.1415858 2.1261795,33.8873396 3.07537365,34.4280193 C4.02456779,34.968699 5.08764928,35.2390348 6.26465002,35.2390348 C7.44165075,35.2390348 8.50473225,34.968699 9.45392639,34.4280193 C10.4031205,33.8873396 11.1482268,33.1415858 11.6892674,32.1907353 C12.2303081,31.2398849 12.5008244,30.1771856 12.5008244,29.0026056 C12.5008244,27.8280256 12.2303081,26.7653264 11.6892674,25.8144759 C11.1482268,24.8636255 10.4031205,24.1132106 9.45392639,23.5632089 C8.50473225,23.0132072 7.44165075,22.7382104 6.26465002,22.7382104 Z" id="Path-Copy-13" fill="#EE9C27"></path>
                            <path d="M48.7093095,48.5081822 C47.5323087,48.5081822 46.4692272,48.783179 45.5200331,49.3331807 C44.5708389,49.8831824 43.8209868,50.6335973 43.2704542,51.5844477 C42.7199216,52.5352982 42.4446594,53.5979974 42.4446594,54.7725774 C42.4446594,55.9471574 42.7199216,57.0098567 43.2704542,57.9607071 C43.8209868,58.9115576 44.5708389,59.6573114 45.5200331,60.1979911 C46.4692272,60.7386708 47.5323087,61.0090066 48.7093095,61.0090066 C49.8863102,61.0090066 50.9493917,60.7386708 51.8985858,60.1979911 C52.84778,59.6573114 53.5928862,58.9115576 54.1339269,57.9607071 C54.6749675,57.0098567 54.9454838,55.9471574 54.9454838,54.7725774 C54.9454838,53.5979974 54.6749675,52.5352982 54.1339269,51.5844477 C53.5928862,50.6335973 52.84778,49.8831824 51.8985858,49.3331807 C50.9493917,48.783179 49.8863102,48.5081822 48.7093095,48.5081822 Z" id="Path-Copy-12" fill="#AFC22E"></path>
                        </g>
                    </g>
                    <line x1="99" y1="210.870968" x2="99" y2="251.384629" id="Path" stroke="#000000"></line>
                    <line x1="99" y1="230.870968" x2="99" y2="271.384629" id="Path" stroke="#000000" transform="translate(99.000000, 251.370968) rotate(-90.000000) translate(-99.000000, -251.370968) "></line>
                    <line x1="99" y1="0.870967742" x2="99" y2="41.3846292" id="Path" stroke="#000000"></line>
                </g>
            </g>
        </g>
    </g>
</svg>