<?xml version="1.0" encoding="UTF-8"?>
<svg width="51px" height="11px" viewBox="0 0 51 11" version="1.1" xmlns="http://www.w3.org/2000/svg" xmlns:xlink="http://www.w3.org/1999/xlink">
    <!-- Generator: Sketch 59.1 (86144) - https://sketch.com -->
    <title>Artboard 1 Copy 3</title>
    <desc>Created with Sketch.</desc>
    <g id="Artboard-1-Copy-3" stroke="none" stroke-width="1" fill="none" fill-rule="evenodd">
        <g id="V2logo" transform="translate(0.000000, 1.000000)">
            <g id="Group-3">
                <g id="Group-6">
                    <path d="M1.97815924,1.59520887 L2.63308123,1.59520887 L4.11371034,1.59520887 L5.01859773,1.59520887 L5.01859773,2.50009626 L5.01859773,3.98051479 L5.01859773,4.63564737 L6.19556205,5.81261168 C6.42362652,5.53021605 6.56071791,5.17158835 6.56071791,4.7824257 L6.56071791,1.69797476 L6.56071791,0.0530886927 C6.56071791,0.0530886927 5.36817024,0.0528781068 4.91562125,0.0528781068 L1.83117031,0.0528781068 C1.44200766,0.0528781068 1.08359055,0.190180081 0.801194923,0.418244556 L1.97815924,1.59520887 Z" id="Fill-143" fill="#F15A24"></path>
                    <path d="M4.74492036,4.88536007 L4.11379457,4.88536007 L2.90166242,4.88536007 L1.69879605,4.86598617 L1.72827807,3.39083229 L1.72827807,2.50005415 L1.72827807,1.86871777 L0.540784462,0.681434751 C0.319248148,0.961724516 0.186157891,1.31487699 0.186157891,1.69814323 L0.186157891,4.78259417 C0.186157891,5.68727098 0.926367152,6.42769083 1.83125455,6.42769083 L4.91570549,6.42769083 C5.29876115,6.42769083 5.65191362,6.29460057 5.93241397,6.07285367 L4.74492036,4.88536007 Z" id="Fill-145" fill="#2D81AF"></path>
                </g>
                <g id="Group-166" transform="translate(8.002262, 1.052929)">
                    <polygon id="Fill-147" fill="#2D81AF" points="4.68492445 0.125193288 3.05309471 4.44494082 1.71924393 4.44494082 0.0935211758 0.125193288 1.21762844 0.125193288 2.30277732 3.30777723 2.38574815 3.55205682 2.46935073 3.30861958 3.56081719 0.125193288"></polygon>
                    <path d="M8.27657141,3.66309874 L8.27657141,4.445004 L5.11167668,4.445004 L5.11167668,3.72206277 C5.55327521,3.40302521 5.91822048,3.13494943 6.1976679,2.92352123 C6.48595993,2.70577546 6.71339265,2.51961757 6.87217438,2.37157572 C7.03790544,2.21637395 7.14804184,2.08854834 7.20890115,1.97925428 C7.27144515,1.86638027 7.30240127,1.74824161 7.30240127,1.62652299 C7.30240127,1.44857794 7.22743271,1.30748542 7.08634019,1.21672292 C6.95493462,1.1337521 6.80078578,1.09142434 6.62705245,1.09142434 C6.37666588,1.09142434 6.15197078,1.13648971 5.95802121,1.22367225 C5.79397483,1.29864082 5.6396154,1.39740558 5.49873347,1.5191242 L5.00132969,0.922113318 C5.09672508,0.826928514 5.19885922,0.743325932 5.30815328,0.671726743 C5.4387165,0.586228888 5.57791375,0.514840285 5.72258623,0.46029855 C5.86704812,0.404703886 6.01698525,0.363218473 6.16608003,0.336895242 C6.31580657,0.310361425 6.46490135,0.297094517 6.60767855,0.297094517 C6.84837818,0.297094517 7.07223094,0.329735323 7.27334042,0.395016937 C7.47339698,0.459245621 7.64797265,0.551061051 7.7915922,0.666462097 C7.93457999,0.782073728 8.04640108,0.922113318 8.12579194,1.08447501 C8.20434047,1.24578377 8.24393061,1.42815111 8.24393061,1.62652299 C8.24393061,1.77730245 8.21655444,1.92639723 8.16117037,2.07085913 C8.10473336,2.21721629 8.01565554,2.36631107 7.89667454,2.51351058 C7.77495592,2.66429005 7.6189118,2.8228612 7.43106923,2.98522289 C7.2423843,3.14821633 7.01495159,3.322792 6.75572041,3.50263232 L6.52386539,3.66309874 L8.27657141,3.66309874 Z" id="Fill-149" fill="#2D81AF"></path>
                    <path d="M11.8457699,2.92192078 C11.7769083,2.79409517 11.6827765,2.68395877 11.5671648,2.59403861 C11.4490262,2.50411845 11.3150936,2.42999224 11.1659988,2.37355523 C11.0152193,2.31711822 10.8583329,2.26510352 10.6997617,2.21835346 C10.5401377,2.1716034 10.3849359,2.12590627 10.2333141,2.0808409 C10.0800076,2.03598611 9.94059974,1.98207613 9.81719643,1.92226975 C9.69105551,1.85951517 9.58807902,1.78033489 9.51226812,1.68683477 C9.4337196,1.5897547 9.39412946,1.46635139 9.39412946,1.31999422 C9.39412946,1.19848619 9.42129503,1.08476983 9.47520501,0.983267449 C9.52974674,0.881975655 9.60387296,0.793740184 9.69821542,0.719613965 C9.79066261,0.646540675 9.90185194,0.589261324 10.0279929,0.549460599 C10.1530809,0.509870459 10.2897511,0.490496561 10.4344236,0.490496561 C10.6812302,0.490496561 10.9147699,0.534509003 11.1280933,0.621059788 C11.3283605,0.702977683 11.5054632,0.831645637 11.6554003,1.00453662 L11.8377677,0.80258479 C11.6817235,0.630746737 11.4921963,0.494918864 11.2727658,0.39868113 C11.0409108,0.297389337 10.7648328,0.246216975 10.4537975,0.246216975 C10.2667972,0.246216975 10.0886416,0.272750792 9.92396345,0.323923154 C9.75907473,0.375937859 9.61271757,0.449853492 9.48847192,0.544195953 C9.36591095,0.63769607 9.26798853,0.753307701 9.19744227,0.887240301 C9.12773836,1.02033056 9.09257052,1.17279471 9.09257052,1.33936812 C9.09257052,1.57396076 9.15153456,1.76096099 9.26967322,1.89489359 C9.3905495,2.03156381 9.543856,2.14338489 9.72727627,2.22551338 C9.91322358,2.30932654 10.117913,2.37797753 10.3356588,2.42999224 C10.5586692,2.48369163 10.7675704,2.5481309 10.95794,2.62036184 C11.1518895,2.69448806 11.3159359,2.79241048 11.4446039,2.91054914 C11.5795894,3.03395245 11.647398,3.20768578 11.647398,3.42795858 C11.647398,3.52230104 11.6297088,3.62275049 11.5936987,3.7267799 C11.5574779,3.83354692 11.4921963,3.93146934 11.4005914,4.01949423 C11.3098289,4.10583443 11.187268,4.1791183 11.0381732,4.23639765 C10.8884466,4.29283466 10.7006041,4.32189551 10.4792783,4.32189551 C10.3223919,4.32189551 10.1751924,4.3042063 10.0429445,4.26903846 C9.91069655,4.23471297 9.78539797,4.18796291 9.66999692,4.12878828 C9.55459587,4.06982425 9.44951354,4.00180502 9.35875103,3.92515177 C9.28125544,3.86176543 9.21155153,3.79479913 9.15069222,3.72593755 L8.97169424,3.93315403 C9.12521133,4.11467903 9.32611023,4.2654585 9.56870513,4.38191248 C9.82330342,4.50447344 10.1276,4.56617509 10.472329,4.56617509 C10.7509341,4.56617509 10.9870008,4.52911198 11.1756857,4.45688104 C11.362686,4.38549243 11.5159925,4.29199232 11.6324465,4.1791183 C11.7470052,4.06708663 11.8291336,3.94199864 11.876726,3.80701311 C11.9251608,3.66950055 11.948957,3.53388326 11.948957,3.40247769 C11.948957,3.21105515 11.9146315,3.04890405 11.8457699,2.92192078" id="Fill-151" fill="#F15A24"></path>
                    <path d="M16.3789673,3.16527379 C16.2970494,3.39712881 16.1789107,3.60160767 16.0298159,3.77365631 C15.8790365,3.94549436 15.6956162,4.08216458 15.4850303,4.17734938 C15.2742339,4.27337653 15.0354295,4.32181127 14.775356,4.32181127 C14.5108602,4.32181127 14.2693182,4.27337653 14.0585218,4.17734938 C13.8479359,4.08216458 13.6645157,3.94549436 13.5145785,3.77365631 C13.364852,3.60160767 13.248398,3.39712881 13.1681648,3.16443144 C13.0879316,2.93341877 13.0472885,2.67860989 13.0472885,2.40632239 C13.0472885,2.13024434 13.0879316,1.87290843 13.1681648,1.64105341 C13.248398,1.40919839 13.364852,1.20556187 13.5145785,1.03519792 C13.6645157,0.865044553 13.8479359,0.730269609 14.0585218,0.635084805 C14.2701606,0.539057658 14.5108602,0.490412327 14.775356,0.490412327 C15.0354295,0.490412327 15.2742339,0.539057658 15.4850303,0.635084805 C15.6956162,0.730269609 15.8790365,0.865044553 16.0289736,1.03519792 C16.1789107,1.20450894 16.2970494,1.40814546 16.3789673,1.64105341 C16.4608852,1.87290843 16.5023706,2.13024434 16.5023706,2.40632239 C16.5023706,2.67860989 16.4608852,2.93341877 16.3789673,3.16527379 M16.659257,1.55281794 C16.5640722,1.29105973 16.4257173,1.06004705 16.249457,0.867782169 C16.072986,0.674674945 15.8579779,0.521368446 15.6084336,0.41207439 C15.3588894,0.301727405 15.0785996,0.246343327 14.775356,0.246343327 C14.4676901,0.246343327 14.1855051,0.301727405 13.9386984,0.41207439 C13.6918918,0.521368446 13.4766731,0.674674945 13.3012551,0.867782169 C13.1241524,1.06088939 12.9866398,1.29105973 12.8904021,1.55281794 C12.7952173,1.81457615 12.7459402,2.10202583 12.7459402,2.40632239 C12.7459402,2.71040835 12.7952173,2.99785804 12.8904021,3.25961625 C12.9866398,3.52137446 13.1241524,3.75154479 13.3012551,3.94465202 C13.477726,4.13754866 13.6918918,4.29106574 13.9386984,4.4003598 C14.1863474,4.5104962 14.4676901,4.56609086 14.775356,4.56609086 C15.0785996,4.56609086 15.3588894,4.5104962 15.6084336,4.4003598 C15.8571355,4.29106574 16.072986,4.13754866 16.249457,3.94465202 C16.4257173,3.75154479 16.5640722,3.52137446 16.659257,3.25961625 C16.7554948,2.99785804 16.8039295,2.71040835 16.8039295,2.40632239 C16.8039295,2.10202583 16.7554948,1.81457615 16.659257,1.55281794" id="Fill-153" fill="#F15A24"></path>
                    <polygon id="Fill-155" fill="#F15A24" points="20.1257739 4.24524226 20.1257739 4.48952184 17.7867968 4.48952184 17.7867968 0.316763235 18.0628749 0.316763235 18.0628749 4.24524226"></polygon>
                    <path d="M24.048904,0.316826411 L24.048904,2.89818775 C24.048904,3.41201723 23.9122338,3.82392315 23.6424733,4.1208492 C23.3735552,4.41630114 22.9679669,4.56623827 22.4347635,4.56623827 C22.1702677,4.56623827 21.9339903,4.52643754 21.7337232,4.44788902 C21.534509,4.36955109 21.365198,4.25836176 21.2295807,4.11663748 C21.0945951,3.97554496 20.9914081,3.79991636 20.9244418,3.59649043 C20.8557908,3.39095864 20.8212547,3.15636601 20.8212547,2.89818775 L20.8212547,0.316826411 L21.0973328,0.316826411 L21.0973328,2.89208077 C21.0973328,3.33536398 21.2118915,3.68809528 21.4384818,3.94016654 C21.6659145,4.19329073 22.0009566,4.32195868 22.4347635,4.32195868 C22.8727821,4.32195868 23.2097194,4.19329073 23.4352569,3.94016654 C23.6593202,3.68809528 23.7730366,3.33536398 23.7730366,2.89208077 L23.7730366,0.316826411 L24.048904,0.316826411 Z" id="Fill-157" fill="#F15A24"></path>
                    <polygon id="Fill-159" fill="#F15A24" points="27.9579249 0.316826411 27.9579249 0.560053067 26.5659524 0.560053067 26.5659524 4.48937443 26.2898744 4.48937443 26.2898744 0.560053067 24.8970596 0.560053067 24.8970596 0.316826411"></polygon>
                    <polygon id="Fill-161" fill="#F15A24" points="28.8068807 4.48947973 29.0827482 4.48947973 29.0827482 0.316931704 28.8068807 0.316931704"></polygon>
                    <path d="M33.704181,3.16527379 C33.6222631,3.39712881 33.5041244,3.60160767 33.3550297,3.77365631 C33.2042502,3.94549436 33.0210405,4.08216458 32.8102441,4.17734938 C32.5996582,4.27337653 32.3606433,4.32181127 32.1005697,4.32181127 C31.8360739,4.32181127 31.594532,4.27337653 31.3837355,4.17734938 C31.1731497,4.08216458 30.9897294,3.94549436 30.8397923,3.77365631 C30.6900657,3.60160767 30.5736118,3.39712881 30.4933785,3.16443144 C30.4131453,2.93341877 30.3727129,2.67860989 30.3727129,2.40632239 C30.3727129,2.13024434 30.4131453,1.87290843 30.4933785,1.64105341 C30.5736118,1.40919839 30.6900657,1.20450894 30.8397923,1.03519792 C30.9897294,0.865044553 31.1731497,0.730269609 31.3837355,0.635084805 C31.5953743,0.539057658 31.8360739,0.490412327 32.1005697,0.490412327 C32.3606433,0.490412327 32.5996582,0.539057658 32.8102441,0.635084805 C33.0210405,0.730269609 33.2042502,0.865044553 33.3541873,1.03519792 C33.5041244,1.20450894 33.6214208,1.40814546 33.704181,1.64105341 C33.7860989,1.87290843 33.8275843,2.13024434 33.8275843,2.40632239 C33.8275843,2.67860989 33.7860989,2.93341877 33.704181,3.16527379 M33.9844708,1.55281794 C33.889286,1.29105973 33.7509311,1.06004705 33.5746707,0.867782169 C33.3981998,0.674674945 33.1831916,0.52221079 32.9336474,0.41207439 C32.6841031,0.301727405 32.4038134,0.246343327 32.1005697,0.246343327 C31.7929038,0.246343327 31.5107188,0.301727405 31.2639122,0.41207439 C31.0171056,0.521368446 30.8018868,0.674674945 30.6264688,0.867782169 C30.4493661,1.06088939 30.3118535,1.29105973 30.2156158,1.55281794 C30.1195887,1.81457615 30.0711539,2.10202583 30.0711539,2.40632239 C30.0711539,2.71040835 30.1195887,2.99785804 30.2156158,3.25961625 C30.3118535,3.52137446 30.4493661,3.75154479 30.6264688,3.94465202 C30.8029397,4.13754866 31.0171056,4.29106574 31.2639122,4.4003598 C31.5117717,4.5104962 31.7929038,4.56609086 32.1005697,4.56609086 C32.4038134,4.56609086 32.6841031,4.5104962 32.9336474,4.4003598 C33.1823493,4.29106574 33.3981998,4.13754866 33.5746707,3.94465202 C33.7509311,3.75154479 33.889286,3.52137446 33.9844708,3.25961625 C34.0807085,2.99785804 34.1291432,2.71040835 34.1291432,2.40632239 C34.1291432,2.10202583 34.0807085,1.81457615 33.9844708,1.55281794" id="Fill-163" fill="#F15A24"></path>
                    <polygon id="Fill-164" fill="#F15A24" points="38.4286956 0.316826411 38.4286956 4.48937443 38.1376659 4.48937443 35.4674374 0.846660408 35.3880465 0.738208696 35.3880465 4.48937443 35.112179 4.48937443 35.112179 0.316826411 35.416265 0.316826411 38.0734373 3.90857866 38.1528281 4.01597744 38.1528281 0.316826411"></polygon>
                    <path d="M42.3315253,3.40241451 C42.3315253,3.53297774 42.3077291,3.66943737 42.2592943,3.80716052 C42.2125442,3.94193546 42.1295734,4.06807638 42.0150147,4.17905513 C41.8985607,4.29192914 41.7452542,4.38542926 41.558254,4.45681786 C41.370622,4.52904881 41.1335024,4.56611192 40.8557396,4.56611192 C40.5101682,4.56611192 40.2058717,4.50441026 39.9512734,4.3818493 C39.7086785,4.26560591 39.5086219,4.11482644 39.3542625,3.93309085 L39.5332605,3.72587438 C39.5949621,3.79473595 39.6646661,3.86170225 39.7413193,3.92508859 C39.8331347,4.00195243 39.9380065,4.07060341 40.0525652,4.12893569 C40.1681768,4.18789973 40.2932648,4.23464979 40.4255127,4.26897528 C40.558603,4.30435371 40.7049602,4.32183233 40.8618466,4.32183233 C41.0840147,4.32183233 41.2718573,4.29277149 41.4207415,4.23633448 C41.5698362,4.17905513 41.6923972,4.10598184 41.7831597,4.01943105 C41.8758175,3.93140617 41.9408885,3.83348375 41.9771093,3.72671672 C42.0122771,3.6228979 42.0299663,3.52223786 42.0299663,3.4278954 C42.0299663,3.2076226 41.9621577,3.03304693 41.8271721,2.91048597 C41.6985042,2.79234731 41.5344578,2.69442489 41.3407188,2.62050925 C41.150981,2.54806772 40.9412375,2.48383904 40.7190694,2.42992906 C40.5013236,2.37791435 40.2968448,2.30926337 40.1098445,2.2254502 C39.9274772,2.1435323 39.7731178,2.03150063 39.6522415,1.89483042 C39.5351558,1.76089782 39.4751388,1.57389758 39.4751388,1.33951553 C39.4751388,1.17294212 39.5105172,1.02026738 39.5800105,0.887177126 C39.6505568,0.753244525 39.7484792,0.637632894 39.8710402,0.544343363 C39.9952858,0.450000902 40.141643,0.375874683 40.3065317,0.323859978 C40.4714204,0.272687617 40.6502078,0.246364385 40.8363657,0.246364385 C41.148454,0.246364385 41.4234791,0.297326161 41.6553341,0.398828541 C41.8747645,0.494855688 42.0653447,0.630683561 42.2213889,0.802521614 L42.0388109,1.00447344 C41.8880315,0.831582461 41.7109288,0.702914507 41.5106616,0.620996612 C41.2973381,0.534445828 41.0646408,0.490433385 40.8169918,0.490433385 C40.6731617,0.490433385 40.5364915,0.509807283 40.4114035,0.549608009 C40.2852626,0.589198149 40.1742838,0.6464775 40.0807837,0.719761375 C39.9872836,0.793677009 39.9125256,0.881912479 39.8586156,0.983414859 C39.8040739,1.08470665 39.7766977,1.19842301 39.7766977,1.32014163 C39.7766977,1.4664988 39.8162879,1.58990211 39.8948364,1.6867716 C39.9714896,1.78027171 40.0738344,1.85966258 40.200607,1.92220658 C40.323168,1.98222354 40.4634182,2.03592294 40.6158823,2.08077772 C40.7675041,2.12584309 40.9227059,2.17175081 41.08233,2.21850087 C41.2409011,2.26525093 41.3979982,2.31705504 41.54962,2.37370264 C41.6976618,2.42992906 41.8324368,2.50405528 41.9497331,2.59397544 C42.0653447,2.68389559 42.1596872,2.79403199 42.2283382,2.9218576 C42.2971998,3.04968322 42.3315253,3.21120256 42.3315253,3.40241451" id="Fill-165" fill="#F15A24"></path>
                </g>
            </g>
            <path d="M12.4864335,8.06198475 L12.4864335,7.88615559 L13.4787001,7.88615559 L13.4787001,8.06198475 L13.0753997,8.06198475 L13.0753997,9.6948597 L12.8909635,9.6948597 L12.8909635,8.06198475 L12.4864335,8.06198475 Z M13.7131033,7.84066134 L13.8852437,7.84066134 L13.8852437,8.59684966 C13.95492,8.50504097 14.0315627,8.43639042 14.1151742,8.39089593 C14.1987856,8.34540145 14.2893634,8.32265455 14.3869101,8.32265455 C14.486916,8.32265455 14.5756494,8.3480655 14.653113,8.39888817 C14.7305766,8.44971083 14.7877512,8.51795154 14.8246387,8.60361232 C14.8615261,8.68927311 14.8799695,8.82350032 14.8799695,9.00629798 L14.8799695,9.6948597 L14.7078291,9.6948597 L14.7078291,9.05671053 C14.7078291,8.90260309 14.7016813,8.79972972 14.6893855,8.74808733 C14.6680727,8.65955752 14.6293415,8.59295623 14.5731907,8.54828147 C14.5170398,8.50360671 14.443471,8.48126966 14.352482,8.48126966 C14.2483775,8.48126966 14.1551357,8.5156974 14.0727538,8.58455392 C13.9903719,8.65341044 13.9360663,8.73866008 13.9098352,8.84030542 C13.8934408,8.90588305 13.8852437,9.02719986 13.8852437,9.20425947 L13.8852437,9.6948597 L13.7131033,9.6948597 L13.7131033,7.84066134 Z M16.3783753,9.2509833 L16.523465,9.32721692 C16.4759213,9.42066505 16.4210008,9.4960782 16.3587021,9.55345864 C16.2964033,9.61083907 16.2263183,9.65448852 16.1484448,9.68440832 C16.0705714,9.71432812 15.9824528,9.72928779 15.8840863,9.72928779 C15.6660407,9.72928779 15.4955414,9.65776826 15.3725833,9.51472704 C15.2496252,9.37168582 15.1881471,9.20999839 15.1881471,9.02965989 C15.1881471,8.85997776 15.2401986,8.70874161 15.3443031,8.5759469 C15.4762781,8.40708449 15.6529252,8.32265455 15.8742497,8.32265455 C16.102132,8.32265455 16.2841072,8.40913376 16.4201808,8.58209477 C16.5169078,8.70423311 16.5660903,8.85669883 16.5677297,9.03949649 L15.3652059,9.03949649 C15.3684847,9.19524337 15.4180771,9.32291292 15.5139844,9.42250895 C15.6098917,9.52210498 15.7283395,9.57190225 15.8693314,9.57190225 C15.9373682,9.57190225 16.0035596,9.56001648 16.0679077,9.53624459 C16.1322557,9.5124727 16.1869713,9.48091394 16.2320559,9.44156735 C16.2771405,9.40222077 16.3259131,9.33869339 16.3783753,9.2509833 Z M16.3783753,8.89071797 C16.3554231,8.79890928 16.32202,8.7255454 16.2781649,8.67062413 C16.2343099,8.61570286 16.1763155,8.57143862 16.1041801,8.53783009 C16.0320447,8.50422155 15.9562217,8.48741753 15.8767089,8.48741753 C15.7455536,8.48741753 15.6328437,8.5296325 15.5385759,8.61406371 C15.4697193,8.67554274 15.4176679,8.76775991 15.3824199,8.89071797 L16.3783753,8.89071797 Z M17.6218135,9.6948597 L17.6218135,7.88615559 L17.6611599,7.88615559 L18.8636837,9.2706565 L18.8636837,7.88615559 L19.041972,7.88615559 L19.041972,9.6948597 L19.0013961,9.6948597 L17.8087088,8.32757284 L17.8087088,9.6948597 L17.6218135,9.6948597 Z M20.5846425,9.2509833 L20.7297323,9.32721692 C20.6821885,9.42066505 20.627268,9.4960782 20.5649693,9.55345864 C20.5026705,9.61083907 20.4325855,9.65448852 20.354712,9.68440832 C20.2768386,9.71432812 20.18872,9.72928779 20.0903535,9.72928779 C19.8723079,9.72928779 19.7018086,9.65776826 19.5788505,9.51472704 C19.4558925,9.37168582 19.3944143,9.20999839 19.3944143,9.02965989 C19.3944143,8.85997776 19.4464658,8.70874161 19.5505703,8.5759469 C19.6825453,8.40708449 19.8591924,8.32265455 20.0805169,8.32265455 C20.3083992,8.32265455 20.4903744,8.40913376 20.626448,8.58209477 C20.723175,8.70423311 20.7723575,8.85669883 20.773997,9.03949649 L19.5714731,9.03949649 C19.574752,9.19524337 19.6243443,9.32291292 19.7202516,9.42250895 C19.8161589,9.52210498 19.9346067,9.57190225 20.0755986,9.57190225 C20.1436354,9.57190225 20.2098269,9.56001648 20.2741749,9.53624459 C20.338523,9.5124727 20.3932385,9.48091394 20.4383231,9.44156735 C20.4834077,9.40222077 20.5321804,9.33869339 20.5846425,9.2509833 Z M20.5846425,8.89071797 C20.5616903,8.79890928 20.5282872,8.7255454 20.4844322,8.67062413 C20.4405771,8.61570286 20.3825828,8.57143862 20.3104474,8.53783009 C20.238312,8.50422155 20.162489,8.48741753 20.0829761,8.48741753 C19.9518208,8.48741753 19.8391109,8.5296325 19.7448431,8.61406371 C19.6759866,8.67554274 19.6239351,8.76775991 19.5886871,8.89071797 L20.5846425,8.89071797 Z M20.9456918,8.35708263 L21.1522603,8.35708263 L21.5063778,8.85260116 L21.8604952,8.35708263 L22.0670638,8.35708263 L21.609662,8.99277266 L22.1248538,9.6948597 L21.9158261,9.6948597 L21.5063778,9.13294415 L21.1030773,9.6948597 L20.8977384,9.6948597 L21.4043231,8.99277266 L20.9456918,8.35708263 Z M22.460082,7.86033453 L22.633452,7.86033453 L22.633452,8.35708263 L22.9064176,8.35708263 L22.9064176,8.50463157 L22.633452,8.50463157 L22.633452,9.6948597 L22.460082,9.6948597 L22.460082,8.50463157 L22.2252333,8.50463157 L22.2252333,8.35708263 L22.460082,8.35708263 L22.460082,7.86033453 Z M23.8953339,7.88615559 L24.0773109,7.88615559 L24.0773109,9.52026012 L24.7720205,9.52026012 L24.7720205,9.6948597 L23.8953339,9.6948597 L23.8953339,7.88615559 Z M26.1597645,9.2509833 L26.3048543,9.32721692 C26.2573105,9.42066505 26.2023901,9.4960782 26.1400913,9.55345864 C26.0777926,9.61083907 26.0077075,9.65448852 25.9298341,9.68440832 C25.8519607,9.71432812 25.763842,9.72928779 25.6654756,9.72928779 C25.4474299,9.72928779 25.2769306,9.65776826 25.1539726,9.51472704 C25.0310145,9.37168582 24.9695364,9.20999839 24.9695364,9.02965989 C24.9695364,8.85997776 25.0215879,8.70874161 25.1256924,8.5759469 C25.2576674,8.40708449 25.4343145,8.32265455 25.655639,8.32265455 C25.8835213,8.32265455 26.0654965,8.40913376 26.2015701,8.58209477 C26.2982971,8.70423311 26.3474796,8.85669883 26.349119,9.03949649 L25.1465951,9.03949649 C25.149874,9.19524337 25.1994664,9.32291292 25.2953736,9.42250895 C25.3912809,9.52210498 25.5097288,9.57190225 25.6507207,9.57190225 C25.7187575,9.57190225 25.7849489,9.56001648 25.849297,9.53624459 C25.913645,9.5124727 25.9683605,9.48091394 26.0134452,9.44156735 C26.0585298,9.40222077 26.1073024,9.33869339 26.1597645,9.2509833 Z M26.1597645,8.89071797 C26.1368124,8.79890928 26.1034093,8.7255454 26.0595542,8.67062413 C26.0156992,8.61570286 25.9577048,8.57143862 25.8855694,8.53783009 C25.813434,8.50422155 25.737611,8.48741753 25.6580981,8.48741753 C25.5269429,8.48741753 25.414233,8.5296325 25.3199651,8.61406371 C25.2511086,8.67554274 25.1990572,8.76775991 25.1638092,8.89071797 L26.1597645,8.89071797 Z M26.5466349,8.35708263 L26.7298415,8.35708263 L27.1774066,9.33090565 L27.621283,8.35708263 L27.8057192,8.35708263 L27.1933911,9.6948597 L27.1626517,9.6948597 L26.5466349,8.35708263 Z M29.1983816,9.2509833 L29.3434713,9.32721692 C29.2959276,9.42066505 29.2410071,9.4960782 29.1787084,9.55345864 C29.1164096,9.61083907 29.0463246,9.65448852 28.9684511,9.68440832 C28.8905777,9.71432812 28.8024591,9.72928779 28.7040926,9.72928779 C28.486047,9.72928779 28.3155477,9.65776826 28.1925896,9.51472704 C28.0696315,9.37168582 28.0081534,9.20999839 28.0081534,9.02965989 C28.0081534,8.85997776 28.0602049,8.70874161 28.1643094,8.5759469 C28.2962844,8.40708449 28.4729315,8.32265455 28.694256,8.32265455 C28.9221383,8.32265455 29.1041135,8.40913376 29.2401871,8.58209477 C29.3369141,8.70423311 29.3860966,8.85669883 29.387736,9.03949649 L28.1852122,9.03949649 C28.188491,9.19524337 28.2380834,9.32291292 28.3339907,9.42250895 C28.429898,9.52210498 28.5483458,9.57190225 28.6893377,9.57190225 C28.7573745,9.57190225 28.8235659,9.56001648 28.887914,9.53624459 C28.952262,9.5124727 29.0069776,9.48091394 29.0520622,9.44156735 C29.0971468,9.40222077 29.1459194,9.33869339 29.1983816,9.2509833 Z M29.1983816,8.89071797 C29.1754294,8.79890928 29.1420263,8.7255454 29.0981712,8.67062413 C29.0543162,8.61570286 28.9963218,8.57143862 28.9241864,8.53783009 C28.852051,8.50422155 28.776228,8.48741753 28.6967152,8.48741753 C28.5655599,8.48741753 28.45285,8.5296325 28.3585822,8.61406371 C28.2897256,8.67554274 28.2376742,8.76775991 28.2024262,8.89071797 L29.1983816,8.89071797 Z M29.686077,7.84066134 L29.8582175,7.84066134 L29.8582175,9.6948597 L29.686077,9.6948597 L29.686077,7.84066134 Z M31.5529096,8.32265455 C31.7586594,8.32265455 31.9291587,8.39724799 32.0644126,8.54643711 C32.1873706,8.6825107 32.2488487,8.84358335 32.2488487,9.02965989 C32.2488487,9.21655615 32.1838869,9.379883 32.0539612,9.51964534 C31.9240355,9.65940767 31.7570199,9.72928779 31.5529096,9.72928779 C31.3479794,9.72928779 31.1805541,9.65940767 31.0506284,9.51964534 C30.9207027,9.379883 30.8557408,9.21655615 30.8557408,9.02965989 C30.8557408,8.84440307 30.9172189,8.68374028 31.040177,8.54766668 C31.1754309,8.39765784 31.34634,8.32265455 31.5529096,8.32265455 Z M31.5529096,8.49110626 C31.4102782,8.49110626 31.2877318,8.54397743 31.1852668,8.64972137 C31.0828017,8.7554653 31.03157,8.88333978 31.03157,9.03334862 C31.03157,9.13007563 31.0549316,9.22024352 31.1016557,9.30385501 C31.1483798,9.38746649 31.2114973,9.45201851 31.2910102,9.49751299 C31.3705231,9.54300748 31.457822,9.56575438 31.5529096,9.56575438 C31.6479971,9.56575438 31.735296,9.54300748 31.8148089,9.49751299 C31.8943218,9.45201851 31.9574393,9.38746649 32.0041634,9.30385501 C32.0508875,9.22024352 32.0742492,9.13007563 32.0742492,9.03334862 C32.0742492,8.88333978 32.0228125,8.7554653 31.9199376,8.64972137 C31.8170626,8.54397743 31.6947212,8.49110626 31.5529096,8.49110626 Z M33.1226306,7.84066134 L33.1226306,8.00911305 C33.0595122,7.98206227 33.0054114,7.96853709 32.9603268,7.96853709 C32.9267183,7.96853709 32.8988482,7.97529968 32.8767157,7.98882507 C32.8545833,8.00235045 32.8406482,8.01792491 32.8349102,8.0355489 C32.8291721,8.05317289 32.8263032,8.10010118 32.8263032,8.17633518 L32.8263032,8.35708263 L33.1054166,8.35708263 L33.1054166,8.50463157 L32.8250736,8.50463157 L32.8250736,9.6948597 L32.6529332,9.6948597 L32.6529332,8.50463157 L32.477104,8.50463157 L32.477104,8.35708263 L32.6529332,8.35708263 L32.6529332,8.14805497 C32.6529332,8.05214767 32.661745,7.98370204 32.679369,7.94271602 C32.696993,7.90173 32.7269124,7.86873675 32.769128,7.84373527 C32.8113436,7.8187338 32.8623704,7.80623325 32.92221,7.80623325 C32.977951,7.80623325 33.0447572,7.81770916 33.1226306,7.84066134 Z M34.0685118,7.88615559 L34.2492593,7.88615559 L34.2492593,9.6948597 L34.0685118,9.6948597 L34.0685118,7.88615559 Z M34.6385888,8.35708263 L34.8107292,8.35708263 L34.8107292,8.59684966 C34.8795858,8.50504097 34.9558186,8.43639042 35.0394301,8.39089593 C35.1230416,8.34540145 35.2140292,8.32265455 35.3123956,8.32265455 C35.4124015,8.32265455 35.5011349,8.3480655 35.5785985,8.39888817 C35.6560621,8.44971083 35.7132368,8.51815646 35.7501242,8.60422711 C35.7870116,8.69029776 35.805455,8.82432004 35.805455,9.00629798 L35.805455,9.6948597 L35.6345442,9.6948597 L35.6345442,9.05671053 C35.6345442,8.90260309 35.6279865,8.79972972 35.614871,8.74808733 C35.594378,8.65955752 35.5558517,8.59295623 35.499291,8.54828147 C35.4427303,8.50360671 35.3689565,8.48126966 35.2779676,8.48126966 C35.1738631,8.48126966 35.0806213,8.5156974 34.9982394,8.58455392 C34.9158575,8.65341044 34.8615518,8.73866008 34.8353207,8.84030542 C34.8189263,8.90670277 34.8107292,9.02801958 34.8107292,9.20425947 L34.8107292,9.6948597 L34.6385888,9.6948597 L34.6385888,8.35708263 Z M36.1775705,8.35708263 L36.3497109,8.35708263 L36.3497109,8.59684966 C36.4185675,8.50504097 36.4948003,8.43639042 36.5784118,8.39089593 C36.6620233,8.34540145 36.7530109,8.32265455 36.8513773,8.32265455 C36.9513832,8.32265455 37.0401166,8.3480655 37.1175802,8.39888817 C37.1950438,8.44971083 37.2522185,8.51815646 37.2891059,8.60422711 C37.3259933,8.69029776 37.3444367,8.82432004 37.3444367,9.00629798 L37.3444367,9.6948597 L37.1735259,9.6948597 L37.1735259,9.05671053 C37.1735259,8.90260309 37.1669682,8.79972972 37.1538527,8.74808733 C37.1333597,8.65955752 37.0948334,8.59295623 37.0382727,8.54828147 C36.981712,8.50360671 36.9079382,8.48126966 36.8169493,8.48126966 C36.7128448,8.48126966 36.619603,8.5156974 36.5372211,8.58455392 C36.4548392,8.65341044 36.4005335,8.73866008 36.3743024,8.84030542 C36.357908,8.90670277 36.3497109,9.02801958 36.3497109,9.20425947 L36.3497109,9.6948597 L36.1775705,9.6948597 L36.1775705,8.35708263 Z M38.3497831,8.32265455 C38.5555329,8.32265455 38.7260322,8.39724799 38.8612861,8.54643711 C38.9842442,8.6825107 39.0457223,8.84358335 39.0457223,9.02965989 C39.0457223,9.21655615 38.9807604,9.379883 38.8508347,9.51964534 C38.720909,9.65940767 38.5538935,9.72928779 38.3497831,9.72928779 C38.144853,9.72928779 37.9774276,9.65940767 37.8475019,9.51964534 C37.7175762,9.379883 37.6526143,9.21655615 37.6526143,9.02965989 C37.6526143,8.84440307 37.7140925,8.68374028 37.8370505,8.54766668 C37.9723044,8.39765784 38.1432135,8.32265455 38.3497831,8.32265455 Z M38.3497831,8.49110626 C38.2071517,8.49110626 38.0846054,8.54397743 37.9821403,8.64972137 C37.8796753,8.7554653 37.8284435,8.88333978 37.8284435,9.03334862 C37.8284435,9.13007563 37.8518052,9.22024352 37.8985292,9.30385501 C37.9452533,9.38746649 38.0083708,9.45201851 38.0878837,9.49751299 C38.1673966,9.54300748 38.2546955,9.56575438 38.3497831,9.56575438 C38.4448707,9.56575438 38.5321696,9.54300748 38.6116825,9.49751299 C38.6911953,9.45201851 38.7543129,9.38746649 38.8010369,9.30385501 C38.847761,9.22024352 38.8711227,9.13007563 38.8711227,9.03334862 C38.8711227,8.88333978 38.819686,8.7554653 38.7168111,8.64972137 C38.6139362,8.54397743 38.4915947,8.49110626 38.3497831,8.49110626 Z M39.2420086,8.35708263 L39.4252152,8.35708263 L39.8727803,9.33090565 L40.3166567,8.35708263 L40.5010929,8.35708263 L39.8887648,9.6948597 L39.8580254,9.6948597 L39.2420086,8.35708263 Z M42.1003238,8.35708263 L42.1003238,9.6948597 L41.9306425,9.6948597 L41.9306425,9.46492927 C41.8585071,9.55263936 41.7775609,9.61862586 41.6878015,9.66289077 C41.5980421,9.70715567 41.4998821,9.72928779 41.3933184,9.72928779 C41.203963,9.72928779 41.0422756,9.66063723 40.9082513,9.52333406 C40.774227,9.38603089 40.7072158,9.21901535 40.7072158,9.02228245 C40.7072158,8.82964814 40.7748418,8.6648868 40.9100956,8.52799349 C41.0453495,8.39110018 41.2080616,8.32265455 41.3982367,8.32265455 C41.5080793,8.32265455 41.6074689,8.34601623 41.6964085,8.39274029 C41.7853482,8.43946436 41.8634254,8.50954941 41.9306425,8.60299754 L41.9306425,8.35708263 L42.1003238,8.35708263 Z M41.411762,8.48864711 C41.3158547,8.48864711 41.2273263,8.51221372 41.1461739,8.55934764 C41.0650216,8.60648157 41.0004696,8.672673 40.952516,8.75792392 C40.9045623,8.84317485 40.8805858,8.93334275 40.8805858,9.02843032 C40.8805858,9.12269817 40.9047672,9.21286606 40.9531307,9.29893671 C41.0014942,9.38500736 41.0664561,9.4520185 41.1480183,9.49997214 C41.2295805,9.54792579 41.3170843,9.57190225 41.4105325,9.57190225 C41.5048003,9.57190225 41.5941485,9.54813072 41.6785797,9.50058693 C41.7630109,9.45304315 41.8279728,9.38869606 41.8734673,9.30754373 C41.9189617,9.22639141 41.9417086,9.13499395 41.9417086,9.03334862 C41.9417086,8.87842145 41.8906818,8.74890757 41.7886266,8.64480307 C41.6865714,8.54069857 41.5609512,8.48864711 41.411762,8.48864711 Z M42.640891,7.86033453 L42.814261,7.86033453 L42.814261,8.35708263 L43.0872265,8.35708263 L43.0872265,8.50463157 L42.814261,8.50463157 L42.814261,9.6948597 L42.640891,9.6948597 L42.640891,8.50463157 L42.4060422,8.50463157 L42.4060422,8.35708263 L42.640891,8.35708263 L42.640891,7.86033453 Z M43.4076999,7.80623325 C43.4470464,7.80623325 43.4806545,7.82016829 43.508525,7.84803878 C43.5363955,7.87590928 43.5503305,7.90951731 43.5503305,7.94886389 C43.5503305,7.98739076 43.5363955,8.02058894 43.508525,8.04845943 C43.4806545,8.07632993 43.4470464,8.09026496 43.4076999,8.09026496 C43.369173,8.09026496 43.3359748,8.07632993 43.3081043,8.04845943 C43.2802338,8.02058894 43.2662988,7.98739076 43.2662988,7.94886389 C43.2662988,7.90951731 43.2802338,7.87590928 43.3081043,7.84803878 C43.3359748,7.82016829 43.369173,7.80623325 43.4076999,7.80623325 Z M43.3216297,8.35708263 L43.4949997,8.35708263 L43.4949997,9.6948597 L43.3216297,9.6948597 L43.3216297,8.35708263 Z M44.4880503,8.32265455 C44.6938001,8.32265455 44.8642994,8.39724799 44.9995533,8.54643711 C45.1225113,8.6825107 45.1839895,8.84358335 45.1839895,9.02965989 C45.1839895,9.21655615 45.1190276,9.379883 44.9891019,9.51964534 C44.8591762,9.65940767 44.6921607,9.72928779 44.4880503,9.72928779 C44.2831202,9.72928779 44.1156948,9.65940767 43.9857691,9.51964534 C43.8558434,9.379883 43.7908815,9.21655615 43.7908815,9.02965989 C43.7908815,8.84440307 43.8523596,8.68374028 43.9753177,8.54766668 C44.1105716,8.39765784 44.2814807,8.32265455 44.4880503,8.32265455 Z M44.4880503,8.49110626 C44.3454189,8.49110626 44.2228726,8.54397743 44.1204075,8.64972137 C44.0179424,8.7554653 43.9667107,8.88333978 43.9667107,9.03334862 C43.9667107,9.13007563 43.9900724,9.22024352 44.0367964,9.30385501 C44.0835205,9.38746649 44.146638,9.45201851 44.2261509,9.49751299 C44.3056638,9.54300748 44.3929627,9.56575438 44.4880503,9.56575438 C44.5831378,9.56575438 44.6704368,9.54300748 44.7499496,9.49751299 C44.8294625,9.45201851 44.8925801,9.38746649 44.9393041,9.30385501 C44.9860282,9.22024352 45.0093899,9.13007563 45.0093899,9.03334862 C45.0093899,8.88333978 44.9579532,8.7554653 44.8550783,8.64972137 C44.7522034,8.54397743 44.6298619,8.49110626 44.4880503,8.49110626 Z M45.506922,8.35708263 L45.6790624,8.35708263 L45.6790624,8.59684966 C45.7479189,8.50504097 45.8241518,8.43639042 45.9077633,8.39089593 C45.9913747,8.34540145 46.0823623,8.32265455 46.1807288,8.32265455 C46.2807347,8.32265455 46.3694681,8.3480655 46.4469317,8.39888817 C46.5243953,8.44971083 46.5815699,8.51815646 46.6184573,8.60422711 C46.6553447,8.69029776 46.6737882,8.82432004 46.6737882,9.00629798 L46.6737882,9.6948597 L46.5028773,9.6948597 L46.5028773,9.05671053 C46.5028773,8.90260309 46.4963197,8.79972972 46.4832041,8.74808733 C46.4627111,8.65955752 46.4241848,8.59295623 46.3676241,8.54828147 C46.3110634,8.50360671 46.2372897,8.48126966 46.1463007,8.48126966 C46.0421962,8.48126966 45.9489544,8.5156974 45.8665725,8.58455392 C45.7841906,8.65341044 45.7298849,8.73866008 45.7036539,8.84030542 C45.6872595,8.90670277 45.6790624,9.02801958 45.6790624,9.20425947 L45.6790624,9.6948597 L45.506922,9.6948597 L45.506922,8.35708263 Z" id="The-Next-Level-of-Innovation" fill="#9D9EA2"></path>
        </g>
    </g>
</svg>